<?xml version="1.0" standalone="no"?>
<!DOCTYPE svg PUBLIC "-//W3C//DTD SVG 1.1//EN" "http://www.w3.org/Graphics/SVG/1.1/DTD/svg11.dtd" >
<svg xmlns="http://www.w3.org/2000/svg" xmlns:xlink="http://www.w3.org/1999/xlink" version="1.1">
<metadata>
Created by FontForge 20190801 at Tue Jul  2 14:59:45 2019
 By Jimmy Wärting
Copyright (c) 2019 by Art. Lebedev Studio. All rights reserved.
</metadata>
<defs>
<font id="ALSHauss-Book" horiz-adv-x="0" >
  <font-face 
    font-family="ALS Hauss Book"
    font-weight="350"
    font-stretch="normal"
    units-per-em="1000"
    panose-1="2 0 0 0 0 0 0 0 0 0"
    ascent="800"
    descent="-200"
    x-height="504"
    cap-height="704"
    bbox="-163 -250 1188 953"
    underline-thickness="50"
    underline-position="-200"
    unicode-range="U+000D-277E"
  />
<missing-glyph horiz-adv-x="612" 
d="M54 704h505v-704h-505v704zM430 576h-248v-448h248v448z" />
    <glyph glyph-name=".notdef" horiz-adv-x="612" 
d="M54 704h505v-704h-505v704zM430 576h-248v-448h248v448z" />
    <glyph glyph-name="uni0000" 
 />
    <glyph glyph-name="uni0000" 
 />
    <glyph glyph-name="uni000D" unicode="&#xd;" horiz-adv-x="220" 
 />
    <glyph glyph-name="space" unicode=" " horiz-adv-x="220" 
 />
    <glyph glyph-name="exclam" unicode="!" horiz-adv-x="292" 
d="M114 199l-4 505h71l-4 -505h-63zM146 91q21 0 36 -14.5t15 -36.5q0 -21 -15 -36t-36 -15t-36 15t-15 36q0 22 15 36.5t36 14.5z" />
    <glyph glyph-name="quotedbl" unicode="&#x22;" horiz-adv-x="390" 
d="M245 450v254h65l-4 -254h-61zM80 450v254h65l-4 -254h-61z" />
    <glyph glyph-name="numbersign" unicode="#" horiz-adv-x="716" 
d="M664 508v-58h-132l-34 -196h121v-58h-131l-34 -196h-60l33 196h-191l-34 -196h-61l34 196h-122v58h132l34 196h-122v58h132l34 196h61l-34 -196h191l34 196h61l-34 -196h122zM280 450l-34 -196h191l34 196h-191z" />
    <glyph glyph-name="dollar" unicode="$" horiz-adv-x="591" 
d="M52 190h68q28 -104 147 -120v260l-41 7q-77 13 -120 57.5t-43 111.5q0 81 59 132.5t145 57.5v90h58v-91q79 -9 133.5 -53.5t68.5 -121.5h-67q-24 98 -135 113v-247l42 -7q78 -13 125 -56t47 -120q0 -86 -60 -138.5t-154 -57.5v-95h-58v97q-87 9 -144.5 55t-70.5 126z
M353 316l-28 4v-251q65 5 105.5 39.5t40.5 90.5q0 98 -118 117zM131 510q0 -44 28 -72.5t79 -36.5l29 -5v239q-58 -6 -97 -38.5t-39 -86.5z" />
    <glyph glyph-name="percent" unicode="%" horiz-adv-x="850" 
d="M139 0l498 704h73l-498 -704h-73zM202 658q-45 0 -71 -33.5t-26 -85.5t26 -85.5t71 -33.5t71.5 33.5t26.5 85.5t-26.5 85.5t-71.5 33.5zM43 539q0 76 44.5 125.5t114.5 49.5t115 -50t45 -125q0 -76 -44.5 -126t-115.5 -50q-70 0 -114.5 50t-44.5 126zM648 285
q-45 0 -71.5 -33.5t-26.5 -85.5t26.5 -85.5t71.5 -33.5t71 33.5t26 85.5t-26 85.5t-71 33.5zM488 166q0 75 45 125t115 50t114.5 -49.5t44.5 -125.5t-44.5 -126t-114.5 -50t-115 50t-45 126z" />
    <glyph glyph-name="ampersand" unicode="&#x26;" horiz-adv-x="716" 
d="M683 313l-131 -166l137 -147h-85l-94 101l-8 -8q-99 -103 -220 -103q-100 0 -162 57t-62 143q0 137 175 206l-16 17q-25 26 -39 43t-26 44t-12 56q0 67 50 112.5t126 45.5q74 0 121.5 -44.5t47.5 -113.5q0 -112 -148 -178l174 -187l94 122h78zM463 138l7 7l-195 209
q-146 -54 -146 -161q0 -64 42.5 -102.5t114.5 -38.5q101 0 177 86zM206 559q0 -23 11.5 -46.5t20.5 -33.5t28 -30l31 -30q123 54 123 138q0 45 -30 72t-76 27t-77 -27.5t-31 -69.5z" />
    <glyph glyph-name="quotesingle" unicode="'" horiz-adv-x="225" 
d="M80 450v254h65l-4 -254h-61z" />
    <glyph glyph-name="parenleft" unicode="(" horiz-adv-x="329" 
d="M299 727q-148 -196 -148 -443q0 -246 148 -442h-68q-63 77 -106 193t-43 249t43 249.5t106 193.5h68z" />
    <glyph glyph-name="parenright" unicode=")" horiz-adv-x="329" 
d="M30 727h68q64 -77 107 -193.5t43 -249.5t-43 -249t-107 -193h-68q149 198 149 442q0 245 -149 443z" />
    <glyph glyph-name="asterisk" unicode="*" horiz-adv-x="423" 
d="M240 714l-2 -141l134 45l16 -51l-133 -43l83 -113l-44 -31l-83 115l-82 -115l-43 31l83 113l-134 43l17 51l133 -45l-1 141h56z" />
    <glyph glyph-name="plus" unicode="+" horiz-adv-x="613" 
d="M274 509h65v-207h200v-64h-200v-208h-65v208h-200v64h200v207z" />
    <glyph glyph-name="comma" unicode="," horiz-adv-x="252" 
d="M177 38q0 -19 -7 -36l-56 -163h-56l52 155q-37 9 -37 46q0 22 14.5 36t35.5 14q23 0 38.5 -15t15.5 -37z" />
    <glyph glyph-name="hyphen" unicode="-" horiz-adv-x="424" 
d="M58 238v64h308v-64h-308z" />
    <glyph glyph-name="period" unicode="." horiz-adv-x="252" 
d="M126 91q21 0 36 -14.5t15 -36.5q0 -21 -15 -36t-36 -15t-36 15t-15 36q0 22 15 36.5t36 14.5z" />
    <glyph glyph-name="slash" unicode="/" horiz-adv-x="352" 
d="M273 727h66l-260 -885h-66z" />
    <glyph glyph-name="zero" unicode="0" horiz-adv-x="647" 
d="M324 714q121 0 190.5 -100t69.5 -262t-69.5 -262t-190.5 -100q-122 0 -191.5 100t-69.5 262t69.5 262t191.5 100zM324 54q89 0 139.5 83t50.5 215q0 133 -50.5 215.5t-139.5 82.5q-90 0 -140 -82.5t-50 -215.5q0 -132 50 -215t140 -83z" />
    <glyph glyph-name="one" unicode="1" horiz-adv-x="438" 
d="M310 704v-704h-69v623l-184 -116v73l190 124h63z" />
    <glyph glyph-name="two" unicode="2" horiz-adv-x="603" 
d="M454 511q0 61 -43 100t-108 39q-67 0 -111 -36t-57 -96h-68q12 88 76.5 142t161.5 54q96 0 157.5 -58t61.5 -145q0 -48 -22 -93.5t-46 -72.5t-69 -69l-224 -212h379v-64h-473v60l273 261q39 38 59 60.5t36.5 57.5t16.5 72z" />
    <glyph glyph-name="three" unicode="3" horiz-adv-x="612" 
d="M70 529q15 88 80.5 136.5t155.5 48.5q100 0 160 -53.5t60 -136.5q0 -59 -31.5 -99t-76.5 -57q50 -11 92 -54.5t42 -117.5q0 -86 -67.5 -146t-171.5 -60q-101 0 -171 52t-82 140h70q11 -57 61 -92.5t122 -35.5q75 0 122 41t47 103q0 64 -47.5 99t-124.5 35h-87v63h83
q71 0 110.5 36.5t39.5 91.5q0 57 -40.5 92t-109.5 35q-66 0 -109.5 -32.5t-57.5 -88.5h-69z" />
    <glyph glyph-name="four" unicode="4" horiz-adv-x="642" 
d="M485 0h-69v172h-363v56l350 477h82v-471h104v-62h-104v-172zM132 234h284v387z" />
    <glyph glyph-name="five" unicode="5" horiz-adv-x="620" 
d="M317 54q76 0 123.5 48.5t47.5 125.5t-49 122.5t-120 45.5q-109 0 -170 -91h-69l34 399h407v-64h-348l-23 -258q66 77 180 77q93 0 161 -63t68 -167q0 -106 -69 -172.5t-172 -66.5q-100 0 -166 53t-79 131h71q12 -49 57 -84.5t116 -35.5z" />
    <glyph glyph-name="six" unicode="6" horiz-adv-x="626" 
d="M338 460q94 0 162 -64t68 -167q0 -105 -68.5 -172t-169.5 -67q-127 0 -197 91.5t-70 253.5q0 188 74.5 283.5t195.5 95.5q89 0 148.5 -49.5t72.5 -118.5h-70q-13 44 -51.5 74t-99.5 30q-92 0 -146.5 -77.5t-55.5 -236.5q27 58 82.5 91t124.5 33zM328 54q72 0 121 48.5
t49 125.5q0 76 -49.5 122.5t-121.5 46.5t-122.5 -47.5t-50.5 -120.5q0 -76 50 -125.5t124 -49.5z" />
    <glyph glyph-name="seven" unicode="7" horiz-adv-x="557" 
d="M504 645l-294 -645h-77l294 640h-384v64h461v-59z" />
    <glyph glyph-name="eight" unicode="8" horiz-adv-x="625" 
d="M63 190q0 73 45 120t95 58q-45 17 -80.5 56t-35.5 104q0 81 62 133.5t164 52.5q101 0 163.5 -52.5t62.5 -133.5q0 -65 -35.5 -104t-80.5 -56q50 -11 94.5 -57.5t44.5 -120.5q0 -89 -69.5 -144.5t-179.5 -55.5t-180 55.5t-70 144.5zM469 524q0 58 -43 93t-113 35
t-113.5 -35t-43.5 -93q0 -57 45.5 -93t111.5 -36t111 36t45 93zM492 193q0 65 -51 104t-128 39q-78 0 -129 -39t-51 -104q0 -62 49.5 -101t130.5 -39q80 0 129.5 39t49.5 101z" />
    <glyph glyph-name="nine" unicode="9" horiz-adv-x="626" 
d="M289 244q-95 0 -163 64t-68 168t68.5 171t169.5 67q127 0 197 -91.5t70 -253.5q0 -188 -74 -283.5t-195 -95.5q-89 0 -149 49.5t-72 118.5h70q13 -43 51.5 -73.5t99.5 -30.5q92 0 146 77t55 236q-28 -58 -83.5 -90.5t-122.5 -32.5zM298 650q-71 0 -120 -48t-49 -125
q0 -76 49.5 -123t120.5 -47q73 0 123 47.5t50 121.5q0 77 -49.5 125.5t-124.5 48.5z" />
    <glyph glyph-name="colon" unicode=":" horiz-adv-x="252" 
d="M126 91q21 0 36 -14.5t15 -36.5q0 -21 -15 -36t-36 -15t-36 15t-15 36q0 22 15 36.5t36 14.5zM126 489q21 0 36 -14.5t15 -36.5q0 -21 -15 -36t-36 -15t-36 15t-15 36q0 22 15 36.5t36 14.5z" />
    <glyph glyph-name="semicolon" unicode=";" horiz-adv-x="252" 
d="M177 38q0 -19 -7 -36l-56 -163h-56l52 155q-37 9 -37 46q0 22 14.5 36t35.5 14q23 0 38.5 -15t15.5 -37zM125 489q21 0 36 -14.5t15 -36.5q0 -21 -15 -36t-36 -15t-36 15t-15 36q0 22 15 36.5t36 14.5z" />
    <glyph glyph-name="less" unicode="&#x3c;" horiz-adv-x="613" 
d="M537 23l-460 219v55l460 219v-69l-375 -178l375 -177v-69z" />
    <glyph glyph-name="equal" unicode="=" horiz-adv-x="613" 
d="M86 340v62h441v-62h-441zM86 135v62h441v-62h-441z" />
    <glyph glyph-name="greater" unicode="&#x3e;" horiz-adv-x="613" 
d="M77 23v69l375 177l-375 178v69l460 -219v-55z" />
    <glyph glyph-name="question" unicode="?" horiz-adv-x="527" 
d="M403 530q0 54 -38 88t-101 34q-123 0 -157 -120h-67q14 80 73 131t152 51q94 0 151 -51t57 -130q0 -36 -8.5 -64t-29.5 -52t-32.5 -33.5t-41.5 -32.5q-4 -3 -20 -14.5t-20.5 -15t-16 -14t-15.5 -17.5t-10 -18t-8 -23.5t-2 -27.5v-22h-65v26q0 26 6 48.5t13 36t25 31
t27 24.5t35 26q31 23 47 37t31 41.5t15 60.5zM240 91q21 0 36 -14.5t15 -36.5q0 -21 -15 -36t-36 -15t-36 15t-15 36q0 22 15 36.5t36 14.5z" />
    <glyph glyph-name="at" unicode="@" horiz-adv-x="906" 
d="M471 693q170 0 277.5 -110t107.5 -274q0 -122 -46 -178t-113 -56q-42 0 -72 20.5t-43 54.5q-46 -78 -144 -78q-77 0 -130 57t-53 153q0 93 53 150t133 57q88 0 132 -69v59h63v-271q0 -35 19 -56t48 -21q89 0 89 178q0 141 -88 233.5t-233 92.5q-147 0 -246.5 -97
t-99.5 -263q0 -164 103 -256t260 -92q94 0 162 27v-59q-64 -26 -162 -26q-187 0 -307 109t-120 297q0 189 117.5 303.5t292.5 114.5zM447 130q55 0 90.5 39.5t35.5 106.5v11q0 64 -35 104t-91 40t-91 -40t-35 -109q0 -70 35 -111t91 -41z" />
    <glyph glyph-name="A" unicode="A" horiz-adv-x="656" 
d="M293 704h71l269 -704h-74l-75 199h-313l-73 -199h-75zM327 616l-132 -354h265z" />
    <glyph glyph-name="B" unicode="B" horiz-adv-x="630" 
d="M90 0v704h250q99 0 155 -49.5t56 -129.5q0 -61 -29 -102t-69 -56q48 -12 87 -55.5t39 -115.5q0 -89 -61.5 -142.5t-166.5 -53.5h-261zM349 332h-190v-269h187q75 0 118.5 36t43.5 99q0 62 -42 98t-117 36zM331 642h-172v-248h182q70 0 105 34.5t35 90.5q0 58 -39 90.5
t-111 32.5z" />
    <glyph glyph-name="C" unicode="C" horiz-adv-x="704" 
d="M584 217h70q-9 -56 -40.5 -105.5t-96 -85.5t-149.5 -36q-137 0 -225 100t-88 262q0 160 87 261t226 101q117 0 192 -64t92 -161h-70q-18 70 -72 115t-142 45q-109 0 -175.5 -82t-66.5 -215t67 -215t175 -82q92 0 147.5 48.5t68.5 113.5z" />
    <glyph glyph-name="D" unicode="D" horiz-adv-x="705" 
d="M299 704q164 0 257.5 -92.5t93.5 -259.5t-94 -259.5t-257 -92.5h-209v704h209zM290 64q140 0 214.5 74t74.5 214q0 141 -74.5 215t-214.5 74h-131v-577h131z" />
    <glyph glyph-name="E" unicode="E" horiz-adv-x="589" 
d="M527 640h-368v-246h349v-63h-349v-267h368v-64h-437v704h437v-64z" />
    <glyph glyph-name="F" unicode="F" horiz-adv-x="581" 
d="M159 0h-69v704h434v-64h-365v-256h341v-63h-341v-321z" />
    <glyph glyph-name="G" unicode="G" horiz-adv-x="722" 
d="M363 354h299v-63q0 -135 -77.5 -218t-213.5 -83q-139 0 -227.5 101t-88.5 261q0 162 87.5 262t229.5 100q114 0 188.5 -62t95.5 -157h-71q-21 71 -74.5 112.5t-138.5 41.5q-112 0 -179 -81t-67 -216q0 -133 68 -215t178 -82q103 0 162 61t59 167v9h-230v62z" />
    <glyph glyph-name="H" unicode="H" horiz-adv-x="722" 
d="M159 0h-69v704h69v-309h404v309h69v-704h-69v330h-404v-330z" />
    <glyph glyph-name="I" unicode="I" horiz-adv-x="249" 
d="M159 704v-704h-69v704h69z" />
    <glyph glyph-name="J" unicode="J" horiz-adv-x="533" 
d="M34 176h68q7 -50 41 -85.5t95 -35.5q69 0 104 45.5t35 123.5v480h69v-481q0 -111 -55 -172t-154 -61q-91 0 -145 54.5t-58 131.5z" />
    <glyph glyph-name="K" unicode="K" horiz-adv-x="614" 
d="M159 0h-69v704h69v-319l339 319h92l-357 -337l365 -367h-95l-344 343v-343z" />
    <glyph glyph-name="L" unicode="L" horiz-adv-x="565" 
d="M159 704v-640h368v-64h-437v704h69z" />
    <glyph glyph-name="M" unicode="M" horiz-adv-x="880" 
d="M90 704h82l268 -614l269 614h81v-704h-68v574l-250 -574h-63l-251 574v-574h-68v704z" />
    <glyph glyph-name="N" unicode="N" horiz-adv-x="726" 
d="M164 704l404 -590v590h68v-704h-67l-411 598v-598h-68v704h74z" />
    <glyph glyph-name="O" unicode="O" horiz-adv-x="748" 
d="M374 714q144 0 231.5 -101t87.5 -261q0 -159 -88 -260.5t-231 -101.5t-231 101.5t-88 260.5q0 160 87.5 261t231.5 101zM374 55q114 0 181.5 82t67.5 215t-67.5 215t-181.5 82q-113 0 -180.5 -82t-67.5 -215t67.5 -215t180.5 -82z" />
    <glyph glyph-name="P" unicode="P" horiz-adv-x="608" 
d="M327 704q106 0 168.5 -62t62.5 -157t-63 -157.5t-166 -62.5h-170v-265h-69v704h237zM319 641h-160v-313h161q78 0 123 43t45 114t-45 113.5t-124 42.5z" />
    <glyph glyph-name="Q" unicode="Q" horiz-adv-x="748" 
d="M374 714q144 0 231.5 -101t87.5 -261q0 -190 -119 -292l84 -126h-77l-60 90q-66 -34 -147 -34q-143 0 -231 101.5t-88 260.5q0 160 87.5 261t231.5 101zM374 55q62 0 110 24l-86 129h77l61 -92q87 81 87 236q0 133 -67.5 215t-181.5 82q-113 0 -180.5 -82t-67.5 -215
t67.5 -215t180.5 -82z" />
    <glyph glyph-name="R" unicode="R" horiz-adv-x="628" 
d="M563 490q0 -72 -43.5 -130t-116.5 -78l197 -282h-82l-191 273h-168v-273h-69v704h245q107 0 167.5 -61.5t60.5 -152.5zM327 641h-168v-304h168q79 0 122.5 43.5t43.5 109.5q0 67 -43 109t-123 42z" />
    <glyph glyph-name="S" unicode="S" horiz-adv-x="615" 
d="M52 182h70q17 -60 67.5 -94t130.5 -34q76 0 124 37t48 101q0 102 -125 122l-134 22q-81 14 -125 59t-44 116q0 92 69 147.5t168 55.5q96 0 165 -47.5t85 -137.5h-70q-17 61 -64 91t-116 30t-118 -35.5t-49 -98.5q0 -92 114 -112l135 -23q180 -30 180 -185
q0 -95 -69 -150.5t-176 -55.5q-106 0 -178.5 49.5t-87.5 142.5z" />
    <glyph glyph-name="T" unicode="T" horiz-adv-x="619" 
d="M35 640v64h550v-64h-241v-640h-69v640h-240z" />
    <glyph glyph-name="U" unicode="U" horiz-adv-x="713" 
d="M85 273v431h69v-429q0 -106 56 -163t147 -57t146.5 57t55.5 163v429h69v-431q0 -136 -75 -209.5t-196 -73.5t-196.5 73.5t-75.5 209.5z" />
    <glyph glyph-name="V" unicode="V" horiz-adv-x="653" 
d="M630 704l-268 -704h-71l-268 704h75l228 -612l229 612h75z" />
    <glyph glyph-name="W" unicode="W" horiz-adv-x="969" 
d="M938 704l-221 -704h-65l-168 587l-167 -587h-65l-221 704h73l180 -584l168 584h66l167 -582l180 582h73z" />
    <glyph glyph-name="X" unicode="X" horiz-adv-x="650" 
d="M537 0l-213 302l-211 -302h-82l249 353l-247 351h82l211 -299l210 299h81l-247 -352l249 -352h-82z" />
    <glyph glyph-name="Y" unicode="Y" horiz-adv-x="629" 
d="M349 0h-69v285l-262 419h79l217 -351l218 351h79l-262 -419v-285z" />
    <glyph glyph-name="Z" unicode="Z" horiz-adv-x="621" 
d="M61 59l413 581h-413v64h499v-59l-415 -581h415v-64h-499v59z" />
    <glyph glyph-name="bracketleft" unicode="[" horiz-adv-x="354" 
d="M324 668h-149v-767h149v-59h-216v885h216v-59z" />
    <glyph glyph-name="backslash" unicode="\" horiz-adv-x="352" 
d="M79 727l260 -885h-66l-260 885h66z" />
    <glyph glyph-name="bracketright" unicode="]" horiz-adv-x="354" 
d="M30 -158v59h149v767h-149v59h216v-885h-216z" />
    <glyph glyph-name="asciicircum" unicode="^" horiz-adv-x="433" 
d="M401 391h-66l-119 229l-117 -229h-67l156 300h58z" />
    <glyph glyph-name="underscore" unicode="_" horiz-adv-x="478" 
d="M0 -58h478v-60h-478v60z" />
    <glyph glyph-name="grave" unicode="`" horiz-adv-x="520" 
d="M177 731h73l94 -148h-69z" />
    <glyph glyph-name="a" unicode="a" horiz-adv-x="528" 
d="M389 336q0 58 -35 88.5t-92 30.5q-52 0 -85 -22t-46 -58h-65q14 61 66 100t131 39q88 0 140 -47t52 -131v-336h-63v69q-60 -79 -172 -79q-75 0 -124 41.5t-49 110.5q0 71 52 111.5t144 40.5h146v42zM228 49q69 0 115 38.5t46 101.5v47h-143q-62 0 -97 -24.5t-35 -69.5
q0 -43 32 -68t82 -25z" />
    <glyph glyph-name="b" unicode="b" horiz-adv-x="591" 
d="M317 514q94 0 160 -69.5t66 -192.5t-66 -192.5t-162 -69.5q-62 0 -107 26t-66 67v-83h-64v727h67v-304q23 40 67.5 65.5t104.5 25.5zM310 51q74 0 119.5 55.5t45.5 145.5t-45.5 145.5t-119.5 55.5q-75 0 -121.5 -53.5t-46.5 -142.5v-10q0 -87 46.5 -141.5t121.5 -54.5z
" />
    <glyph glyph-name="c" unicode="c" horiz-adv-x="538" 
d="M283 51q63 0 98.5 32t47.5 77h66q-10 -70 -67.5 -120t-145.5 -50q-102 0 -168 72.5t-66 189.5t65.5 189.5t168.5 72.5q89 0 145 -49.5t68 -117.5h-66q-14 44 -51 75t-96 31q-73 0 -119.5 -55t-46.5 -146q0 -92 47 -146.5t120 -54.5z" />
    <glyph glyph-name="d" unicode="d" horiz-adv-x="592" 
d="M275 -10q-94 0 -160.5 69t-66.5 193t66.5 193t162.5 69q59 0 103.5 -25t66.5 -63v301h67v-727h-64v85q-23 -42 -68.5 -68.5t-106.5 -26.5zM282 453q-74 0 -120 -55t-46 -146q0 -90 46 -145.5t120 -55.5q75 0 121.5 53.5t46.5 142.5v10q0 88 -46 142t-122 54z" />
    <glyph glyph-name="e" unicode="e" horiz-adv-x="545" 
d="M497 234h-379v-3q0 -80 47 -130t121 -50q55 0 90.5 23.5t46.5 54.5h67q-13 -54 -65.5 -96.5t-138.5 -42.5q-105 0 -171.5 70.5t-66.5 191.5q0 120 65 191t167 71q98 0 157.5 -65.5t59.5 -178.5v-36zM279 454q-69 0 -112.5 -44.5t-48.5 -118.5h312q-2 77 -42.5 120
t-108.5 43z" />
    <glyph glyph-name="f" unicode="f" horiz-adv-x="319" 
d="M174 0h-67v444h-90v60h90v70q0 75 39.5 114t111.5 39h33v-60h-29q-88 0 -88 -95v-68h117v-60h-117v-444z" />
    <glyph glyph-name="g" unicode="g" horiz-adv-x="591" 
d="M449 504h64v-481q0 -108 -61.5 -169.5t-165.5 -61.5q-92 0 -148.5 43t-63.5 106h66q11 -40 47.5 -64t99.5 -24q75 0 117.5 45t42.5 125v67q-24 -40 -67.5 -66t-104.5 -26q-95 0 -161 69t-66 190t66 189t163 68q61 0 106 -26t66 -66v82zM282 60q75 0 121 53.5t46 138.5v10
q0 84 -46 137.5t-121 53.5q-74 0 -120 -54.5t-46 -141.5q0 -88 46 -142.5t120 -54.5z" />
    <glyph glyph-name="h" unicode="h" horiz-adv-x="566" 
d="M305 514q80 0 134 -49.5t54 -146.5v-318h-66v309q0 72 -36.5 108t-96.5 36q-61 0 -105 -38.5t-44 -113.5v-301h-67v727h67v-288q23 33 65.5 54t94.5 21z" />
    <glyph glyph-name="i" unicode="i" horiz-adv-x="223" 
d="M145 504v-504h-67v504h67zM112 705q21 0 35.5 -14t14.5 -35t-14.5 -35t-35.5 -14t-35.5 14t-14.5 35t14.5 35t35.5 14z" />
    <glyph glyph-name="j" unicode="j" horiz-adv-x="223" 
d="M-21 -191v60h20q80 0 80 96v539h66v-542q0 -153 -136 -153h-30zM112 705q21 0 35.5 -14t14.5 -35t-14.5 -35t-35.5 -14t-35.5 14t-14.5 35t14.5 35t35.5 14z" />
    <glyph glyph-name="k" unicode="k" horiz-adv-x="495" 
d="M145 0h-67v727h67v-442l242 219h87l-258 -235l262 -269h-88l-245 248v-248z" />
    <glyph glyph-name="l" unicode="l" horiz-adv-x="223" 
d="M145 727v-727h-67v727h67z" />
    <glyph glyph-name="m" unicode="m" horiz-adv-x="864" 
d="M614 514q73 0 125 -48t52 -142v-324h-67v316q0 69 -34.5 103t-88.5 34q-55 0 -94 -37t-39 -103v-313h-67v316q0 68 -34.5 102.5t-87.5 34.5q-55 0 -94.5 -37.5t-39.5 -102.5v-313h-67v504h64v-68q20 34 61 56t89 22t89.5 -22.5t64.5 -66.5q22 39 67.5 64t100.5 25z" />
    <glyph glyph-name="n" unicode="n" horiz-adv-x="566" 
d="M78 504h64v-69q22 34 65.5 56.5t97.5 22.5q80 0 134 -49.5t54 -146.5v-318h-66v309q0 72 -36.5 108t-96.5 36q-61 0 -105 -38.5t-44 -113.5v-301h-67v504z" />
    <glyph glyph-name="o" unicode="o" horiz-adv-x="571" 
d="M286 514q107 0 172 -73t65 -189t-65 -189t-172 -73t-172.5 73t-65.5 189t65.5 189t172.5 73zM286 51q76 0 122.5 55t46.5 146t-46.5 146t-122.5 55q-77 0 -123.5 -55t-46.5 -146t46.5 -146t123.5 -55z" />
    <glyph glyph-name="p" unicode="p" horiz-adv-x="591" 
d="M317 514q94 0 160 -69.5t66 -192.5t-66 -192.5t-162 -69.5q-60 0 -104 24.5t-66 63.5v-269h-67v695h64v-85q23 42 68 68.5t107 26.5zM310 51q74 0 119.5 55.5t45.5 145.5t-45.5 145.5t-119.5 55.5q-75 0 -121.5 -53.5t-46.5 -142.5v-10q0 -87 46.5 -141.5t121.5 -54.5z
" />
    <glyph glyph-name="q" unicode="q" horiz-adv-x="592" 
d="M275 -10q-94 0 -160.5 69t-66.5 193t66.5 193t162.5 69q61 0 106.5 -26.5t66.5 -67.5v84h64v-695h-67v272q-23 -41 -67.5 -66t-104.5 -25zM282 453q-74 0 -120 -55t-46 -146q0 -90 46 -145.5t120 -55.5q75 0 121.5 53.5t46.5 142.5v10q0 88 -46 142t-122 54z" />
    <glyph glyph-name="r" unicode="r" horiz-adv-x="357" 
d="M305 506h24v-63h-24q-70 0 -115 -42t-45 -120v-281h-67v504h64v-84q51 86 163 86z" />
    <glyph glyph-name="s" unicode="s" horiz-adv-x="493" 
d="M113 140q24 -90 144 -90q56 0 89.5 23.5t33.5 65.5q0 67 -88 78l-92 12q-65 9 -103 41.5t-38 92.5q0 64 52.5 107.5t132.5 43.5q77 0 129 -37.5t62 -103.5h-65q-24 82 -126 82q-54 0 -86 -25t-32 -63q0 -64 85 -75l93 -13q143 -19 143 -136q0 -71 -54 -112t-135 -41
t-140.5 37t-70.5 113h66z" />
    <glyph glyph-name="t" unicode="t" horiz-adv-x="329" 
d="M172 151q0 -91 85 -91h34v-60h-44q-142 0 -142 148v296h-88v60h88v134h67v-134h119v-60h-119v-293z" />
    <glyph glyph-name="u" unicode="u" horiz-adv-x="566" 
d="M488 0h-64v69q-23 -34 -66 -56.5t-97 -22.5q-79 0 -133.5 49.5t-54.5 146.5v318h67v-308q0 -72 36.5 -108.5t95.5 -36.5q61 0 105.5 38.5t44.5 114.5v300h66v-504z" />
    <glyph glyph-name="v" unicode="v" horiz-adv-x="507" 
d="M489 504l-201 -504h-69l-201 504h72l163 -420l164 420h72z" />
    <glyph glyph-name="w" unicode="w" horiz-adv-x="765" 
d="M742 504l-168 -504h-65l-127 409l-127 -409h-65l-167 504h70l130 -402l126 402h67l125 -402l131 402h70z" />
    <glyph glyph-name="x" unicode="x" horiz-adv-x="510" 
d="M403 0l-150 205l-147 -205h-78l183 252l-181 252h79l147 -207l146 207h78l-183 -253l185 -251h-79z" />
    <glyph glyph-name="y" unicode="y" horiz-adv-x="513" 
d="M423 504h72l-282 -695h-72l80 197l-203 498h72l167 -417z" />
    <glyph glyph-name="z" unicode="z" horiz-adv-x="490" 
d="M52 0v53l302 391h-302v60h387v-53l-304 -391h304v-60h-387z" />
    <glyph glyph-name="braceleft" unicode="{" horiz-adv-x="364" 
d="M207 415q0 -61 -17.5 -90.5t-59.5 -40.5q41 -11 59 -41t18 -91v-137q0 -63 23.5 -88.5t74.5 -25.5h29v-59h-32q-161 0 -161 166v135q0 56 -19.5 83.5t-66.5 27.5h-30v58h30q47 0 66.5 27.5t19.5 83.5v138q0 166 161 166h32v-59h-29q-51 0 -74.5 -25.5t-23.5 -87.5v-140z
" />
    <glyph glyph-name="bar" unicode="|" horiz-adv-x="259" 
d="M98 727h63v-885h-63v885z" />
    <glyph glyph-name="braceright" unicode="}" horiz-adv-x="364" 
d="M157 415v140q0 62 -23.5 87.5t-74.5 25.5h-29v59h32q161 0 161 -166v-138q0 -56 19.5 -83.5t66.5 -27.5h30v-58h-30q-47 0 -66.5 -27.5t-19.5 -83.5v-135q0 -166 -161 -166h-32v59h29q51 0 74.5 25.5t23.5 88.5v137q0 61 18 91t59 41q-42 11 -59.5 40.5t-17.5 90.5z" />
    <glyph glyph-name="asciitilde" unicode="~" horiz-adv-x="613" 
d="M485 347h61v-27q0 -63 -36.5 -100.5t-92.5 -37.5q-35 0 -68 17t-54 38t-47.5 38t-50.5 17q-32 0 -51 -21.5t-19 -57.5v-23h-61v28q0 62 36.5 99.5t92.5 37.5q35 0 68.5 -17t54.5 -37.5t47.5 -37.5t50.5 -17q31 0 50 21t19 57v23z" />
    <glyph glyph-name="uni00A0" unicode="&#xa0;" horiz-adv-x="220" 
 />
    <glyph glyph-name="exclamdown" unicode="&#xa1;" horiz-adv-x="292" 
d="M114 305h63l4 -496h-71zM146 514q21 0 36 -14.5t15 -36.5q0 -21 -15 -36t-36 -15t-36 15t-15 36q0 22 15 36.5t36 14.5z" />
    <glyph glyph-name="cent" unicode="&#xa2;" horiz-adv-x="564" 
d="M447 452q-11 38 -44.5 68t-84.5 36v-409q55 6 87.5 37.5t41.5 70.5h67q-9 -64 -62.5 -113t-133.5 -56v-95h-56v95q-92 11 -149.5 82t-57.5 184q0 112 57 183t150 82v96h56v-95q80 -7 132.5 -55.5t63.5 -110.5h-67zM123 352q0 -86 38.5 -139t100.5 -64v406
q-63 -11 -101 -64t-38 -139z" />
    <glyph glyph-name="sterling" unicode="&#xa3;" horiz-adv-x="579" 
d="M469 313h-248q4 -30 4 -47q0 -112 -92 -202h398v-64h-484v60q111 107 111 207q0 16 -6 46h-105v61h85q-35 86 -35 139q0 89 62 145t153 56q84 0 143 -48.5t75 -128.5h-71q-13 54 -52.5 83.5t-96.5 29.5q-63 0 -103.5 -36.5t-40.5 -101.5q0 -19 4 -39.5t8 -31.5
t13.5 -35.5t12.5 -31.5h265v-61z" />
    <glyph glyph-name="currency" unicode="&#xa4;" horiz-adv-x="606" 
d="M517 352q0 -69 -42 -127l92 -91l-46 -44l-90 91q-56 -42 -128 -42q-71 0 -128 41l-90 -90l-45 44l91 91q-42 54 -42 127q0 70 42 127l-91 92l45 44l91 -92q58 42 127 42q70 0 127 -42l91 92l46 -44l-92 -92q42 -58 42 -127zM153 352q0 -65 43.5 -108.5t106.5 -43.5
t106.5 43.5t43.5 108.5q0 66 -43.5 109.5t-106.5 43.5t-106.5 -43.5t-43.5 -109.5z" />
    <glyph glyph-name="yen" unicode="&#xa5;" horiz-adv-x="593" 
d="M511 142h-180v-142h-69v142h-180v58h180v91h-180v58h148l-213 355h77l202 -347l205 347h75l-213 -355h148v-58h-180v-91h180v-58z" />
    <glyph glyph-name="brokenbar" unicode="&#xa6;" horiz-adv-x="259" 
d="M161 209v-367h-63v367h63zM98 360v367h63v-367h-63z" />
    <glyph glyph-name="section" unicode="&#xa7;" horiz-adv-x="528" 
d="M51 299q0 49 27 84t70 54q-70 41 -70 119q0 67 52 112.5t132 45.5q76 0 129.5 -39t61.5 -103h-67q-9 39 -42 61t-83 22q-51 0 -84 -26.5t-33 -68.5q0 -70 93 -88l93 -18q67 -13 107 -51.5t40 -96.5q0 -47 -25.5 -81.5t-64.5 -53.5q64 -42 64 -120q0 -71 -53 -116.5
t-134 -45.5q-83 0 -138 39.5t-66 113.5h66q20 -94 140 -94q52 0 85.5 27.5t33.5 70.5q0 77 -90 93l-103 19q-63 11 -102 46.5t-39 94.5zM320 198l13 -3q77 32 77 102q0 79 -100 98l-98 19q-2 0 -4 0.5t-4 0.5q-38 -14 -62.5 -41t-24.5 -63q0 -77 95 -94z" />
    <glyph glyph-name="dieresis" unicode="&#xa8;" horiz-adv-x="520" 
d="M161 705q20 0 34.5 -14t14.5 -35t-14.5 -35t-34.5 -14q-21 0 -35.5 14t-14.5 35t14.5 35t35.5 14zM359 705q21 0 35.5 -14t14.5 -35t-14.5 -35t-35.5 -14q-20 0 -34.5 14t-14.5 35t14.5 35t34.5 14z" />
    <glyph glyph-name="copyright" unicode="&#xa9;" horiz-adv-x="877" 
d="M439 -45q140 0 233.5 96t93.5 243q0 148 -93.5 243.5t-233.5 95.5q-141 0 -234 -95.5t-93 -243.5q0 -147 93 -243t234 -96zM439 -105q-166 0 -277.5 113.5t-111.5 285.5t111.5 285.5t277.5 113.5q165 0 276.5 -113.5t111.5 -285.5t-111.5 -285.5t-276.5 -113.5zM434 137
q50 0 78 24.5t36 59.5h62q-6 -59 -54.5 -100t-121.5 -41q-84 0 -138.5 59.5t-54.5 155.5q0 95 54.5 155.5t138.5 60.5q74 0 121 -41.5t55 -97.5h-62q-10 35 -38.5 58t-75.5 23q-57 0 -93.5 -42.5t-36.5 -115.5q0 -74 36.5 -116t93.5 -42z" />
    <glyph glyph-name="ordfeminine" unicode="&#xaa;" horiz-adv-x="376" 
d="M268 592q0 35 -22 54.5t-60 19.5q-67 0 -82 -50h-57q8 43 47.5 70.5t93.5 27.5q64 0 101 -32.5t37 -89.5v-225h-54v47q-41 -54 -119 -54q-53 0 -86.5 28t-33.5 75q0 48 37 76.5t102 28.5h96v24zM168 407q42 0 71 26t29 62v28h-92q-39 0 -61.5 -15.5t-22.5 -41.5t21 -42.5
t55 -16.5z" />
    <glyph glyph-name="guillemotleft" unicode="&#xab;" horiz-adv-x="572" 
d="M133 257l174 -207h-78l-176 207l176 207h78zM345 257l174 -207h-78l-176 207l176 207h78z" />
    <glyph glyph-name="logicalnot" unicode="&#xac;" horiz-adv-x="613" 
d="M82 379h441v-254h-65v190h-376v64z" />
    <glyph glyph-name="uni00AD" unicode="&#xad;" horiz-adv-x="424" 
d="M58 238v64h308v-64h-308z" />
    <glyph glyph-name="registered" unicode="&#xae;" horiz-adv-x="607" 
d="M304 213q-108 0 -182 74t-74 185q0 112 74 186t182 74q107 0 181 -74t74 -186q0 -111 -74 -185t-181 -74zM304 262q87 0 145.5 59.5t58.5 150.5q0 92 -58 151t-146 59t-146.5 -59t-58.5 -151q0 -91 58.5 -150.5t146.5 -59.5zM310 430h-54v-85h-50v256h104q42 0 68 -23.5
t26 -60.5q0 -49 -46 -75l63 -97h-57zM307 557h-51v-83h51q20 0 32 12t12 30t-11.5 29.5t-32.5 11.5z" />
    <glyph glyph-name="macron" unicode="&#xaf;" horiz-adv-x="520" 
d="M119 686h282v-58h-282v58z" />
    <glyph glyph-name="degree" unicode="&#xb0;" horiz-adv-x="423" 
d="M377 541q0 -70 -48.5 -116.5t-117.5 -46.5q-68 0 -116.5 47t-48.5 116q0 70 48.5 117t116.5 47q69 0 117.5 -47t48.5 -117zM106 541q0 -45 31 -75t74 -30q44 0 75 30t31 75t-31.5 75.5t-74.5 30.5t-74 -30.5t-31 -75.5z" />
    <glyph glyph-name="plusminus" unicode="&#xb1;" horiz-adv-x="613" 
d="M529 261h-192v-184h191v-60h-443v60h189v184h-191v60h191v193h63v-193h192v-60z" />
    <glyph glyph-name="twosuperior" unicode="&#xb2;" horiz-adv-x="379" 
d="M127 407h214v-53h-296v49l165 155q1 1 10 9.5t11 10.5t10 10.5t10 12t7.5 11.5t7 14l3.5 14t2 16q0 31 -23.5 51t-58.5 20q-36 0 -59.5 -19.5t-29.5 -49.5h-58q6 53 47 87.5t103 34.5q61 0 100.5 -35t39.5 -88q0 -59 -79 -133z" />
    <glyph glyph-name="threesuperior" unicode="&#xb3;" horiz-adv-x="386" 
d="M44 664q7 52 48.5 84t100.5 32q61 0 100.5 -32t39.5 -80q0 -34 -19.5 -58.5t-47.5 -35.5q32 -8 57 -35t25 -69q0 -51 -43 -87t-109 -36q-63 0 -108 33.5t-50 86.5h57q7 -30 35 -48t66 -18q40 0 65.5 21t25.5 51q0 33 -25 52t-67 19h-52v51h46q39 0 61 19t22 47
q0 29 -22.5 47.5t-58.5 18.5q-35 0 -59 -17.5t-30 -45.5h-58z" />
    <glyph glyph-name="acute" unicode="&#xb4;" horiz-adv-x="520" 
d="M344 731l-98 -148h-69l94 148h73z" />
    <glyph glyph-name="mu" unicode="&#xb5;" horiz-adv-x="574" 
d="M430 504h66v-504h-64v69q-23 -34 -66.5 -56.5t-97.5 -22.5q-75 0 -123 46v-227h-67v695h67v-308q0 -72 37 -108.5t97 -36.5q61 0 106 38.5t45 114.5v300z" />
    <glyph glyph-name="paragraph" unicode="&#xb6;" horiz-adv-x="579" 
d="M259 704h230v-805h-62v746h-160q-67 0 -108 -36t-41 -102q0 -63 41.5 -99t107.5 -36h66v-473h-62v413h-14q-89 0 -147.5 54.5t-58.5 140.5q0 89 58 143t150 54z" />
    <glyph glyph-name="periodcentered" unicode="&#xb7;" horiz-adv-x="252" 
d="M126 303q21 0 36 -14.5t15 -36.5q0 -21 -15 -36t-36 -15t-36 15t-15 36q0 22 15 36.5t36 14.5z" />
    <glyph glyph-name="cedilla" unicode="&#xb8;" horiz-adv-x="520" 
d="M282 11v-11l-20 -57q33 -2 57 -23.5t24 -58.5q0 -40 -29.5 -65.5t-84.5 -25.5h-51v50h50q55 0 55 43q0 40 -53 40h-30v17l32 91h50z" />
    <glyph glyph-name="onesuperior" unicode="&#xb9;" horiz-adv-x="281" 
d="M202 774v-420h-60v354l-107 -66v60l111 72h56z" />
    <glyph glyph-name="ordmasculine" unicode="&#xba;" horiz-adv-x="401" 
d="M200 714q74 0 121 -49t47 -128t-46.5 -128t-120.5 -49t-121 49t-47 128t46.5 128t120.5 49zM200 412q49 0 79 34.5t30 90.5t-29.5 90.5t-78.5 34.5t-79 -34.5t-30 -90.5t29.5 -90.5t78.5 -34.5z" />
    <glyph glyph-name="guillemotright" unicode="&#xbb;" horiz-adv-x="572" 
d="M227 257l-174 207h78l176 -207l-176 -207h-78zM439 257l-174 207h78l176 -207l-176 -207h-78z" />
    <glyph glyph-name="onequarter" unicode="&#xbc;" horiz-adv-x="874" 
d="M202 706v-420h-60v354l-107 -66v60l111 72h56zM119 0l499 704h71l-499 -704h-71zM841 146v-51h-61v-95h-57v95h-215v50l196 276h76v-275h61zM569 146h154v212z" />
    <glyph glyph-name="onehalf" unicode="&#xbd;" horiz-adv-x="906" 
d="M202 706v-420h-60v354l-107 -66v60l111 72h56zM119 0l499 704h71l-499 -704h-71zM654 53h214v-53h-296v49l165 155q1 1 10 9.5t11 10.5t10 10.5t10 12t7.5 11.5t7 14l3.5 14t2 16q0 31 -23.5 51t-58.5 20q-36 0 -59.5 -19.5t-29.5 -49.5h-58q6 53 47 87.5t103 34.5
q61 0 100.5 -35t39.5 -88q0 -59 -79 -133z" />
    <glyph glyph-name="threequarters" unicode="&#xbe;" horiz-adv-x="979" 
d="M44 596q7 52 48.5 84t100.5 32q61 0 100.5 -32t39.5 -80q0 -34 -19.5 -58.5t-47.5 -35.5q32 -8 57 -35t25 -69q0 -51 -43 -87t-109 -36q-63 0 -108 33.5t-50 86.5h57q7 -30 35 -48t66 -18q40 0 65.5 21t25.5 51q0 33 -25 52t-67 19h-52v51h46q39 0 61 19t22 47
q0 29 -22.5 47.5t-58.5 18.5q-35 0 -59 -17.5t-30 -45.5h-58zM224 0l499 704h71l-499 -704h-71zM946 146v-51h-61v-95h-57v95h-215v50l196 276h76v-275h61zM674 146h154v212z" />
    <glyph glyph-name="questiondown" unicode="&#xbf;" horiz-adv-x="527" 
d="M288 515q21 0 36 -14.5t15 -36.5t-15 -36.5t-36 -14.5t-36 14.5t-15 36.5t15 36.5t36 14.5zM124 -26q0 -54 38.5 -88t100.5 -34q65 0 103.5 33t53.5 87h68q-15 -80 -74.5 -131t-151.5 -51q-94 0 -150.5 51t-56.5 130q0 36 8.5 64.5t29 51.5t33.5 34t41 32q4 3 18 13
t17.5 13t14.5 12.5t14.5 14t10.5 14.5t9 18.5t4.5 20t2.5 24.5v22h65v-25q0 -33 -7 -57.5t-24.5 -44.5t-31 -31.5t-42.5 -32.5q-32 -23 -48 -37.5t-31 -42t-15 -60.5z" />
    <glyph glyph-name="Agrave" unicode="&#xc0;" horiz-adv-x="656" 
d="M293 704h71l269 -704h-74l-75 199h-313l-73 -199h-75zM327 616l-132 -354h265zM198 923h73l94 -148h-69z" />
    <glyph glyph-name="Aacute" unicode="&#xc1;" horiz-adv-x="656" 
d="M293 704h71l269 -704h-74l-75 199h-313l-73 -199h-75zM327 616l-132 -354h265zM462 923l-98 -148h-69l94 148h73z" />
    <glyph glyph-name="Acircumflex" unicode="&#xc2;" horiz-adv-x="656" 
d="M293 704h71l269 -704h-74l-75 199h-313l-73 -199h-75zM327 616l-132 -354h265zM239 775h-72l129 148h68l129 -148h-72l-91 99z" />
    <glyph glyph-name="Atilde" unicode="&#xc3;" horiz-adv-x="656" 
d="M293 704h71l269 -704h-74l-75 199h-313l-73 -199h-75zM327 616l-132 -354h265zM436 906h51v-18q0 -47 -24.5 -74.5t-64.5 -27.5q-31 0 -56 17.5t-43.5 35t-35.5 17.5t-28 -13.5t-11 -35.5v-15h-52v17q0 47 24.5 74.5t64.5 27.5q32 0 56.5 -17.5t43 -34.5t35.5 -17
q18 0 29 13t11 36v15z" />
    <glyph glyph-name="Adieresis" unicode="&#xc4;" horiz-adv-x="656" 
d="M293 704h71l269 -704h-74l-75 199h-313l-73 -199h-75zM327 616l-132 -354h265zM227 897q20 0 34.5 -14t14.5 -35t-14.5 -35t-34.5 -14q-21 0 -35.5 14t-14.5 35t14.5 35t35.5 14zM433 897q21 0 35.5 -14t14.5 -35t-14.5 -35t-35.5 -14q-20 0 -34.5 14t-14.5 35t14.5 35
t34.5 14z" />
    <glyph glyph-name="Aring" unicode="&#xc5;" horiz-adv-x="656" 
d="M293 704h71l269 -704h-74l-75 199h-313l-73 -199h-75zM327 616l-132 -354h265zM429 856q0 -41 -28.5 -68.5t-70.5 -27.5q-43 0 -71 27.5t-28 68.5t28 69t71 28q42 0 70.5 -28t28.5 -69zM279 856q0 -21 15 -35.5t36 -14.5t35.5 14.5t14.5 35.5q0 22 -14.5 36.5t-35.5 14.5
t-36 -14.5t-15 -36.5z" />
    <glyph glyph-name="AE" unicode="&#xc6;" horiz-adv-x="984" 
d="M452 704h470v-64h-363v-246h344v-63h-344v-267h363v-64h-431v199h-278l-123 -199h-77zM252 262h239v382z" />
    <glyph glyph-name="Ccedilla" unicode="&#xc7;" horiz-adv-x="704" 
d="M584 217h70q-13 -85 -80.5 -152t-180.5 -74l-17 -48q33 -2 57 -23.5t24 -58.5q0 -40 -29.5 -65.5t-84.5 -25.5h-51v50h50q55 0 55 43q0 40 -53 40h-30v17l25 72q-125 11 -204.5 109t-79.5 251q0 160 87 261t226 101q117 0 192 -64t92 -161h-70q-18 70 -72 115t-142 45
q-109 0 -175.5 -82t-66.5 -215t67 -215t175 -82q92 0 147.5 48.5t68.5 113.5z" />
    <glyph glyph-name="Egrave" unicode="&#xc8;" horiz-adv-x="589" 
d="M527 640h-368v-246h349v-63h-349v-267h368v-64h-437v704h437v-64zM180 923h73l94 -148h-69z" />
    <glyph glyph-name="Eacute" unicode="&#xc9;" horiz-adv-x="589" 
d="M527 640h-368v-246h349v-63h-349v-267h368v-64h-437v704h437v-64zM444 923l-98 -148h-69l94 148h73z" />
    <glyph glyph-name="Ecircumflex" unicode="&#xca;" horiz-adv-x="589" 
d="M527 640h-368v-246h349v-63h-349v-267h368v-64h-437v704h437v-64zM221 775h-72l129 148h68l129 -148h-72l-91 99z" />
    <glyph glyph-name="Edieresis" unicode="&#xcb;" horiz-adv-x="589" 
d="M527 640h-368v-246h349v-63h-349v-267h368v-64h-437v704h437v-64zM209 897q20 0 34.5 -14t14.5 -35t-14.5 -35t-34.5 -14q-21 0 -35.5 14t-14.5 35t14.5 35t35.5 14zM415 897q21 0 35.5 -14t14.5 -35t-14.5 -35t-35.5 -14q-20 0 -34.5 14t-14.5 35t14.5 35t34.5 14z" />
    <glyph glyph-name="Igrave" unicode="&#xcc;" horiz-adv-x="249" 
d="M159 704v-704h-69v704h69zM-7 923h73l94 -148h-69z" />
    <glyph glyph-name="Iacute" unicode="&#xcd;" horiz-adv-x="249" 
d="M159 704v-704h-69v704h69zM257 923l-98 -148h-69l94 148h73z" />
    <glyph glyph-name="Icircumflex" unicode="&#xce;" horiz-adv-x="249" 
d="M159 704v-704h-69v704h69zM39 775h-72l124 148h68l125 -148h-73l-86 99z" />
    <glyph glyph-name="Idieresis" unicode="&#xcf;" horiz-adv-x="249" 
d="M159 704v-704h-69v704h69zM26 897q20 0 34.5 -14t14.5 -35t-14.5 -35t-34.5 -14q-21 0 -35.5 14t-14.5 35t14.5 35t35.5 14zM224 897q21 0 35.5 -14t14.5 -35t-14.5 -35t-35.5 -14q-20 0 -34.5 14t-14.5 35t14.5 35t34.5 14z" />
    <glyph glyph-name="Eth" unicode="&#xd0;" horiz-adv-x="719" 
d="M313 704q164 0 257.5 -92.5t93.5 -259.5t-93.5 -259.5t-257.5 -92.5h-208v331h-84v62h84v311h208zM359 331h-185v-267h131q140 0 214.5 74t74.5 214t-75 214.5t-214 74.5h-131v-248h185v-62z" />
    <glyph glyph-name="Ntilde" unicode="&#xd1;" horiz-adv-x="726" 
d="M164 704l404 -590v590h68v-704h-67l-411 598v-598h-68v704h74zM473 906h51v-18q0 -47 -24.5 -74.5t-64.5 -27.5q-31 0 -56 17.5t-43.5 35t-35.5 17.5t-28 -13.5t-11 -35.5v-15h-52v17q0 47 24.5 74.5t64.5 27.5q32 0 56.5 -17.5t43 -34.5t35.5 -17q18 0 29 13t11 36v15z
" />
    <glyph glyph-name="Ograve" unicode="&#xd2;" horiz-adv-x="748" 
d="M374 714q144 0 231.5 -101t87.5 -261q0 -159 -88 -260.5t-231 -101.5t-231 101.5t-88 260.5q0 160 87.5 261t231.5 101zM374 55q114 0 181.5 82t67.5 215t-67.5 215t-181.5 82q-113 0 -180.5 -82t-67.5 -215t67.5 -215t180.5 -82zM242 923h73l94 -148h-69z" />
    <glyph glyph-name="Oacute" unicode="&#xd3;" horiz-adv-x="748" 
d="M374 714q144 0 231.5 -101t87.5 -261q0 -159 -88 -260.5t-231 -101.5t-231 101.5t-88 260.5q0 160 87.5 261t231.5 101zM374 55q114 0 181.5 82t67.5 215t-67.5 215t-181.5 82q-113 0 -180.5 -82t-67.5 -215t67.5 -215t180.5 -82zM506 923l-98 -148h-69l94 148h73z" />
    <glyph glyph-name="Ocircumflex" unicode="&#xd4;" horiz-adv-x="748" 
d="M374 714q144 0 231.5 -101t87.5 -261q0 -159 -88 -260.5t-231 -101.5t-231 101.5t-88 260.5q0 160 87.5 261t231.5 101zM374 55q114 0 181.5 82t67.5 215t-67.5 215t-181.5 82q-113 0 -180.5 -82t-67.5 -215t67.5 -215t180.5 -82zM283 775h-72l129 148h68l129 -148h-72
l-91 99z" />
    <glyph glyph-name="Otilde" unicode="&#xd5;" horiz-adv-x="748" 
d="M374 714q144 0 231.5 -101t87.5 -261q0 -159 -88 -260.5t-231 -101.5t-231 101.5t-88 260.5q0 160 87.5 261t231.5 101zM374 55q114 0 181.5 82t67.5 215t-67.5 215t-181.5 82q-113 0 -180.5 -82t-67.5 -215t67.5 -215t180.5 -82zM480 906h51v-18q0 -47 -24.5 -74.5
t-64.5 -27.5q-31 0 -56 17.5t-43.5 35t-35.5 17.5t-28 -13.5t-11 -35.5v-15h-52v17q0 47 24.5 74.5t64.5 27.5q32 0 56.5 -17.5t43 -34.5t35.5 -17q18 0 29 13t11 36v15z" />
    <glyph glyph-name="Odieresis" unicode="&#xd6;" horiz-adv-x="748" 
d="M374 714q144 0 231.5 -101t87.5 -261q0 -159 -88 -260.5t-231 -101.5t-231 101.5t-88 260.5q0 160 87.5 261t231.5 101zM374 55q114 0 181.5 82t67.5 215t-67.5 215t-181.5 82q-113 0 -180.5 -82t-67.5 -215t67.5 -215t180.5 -82zM271 897q20 0 34.5 -14t14.5 -35
t-14.5 -35t-34.5 -14q-21 0 -35.5 14t-14.5 35t14.5 35t35.5 14zM477 897q21 0 35.5 -14t14.5 -35t-14.5 -35t-35.5 -14q-20 0 -34.5 14t-14.5 35t14.5 35t34.5 14z" />
    <glyph glyph-name="multiply" unicode="&#xd7;" horiz-adv-x="613" 
d="M519 100l-43 -42l-170 169l-168 -169l-44 42l169 169l-169 170l43 43l169 -170l170 170l42 -43l-169 -169z" />
    <glyph glyph-name="Oslash" unicode="&#xd8;" horiz-adv-x="748" 
d="M677 740l-81 -118q97 -100 97 -270q0 -159 -88 -260.5t-231 -101.5q-101 0 -177 53l-54 -79h-72l81 117q-97 102 -97 271q0 160 87.5 261t231.5 101q101 0 177 -53l54 79h72zM125 352q0 -134 66 -214l322 469q-61 43 -139 43q-114 0 -181.5 -82.5t-67.5 -215.5zM374 55
q114 0 181.5 82t67.5 215q0 131 -66 213l-322 -468q59 -42 139 -42z" />
    <glyph glyph-name="Ugrave" unicode="&#xd9;" horiz-adv-x="713" 
d="M85 273v431h69v-429q0 -106 56 -163t147 -57t146.5 57t55.5 163v429h69v-431q0 -136 -75 -209.5t-196 -73.5t-196.5 73.5t-75.5 209.5zM225 923h73l94 -148h-69z" />
    <glyph glyph-name="Uacute" unicode="&#xda;" horiz-adv-x="713" 
d="M85 273v431h69v-429q0 -106 56 -163t147 -57t146.5 57t55.5 163v429h69v-431q0 -136 -75 -209.5t-196 -73.5t-196.5 73.5t-75.5 209.5zM489 923l-98 -148h-69l94 148h73z" />
    <glyph glyph-name="Ucircumflex" unicode="&#xdb;" horiz-adv-x="713" 
d="M85 273v431h69v-429q0 -106 56 -163t147 -57t146.5 57t55.5 163v429h69v-431q0 -136 -75 -209.5t-196 -73.5t-196.5 73.5t-75.5 209.5zM266 775h-72l129 148h68l129 -148h-72l-91 99z" />
    <glyph glyph-name="Udieresis" unicode="&#xdc;" horiz-adv-x="713" 
d="M85 273v431h69v-429q0 -106 56 -163t147 -57t146.5 57t55.5 163v429h69v-431q0 -136 -75 -209.5t-196 -73.5t-196.5 73.5t-75.5 209.5zM254 897q20 0 34.5 -14t14.5 -35t-14.5 -35t-34.5 -14q-21 0 -35.5 14t-14.5 35t14.5 35t35.5 14zM460 897q21 0 35.5 -14t14.5 -35
t-14.5 -35t-35.5 -14q-20 0 -34.5 14t-14.5 35t14.5 35t34.5 14z" />
    <glyph glyph-name="Yacute" unicode="&#xdd;" horiz-adv-x="629" 
d="M349 0h-69v285l-262 419h79l217 -351l218 351h79l-262 -419v-285zM447 923l-98 -148h-69l94 148h73z" />
    <glyph glyph-name="Thorn" unicode="&#xde;" horiz-adv-x="601" 
d="M159 0h-69v704h69v-135h165q104 0 166 -58t62 -150q0 -91 -62.5 -150t-163.5 -59h-167v-152zM317 505h-158v-290h158q75 0 119.5 39.5t44.5 106.5q0 68 -44 106t-120 38z" />
    <glyph glyph-name="germandbls" unicode="&#xdf;" horiz-adv-x="584" 
d="M78 0v499q0 105 60.5 166.5t159.5 61.5q92 0 146.5 -53.5t54.5 -129.5q0 -61 -30 -98.5t-73 -53.5q54 -12 97 -58.5t43 -126.5q0 -93 -62 -150t-169 -57h-73v60h68q77 0 122.5 40.5t45.5 107.5q0 69 -46 108.5t-122 39.5h-53v60h40q69 0 106.5 35t37.5 90t-36.5 90
t-97.5 35q-69 0 -110.5 -45t-41.5 -127v-494h-67z" />
    <glyph glyph-name="agrave" unicode="&#xe0;" horiz-adv-x="528" 
d="M389 336q0 58 -35 88.5t-92 30.5q-52 0 -85 -22t-46 -58h-65q14 61 66 100t131 39q88 0 140 -47t52 -131v-336h-63v69q-60 -79 -172 -79q-75 0 -124 41.5t-49 110.5q0 71 52 111.5t144 40.5h146v42zM228 49q69 0 115 38.5t46 101.5v47h-143q-62 0 -97 -24.5t-35 -69.5
q0 -43 32 -68t82 -25zM133 731h73l94 -148h-69z" />
    <glyph glyph-name="aacute" unicode="&#xe1;" horiz-adv-x="528" 
d="M389 336q0 58 -35 88.5t-92 30.5q-52 0 -85 -22t-46 -58h-65q14 61 66 100t131 39q88 0 140 -47t52 -131v-336h-63v69q-60 -79 -172 -79q-75 0 -124 41.5t-49 110.5q0 71 52 111.5t144 40.5h146v42zM228 49q69 0 115 38.5t46 101.5v47h-143q-62 0 -97 -24.5t-35 -69.5
q0 -43 32 -68t82 -25zM397 731l-98 -148h-69l94 148h73z" />
    <glyph glyph-name="acircumflex" unicode="&#xe2;" horiz-adv-x="528" 
d="M389 336q0 58 -35 88.5t-92 30.5q-52 0 -85 -22t-46 -58h-65q14 61 66 100t131 39q88 0 140 -47t52 -131v-336h-63v69q-60 -79 -172 -79q-75 0 -124 41.5t-49 110.5q0 71 52 111.5t144 40.5h146v42zM228 49q69 0 115 38.5t46 101.5v47h-143q-62 0 -97 -24.5t-35 -69.5
q0 -43 32 -68t82 -25zM179 583h-72l124 148h68l125 -148h-73l-86 99z" />
    <glyph glyph-name="atilde" unicode="&#xe3;" horiz-adv-x="528" 
d="M389 336q0 58 -35 88.5t-92 30.5q-52 0 -85 -22t-46 -58h-65q14 61 66 100t131 39q88 0 140 -47t52 -131v-336h-63v69q-60 -79 -172 -79q-75 0 -124 41.5t-49 110.5q0 71 52 111.5t144 40.5h146v42zM228 49q69 0 115 38.5t46 101.5v47h-143q-62 0 -97 -24.5t-35 -69.5
q0 -43 32 -68t82 -25zM367 714h51v-16q0 -48 -23.5 -76t-64.5 -28q-24 0 -44.5 11t-31.5 24t-25.5 24t-27.5 11q-17 0 -27.5 -13t-10.5 -36v-15h-52v16q0 48 24 75.5t64 27.5q31 0 54.5 -17.5t41 -34.5t33.5 -17q18 0 28.5 12.5t10.5 35.5v16z" />
    <glyph glyph-name="adieresis" unicode="&#xe4;" horiz-adv-x="528" 
d="M389 336q0 58 -35 88.5t-92 30.5q-52 0 -85 -22t-46 -58h-65q14 61 66 100t131 39q88 0 140 -47t52 -131v-336h-63v69q-60 -79 -172 -79q-75 0 -124 41.5t-49 110.5q0 71 52 111.5t144 40.5h146v42zM228 49q69 0 115 38.5t46 101.5v47h-143q-62 0 -97 -24.5t-35 -69.5
q0 -43 32 -68t82 -25zM166 705q20 0 34.5 -14t14.5 -35t-14.5 -35t-34.5 -14q-21 0 -35.5 14t-14.5 35t14.5 35t35.5 14zM364 705q21 0 35.5 -14t14.5 -35t-14.5 -35t-35.5 -14q-20 0 -34.5 14t-14.5 35t14.5 35t34.5 14z" />
    <glyph glyph-name="aring" unicode="&#xe5;" horiz-adv-x="528" 
d="M389 336q0 58 -35 88.5t-92 30.5q-52 0 -85 -22t-46 -58h-65q14 61 66 100t131 39q88 0 140 -47t52 -131v-336h-63v69q-60 -79 -172 -79q-75 0 -124 41.5t-49 110.5q0 71 52 111.5t144 40.5h146v42zM228 49q69 0 115 38.5t46 101.5v47h-143q-62 0 -97 -24.5t-35 -69.5
q0 -43 32 -68t82 -25zM364 664q0 -41 -28 -68.5t-70 -27.5q-43 0 -71.5 27.5t-28.5 68.5t28.5 69t71.5 28q42 0 70 -28t28 -69zM215 664q0 -21 15 -35.5t36 -14.5t35.5 14.5t14.5 35.5q0 22 -14.5 36.5t-35.5 14.5t-36 -14.5t-15 -36.5z" />
    <glyph glyph-name="ae" unicode="&#xe6;" horiz-adv-x="882" 
d="M262 514q129 0 171 -98q62 98 185 98q98 0 157 -65.5t59 -177.5v-36h-379v-4q0 -80 47.5 -130t121.5 -50q54 0 89.5 23.5t46.5 54.5h67q-13 -55 -65 -97t-138 -42q-139 0 -199 113q-28 -52 -81 -82.5t-122 -30.5q-75 0 -125 41t-50 110q0 70 52 111t144 41h146v43
q0 58 -35 88.5t-92 30.5q-52 0 -85 -22t-46 -58h-65q14 61 66 100t130 39zM230 49q68 0 113.5 39.5t45.5 98.5v48h-143q-62 0 -97 -24.5t-35 -68.5q0 -43 32.5 -68t83.5 -25zM616 454q-69 0 -112 -44t-48 -118h311q-2 76 -42.5 119t-108.5 43z" />
    <glyph glyph-name="ccedilla" unicode="&#xe7;" horiz-adv-x="538" 
d="M283 51q63 0 98.5 32t47.5 77h66q-9 -65 -60 -114t-130 -55l-17 -48q33 -2 57 -23.5t24 -58.5q0 -40 -29.5 -65.5t-84.5 -25.5h-51v50h50q55 0 55 43q0 40 -53 40h-30v17l25 72q-90 11 -146.5 81.5t-56.5 178.5q0 117 65.5 189.5t168.5 72.5q89 0 145 -49.5t68 -117.5
h-66q-14 44 -51 75t-96 31q-73 0 -119.5 -55t-46.5 -146q0 -92 47 -146.5t120 -54.5z" />
    <glyph glyph-name="egrave" unicode="&#xe8;" horiz-adv-x="545" 
d="M497 234h-379v-3q0 -80 47 -130t121 -50q55 0 90.5 23.5t46.5 54.5h67q-13 -54 -65.5 -96.5t-138.5 -42.5q-105 0 -171.5 70.5t-66.5 191.5q0 120 65 191t167 71q98 0 157.5 -65.5t59.5 -178.5v-36zM279 454q-69 0 -112.5 -44.5t-48.5 -118.5h312q-2 77 -42.5 120
t-108.5 43zM148 731h73l94 -148h-69z" />
    <glyph glyph-name="eacute" unicode="&#xe9;" horiz-adv-x="545" 
d="M497 234h-379v-3q0 -80 47 -130t121 -50q55 0 90.5 23.5t46.5 54.5h67q-13 -54 -65.5 -96.5t-138.5 -42.5q-105 0 -171.5 70.5t-66.5 191.5q0 120 65 191t167 71q98 0 157.5 -65.5t59.5 -178.5v-36zM279 454q-69 0 -112.5 -44.5t-48.5 -118.5h312q-2 77 -42.5 120
t-108.5 43zM412 731l-98 -148h-69l94 148h73z" />
    <glyph glyph-name="ecircumflex" unicode="&#xea;" horiz-adv-x="545" 
d="M497 234h-379v-3q0 -80 47 -130t121 -50q55 0 90.5 23.5t46.5 54.5h67q-13 -54 -65.5 -96.5t-138.5 -42.5q-105 0 -171.5 70.5t-66.5 191.5q0 120 65 191t167 71q98 0 157.5 -65.5t59.5 -178.5v-36zM279 454q-69 0 -112.5 -44.5t-48.5 -118.5h312q-2 77 -42.5 120
t-108.5 43zM194 583h-72l124 148h68l125 -148h-73l-86 99z" />
    <glyph glyph-name="edieresis" unicode="&#xeb;" horiz-adv-x="545" 
d="M497 234h-379v-3q0 -80 47 -130t121 -50q55 0 90.5 23.5t46.5 54.5h67q-13 -54 -65.5 -96.5t-138.5 -42.5q-105 0 -171.5 70.5t-66.5 191.5q0 120 65 191t167 71q98 0 157.5 -65.5t59.5 -178.5v-36zM279 454q-69 0 -112.5 -44.5t-48.5 -118.5h312q-2 77 -42.5 120
t-108.5 43zM181 705q20 0 34.5 -14t14.5 -35t-14.5 -35t-34.5 -14q-21 0 -35.5 14t-14.5 35t14.5 35t35.5 14zM379 705q21 0 35.5 -14t14.5 -35t-14.5 -35t-35.5 -14q-20 0 -34.5 14t-14.5 35t14.5 35t34.5 14z" />
    <glyph glyph-name="igrave" unicode="&#xec;" horiz-adv-x="223" 
d="M145 504v-504h-67v504h67zM-20 731h73l94 -148h-69z" />
    <glyph glyph-name="iacute" unicode="&#xed;" horiz-adv-x="223" 
d="M145 504v-504h-67v504h67zM244 731l-98 -148h-69l94 148h73z" />
    <glyph glyph-name="icircumflex" unicode="&#xee;" horiz-adv-x="223" 
d="M145 504v-504h-67v504h67zM33 583h-70l115 148h68l115 -148h-70l-79 98z" />
    <glyph glyph-name="idieresis" unicode="&#xef;" horiz-adv-x="223" 
d="M145 504v-504h-67v504h67zM19 705q21 0 35.5 -14t14.5 -35t-14.5 -35t-35.5 -14q-20 0 -34.5 14t-14.5 35t14.5 35t34.5 14zM205 705q20 0 34.5 -14t14.5 -35t-14.5 -35t-34.5 -14q-21 0 -35.5 14t-14.5 35t14.5 35t35.5 14z" />
    <glyph glyph-name="eth" unicode="&#xf0;" horiz-adv-x="581" 
d="M275 727q57 -41 75 -56l124 50v-55l-84 -33q135 -143 135 -352q0 -136 -64.5 -213.5t-176.5 -77.5q-107 0 -171.5 74.5t-64.5 183.5q0 115 66 184.5t166 69.5q106 0 164 -75q-26 95 -110 183l-129 -51v55l88 35q-41 35 -104 78h86zM285 51q78 0 125 55t47 145
t-48.5 140.5t-123.5 50.5q-76 0 -122.5 -54.5t-46.5 -139.5t45 -141t124 -56z" />
    <glyph glyph-name="ntilde" unicode="&#xf1;" horiz-adv-x="566" 
d="M78 504h64v-69q22 34 65.5 56.5t97.5 22.5q80 0 134 -49.5t54 -146.5v-318h-66v309q0 72 -36.5 108t-96.5 36q-61 0 -105 -38.5t-44 -113.5v-301h-67v504zM391 714h51v-16q0 -48 -23.5 -76t-64.5 -28q-24 0 -44.5 11t-31.5 24t-25.5 24t-27.5 11q-17 0 -27.5 -13
t-10.5 -36v-15h-52v16q0 48 24 75.5t64 27.5q31 0 54.5 -17.5t41 -34.5t33.5 -17q18 0 28.5 12.5t10.5 35.5v16z" />
    <glyph glyph-name="ograve" unicode="&#xf2;" horiz-adv-x="571" 
d="M286 514q107 0 172 -73t65 -189t-65 -189t-172 -73t-172.5 73t-65.5 189t65.5 189t172.5 73zM286 51q76 0 122.5 55t46.5 146t-46.5 146t-122.5 55q-77 0 -123.5 -55t-46.5 -146t46.5 -146t123.5 -55zM154 731h73l94 -148h-69z" />
    <glyph glyph-name="oacute" unicode="&#xf3;" horiz-adv-x="571" 
d="M286 514q107 0 172 -73t65 -189t-65 -189t-172 -73t-172.5 73t-65.5 189t65.5 189t172.5 73zM286 51q76 0 122.5 55t46.5 146t-46.5 146t-122.5 55q-77 0 -123.5 -55t-46.5 -146t46.5 -146t123.5 -55zM418 731l-98 -148h-69l94 148h73z" />
    <glyph glyph-name="ocircumflex" unicode="&#xf4;" horiz-adv-x="571" 
d="M286 514q107 0 172 -73t65 -189t-65 -189t-172 -73t-172.5 73t-65.5 189t65.5 189t172.5 73zM286 51q76 0 122.5 55t46.5 146t-46.5 146t-122.5 55q-77 0 -123.5 -55t-46.5 -146t46.5 -146t123.5 -55zM200 583h-72l124 148h68l125 -148h-73l-86 99z" />
    <glyph glyph-name="otilde" unicode="&#xf5;" horiz-adv-x="571" 
d="M286 514q107 0 172 -73t65 -189t-65 -189t-172 -73t-172.5 73t-65.5 189t65.5 189t172.5 73zM286 51q76 0 122.5 55t46.5 146t-46.5 146t-122.5 55q-77 0 -123.5 -55t-46.5 -146t46.5 -146t123.5 -55zM388 714h51v-16q0 -48 -23.5 -76t-64.5 -28q-24 0 -44.5 11t-31.5 24
t-25.5 24t-27.5 11q-17 0 -27.5 -13t-10.5 -36v-15h-52v16q0 48 24 75.5t64 27.5q31 0 54.5 -17.5t41 -34.5t33.5 -17q18 0 28.5 12.5t10.5 35.5v16z" />
    <glyph glyph-name="odieresis" unicode="&#xf6;" horiz-adv-x="571" 
d="M286 514q107 0 172 -73t65 -189t-65 -189t-172 -73t-172.5 73t-65.5 189t65.5 189t172.5 73zM286 51q76 0 122.5 55t46.5 146t-46.5 146t-122.5 55q-77 0 -123.5 -55t-46.5 -146t46.5 -146t123.5 -55zM187 705q20 0 34.5 -14t14.5 -35t-14.5 -35t-34.5 -14
q-21 0 -35.5 14t-14.5 35t14.5 35t35.5 14zM385 705q21 0 35.5 -14t14.5 -35t-14.5 -35t-35.5 -14q-20 0 -34.5 14t-14.5 35t14.5 35t34.5 14z" />
    <glyph glyph-name="divide" unicode="&#xf7;" horiz-adv-x="613" 
d="M306 510q21 0 35.5 -14t14.5 -36q0 -21 -14.5 -35t-35.5 -14t-36 14t-15 35t15 35.5t36 14.5zM539 239h-465v62h465v-62zM306 128q21 0 35.5 -14.5t14.5 -35.5t-14.5 -35.5t-35.5 -14.5t-36 14.5t-15 35.5t15 35.5t36 14.5z" />
    <glyph glyph-name="oslash" unicode="&#xf8;" horiz-adv-x="571" 
d="M512 542l-62 -94q73 -73 73 -196q0 -116 -65 -189t-172 -73q-66 0 -120 30l-39 -58h-68l62 93q-73 75 -73 197q0 116 65.5 189t172.5 73q67 0 120 -31l39 59h67zM115 252q0 -88 43 -142l213 321q-37 23 -85 23q-77 0 -124 -55.5t-47 -146.5zM286 50q77 0 124 55.5
t47 146.5q0 86 -43 142l-214 -322q39 -22 86 -22z" />
    <glyph glyph-name="ugrave" unicode="&#xf9;" horiz-adv-x="566" 
d="M488 0h-64v69q-23 -34 -66 -56.5t-97 -22.5q-79 0 -133.5 49.5t-54.5 146.5v318h67v-308q0 -72 36.5 -108.5t95.5 -36.5q61 0 105.5 38.5t44.5 114.5v300h66v-504zM150 731h73l94 -148h-69z" />
    <glyph glyph-name="uacute" unicode="&#xfa;" horiz-adv-x="566" 
d="M488 0h-64v69q-23 -34 -66 -56.5t-97 -22.5q-79 0 -133.5 49.5t-54.5 146.5v318h67v-308q0 -72 36.5 -108.5t95.5 -36.5q61 0 105.5 38.5t44.5 114.5v300h66v-504zM414 731l-98 -148h-69l94 148h73z" />
    <glyph glyph-name="ucircumflex" unicode="&#xfb;" horiz-adv-x="566" 
d="M488 0h-64v69q-23 -34 -66 -56.5t-97 -22.5q-79 0 -133.5 49.5t-54.5 146.5v318h67v-308q0 -72 36.5 -108.5t95.5 -36.5q61 0 105.5 38.5t44.5 114.5v300h66v-504zM196 583h-72l124 148h68l125 -148h-73l-86 99z" />
    <glyph glyph-name="udieresis" unicode="&#xfc;" horiz-adv-x="566" 
d="M488 0h-64v69q-23 -34 -66 -56.5t-97 -22.5q-79 0 -133.5 49.5t-54.5 146.5v318h67v-308q0 -72 36.5 -108.5t95.5 -36.5q61 0 105.5 38.5t44.5 114.5v300h66v-504zM183 705q20 0 34.5 -14t14.5 -35t-14.5 -35t-34.5 -14q-21 0 -35.5 14t-14.5 35t14.5 35t35.5 14z
M381 705q21 0 35.5 -14t14.5 -35t-14.5 -35t-35.5 -14q-20 0 -34.5 14t-14.5 35t14.5 35t34.5 14z" />
    <glyph glyph-name="yacute" unicode="&#xfd;" horiz-adv-x="513" 
d="M423 504h72l-282 -695h-72l80 197l-203 498h72l167 -417zM389 731l-98 -148h-69l94 148h73z" />
    <glyph glyph-name="thorn" unicode="&#xfe;" horiz-adv-x="591" 
d="M317 514q94 0 160 -69.5t66 -192.5t-66 -192.5t-162 -69.5q-60 0 -104 24.5t-66 63.5v-269h-67v918h67v-303q54 90 172 90zM310 51q74 0 119.5 55.5t45.5 145.5t-45.5 145.5t-119.5 55.5q-75 0 -121.5 -53.5t-46.5 -142.5v-10q0 -87 46.5 -141.5t121.5 -54.5z" />
    <glyph glyph-name="ydieresis" unicode="&#xff;" horiz-adv-x="513" 
d="M423 504h72l-282 -695h-72l80 197l-203 498h72l167 -417zM158 705q20 0 34.5 -14t14.5 -35t-14.5 -35t-34.5 -14q-21 0 -35.5 14t-14.5 35t14.5 35t35.5 14zM356 705q21 0 35.5 -14t14.5 -35t-14.5 -35t-35.5 -14q-20 0 -34.5 14t-14.5 35t14.5 35t34.5 14z" />
    <glyph glyph-name="Amacron" unicode="&#x100;" horiz-adv-x="656" 
d="M293 704h71l269 -704h-74l-75 199h-313l-73 -199h-75zM327 616l-132 -354h265zM185 878h290v-58h-290v58z" />
    <glyph glyph-name="amacron" unicode="&#x101;" horiz-adv-x="528" 
d="M389 336q0 58 -35 88.5t-92 30.5q-52 0 -85 -22t-46 -58h-65q14 61 66 100t131 39q88 0 140 -47t52 -131v-336h-63v69q-60 -79 -172 -79q-75 0 -124 41.5t-49 110.5q0 71 52 111.5t144 40.5h146v42zM228 49q69 0 115 38.5t46 101.5v47h-143q-62 0 -97 -24.5t-35 -69.5
q0 -43 32 -68t82 -25zM124 686h282v-58h-282v58z" />
    <glyph glyph-name="Abreve" unicode="&#x102;" horiz-adv-x="656" 
d="M293 704h71l269 -704h-74l-75 199h-313l-73 -199h-75zM327 616l-132 -354h265zM236 923q0 -42 26 -69t68 -27t68 27t26 69h61q-1 -67 -44.5 -108.5t-110.5 -41.5t-110.5 41.5t-44.5 108.5h61z" />
    <glyph glyph-name="abreve" unicode="&#x103;" horiz-adv-x="528" 
d="M389 336q0 58 -35 88.5t-92 30.5q-52 0 -85 -22t-46 -58h-65q14 61 66 100t131 39q88 0 140 -47t52 -131v-336h-63v69q-60 -79 -172 -79q-75 0 -124 41.5t-49 110.5q0 71 52 111.5t144 40.5h146v42zM228 49q69 0 115 38.5t46 101.5v47h-143q-62 0 -97 -24.5t-35 -69.5
q0 -43 32 -68t82 -25zM175 731q0 -42 24 -69t66 -27t66 27t24 69h60q-1 -68 -42 -109t-108 -41t-108 41t-42 109h60z" />
    <glyph glyph-name="Aogonek" unicode="&#x104;" horiz-adv-x="656" 
d="M293 704h71l269 -704q-36 -21 -61 -50t-25 -59q0 -54 63 -54h33v-54h-45q-55 0 -84.5 26t-29.5 68q0 36 21 69t53 56l-74 197h-313l-73 -199h-75zM327 616l-132 -354h265z" />
    <glyph glyph-name="aogonek" unicode="&#x105;" horiz-adv-x="528" 
d="M389 336q0 58 -35 88.5t-92 30.5q-52 0 -85 -22t-46 -58h-65q14 61 66 100t131 39q88 0 140 -47t52 -131v-336q-36 -21 -61 -50t-25 -59q0 -54 63 -54h33v-54h-45q-55 0 -84.5 26t-29.5 68q0 40 25 76t61 57v59q-60 -79 -172 -79q-75 0 -124 41.5t-49 110.5
q0 71 52 111.5t144 40.5h146v42zM228 49q69 0 115 38.5t46 101.5v47h-143q-62 0 -97 -24.5t-35 -69.5q0 -43 32 -68t82 -25z" />
    <glyph glyph-name="Cacute" unicode="&#x106;" horiz-adv-x="704" 
d="M584 217h70q-9 -56 -40.5 -105.5t-96 -85.5t-149.5 -36q-137 0 -225 100t-88 262q0 160 87 261t226 101q117 0 192 -64t92 -161h-70q-18 70 -72 115t-142 45q-109 0 -175.5 -82t-66.5 -215t67 -215t175 -82q92 0 147.5 48.5t68.5 113.5zM500 923l-98 -148h-69l94 148h73z
" />
    <glyph glyph-name="cacute" unicode="&#x107;" horiz-adv-x="538" 
d="M283 51q63 0 98.5 32t47.5 77h66q-10 -70 -67.5 -120t-145.5 -50q-102 0 -168 72.5t-66 189.5t65.5 189.5t168.5 72.5q89 0 145 -49.5t68 -117.5h-66q-14 44 -51 75t-96 31q-73 0 -119.5 -55t-46.5 -146q0 -92 47 -146.5t120 -54.5zM414 731l-98 -148h-69l94 148h73z" />
    <glyph glyph-name="Ccircumflex" unicode="&#x108;" horiz-adv-x="704" 
d="M584 217h70q-9 -56 -40.5 -105.5t-96 -85.5t-149.5 -36q-137 0 -225 100t-88 262q0 160 87 261t226 101q117 0 192 -64t92 -161h-70q-18 70 -72 115t-142 45q-109 0 -175.5 -82t-66.5 -215t67 -215t175 -82q92 0 147.5 48.5t68.5 113.5zM277 775h-72l129 148h68l129 -148
h-72l-91 99z" />
    <glyph glyph-name="ccircumflex" unicode="&#x109;" horiz-adv-x="538" 
d="M283 51q63 0 98.5 32t47.5 77h66q-10 -70 -67.5 -120t-145.5 -50q-102 0 -168 72.5t-66 189.5t65.5 189.5t168.5 72.5q89 0 145 -49.5t68 -117.5h-66q-14 44 -51 75t-96 31q-73 0 -119.5 -55t-46.5 -146q0 -92 47 -146.5t120 -54.5zM196 583h-72l124 148h68l125 -148h-73
l-86 99z" />
    <glyph glyph-name="Cdotaccent" unicode="&#x10a;" horiz-adv-x="704" 
d="M584 217h70q-9 -56 -40.5 -105.5t-96 -85.5t-149.5 -36q-137 0 -225 100t-88 262q0 160 87 261t226 101q117 0 192 -64t92 -161h-70q-18 70 -72 115t-142 45q-109 0 -175.5 -82t-66.5 -215t67 -215t175 -82q92 0 147.5 48.5t68.5 113.5zM369 897q21 0 35.5 -14t14.5 -35
t-14.5 -35t-35.5 -14t-35.5 14t-14.5 35t14.5 35t35.5 14z" />
    <glyph glyph-name="cdotaccent" unicode="&#x10b;" horiz-adv-x="538" 
d="M283 51q63 0 98.5 32t47.5 77h66q-10 -70 -67.5 -120t-145.5 -50q-102 0 -168 72.5t-66 189.5t65.5 189.5t168.5 72.5q89 0 145 -49.5t68 -117.5h-66q-14 44 -51 75t-96 31q-73 0 -119.5 -55t-46.5 -146q0 -92 47 -146.5t120 -54.5zM283 705q21 0 35.5 -14t14.5 -35
t-14.5 -35t-35.5 -14t-35.5 14t-14.5 35t14.5 35t35.5 14z" />
    <glyph glyph-name="Ccaron" unicode="&#x10c;" horiz-adv-x="704" 
d="M584 217h70q-9 -56 -40.5 -105.5t-96 -85.5t-149.5 -36q-137 0 -225 100t-88 262q0 160 87 261t226 101q117 0 192 -64t92 -161h-70q-18 70 -72 115t-142 45q-109 0 -175.5 -82t-66.5 -215t67 -215t175 -82q92 0 147.5 48.5t68.5 113.5zM277 923l91 -98l91 98h72
l-129 -148h-68l-129 148h72z" />
    <glyph glyph-name="ccaron" unicode="&#x10d;" horiz-adv-x="538" 
d="M283 51q63 0 98.5 32t47.5 77h66q-10 -70 -67.5 -120t-145.5 -50q-102 0 -168 72.5t-66 189.5t65.5 189.5t168.5 72.5q89 0 145 -49.5t68 -117.5h-66q-14 44 -51 75t-96 31q-73 0 -119.5 -55t-46.5 -146q0 -92 47 -146.5t120 -54.5zM196 731l86 -98l86 98h73l-125 -148
h-68l-124 148h72z" />
    <glyph glyph-name="Dcaron" unicode="&#x10e;" horiz-adv-x="705" 
d="M299 704q164 0 257.5 -92.5t93.5 -259.5t-94 -259.5t-257 -92.5h-209v704h209zM290 64q140 0 214.5 74t74.5 214q0 141 -74.5 215t-214.5 74h-131v-577h131zM223 923l91 -98l91 98h72l-129 -148h-68l-129 148h72z" />
    <glyph glyph-name="dcaron" unicode="&#x10f;" horiz-adv-x="674" 
d="M275 -10q-94 0 -160.5 69t-66.5 193t66.5 193t162.5 69q59 0 103.5 -25t66.5 -63v301h67v-727h-64v85q-23 -42 -68.5 -68.5t-106.5 -26.5zM282 453q-74 0 -120 -55t-46 -146q0 -90 46 -145.5t120 -55.5q75 0 121.5 53.5t46.5 142.5v10q0 88 -46 142t-122 54zM680 684
q0 -12 -8 -36l-46 -128h-53l42 122q-15 3 -25.5 14.5t-10.5 29.5q0 21 14 34t35 13t36.5 -14t15.5 -35z" />
    <glyph glyph-name="Dcroat" unicode="&#x110;" horiz-adv-x="719" 
d="M313 704q164 0 257.5 -92.5t93.5 -259.5t-93.5 -259.5t-257.5 -92.5h-208v331h-84v62h84v311h208zM359 331h-185v-267h131q140 0 214.5 74t74.5 214t-75 214.5t-214 74.5h-131v-248h185v-62z" />
    <glyph glyph-name="dcroat" unicode="&#x111;" horiz-adv-x="595" 
d="M305 658h142v69h67v-69h74v-55h-74v-603h-64v85q-23 -42 -68.5 -68.5t-106.5 -26.5q-94 0 -160.5 69t-66.5 193t66.5 193t162.5 69q59 0 103.5 -25t66.5 -63v177h-142v55zM282 453q-74 0 -120 -55t-46 -146q0 -90 46 -145.5t120 -55.5q75 0 121.5 53.5t46.5 142.5v10
q0 88 -46 142t-122 54z" />
    <glyph glyph-name="Emacron" unicode="&#x112;" horiz-adv-x="589" 
d="M527 640h-368v-246h349v-63h-349v-267h368v-64h-437v704h437v-64zM167 878h290v-58h-290v58z" />
    <glyph glyph-name="emacron" unicode="&#x113;" horiz-adv-x="545" 
d="M497 234h-379v-3q0 -80 47 -130t121 -50q55 0 90.5 23.5t46.5 54.5h67q-13 -54 -65.5 -96.5t-138.5 -42.5q-105 0 -171.5 70.5t-66.5 191.5q0 120 65 191t167 71q98 0 157.5 -65.5t59.5 -178.5v-36zM279 454q-69 0 -112.5 -44.5t-48.5 -118.5h312q-2 77 -42.5 120
t-108.5 43zM139 686h282v-58h-282v58z" />
    <glyph glyph-name="Edotaccent" unicode="&#x116;" horiz-adv-x="589" 
d="M527 640h-368v-246h349v-63h-349v-267h368v-64h-437v704h437v-64zM313 897q21 0 35.5 -14t14.5 -35t-14.5 -35t-35.5 -14t-35.5 14t-14.5 35t14.5 35t35.5 14z" />
    <glyph glyph-name="edotaccent" unicode="&#x117;" horiz-adv-x="545" 
d="M497 234h-379v-3q0 -80 47 -130t121 -50q55 0 90.5 23.5t46.5 54.5h67q-13 -54 -65.5 -96.5t-138.5 -42.5q-105 0 -171.5 70.5t-66.5 191.5q0 120 65 191t167 71q98 0 157.5 -65.5t59.5 -178.5v-36zM279 454q-69 0 -112.5 -44.5t-48.5 -118.5h312q-2 77 -42.5 120
t-108.5 43zM281 705q21 0 35.5 -14t14.5 -35t-14.5 -35t-35.5 -14t-35.5 14t-14.5 35t14.5 35t35.5 14z" />
    <glyph glyph-name="Eogonek" unicode="&#x118;" horiz-adv-x="589" 
d="M527 640h-368v-246h349v-63h-349v-267h368v-64q-36 -21 -61 -50t-25 -59q0 -54 63 -54h33v-54h-45q-55 0 -84.5 26t-29.5 68q0 70 70 123h-358v704h437v-64z" />
    <glyph glyph-name="eogonek" unicode="&#x119;" horiz-adv-x="545" 
d="M497 234h-379v-3q0 -80 47 -130t121 -50q55 0 90.5 23.5t46.5 54.5h67q-17 -67 -79 -106q-2 -1 -15.5 -10.5t-18 -12.5t-17 -12.5t-17.5 -14.5t-14.5 -14t-14 -16t-10 -16t-7.5 -18t-2 -18q0 -54 63 -54h33v-54h-45q-55 0 -84.5 26t-29.5 68q0 57 63 113h-9
q-105 0 -171.5 70.5t-66.5 191.5q0 120 65 191t167 71q98 0 157.5 -65.5t59.5 -178.5v-36zM279 454q-69 0 -112.5 -44.5t-48.5 -118.5h312q-2 77 -42.5 120t-108.5 43z" />
    <glyph glyph-name="Ecaron" unicode="&#x11a;" horiz-adv-x="589" 
d="M527 640h-368v-246h349v-63h-349v-267h368v-64h-437v704h437v-64zM221 923l91 -98l91 98h72l-129 -148h-68l-129 148h72z" />
    <glyph glyph-name="ecaron" unicode="&#x11b;" horiz-adv-x="545" 
d="M497 234h-379v-3q0 -80 47 -130t121 -50q55 0 90.5 23.5t46.5 54.5h67q-13 -54 -65.5 -96.5t-138.5 -42.5q-105 0 -171.5 70.5t-66.5 191.5q0 120 65 191t167 71q98 0 157.5 -65.5t59.5 -178.5v-36zM279 454q-69 0 -112.5 -44.5t-48.5 -118.5h312q-2 77 -42.5 120
t-108.5 43zM194 731l86 -98l86 98h73l-125 -148h-68l-124 148h72z" />
    <glyph glyph-name="Gcircumflex" unicode="&#x11c;" horiz-adv-x="722" 
d="M363 354h299v-63q0 -135 -77.5 -218t-213.5 -83q-139 0 -227.5 101t-88.5 261q0 162 87.5 262t229.5 100q114 0 188.5 -62t95.5 -157h-71q-21 71 -74.5 112.5t-138.5 41.5q-112 0 -179 -81t-67 -216q0 -133 68 -215t178 -82q103 0 162 61t59 167v9h-230v62zM281 775h-72
l129 148h68l129 -148h-72l-91 99z" />
    <glyph glyph-name="gcircumflex" unicode="&#x11d;" horiz-adv-x="591" 
d="M449 504h64v-481q0 -108 -61.5 -169.5t-165.5 -61.5q-92 0 -148.5 43t-63.5 106h66q11 -40 47.5 -64t99.5 -24q75 0 117.5 45t42.5 125v67q-24 -40 -67.5 -66t-104.5 -26q-95 0 -161 69t-66 190t66 189t163 68q61 0 106 -26t66 -66v82zM282 60q75 0 121 53.5t46 138.5v10
q0 84 -46 137.5t-121 53.5q-74 0 -120 -54.5t-46 -141.5q0 -88 46 -142.5t120 -54.5zM201 583h-72l124 148h68l125 -148h-73l-86 99z" />
    <glyph glyph-name="Gbreve" unicode="&#x11e;" horiz-adv-x="722" 
d="M363 354h299v-63q0 -135 -77.5 -218t-213.5 -83q-139 0 -227.5 101t-88.5 261q0 162 87.5 262t229.5 100q114 0 188.5 -62t95.5 -157h-71q-21 71 -74.5 112.5t-138.5 41.5q-112 0 -179 -81t-67 -216q0 -133 68 -215t178 -82q103 0 162 61t59 167v9h-230v62zM278 923
q0 -42 26 -69t68 -27t68 27t26 69h61q-1 -67 -44.5 -108.5t-110.5 -41.5t-110.5 41.5t-44.5 108.5h61z" />
    <glyph glyph-name="gbreve" unicode="&#x11f;" horiz-adv-x="591" 
d="M449 504h64v-481q0 -108 -61.5 -169.5t-165.5 -61.5q-92 0 -148.5 43t-63.5 106h66q11 -40 47.5 -64t99.5 -24q75 0 117.5 45t42.5 125v67q-24 -40 -67.5 -66t-104.5 -26q-95 0 -161 69t-66 190t66 189t163 68q61 0 106 -26t66 -66v82zM282 60q75 0 121 53.5t46 138.5v10
q0 84 -46 137.5t-121 53.5q-74 0 -120 -54.5t-46 -141.5q0 -88 46 -142.5t120 -54.5zM197 731q0 -42 24 -69t66 -27t66 27t24 69h60q-1 -68 -42 -109t-108 -41t-108 41t-42 109h60z" />
    <glyph glyph-name="Gdotaccent" unicode="&#x120;" horiz-adv-x="722" 
d="M363 354h299v-63q0 -135 -77.5 -218t-213.5 -83q-139 0 -227.5 101t-88.5 261q0 162 87.5 262t229.5 100q114 0 188.5 -62t95.5 -157h-71q-21 71 -74.5 112.5t-138.5 41.5q-112 0 -179 -81t-67 -216q0 -133 68 -215t178 -82q103 0 162 61t59 167v9h-230v62zM373 897
q21 0 35.5 -14t14.5 -35t-14.5 -35t-35.5 -14t-35.5 14t-14.5 35t14.5 35t35.5 14z" />
    <glyph glyph-name="gdotaccent" unicode="&#x121;" horiz-adv-x="591" 
d="M449 504h64v-481q0 -108 -61.5 -169.5t-165.5 -61.5q-92 0 -148.5 43t-63.5 106h66q11 -40 47.5 -64t99.5 -24q75 0 117.5 45t42.5 125v67q-24 -40 -67.5 -66t-104.5 -26q-95 0 -161 69t-66 190t66 189t163 68q61 0 106 -26t66 -66v82zM282 60q75 0 121 53.5t46 138.5v10
q0 84 -46 137.5t-121 53.5q-74 0 -120 -54.5t-46 -141.5q0 -88 46 -142.5t120 -54.5zM288 705q21 0 35.5 -14t14.5 -35t-14.5 -35t-35.5 -14t-35.5 14t-14.5 35t14.5 35t35.5 14z" />
    <glyph glyph-name="uni0122" unicode="&#x122;" horiz-adv-x="722" 
d="M363 354h299v-63q0 -135 -77.5 -218t-213.5 -83q-139 0 -227.5 101t-88.5 261q0 162 87.5 262t229.5 100q114 0 188.5 -62t95.5 -157h-71q-21 71 -74.5 112.5t-138.5 41.5q-112 0 -179 -81t-67 -216q0 -133 68 -215t178 -82q103 0 162 61t59 167v9h-230v62zM422 -107
q0 -10 -8 -36l-39 -107h-53l35 102q-36 8 -36 44q0 21 13.5 34t34.5 13q22 0 37.5 -14t15.5 -36z" />
    <glyph glyph-name="uni0123" unicode="&#x123;" horiz-adv-x="591" 
d="M449 504h64v-481q0 -108 -61.5 -169.5t-165.5 -61.5q-92 0 -148.5 43t-63.5 106h66q11 -40 47.5 -64t99.5 -24q75 0 117.5 45t42.5 125v67q-24 -40 -67.5 -66t-104.5 -26q-95 0 -161 69t-66 190t66 189t163 68q61 0 106 -26t66 -66v82zM282 60q75 0 121 53.5t46 138.5v10
q0 84 -46 137.5t-121 53.5q-74 0 -120 -54.5t-46 -141.5q0 -88 46 -142.5t120 -54.5zM236 633q0 10 8 36l39 107h53l-35 -102q36 -8 36 -44q0 -21 -13.5 -34t-34.5 -13q-22 0 -37.5 14t-15.5 36z" />
    <glyph glyph-name="Hcircumflex" unicode="&#x124;" horiz-adv-x="722" 
d="M159 0h-69v704h69v-309h404v309h69v-704h-69v330h-404v-330zM270 775h-72l129 148h68l129 -148h-72l-91 99z" />
    <glyph glyph-name="hcircumflex" unicode="&#x125;" horiz-adv-x="566" 
d="M305 514q80 0 134 -49.5t54 -146.5v-318h-66v309q0 72 -36.5 108t-96.5 36q-61 0 -105 -38.5t-44 -113.5v-301h-67v727h67v-288q23 33 65.5 54t94.5 21zM33 796h-70l115 148h68l115 -148h-70l-79 98z" />
    <glyph glyph-name="Hbar" unicode="&#x126;" horiz-adv-x="743" 
d="M169 0h-68v532h-72v61h72v111h68v-111h405v111h69v-111h72v-61h-72v-532h-69v322h-405v-322zM169 532v-146h405v146h-405z" />
    <glyph glyph-name="hbar" unicode="&#x127;" horiz-adv-x="569" 
d="M7 658h74v69h67v-69h142v-55h-142v-164q23 33 65.5 54t94.5 21q80 0 134 -49.5t54 -146.5v-318h-66v309q0 72 -36.5 108t-96.5 36q-61 0 -105 -38.5t-44 -113.5v-301h-67v603h-74v55z" />
    <glyph glyph-name="Itilde" unicode="&#x128;" horiz-adv-x="249" 
d="M159 704v-704h-69v704h69zM227 906h51v-16q0 -48 -23.5 -76t-64.5 -28q-24 0 -44.5 11t-31.5 24t-25.5 24t-27.5 11q-17 0 -27.5 -13t-10.5 -36v-15h-52v16q0 48 24 75.5t64 27.5q31 0 54.5 -17.5t41 -34.5t33.5 -17q18 0 28.5 12.5t10.5 35.5v16z" />
    <glyph glyph-name="itilde" unicode="&#x129;" horiz-adv-x="223" 
d="M145 504v-504h-67v504h67zM208 714h52v-16q0 -48 -23.5 -76t-63.5 -28q-30 0 -52 17.5t-38 35t-31 17.5q-17 0 -27 -13t-10 -36v-15h-51v16q0 48 23 75.5t63 27.5q30 0 52 -17.5t38.5 -34.5t31.5 -17q16 0 26 12.5t10 35.5v16z" />
    <glyph glyph-name="Imacron" unicode="&#x12a;" horiz-adv-x="249" 
d="M159 704v-704h-69v704h69zM-16 878h282v-58h-282v58z" />
    <glyph glyph-name="imacron" unicode="&#x12b;" horiz-adv-x="223" 
d="M145 504v-504h-67v504h67zM-6 686h236v-58h-236v58z" />
    <glyph glyph-name="Ibreve" unicode="&#x12c;" horiz-adv-x="249" 
d="M159 704v-704h-69v704h69zM35 923q0 -42 24 -69t66 -27t66 27t24 69h60q-1 -67 -42 -108.5t-108 -41.5t-108 41t-42 109h60z" />
    <glyph glyph-name="ibreve" unicode="&#x12d;" horiz-adv-x="223" 
d="M145 504v-504h-67v504h67zM28 731q0 -43 21.5 -69.5t62.5 -26.5t62.5 26.5t21.5 69.5h61q-2 -68 -41 -109t-104 -41t-104 41t-41 109h61z" />
    <glyph glyph-name="Iogonek" unicode="&#x12e;" horiz-adv-x="249" 
d="M159 704v-704q-36 -21 -61 -50t-25 -59q0 -54 63 -54h33v-54h-45q-55 0 -84.5 26t-29.5 68q0 38 23 72.5t57 56.5v698h69z" />
    <glyph glyph-name="iogonek" unicode="&#x12f;" horiz-adv-x="223" 
d="M145 504v-504q-36 -21 -61 -50t-25 -59q0 -54 63 -54h33v-54h-45q-55 0 -84.5 26t-29.5 68q0 38 24 73.5t58 57.5v496h67zM112 705q21 0 35.5 -14t14.5 -35t-14.5 -35t-35.5 -14t-35.5 14t-14.5 35t14.5 35t35.5 14z" />
    <glyph glyph-name="Idotaccent" unicode="&#x130;" horiz-adv-x="249" 
d="M159 704v-704h-69v704h69zM125 897q21 0 35.5 -14t14.5 -35t-14.5 -35t-35.5 -14t-35.5 14t-14.5 35t14.5 35t35.5 14z" />
    <glyph glyph-name="dotlessi" unicode="&#x131;" horiz-adv-x="223" 
d="M145 504v-504h-67v504h67z" />
    <glyph glyph-name="Jcircumflex" unicode="&#x134;" horiz-adv-x="533" 
d="M34 176h68q7 -50 41 -85.5t95 -35.5q69 0 104 45.5t35 123.5v480h69v-481q0 -111 -55 -172t-154 -61q-91 0 -145 54.5t-58 131.5zM326 775h-72l124 148h68l125 -148h-73l-86 99z" />
    <glyph glyph-name="jcircumflex" unicode="&#x135;" horiz-adv-x="223" 
d="M-21 -191v60h20q80 0 80 96v539h66v-542q0 -153 -136 -153h-30zM33 583h-70l115 148h68l115 -148h-70l-79 98z" />
    <glyph glyph-name="uni0136" unicode="&#x136;" horiz-adv-x="614" 
d="M159 0h-69v704h69v-319l339 319h92l-357 -337l365 -367h-95l-344 343v-343zM378 -107q0 -10 -8 -36l-39 -107h-53l35 102q-36 8 -36 44q0 21 13.5 34t34.5 13q22 0 37.5 -14t15.5 -36z" />
    <glyph glyph-name="uni0137" unicode="&#x137;" horiz-adv-x="495" 
d="M145 0h-67v727h67v-442l242 219h87l-258 -235l262 -269h-88l-245 248v-248zM314 -107q0 -10 -8 -36l-39 -107h-53l35 102q-36 8 -36 44q0 21 13.5 34t34.5 13q22 0 37.5 -14t15.5 -36z" />
    <glyph glyph-name="Lacute" unicode="&#x139;" horiz-adv-x="565" 
d="M159 704v-640h368v-64h-437v704h69zM257 923l-98 -148h-69l94 148h73z" />
    <glyph glyph-name="lacute" unicode="&#x13a;" horiz-adv-x="223" 
d="M145 727v-727h-67v727h67zM244 944l-98 -148h-69l94 148h73z" />
    <glyph glyph-name="uni013B" unicode="&#x13b;" horiz-adv-x="565" 
d="M159 704v-640h368v-64h-437v704h69zM363 -107q0 -10 -8 -36l-39 -107h-53l35 102q-36 8 -36 44q0 21 13.5 34t34.5 13q22 0 37.5 -14t15.5 -36z" />
    <glyph glyph-name="uni013C" unicode="&#x13c;" horiz-adv-x="223" 
d="M145 727v-727h-67v727h67zM162 -107q0 -10 -8 -36l-39 -107h-53l35 102q-36 8 -36 44q0 21 13.5 34t34.5 13q22 0 37.5 -14t15.5 -36z" />
    <glyph glyph-name="Lcaron" unicode="&#x13d;" horiz-adv-x="565" 
d="M159 704v-640h368v-64h-437v704h69zM358 661q0 -12 -8 -36l-46 -128h-53l42 122q-15 3 -25.5 14.5t-10.5 29.5q0 21 14 34t35 13t36.5 -14t15.5 -35z" />
    <glyph glyph-name="lcaron" unicode="&#x13e;" horiz-adv-x="305" 
d="M145 727v-727h-67v727h67zM311 684q0 -12 -8 -36l-46 -128h-53l42 122q-15 3 -25.5 14.5t-10.5 29.5q0 21 14 34t35 13t36.5 -14t15.5 -35z" />
    <glyph glyph-name="Ldot" unicode="&#x13f;" horiz-adv-x="565" 
d="M159 704v-640h368v-64h-437v704h69zM352 423q21 0 36 -14.5t15 -36.5q0 -21 -15 -36t-36 -15t-36 15t-15 36q0 22 15 36.5t36 14.5z" />
    <glyph glyph-name="ldot" unicode="&#x140;" horiz-adv-x="318" 
d="M145 727v-727h-67v727h67zM262 403q21 0 36 -14.5t15 -36.5q0 -21 -15 -36t-36 -15t-36 15t-15 36q0 22 15 36.5t36 14.5z" />
    <glyph glyph-name="Lslash" unicode="&#x141;" horiz-adv-x="579" 
d="M363 454l-189 -91v-299h368v-64h-437v330l-85 -40v65l85 40v309h69v-276l189 91v-65z" />
    <glyph glyph-name="lslash" unicode="&#x142;" horiz-adv-x="253" 
d="M9 370l84 41v316h67v-283l84 42v-62l-84 -42v-382h-67v349l-84 -42v63z" />
    <glyph glyph-name="Nacute" unicode="&#x143;" horiz-adv-x="726" 
d="M164 704l404 -590v590h68v-704h-67l-411 598v-598h-68v704h74zM499 923l-98 -148h-69l94 148h73z" />
    <glyph glyph-name="nacute" unicode="&#x144;" horiz-adv-x="566" 
d="M78 504h64v-69q22 34 65.5 56.5t97.5 22.5q80 0 134 -49.5t54 -146.5v-318h-66v309q0 72 -36.5 108t-96.5 36q-61 0 -105 -38.5t-44 -113.5v-301h-67v504zM421 731l-98 -148h-69l94 148h73z" />
    <glyph glyph-name="uni0145" unicode="&#x145;" horiz-adv-x="726" 
d="M164 704l404 -590v590h68v-704h-67l-411 598v-598h-68v704h74zM410 -99q0 -10 -8 -36l-39 -107h-53l35 102q-36 8 -36 44q0 21 13.5 34t34.5 13q22 0 37.5 -14t15.5 -36z" />
    <glyph glyph-name="uni0146" unicode="&#x146;" horiz-adv-x="566" 
d="M78 504h64v-69q22 34 65.5 56.5t97.5 22.5q80 0 134 -49.5t54 -146.5v-318h-66v309q0 72 -36.5 108t-96.5 36q-61 0 -105 -38.5t-44 -113.5v-301h-67v504zM337 -107q0 -10 -8 -36l-39 -107h-53l35 102q-36 8 -36 44q0 21 13.5 34t34.5 13q22 0 37.5 -14t15.5 -36z" />
    <glyph glyph-name="Ncaron" unicode="&#x147;" horiz-adv-x="726" 
d="M164 704l404 -590v590h68v-704h-67l-411 598v-598h-68v704h74zM276 923l91 -98l91 98h72l-129 -148h-68l-129 148h72z" />
    <glyph glyph-name="ncaron" unicode="&#x148;" horiz-adv-x="566" 
d="M78 504h64v-69q22 34 65.5 56.5t97.5 22.5q80 0 134 -49.5t54 -146.5v-318h-66v309q0 72 -36.5 108t-96.5 36q-61 0 -105 -38.5t-44 -113.5v-301h-67v504zM203 731l86 -98l86 98h73l-125 -148h-68l-124 148h72z" />
    <glyph glyph-name="Eng" unicode="&#x14a;" horiz-adv-x="726" 
d="M568 704h68v-741q0 -77 -37.5 -115.5t-104.5 -38.5h-30v62h21q83 0 83 95v34l-410 598v-598h-68v704h74l404 -590v590z" />
    <glyph glyph-name="eng" unicode="&#x14b;" horiz-adv-x="566" 
d="M305 514q80 0 134 -49.5t54 -145.5v-357q0 -153 -136 -153h-29v60h19q80 0 80 96v344q0 72 -36.5 108t-96.5 36q-61 0 -105 -38.5t-44 -113.5v-301h-67v504h64v-69q22 34 65.5 56.5t97.5 22.5z" />
    <glyph glyph-name="Omacron" unicode="&#x14c;" horiz-adv-x="748" 
d="M374 714q144 0 231.5 -101t87.5 -261q0 -159 -88 -260.5t-231 -101.5t-231 101.5t-88 260.5q0 160 87.5 261t231.5 101zM374 55q114 0 181.5 82t67.5 215t-67.5 215t-181.5 82q-113 0 -180.5 -82t-67.5 -215t67.5 -215t180.5 -82zM229 878h290v-58h-290v58z" />
    <glyph glyph-name="omacron" unicode="&#x14d;" horiz-adv-x="571" 
d="M286 514q107 0 172 -73t65 -189t-65 -189t-172 -73t-172.5 73t-65.5 189t65.5 189t172.5 73zM286 51q76 0 122.5 55t46.5 146t-46.5 146t-122.5 55q-77 0 -123.5 -55t-46.5 -146t46.5 -146t123.5 -55zM145 686h282v-58h-282v58z" />
    <glyph glyph-name="Obreve" unicode="&#x14e;" horiz-adv-x="748" 
d="M374 714q144 0 231.5 -101t87.5 -261q0 -159 -88 -260.5t-231 -101.5t-231 101.5t-88 260.5q0 160 87.5 261t231.5 101zM374 55q114 0 181.5 82t67.5 215t-67.5 215t-181.5 82q-113 0 -180.5 -82t-67.5 -215t67.5 -215t180.5 -82zM280 923q0 -42 26 -69t68 -27t68 27
t26 69h61q-1 -67 -44.5 -108.5t-110.5 -41.5t-110.5 41.5t-44.5 108.5h61z" />
    <glyph glyph-name="obreve" unicode="&#x14f;" horiz-adv-x="571" 
d="M286 514q107 0 172 -73t65 -189t-65 -189t-172 -73t-172.5 73t-65.5 189t65.5 189t172.5 73zM286 51q76 0 122.5 55t46.5 146t-46.5 146t-122.5 55q-77 0 -123.5 -55t-46.5 -146t46.5 -146t123.5 -55zM196 731q0 -42 24 -69t66 -27t66 27t24 69h60q-1 -68 -42 -109
t-108 -41t-108 41t-42 109h60z" />
    <glyph glyph-name="Ohungarumlaut" unicode="&#x150;" horiz-adv-x="748" 
d="M374 714q144 0 231.5 -101t87.5 -261q0 -159 -88 -260.5t-231 -101.5t-231 101.5t-88 260.5q0 160 87.5 261t231.5 101zM374 55q114 0 181.5 82t67.5 215t-67.5 215t-181.5 82q-113 0 -180.5 -82t-67.5 -215t67.5 -215t180.5 -82zM418 923l-91 -148h-66l86 148h71z
M577 923l-90 -148h-67l86 148h71z" />
    <glyph glyph-name="ohungarumlaut" unicode="&#x151;" horiz-adv-x="571" 
d="M286 514q107 0 172 -73t65 -189t-65 -189t-172 -73t-172.5 73t-65.5 189t65.5 189t172.5 73zM286 51q76 0 122.5 55t46.5 146t-46.5 146t-122.5 55q-77 0 -123.5 -55t-46.5 -146t46.5 -146t123.5 -55zM332 731l-91 -148h-66l86 148h71zM487 731l-90 -148h-67l86 148h71z
" />
    <glyph glyph-name="OE" unicode="&#x152;" horiz-adv-x="1017" 
d="M955 704v-64h-363v-246h344v-63h-344v-267h363v-64h-537q-160 0 -261.5 95.5t-101.5 256.5q0 162 101.5 257t261.5 95h537zM126 352q0 -135 82 -211.5t218 -76.5h97v577h-97q-136 0 -218 -77t-82 -212z" />
    <glyph glyph-name="oe" unicode="&#x153;" horiz-adv-x="950" 
d="M286 514q69 0 121 -32.5t80 -90.5q29 59 80.5 91t117.5 32q98 0 157.5 -65.5t59.5 -178.5v-36h-380v-3q0 -80 47.5 -130t121.5 -50q54 0 90 23.5t46 54.5h68q-14 -55 -66 -97t-138 -42q-69 0 -122.5 32t-81.5 91q-28 -58 -80 -90.5t-121 -32.5q-107 0 -172.5 73
t-65.5 189t65.5 189t172.5 73zM286 51q76 0 122.5 55t46.5 146t-46.5 146t-122.5 55q-77 0 -123.5 -55t-46.5 -146t46.5 -146t123.5 -55zM683 454q-69 0 -112.5 -44.5t-48.5 -118.5h312q-2 77 -42 120t-109 43z" />
    <glyph glyph-name="Racute" unicode="&#x154;" horiz-adv-x="628" 
d="M563 490q0 -72 -43.5 -130t-116.5 -78l197 -282h-82l-191 273h-168v-273h-69v704h245q107 0 167.5 -61.5t60.5 -152.5zM327 641h-168v-304h168q79 0 122.5 43.5t43.5 109.5q0 67 -43 109t-123 42zM445 923l-98 -148h-69l94 148h73z" />
    <glyph glyph-name="racute" unicode="&#x155;" horiz-adv-x="357" 
d="M305 506h24v-63h-24q-70 0 -115 -42t-45 -120v-281h-67v504h64v-84q51 86 163 86zM335 731l-98 -148h-69l94 148h73z" />
    <glyph glyph-name="uni0156" unicode="&#x156;" horiz-adv-x="628" 
d="M563 490q0 -72 -43.5 -130t-116.5 -78l197 -282h-82l-191 273h-168v-273h-69v704h245q107 0 167.5 -61.5t60.5 -152.5zM327 641h-168v-304h168q79 0 122.5 43.5t43.5 109.5q0 67 -43 109t-123 42zM383 -107q0 -10 -8 -36l-39 -107h-53l35 102q-36 8 -36 44q0 21 13.5 34
t34.5 13q22 0 37.5 -14t15.5 -36z" />
    <glyph glyph-name="uni0157" unicode="&#x157;" horiz-adv-x="357" 
d="M305 506h24v-63h-24q-70 0 -115 -42t-45 -120v-281h-67v504h64v-84q51 86 163 86zM162 -107q0 -10 -8 -36l-39 -107h-53l35 102q-36 8 -36 44q0 21 13.5 34t34.5 13q22 0 37.5 -14t15.5 -36z" />
    <glyph glyph-name="Rcaron" unicode="&#x158;" horiz-adv-x="628" 
d="M563 490q0 -72 -43.5 -130t-116.5 -78l197 -282h-82l-191 273h-168v-273h-69v704h245q107 0 167.5 -61.5t60.5 -152.5zM327 641h-168v-304h168q79 0 122.5 43.5t43.5 109.5q0 67 -43 109t-123 42zM222 923l91 -98l91 98h72l-129 -148h-68l-129 148h72z" />
    <glyph glyph-name="rcaron" unicode="&#x159;" horiz-adv-x="357" 
d="M305 506h24v-63h-24q-70 0 -115 -42t-45 -120v-281h-67v504h64v-84q51 86 163 86zM117 731l86 -98l86 98h73l-125 -148h-68l-124 148h72z" />
    <glyph glyph-name="Sacute" unicode="&#x15a;" horiz-adv-x="615" 
d="M52 182h70q17 -60 67.5 -94t130.5 -34q76 0 124 37t48 101q0 102 -125 122l-134 22q-81 14 -125 59t-44 116q0 92 69 147.5t168 55.5q96 0 165 -47.5t85 -137.5h-70q-17 61 -64 91t-116 30t-118 -35.5t-49 -98.5q0 -92 114 -112l135 -23q180 -30 180 -185
q0 -95 -69 -150.5t-176 -55.5q-106 0 -178.5 49.5t-87.5 142.5zM439 923l-98 -148h-69l94 148h73z" />
    <glyph glyph-name="sacute" unicode="&#x15b;" horiz-adv-x="493" 
d="M113 140q24 -90 144 -90q56 0 89.5 23.5t33.5 65.5q0 67 -88 78l-92 12q-65 9 -103 41.5t-38 92.5q0 64 52.5 107.5t132.5 43.5q77 0 129 -37.5t62 -103.5h-65q-24 82 -126 82q-54 0 -86 -25t-32 -63q0 -64 85 -75l93 -13q143 -19 143 -136q0 -71 -54 -112t-135 -41
t-140.5 37t-70.5 113h66zM379 731l-98 -148h-69l94 148h73z" />
    <glyph glyph-name="Scircumflex" unicode="&#x15c;" horiz-adv-x="615" 
d="M52 182h70q17 -60 67.5 -94t130.5 -34q76 0 124 37t48 101q0 102 -125 122l-134 22q-81 14 -125 59t-44 116q0 92 69 147.5t168 55.5q96 0 165 -47.5t85 -137.5h-70q-17 61 -64 91t-116 30t-118 -35.5t-49 -98.5q0 -92 114 -112l135 -23q180 -30 180 -185
q0 -95 -69 -150.5t-176 -55.5q-106 0 -178.5 49.5t-87.5 142.5zM216 775h-72l129 148h68l129 -148h-72l-91 99z" />
    <glyph glyph-name="scircumflex" unicode="&#x15d;" horiz-adv-x="493" 
d="M113 140q24 -90 144 -90q56 0 89.5 23.5t33.5 65.5q0 67 -88 78l-92 12q-65 9 -103 41.5t-38 92.5q0 64 52.5 107.5t132.5 43.5q77 0 129 -37.5t62 -103.5h-65q-24 82 -126 82q-54 0 -86 -25t-32 -63q0 -64 85 -75l93 -13q143 -19 143 -136q0 -71 -54 -112t-135 -41
t-140.5 37t-70.5 113h66zM161 583h-72l124 148h68l125 -148h-73l-86 99z" />
    <glyph glyph-name="Scedilla" unicode="&#x15e;" horiz-adv-x="615" 
d="M52 182h70q17 -60 67.5 -94t130.5 -34q76 0 124 37t48 101q0 102 -125 122l-134 22q-81 14 -125 59t-44 116q0 92 69 147.5t168 55.5q96 0 165 -47.5t85 -137.5h-70q-17 61 -64 91t-116 30t-118 -35.5t-49 -98.5q0 -92 114 -112l135 -23q180 -30 180 -185q0 -89 -62 -144
t-161 -61l-16 -48q33 -2 57 -23.5t24 -58.5q0 -40 -29.5 -65.5t-84.5 -25.5h-51v50h50q55 0 55 43q0 40 -53 40h-30v17l25 71q-95 7 -158 56t-77 135z" />
    <glyph glyph-name="scedilla" unicode="&#x15f;" horiz-adv-x="493" 
d="M113 140q24 -90 144 -90q56 0 89.5 23.5t33.5 65.5q0 67 -88 78l-92 12q-65 9 -103 41.5t-38 92.5q0 64 52.5 107.5t132.5 43.5q77 0 129 -37.5t62 -103.5h-65q-24 82 -126 82q-54 0 -86 -25t-32 -63q0 -64 85 -75l93 -13q143 -19 143 -136q0 -65 -46.5 -105.5
t-119.5 -46.5l-17 -48q33 -2 57 -23.5t24 -58.5q0 -40 -29.5 -65.5t-84.5 -25.5h-51v50h50q55 0 55 43q0 40 -53 40h-30v17l25 72q-71 7 -120.5 43t-59.5 105h66z" />
    <glyph glyph-name="Scaron" unicode="&#x160;" horiz-adv-x="615" 
d="M52 182h70q17 -60 67.5 -94t130.5 -34q76 0 124 37t48 101q0 102 -125 122l-134 22q-81 14 -125 59t-44 116q0 92 69 147.5t168 55.5q96 0 165 -47.5t85 -137.5h-70q-17 61 -64 91t-116 30t-118 -35.5t-49 -98.5q0 -92 114 -112l135 -23q180 -30 180 -185
q0 -95 -69 -150.5t-176 -55.5q-106 0 -178.5 49.5t-87.5 142.5zM216 923l91 -98l91 98h72l-129 -148h-68l-129 148h72z" />
    <glyph glyph-name="scaron" unicode="&#x161;" horiz-adv-x="493" 
d="M113 140q24 -90 144 -90q56 0 89.5 23.5t33.5 65.5q0 67 -88 78l-92 12q-65 9 -103 41.5t-38 92.5q0 64 52.5 107.5t132.5 43.5q77 0 129 -37.5t62 -103.5h-65q-24 82 -126 82q-54 0 -86 -25t-32 -63q0 -64 85 -75l93 -13q143 -19 143 -136q0 -71 -54 -112t-135 -41
t-140.5 37t-70.5 113h66zM161 731l86 -98l86 98h73l-125 -148h-68l-124 148h72z" />
    <glyph glyph-name="uni0162" unicode="&#x162;" horiz-adv-x="619" 
d="M35 640v64h550v-64h-241v-640h-8l-20 -57q33 -2 57 -23.5t24 -58.5q0 -40 -29.5 -65.5t-84.5 -25.5h-51v50h50q55 0 55 43q0 40 -53 40h-30v17l28 80h-7v640h-240z" />
    <glyph glyph-name="uni0163" unicode="&#x163;" horiz-adv-x="329" 
d="M172 151q0 -91 85 -91h34v-60h-58l-20 -57q33 -2 57 -23.5t24 -58.5q0 -40 -29.5 -65.5t-84.5 -25.5h-51v50h50q55 0 55 43q0 40 -53 40h-30v17l31 90q-77 28 -77 138v296h-88v60h88v134h67v-134h119v-60h-119v-293z" />
    <glyph glyph-name="Tcaron" unicode="&#x164;" horiz-adv-x="619" 
d="M35 640v64h550v-64h-241v-640h-69v640h-240zM219 923l91 -98l91 98h72l-129 -148h-68l-129 148h72z" />
    <glyph glyph-name="tcaron" unicode="&#x165;" horiz-adv-x="329" 
d="M172 151q0 -91 85 -91h34v-60h-44q-142 0 -142 148v296h-88v60h88v134h67v-134h119v-60h-119v-293zM333 719q0 -17 -8 -36l-39 -109h-53l36 103q-37 8 -37 44q0 21 14 34t35 13q22 0 37 -14t15 -35z" />
    <glyph glyph-name="Tbar" unicode="&#x166;" horiz-adv-x="619" 
d="M525 304h-181v-304h-69v304h-181v63h181v273h-240v64h550v-64h-241v-273h181v-63z" />
    <glyph glyph-name="tbar" unicode="&#x167;" horiz-adv-x="329" 
d="M17 304h88v141h-88v59h88v134h66v-134h120v-59h-120v-141h120v-57h-120v-96q0 -91 86 -91h34v-60h-44q-142 0 -142 148v99h-88v57z" />
    <glyph glyph-name="Utilde" unicode="&#x168;" horiz-adv-x="713" 
d="M85 273v431h69v-429q0 -106 56 -163t147 -57t146.5 57t55.5 163v429h69v-431q0 -136 -75 -209.5t-196 -73.5t-196.5 73.5t-75.5 209.5zM463 906h51v-18q0 -47 -24.5 -74.5t-64.5 -27.5q-31 0 -56 17.5t-43.5 35t-35.5 17.5t-28 -13.5t-11 -35.5v-15h-52v17
q0 47 24.5 74.5t64.5 27.5q32 0 56.5 -17.5t43 -34.5t35.5 -17q18 0 29 13t11 36v15z" />
    <glyph glyph-name="utilde" unicode="&#x169;" horiz-adv-x="566" 
d="M488 0h-64v69q-23 -34 -66 -56.5t-97 -22.5q-79 0 -133.5 49.5t-54.5 146.5v318h67v-308q0 -72 36.5 -108.5t95.5 -36.5q61 0 105.5 38.5t44.5 114.5v300h66v-504zM384 714h51v-16q0 -48 -23.5 -76t-64.5 -28q-24 0 -44.5 11t-31.5 24t-25.5 24t-27.5 11q-17 0 -27.5 -13
t-10.5 -36v-15h-52v16q0 48 24 75.5t64 27.5q31 0 54.5 -17.5t41 -34.5t33.5 -17q18 0 28.5 12.5t10.5 35.5v16z" />
    <glyph glyph-name="Umacron" unicode="&#x16a;" horiz-adv-x="713" 
d="M85 273v431h69v-429q0 -106 56 -163t147 -57t146.5 57t55.5 163v429h69v-431q0 -136 -75 -209.5t-196 -73.5t-196.5 73.5t-75.5 209.5zM212 878h290v-58h-290v58z" />
    <glyph glyph-name="umacron" unicode="&#x16b;" horiz-adv-x="566" 
d="M488 0h-64v69q-23 -34 -66 -56.5t-97 -22.5q-79 0 -133.5 49.5t-54.5 146.5v318h67v-308q0 -72 36.5 -108.5t95.5 -36.5q61 0 105.5 38.5t44.5 114.5v300h66v-504zM141 686h282v-58h-282v58z" />
    <glyph glyph-name="Ubreve" unicode="&#x16c;" horiz-adv-x="713" 
d="M85 273v431h69v-429q0 -106 56 -163t147 -57t146.5 57t55.5 163v429h69v-431q0 -136 -75 -209.5t-196 -73.5t-196.5 73.5t-75.5 209.5zM263 923q0 -42 26 -69t68 -27t68 27t26 69h61q-1 -67 -44.5 -108.5t-110.5 -41.5t-110.5 41.5t-44.5 108.5h61z" />
    <glyph glyph-name="ubreve" unicode="&#x16d;" horiz-adv-x="566" 
d="M488 0h-64v69q-23 -34 -66 -56.5t-97 -22.5q-79 0 -133.5 49.5t-54.5 146.5v318h67v-308q0 -72 36.5 -108.5t95.5 -36.5q61 0 105.5 38.5t44.5 114.5v300h66v-504zM192 731q0 -42 24 -69t66 -27t66 27t24 69h60q-1 -68 -42 -109t-108 -41t-108 41t-42 109h60z" />
    <glyph glyph-name="Uring" unicode="&#x16e;" horiz-adv-x="713" 
d="M85 273v431h69v-429q0 -106 56 -163t147 -57t146.5 57t55.5 163v429h69v-431q0 -136 -75 -209.5t-196 -73.5t-196.5 73.5t-75.5 209.5zM456 856q0 -41 -28.5 -68.5t-70.5 -27.5q-43 0 -71 27.5t-28 68.5t28 69t71 28q42 0 70.5 -28t28.5 -69zM306 856q0 -21 15 -35.5
t36 -14.5t35.5 14.5t14.5 35.5q0 22 -14.5 36.5t-35.5 14.5t-36 -14.5t-15 -36.5z" />
    <glyph glyph-name="uring" unicode="&#x16f;" horiz-adv-x="566" 
d="M488 0h-64v69q-23 -34 -66 -56.5t-97 -22.5q-79 0 -133.5 49.5t-54.5 146.5v318h67v-308q0 -72 36.5 -108.5t95.5 -36.5q61 0 105.5 38.5t44.5 114.5v300h66v-504zM381 664q0 -41 -28 -68.5t-70 -27.5q-43 0 -71.5 27.5t-28.5 68.5t28.5 69t71.5 28q42 0 70 -28t28 -69z
M232 664q0 -21 15 -35.5t36 -14.5t35.5 14.5t14.5 35.5q0 22 -14.5 36.5t-35.5 14.5t-36 -14.5t-15 -36.5z" />
    <glyph glyph-name="Uhungarumlaut" unicode="&#x170;" horiz-adv-x="713" 
d="M85 273v431h69v-429q0 -106 56 -163t147 -57t146.5 57t55.5 163v429h69v-431q0 -136 -75 -209.5t-196 -73.5t-196.5 73.5t-75.5 209.5zM401 923l-91 -148h-66l86 148h71zM560 923l-90 -148h-67l86 148h71z" />
    <glyph glyph-name="uhungarumlaut" unicode="&#x171;" horiz-adv-x="566" 
d="M488 0h-64v69q-23 -34 -66 -56.5t-97 -22.5q-79 0 -133.5 49.5t-54.5 146.5v318h67v-308q0 -72 36.5 -108.5t95.5 -36.5q61 0 105.5 38.5t44.5 114.5v300h66v-504zM328 731l-91 -148h-66l86 148h71zM483 731l-90 -148h-67l86 148h71z" />
    <glyph glyph-name="Uogonek" unicode="&#x172;" horiz-adv-x="713" 
d="M85 273v431h69v-429q0 -106 56 -163t147 -57t146.5 57t55.5 163v429h69v-431q0 -173 -121 -245q-5 -4 -24 -17.5t-28 -20t-25 -20.5t-24 -25t-14.5 -25.5t-6.5 -28.5q0 -54 63 -54h33v-54h-45q-55 0 -84.5 26t-29.5 68q0 58 64 114q-9 -1 -29 -1q-121 0 -196.5 73.5
t-75.5 209.5z" />
    <glyph glyph-name="uogonek" unicode="&#x173;" horiz-adv-x="566" 
d="M488 0q-36 -21 -61 -50t-25 -59q0 -54 63 -54h33v-54h-45q-55 0 -84.5 26t-29.5 68q0 39 25 75t60 58v59q-23 -34 -66 -56.5t-97 -22.5q-79 0 -133.5 49.5t-54.5 146.5v318h67v-308q0 -72 36.5 -108.5t95.5 -36.5q61 0 105.5 38.5t44.5 114.5v300h66v-504z" />
    <glyph glyph-name="Wcircumflex" unicode="&#x174;" horiz-adv-x="969" 
d="M938 704l-221 -704h-65l-168 587l-167 -587h-65l-221 704h73l180 -584l168 584h66l167 -582l180 582h73zM393 775h-72l129 148h68l129 -148h-72l-91 99z" />
    <glyph glyph-name="wcircumflex" unicode="&#x175;" horiz-adv-x="765" 
d="M742 504l-168 -504h-65l-127 409l-127 -409h-65l-167 504h70l130 -402l126 402h67l125 -402l131 402h70zM296 583h-72l124 148h68l125 -148h-73l-86 99z" />
    <glyph glyph-name="Ycircumflex" unicode="&#x176;" horiz-adv-x="629" 
d="M349 0h-69v285l-262 419h79l217 -351l218 351h79l-262 -419v-285zM224 775h-72l129 148h68l129 -148h-72l-91 99z" />
    <glyph glyph-name="ycircumflex" unicode="&#x177;" horiz-adv-x="513" 
d="M423 504h72l-282 -695h-72l80 197l-203 498h72l167 -417zM171 583h-72l124 148h68l125 -148h-73l-86 99z" />
    <glyph glyph-name="Ydieresis" unicode="&#x178;" horiz-adv-x="629" 
d="M349 0h-69v285l-262 419h79l217 -351l218 351h79l-262 -419v-285zM212 897q20 0 34.5 -14t14.5 -35t-14.5 -35t-34.5 -14q-21 0 -35.5 14t-14.5 35t14.5 35t35.5 14zM418 897q21 0 35.5 -14t14.5 -35t-14.5 -35t-35.5 -14q-20 0 -34.5 14t-14.5 35t14.5 35t34.5 14z" />
    <glyph glyph-name="Zacute" unicode="&#x179;" horiz-adv-x="621" 
d="M61 59l413 581h-413v64h499v-59l-415 -581h415v-64h-499v59zM443 923l-98 -148h-69l94 148h73z" />
    <glyph glyph-name="zacute" unicode="&#x17a;" horiz-adv-x="490" 
d="M52 0v53l302 391h-302v60h387v-53l-304 -391h304v-60h-387zM378 731l-98 -148h-69l94 148h73z" />
    <glyph glyph-name="Zdotaccent" unicode="&#x17b;" horiz-adv-x="621" 
d="M61 59l413 581h-413v64h499v-59l-415 -581h415v-64h-499v59zM312 897q21 0 35.5 -14t14.5 -35t-14.5 -35t-35.5 -14t-35.5 14t-14.5 35t14.5 35t35.5 14z" />
    <glyph glyph-name="zdotaccent" unicode="&#x17c;" horiz-adv-x="490" 
d="M52 0v53l302 391h-302v60h387v-53l-304 -391h304v-60h-387zM247 705q21 0 35.5 -14t14.5 -35t-14.5 -35t-35.5 -14t-35.5 14t-14.5 35t14.5 35t35.5 14z" />
    <glyph glyph-name="Zcaron" unicode="&#x17d;" horiz-adv-x="621" 
d="M61 59l413 581h-413v64h499v-59l-415 -581h415v-64h-499v59zM220 923l91 -98l91 98h72l-129 -148h-68l-129 148h72z" />
    <glyph glyph-name="zcaron" unicode="&#x17e;" horiz-adv-x="490" 
d="M52 0v53l302 391h-302v60h387v-53l-304 -391h304v-60h-387zM160 731l86 -98l86 98h73l-125 -148h-68l-124 148h72z" />
    <glyph glyph-name="uni018F" unicode="&#x18f;" horiz-adv-x="715" 
d="M55 333v43h534q-2 124 -69.5 199t-173.5 75q-154 0 -211 -129h-71q26 85 100 139t182 54q143 0 228.5 -99t85.5 -263q0 -162 -82 -262t-220 -100t-220.5 95.5t-82.5 247.5zM356 55q104 0 165.5 71t66.5 188h-464q3 -117 66.5 -188t165.5 -71z" />
    <glyph glyph-name="florin" unicode="&#x192;" horiz-adv-x="513" 
d="M144 434h100l18 110q25 160 172 160h36v-60h-34q-90 0 -108 -106l-17 -104h107v-60h-117l-59 -372q-26 -160 -173 -160h-36v60h34q91 0 108 106l59 366h-90v60z" />
    <glyph glyph-name="uni01CD" unicode="&#x1cd;" horiz-adv-x="656" 
d="M293 704h71l269 -704h-74l-75 199h-313l-73 -199h-75zM327 616l-132 -354h265zM239 923l91 -98l91 98h72l-129 -148h-68l-129 148h72z" />
    <glyph glyph-name="uni01CE" unicode="&#x1ce;" horiz-adv-x="528" 
d="M389 336q0 58 -35 88.5t-92 30.5q-52 0 -85 -22t-46 -58h-65q14 61 66 100t131 39q88 0 140 -47t52 -131v-336h-63v69q-60 -79 -172 -79q-75 0 -124 41.5t-49 110.5q0 71 52 111.5t144 40.5h146v42zM228 49q69 0 115 38.5t46 101.5v47h-143q-62 0 -97 -24.5t-35 -69.5
q0 -43 32 -68t82 -25zM179 731l86 -98l86 98h73l-125 -148h-68l-124 148h72z" />
    <glyph glyph-name="uni01D1" unicode="&#x1d1;" horiz-adv-x="748" 
d="M374 714q144 0 231.5 -101t87.5 -261q0 -159 -88 -260.5t-231 -101.5t-231 101.5t-88 260.5q0 160 87.5 261t231.5 101zM374 55q114 0 181.5 82t67.5 215t-67.5 215t-181.5 82q-113 0 -180.5 -82t-67.5 -215t67.5 -215t180.5 -82zM283 923l91 -98l91 98h72l-129 -148h-68
l-129 148h72z" />
    <glyph glyph-name="uni01D2" unicode="&#x1d2;" horiz-adv-x="571" 
d="M286 514q107 0 172 -73t65 -189t-65 -189t-172 -73t-172.5 73t-65.5 189t65.5 189t172.5 73zM286 51q76 0 122.5 55t46.5 146t-46.5 146t-122.5 55q-77 0 -123.5 -55t-46.5 -146t46.5 -146t123.5 -55zM200 731l86 -98l86 98h73l-125 -148h-68l-124 148h72z" />
    <glyph glyph-name="uni01D3" unicode="&#x1d3;" horiz-adv-x="713" 
d="M85 273v431h69v-429q0 -106 56 -163t147 -57t146.5 57t55.5 163v429h69v-431q0 -136 -75 -209.5t-196 -73.5t-196.5 73.5t-75.5 209.5zM266 923l91 -98l91 98h72l-129 -148h-68l-129 148h72z" />
    <glyph glyph-name="uni01D4" unicode="&#x1d4;" horiz-adv-x="566" 
d="M488 0h-64v69q-23 -34 -66 -56.5t-97 -22.5q-79 0 -133.5 49.5t-54.5 146.5v318h67v-308q0 -72 36.5 -108.5t95.5 -36.5q61 0 105.5 38.5t44.5 114.5v300h66v-504zM196 731l86 -98l86 98h73l-125 -148h-68l-124 148h72z" />
    <glyph glyph-name="uni0218" unicode="&#x218;" horiz-adv-x="615" 
d="M52 182h70q17 -60 67.5 -94t130.5 -34q76 0 124 37t48 101q0 102 -125 122l-134 22q-81 14 -125 59t-44 116q0 92 69 147.5t168 55.5q96 0 165 -47.5t85 -137.5h-70q-17 61 -64 91t-116 30t-118 -35.5t-49 -98.5q0 -92 114 -112l135 -23q180 -30 180 -185
q0 -95 -69 -150.5t-176 -55.5q-106 0 -178.5 49.5t-87.5 142.5zM369 -107q0 -10 -8 -36l-39 -107h-53l35 102q-36 8 -36 44q0 21 13.5 34t34.5 13q22 0 37.5 -14t15.5 -36z" />
    <glyph glyph-name="uni0219" unicode="&#x219;" horiz-adv-x="493" 
d="M113 140q24 -90 144 -90q56 0 89.5 23.5t33.5 65.5q0 67 -88 78l-92 12q-65 9 -103 41.5t-38 92.5q0 64 52.5 107.5t132.5 43.5q77 0 129 -37.5t62 -103.5h-65q-24 82 -126 82q-54 0 -86 -25t-32 -63q0 -64 85 -75l93 -13q143 -19 143 -136q0 -71 -54 -112t-135 -41
t-140.5 37t-70.5 113h66zM309 -107q0 -10 -8 -36l-39 -107h-53l35 102q-36 8 -36 44q0 21 13.5 34t34.5 13q22 0 37.5 -14t15.5 -36z" />
    <glyph glyph-name="uni021A" unicode="&#x21a;" horiz-adv-x="619" 
d="M35 640v64h550v-64h-241v-640h-69v640h-240zM361 -107q0 -10 -8 -36l-39 -107h-53l35 102q-36 8 -36 44q0 21 13.5 34t34.5 13q22 0 37.5 -14t15.5 -36z" />
    <glyph glyph-name="uni021B" unicode="&#x21b;" horiz-adv-x="329" 
d="M172 151q0 -91 85 -91h34v-60h-44q-142 0 -142 148v296h-88v60h88v134h67v-134h119v-60h-119v-293zM249 -107q0 -10 -8 -36l-39 -107h-53l35 102q-36 8 -36 44q0 21 13.5 34t34.5 13q22 0 37.5 -14t15.5 -36z" />
    <glyph glyph-name="uni0237" unicode="&#x237;" horiz-adv-x="223" 
d="M-21 -191v60h20q80 0 80 96v539h66v-542q0 -153 -136 -153h-30z" />
    <glyph glyph-name="uni0259" unicode="&#x259;" horiz-adv-x="545" 
d="M48 238v38h380q-1 80 -46.5 129t-119.5 49q-55 0 -90.5 -23.5t-45.5 -54.5h-68q14 55 66.5 96.5t138.5 41.5q106 0 170 -70t64 -192q0 -120 -62.5 -191t-164.5 -71q-100 0 -161 66.5t-61 181.5zM271 51q69 0 110.5 45.5t45.5 121.5h-311q1 -80 43 -123.5t112 -43.5z" />
    <glyph glyph-name="circumflex" unicode="&#x2c6;" horiz-adv-x="520" 
d="M174 583h-72l124 148h68l125 -148h-73l-86 99z" />
    <glyph glyph-name="caron" unicode="&#x2c7;" horiz-adv-x="520" 
d="M174 731l86 -98l86 98h73l-125 -148h-68l-124 148h72z" />
    <glyph glyph-name="breve" unicode="&#x2d8;" horiz-adv-x="520" 
d="M170 731q0 -42 24 -69t66 -27t66 27t24 69h60q-1 -68 -42 -109t-108 -41t-108 41t-42 109h60z" />
    <glyph glyph-name="dotaccent" unicode="&#x2d9;" horiz-adv-x="520" 
d="M260 705q21 0 35.5 -14t14.5 -35t-14.5 -35t-35.5 -14t-35.5 14t-14.5 35t14.5 35t35.5 14z" />
    <glyph glyph-name="ring" unicode="&#x2da;" horiz-adv-x="520" 
d="M359 664q0 -41 -28 -68.5t-70 -27.5q-43 0 -71.5 27.5t-28.5 68.5t28.5 69t71.5 28q42 0 70 -28t28 -69zM210 664q0 -21 15 -35.5t36 -14.5t35.5 14.5t14.5 35.5q0 22 -14.5 36.5t-35.5 14.5t-36 -14.5t-15 -36.5z" />
    <glyph glyph-name="ogonek" unicode="&#x2db;" horiz-adv-x="520" 
d="M330 0q-36 -21 -61 -50t-25 -59q0 -54 63 -54h33v-54h-45q-55 0 -84.5 26t-29.5 68q0 43 30.5 82.5t70.5 59.5z" />
    <glyph glyph-name="tilde" unicode="&#x2dc;" horiz-adv-x="520" 
d="M362 714h51v-16q0 -48 -23.5 -76t-64.5 -28q-24 0 -44.5 11t-31.5 24t-25.5 24t-27.5 11q-17 0 -27.5 -13t-10.5 -36v-15h-52v16q0 48 24 75.5t64 27.5q31 0 54.5 -17.5t41 -34.5t33.5 -17q18 0 28.5 12.5t10.5 35.5v16z" />
    <glyph glyph-name="hungarumlaut" unicode="&#x2dd;" horiz-adv-x="520" 
d="M261 731l-91 -148h-66l86 148h71zM416 731l-90 -148h-67l86 148h71z" />
    <glyph glyph-name="gravecomb" unicode="&#x300;" 
d="M-133 731h73l94 -148h-69z" />
    <glyph glyph-name="acutecomb" unicode="&#x301;" 
d="M133 731l-98 -148h-69l94 148h73z" />
    <glyph glyph-name="uni0302" unicode="&#x302;" 
d="M-86 583h-72l124 148h68l125 -148h-73l-86 99z" />
    <glyph glyph-name="tildecomb" unicode="&#x303;" 
d="M102 714h51v-16q0 -48 -23.5 -76t-64.5 -28q-24 0 -44.5 11t-31.5 24t-25.5 24t-27.5 11q-17 0 -27.5 -13t-10.5 -36v-15h-52v16q0 48 24 75.5t64 27.5q31 0 54.5 -17.5t41 -34.5t33.5 -17q18 0 28.5 12.5t10.5 35.5v16z" />
    <glyph glyph-name="uni0304" unicode="&#x304;" 
d="M-141 686h282v-58h-282v58z" />
    <glyph glyph-name="uni0306" unicode="&#x306;" 
d="M-90 731q0 -42 24 -69t66 -27t66 27t24 69h60q-1 -68 -42 -109t-108 -41t-108 41t-42 109h60z" />
    <glyph glyph-name="uni0307" unicode="&#x307;" 
d="M0 705q21 0 35.5 -14t14.5 -35t-14.5 -35t-35.5 -14t-35.5 14t-14.5 35t14.5 35t35.5 14z" />
    <glyph glyph-name="uni0308" unicode="&#x308;" 
d="M-99 705q20 0 34.5 -14t14.5 -35t-14.5 -35t-34.5 -14q-21 0 -35.5 14t-14.5 35t14.5 35t35.5 14zM99 705q21 0 35.5 -14t14.5 -35t-14.5 -35t-35.5 -14q-20 0 -34.5 14t-14.5 35t14.5 35t34.5 14z" />
    <glyph glyph-name="uni030A" unicode="&#x30a;" 
d="M99 664q0 -41 -28 -68.5t-70 -27.5q-43 0 -71.5 27.5t-28.5 68.5t28.5 69t71.5 28q42 0 70 -28t28 -69zM-50 664q0 -21 15 -35.5t36 -14.5t35.5 14.5t14.5 35.5q0 22 -14.5 36.5t-35.5 14.5t-36 -14.5t-15 -36.5z" />
    <glyph glyph-name="uni030B" unicode="&#x30b;" 
d="M46 731l-91 -148h-66l86 148h71zM201 731l-90 -148h-67l86 148h71z" />
    <glyph glyph-name="uni030C" unicode="&#x30c;" 
d="M-86 731l86 -98l86 98h73l-125 -148h-68l-124 148h72z" />
    <glyph glyph-name="uni0312" unicode="&#x312;" 
d="M-51 633q0 10 8 36l39 107h53l-35 -102q36 -8 36 -44q0 -21 -13.5 -34t-34.5 -13q-22 0 -37.5 14t-15.5 36z" />
    <glyph glyph-name="uni0326" unicode="&#x326;" 
d="M51 -107q0 -10 -8 -36l-39 -107h-53l35 102q-36 8 -36 44q0 21 13.5 34t34.5 13q22 0 37.5 -14t15.5 -36z" />
    <glyph glyph-name="uni0327" unicode="&#x327;" 
d="M26 11v-11l-20 -57q33 -2 57 -23.5t24 -58.5q0 -40 -29.5 -65.5t-84.5 -25.5h-51v50h50q55 0 55 43q0 40 -53 40h-30v17l32 91h50z" />
    <glyph glyph-name="uni0328" unicode="&#x328;" 
d="M0 0q-36 -21 -61 -50t-25 -59q0 -54 63 -54h33v-54h-45q-55 0 -84.5 26t-29.5 68q0 43 30.5 82.5t70.5 59.5z" />
    <glyph glyph-name="uni037E" unicode="&#x37e;" horiz-adv-x="252" 
d="M177 38q0 -19 -7 -36l-56 -163h-56l52 155q-37 9 -37 46q0 22 14.5 36t35.5 14q23 0 38.5 -15t15.5 -37zM125 489q21 0 36 -14.5t15 -36.5q0 -21 -15 -36t-36 -15t-36 15t-15 36q0 22 15 36.5t36 14.5z" />
    <glyph glyph-name="tonos" unicode="&#x384;" horiz-adv-x="520" 
d="M344 731l-98 -148h-69l94 148h73z" />
    <glyph glyph-name="dieresistonos" unicode="&#x385;" horiz-adv-x="520" 
d="M136 701q20 0 33.5 -13.5t13.5 -32.5q0 -20 -13.5 -33t-33.5 -13t-33.5 13.5t-13.5 32.5t14 32.5t33 13.5zM312 731l-44 -148h-57l39 148h62zM384 701q20 0 33.5 -13.5t13.5 -32.5q0 -20 -13.5 -33t-33.5 -13t-33.5 13.5t-13.5 32.5t14 32.5t33 13.5z" />
    <glyph glyph-name="Alphatonos" unicode="&#x386;" horiz-adv-x="656" 
d="M293 704h71l269 -704h-74l-75 199h-313l-73 -199h-75zM327 616l-132 -354h265zM234 704l-98 -148h-69l94 148h73z" />
    <glyph glyph-name="anoteleia" unicode="&#x387;" horiz-adv-x="252" 
d="M126 303q21 0 36 -14.5t15 -36.5q0 -21 -15 -36t-36 -15t-36 15t-15 36q0 22 15 36.5t36 14.5z" />
    <glyph glyph-name="Epsilontonos" unicode="&#x388;" horiz-adv-x="680" 
d="M618 640h-368v-246h349v-63h-349v-267h368v-64h-437v704h437v-64zM146 704l-98 -148h-69l94 148h73z" />
    <glyph glyph-name="Etatonos" unicode="&#x389;" horiz-adv-x="813" 
d="M250 0h-69v704h69v-309h404v309h69v-704h-69v330h-404v-330zM146 704l-98 -148h-69l94 148h73z" />
    <glyph glyph-name="Iotatonos" unicode="&#x38a;" horiz-adv-x="340" 
d="M250 704v-704h-69v704h69zM146 704l-98 -148h-69l94 148h73z" />
    <glyph glyph-name="Omicrontonos" unicode="&#x38c;" horiz-adv-x="784" 
d="M410 714q144 0 231.5 -101t87.5 -261q0 -159 -88 -260.5t-231 -101.5t-231 101.5t-88 260.5q0 160 87.5 261t231.5 101zM410 55q114 0 181.5 82t67.5 215t-67.5 215t-181.5 82q-113 0 -180.5 -82t-67.5 -215t67.5 -215t180.5 -82zM157 704l-98 -148h-69l94 148h73z" />
    <glyph glyph-name="Upsilontonos" unicode="&#x38e;" horiz-adv-x="773" 
d="M493 0h-69v285l-262 419h79l217 -351l218 351h79l-262 -419v-285zM146 704l-98 -148h-69l94 148h73z" />
    <glyph glyph-name="Omegatonos" unicode="&#x38f;" horiz-adv-x="798" 
d="M738 367q0 -98 -40 -176.5t-106 -127.5h146v-63h-251v63q76 38 128.5 116.5t52.5 186.5q0 126 -68.5 204.5t-181.5 78.5q-114 0 -182 -78.5t-68 -204.5q0 -108 52 -186.5t128 -116.5v-63h-251v63h146q-66 49 -106 127.5t-40 176.5q0 152 88.5 249.5t232.5 97.5
q143 0 231.5 -97.5t88.5 -249.5zM157 704l-98 -148h-69l94 148h73z" />
    <glyph glyph-name="iotadieresistonos" unicode="&#x390;" horiz-adv-x="282" 
d="M145 151q0 -50 21.5 -70.5t61.5 -20.5h23v-60h-33q-140 0 -140 148v356h67v-353zM1 701q20 0 33.5 -13.5t13.5 -32.5q0 -20 -13.5 -33t-33.5 -13t-33.5 13.5t-13.5 32.5t14 32.5t33 13.5zM177 731l-44 -148h-57l39 148h62zM249 701q20 0 33.5 -13.5t13.5 -32.5
q0 -20 -13.5 -33t-33.5 -13t-33.5 13.5t-13.5 32.5t14 32.5t33 13.5z" />
    <glyph glyph-name="Alpha" unicode="&#x391;" horiz-adv-x="656" 
d="M293 704h71l269 -704h-74l-75 199h-313l-73 -199h-75zM327 616l-132 -354h265z" />
    <glyph glyph-name="Beta" unicode="&#x392;" horiz-adv-x="630" 
d="M90 0v704h250q99 0 155 -49.5t56 -129.5q0 -61 -29 -102t-69 -56q48 -12 87 -55.5t39 -115.5q0 -89 -61.5 -142.5t-166.5 -53.5h-261zM349 332h-190v-269h187q75 0 118.5 36t43.5 99q0 62 -42 98t-117 36zM331 642h-172v-248h182q70 0 105 34.5t35 90.5q0 58 -39 90.5
t-111 32.5z" />
    <glyph glyph-name="Gamma" unicode="&#x393;" horiz-adv-x="556" 
d="M519 640h-360v-640h-69v704h429v-64z" />
    <glyph glyph-name="uni0394" unicode="&#x394;" horiz-adv-x="671" 
d="M371 704l278 -704h-627l278 704h71zM336 617l-215 -552h430z" />
    <glyph glyph-name="Epsilon" unicode="&#x395;" horiz-adv-x="589" 
d="M527 640h-368v-246h349v-63h-349v-267h368v-64h-437v704h437v-64z" />
    <glyph glyph-name="Zeta" unicode="&#x396;" horiz-adv-x="621" 
d="M61 59l413 581h-413v64h499v-59l-415 -581h415v-64h-499v59z" />
    <glyph glyph-name="Eta" unicode="&#x397;" horiz-adv-x="722" 
d="M159 0h-69v704h69v-309h404v309h69v-704h-69v330h-404v-330z" />
    <glyph glyph-name="Theta" unicode="&#x398;" horiz-adv-x="748" 
d="M374 714q144 0 231.5 -101t87.5 -261q0 -159 -87.5 -260.5t-231.5 -101.5q-143 0 -231 101.5t-88 260.5q0 160 87.5 261t231.5 101zM374 55q114 0 181.5 82t67.5 215t-67.5 215t-181.5 82q-113 0 -181 -82t-68 -215t68 -215t181 -82zM532 330h-315v64h315v-64z" />
    <glyph glyph-name="Iota" unicode="&#x399;" horiz-adv-x="249" 
d="M159 704v-704h-69v704h69z" />
    <glyph glyph-name="Kappa" unicode="&#x39a;" horiz-adv-x="614" 
d="M159 0h-69v704h69v-319l339 319h92l-357 -337l365 -367h-95l-344 343v-343z" />
    <glyph glyph-name="Lambda" unicode="&#x39b;" horiz-adv-x="648" 
d="M26 0l263 704h70l263 -704h-75l-223 611l-223 -611h-75z" />
    <glyph glyph-name="Mu" unicode="&#x39c;" horiz-adv-x="880" 
d="M90 704h82l268 -614l269 614h81v-704h-68v574l-250 -574h-63l-251 574v-574h-68v704z" />
    <glyph glyph-name="Nu" unicode="&#x39d;" horiz-adv-x="726" 
d="M164 704l404 -590v590h68v-704h-67l-411 598v-598h-68v704h74z" />
    <glyph glyph-name="Xi" unicode="&#x39e;" horiz-adv-x="627" 
d="M62 65h504v-65h-504v65zM107 393h413v-63h-413v63zM62 704h504v-65h-504v65z" />
    <glyph glyph-name="Omicron" unicode="&#x39f;" horiz-adv-x="748" 
d="M374 714q144 0 231.5 -101t87.5 -261q0 -159 -88 -260.5t-231 -101.5t-231 101.5t-88 260.5q0 160 87.5 261t231.5 101zM374 55q114 0 181.5 82t67.5 215t-67.5 215t-181.5 82q-113 0 -180.5 -82t-67.5 -215t67.5 -215t180.5 -82z" />
    <glyph glyph-name="Pi" unicode="&#x3a0;" horiz-adv-x="719" 
d="M90 704h539v-704h-69v640h-401v-640h-69v704z" />
    <glyph glyph-name="Rho" unicode="&#x3a1;" horiz-adv-x="608" 
d="M327 704q106 0 168.5 -62t62.5 -157t-63 -157.5t-166 -62.5h-170v-265h-69v704h237zM319 641h-160v-313h161q78 0 123 43t45 114t-45 113.5t-124 42.5z" />
    <glyph glyph-name="Sigma" unicode="&#x3a3;" horiz-adv-x="610" 
d="M549 704v-63h-401l235 -288l-237 -290h403v-63h-488v58l241 294l-240 295v57h487z" />
    <glyph glyph-name="Tau" unicode="&#x3a4;" horiz-adv-x="619" 
d="M35 640v64h550v-64h-241v-640h-69v640h-240z" />
    <glyph glyph-name="Upsilon" unicode="&#x3a5;" horiz-adv-x="629" 
d="M349 0h-69v285l-262 419h79l217 -351l218 351h79l-262 -419v-285z" />
    <glyph glyph-name="Phi" unicode="&#x3a6;" horiz-adv-x="819" 
d="M443 651q139 -2 232.5 -80.5t93.5 -214.5t-94 -214t-232 -80v-73h-67v73q-139 2 -232.5 80t-93.5 214t93.5 214.5t232.5 80.5v73h67v-73zM376 125v463q-114 -2 -185 -64t-71 -168t71 -167.5t185 -63.5zM443 125q113 2 184.5 63.5t71.5 167.5t-71.5 168t-184.5 64v-463z
" />
    <glyph glyph-name="Chi" unicode="&#x3a7;" horiz-adv-x="650" 
d="M537 0l-213 302l-211 -302h-82l249 353l-247 351h82l211 -299l210 299h81l-247 -352l249 -352h-82z" />
    <glyph glyph-name="Psi" unicode="&#x3a8;" horiz-adv-x="817" 
d="M148 453q0 -106 59 -162t167 -61v474h69v-474q109 5 167.5 61t58.5 162v251h69v-254q0 -135 -80 -207t-215 -77v-166h-69v166q-135 5 -215 77t-80 207v254h69v-251z" />
    <glyph glyph-name="uni03A9" unicode="&#x3a9;" horiz-adv-x="761" 
d="M701 367q0 -98 -40 -176.5t-106 -127.5h146v-63h-251v63q76 38 128.5 116.5t52.5 186.5q0 126 -68.5 204.5t-181.5 78.5q-114 0 -182 -78.5t-68 -204.5q0 -108 52 -186.5t128 -116.5v-63h-251v63h146q-66 49 -106 127.5t-40 176.5q0 152 88.5 249.5t232.5 97.5
q143 0 231.5 -97.5t88.5 -249.5z" />
    <glyph glyph-name="Iotadieresis" unicode="&#x3aa;" horiz-adv-x="249" 
d="M159 704v-704h-69v704h69zM26 897q20 0 34.5 -14t14.5 -35t-14.5 -35t-34.5 -14q-21 0 -35.5 14t-14.5 35t14.5 35t35.5 14zM224 897q21 0 35.5 -14t14.5 -35t-14.5 -35t-35.5 -14q-20 0 -34.5 14t-14.5 35t14.5 35t34.5 14z" />
    <glyph glyph-name="Upsilondieresis" unicode="&#x3ab;" horiz-adv-x="629" 
d="M349 0h-69v285l-262 419h79l217 -351l218 351h79l-262 -419v-285zM212 897q20 0 34.5 -14t14.5 -35t-14.5 -35t-34.5 -14q-21 0 -35.5 14t-14.5 35t14.5 35t35.5 14zM418 897q21 0 35.5 -14t14.5 -35t-14.5 -35t-35.5 -14q-20 0 -34.5 14t-14.5 35t14.5 35t34.5 14z" />
    <glyph glyph-name="alphatonos" unicode="&#x3ac;" horiz-adv-x="592" 
d="M275 -10q-94 0 -160.5 69t-66.5 193t66.5 193t162.5 69q61 0 106.5 -26.5t66.5 -67.5v84h64v-504h-64v86q-22 -42 -67.5 -69t-107.5 -27zM282 453q-74 0 -120 -55t-46 -146q0 -90 46 -145.5t120 -55.5q75 0 121.5 53.5t46.5 142.5v10q0 88 -46 142t-122 54zM419 731
l-98 -148h-69l94 148h73z" />
    <glyph glyph-name="epsilontonos" unicode="&#x3ad;" horiz-adv-x="504" 
d="M456 370h-65q-18 85 -136 85q-58 0 -91 -24t-33 -64q0 -37 30.5 -57.5t85.5 -20.5h84v-58h-83q-64 0 -96 -25t-32 -66q0 -43 35.5 -66.5t96.5 -23.5q134 0 148 92h66q-7 -76 -66 -114t-148 -38q-88 0 -143.5 39.5t-55.5 108.5q0 51 29 82.5t65 40.5q-32 10 -57 37.5
t-25 71.5q0 64 53.5 104t136.5 40q86 0 139.5 -37.5t61.5 -106.5zM389 731l-98 -148h-69l94 148h73z" />
    <glyph glyph-name="etatonos" unicode="&#x3ae;" horiz-adv-x="566" 
d="M78 504h64v-69q22 34 65.5 56.5t97.5 22.5q80 0 134 -49.5t54 -146.5v-509h-66v500q0 72 -36.5 108t-96.5 36q-61 0 -105 -38.5t-44 -113.5v-301h-67v504zM421 731l-98 -148h-69l94 148h73z" />
    <glyph glyph-name="iotatonos" unicode="&#x3af;" horiz-adv-x="282" 
d="M145 151q0 -50 21.5 -70.5t61.5 -20.5h23v-60h-33q-140 0 -140 148v356h67v-353zM244 731l-98 -148h-69l94 148h73z" />
    <glyph glyph-name="upsilondieresistonos" unicode="&#x3b0;" horiz-adv-x="561" 
d="M421 504h67v-310q0 -98 -59 -151t-148 -53t-148.5 53t-59.5 151v310h67v-306q0 -72 40 -109.5t101 -37.5q60 0 100 37.5t40 109.5v306zM158 701q20 0 33.5 -13.5t13.5 -32.5q0 -20 -13.5 -33t-33.5 -13t-33.5 13.5t-13.5 32.5t14 32.5t33 13.5zM334 731l-44 -148h-57
l39 148h62zM406 701q20 0 33.5 -13.5t13.5 -32.5q0 -20 -13.5 -33t-33.5 -13t-33.5 13.5t-13.5 32.5t14 32.5t33 13.5z" />
    <glyph glyph-name="alpha" unicode="&#x3b1;" horiz-adv-x="592" 
d="M275 -10q-94 0 -160.5 69t-66.5 193t66.5 193t162.5 69q61 0 106.5 -26.5t66.5 -67.5v84h64v-504h-64v86q-22 -42 -67.5 -69t-107.5 -27zM282 453q-74 0 -120 -55t-46 -146q0 -90 46 -145.5t120 -55.5q75 0 121.5 53.5t46.5 142.5v10q0 88 -46 142t-122 54z" />
    <glyph glyph-name="beta" unicode="&#x3b2;" horiz-adv-x="593" 
d="M404 393q53 -15 95.5 -62t42.5 -126q0 -92 -62 -153.5t-158 -61.5q-121 0 -177 83v-264h-67v713q0 96 61.5 154.5t156.5 58.5q92 0 148.5 -53.5t56.5 -129.5q0 -115 -97 -159zM315 51q72 0 115.5 44t43.5 111q0 71 -46.5 111.5t-127.5 40.5h-33v60h30q67 0 101.5 37
t34.5 94q0 55 -38 90t-99 35q-66 0 -108.5 -41.5t-42.5 -111.5v-313q0 -68 49.5 -112.5t120.5 -44.5z" />
    <glyph glyph-name="gamma" unicode="&#x3b3;" horiz-adv-x="513" 
d="M495 504l-206 -505v-190h-66v192l-205 503h72l166 -417l167 417h72z" />
    <glyph glyph-name="delta" unicode="&#x3b4;" horiz-adv-x="575" 
d="M252 664q-37 0 -58.5 -17t-21.5 -45q0 -63 104 -86q82 -18 117 -35q134 -67 134 -234q0 -110 -65 -183.5t-174 -73.5q-110 0 -175 73t-65 183q0 90 43 150.5t116 82.5q-103 39 -103 126q0 53 39.5 86.5t105.5 33.5h223v-61h-220zM288 51q78 0 124.5 55.5t46.5 140.5
q0 89 -48 142.5t-123 53.5q-77 0 -124.5 -54t-47.5 -142q0 -85 47 -140.5t125 -55.5z" />
    <glyph glyph-name="epsilon" unicode="&#x3b5;" horiz-adv-x="504" 
d="M456 370h-65q-18 85 -136 85q-58 0 -91 -24t-33 -64q0 -37 30.5 -57.5t85.5 -20.5h84v-58h-83q-64 0 -96 -25t-32 -66q0 -43 35.5 -66.5t96.5 -23.5q134 0 148 92h66q-7 -76 -66 -114t-148 -38q-88 0 -143.5 39.5t-55.5 108.5q0 51 29 82.5t65 40.5q-32 10 -57 37.5
t-25 71.5q0 64 53.5 104t136.5 40q86 0 139.5 -37.5t61.5 -106.5z" />
    <glyph glyph-name="zeta" unicode="&#x3b6;" horiz-adv-x="462" 
d="M290 510q-91 -91 -132.5 -156.5t-41.5 -132.5q0 -131 151 -156l37 -6q78 -12 109.5 -41t31.5 -97v-47h-63v37q0 40 -16 58.5t-66 25.5l-36 6q-104 14 -160 70t-56 150q0 86 50 161t150 175l107 107h-280v61h370v-59z" />
    <glyph glyph-name="eta" unicode="&#x3b7;" horiz-adv-x="566" 
d="M78 504h64v-69q22 34 65.5 56.5t97.5 22.5q80 0 134 -49.5t54 -146.5v-509h-66v500q0 72 -36.5 108t-96.5 36q-61 0 -105 -38.5t-44 -113.5v-301h-67v504z" />
    <glyph glyph-name="theta" unicode="&#x3b8;" horiz-adv-x="608" 
d="M304 735q122 0 181.5 -101t59.5 -271t-60 -271.5t-181 -101.5t-181 101.5t-60 271.5t59.5 271t181.5 101zM304 51q168 0 173 292h-346q5 -292 173 -292zM304 674q-160 0 -172 -271h344q-11 271 -172 271z" />
    <glyph glyph-name="iota" unicode="&#x3b9;" horiz-adv-x="282" 
d="M145 151q0 -50 21.5 -70.5t61.5 -20.5h23v-60h-33q-140 0 -140 148v356h67v-353z" />
    <glyph glyph-name="kappa" unicode="&#x3ba;" horiz-adv-x="495" 
d="M145 0h-67v504h67v-219l242 219h87l-258 -235l262 -269h-88l-245 248v-248z" />
    <glyph glyph-name="lambda" unicode="&#x3bb;" horiz-adv-x="513" 
d="M95 725q65 0 98.5 -31.5t64.5 -109.5l237 -584h-73l-166 416l-166 -416h-72l203 498l-26 65q-22 55 -45 78t-61 23h-18v61h24z" />
    <glyph glyph-name="uni03BC" unicode="&#x3bc;" horiz-adv-x="574" 
d="M430 504h66v-504h-64v69q-23 -34 -66.5 -56.5t-97.5 -22.5q-75 0 -123 46v-227h-67v695h67v-308q0 -72 37 -108.5t97 -36.5q61 0 106 38.5t45 114.5v300z" />
    <glyph glyph-name="nu" unicode="&#x3bd;" horiz-adv-x="507" 
d="M489 504l-201 -504h-69l-201 504h72l163 -420l164 420h72z" />
    <glyph glyph-name="xi" unicode="&#x3be;" horiz-adv-x="485" 
d="M66 725h388v-61h-148q-67 0 -108 -36.5t-41 -91.5q0 -54 37.5 -86t106.5 -32h117v-61h-131q-79 0 -125 -41.5t-46 -106.5q0 -118 165 -144l41 -6q78 -12 110 -41.5t32 -96.5v-47h-64v37q0 40 -16 58.5t-66 25.5l-42 7q-106 15 -167 67.5t-61 139.5q0 73 43 120t93 62
q-95 44 -95 141q0 42 22 77t56 55h-101v61z" />
    <glyph glyph-name="omicron" unicode="&#x3bf;" horiz-adv-x="571" 
d="M286 514q107 0 172 -73t65 -189t-65 -189t-172 -73t-172.5 73t-65.5 189t65.5 189t172.5 73zM286 51q76 0 122.5 55t46.5 146t-46.5 146t-122.5 55q-77 0 -123.5 -55t-46.5 -146t46.5 -146t123.5 -55z" />
    <glyph glyph-name="pi" unicode="&#x3c0;" horiz-adv-x="605" 
d="M180 0h-66v444h-86v60h549v-60h-85v-444h-67v444h-245v-444z" />
    <glyph glyph-name="rho" unicode="&#x3c1;" horiz-adv-x="580" 
d="M299 514q99 0 166 -69t67 -193q0 -122 -66.5 -192t-160.5 -70q-58 0 -102.5 23.5t-68.5 62.5v-267h-67v448q0 122 66.5 189.5t165.5 67.5zM299 51q74 0 119.5 55.5t45.5 145.5t-45.5 145.5t-119.5 55.5q-76 0 -122 -53.5t-46 -142.5v-10q0 -88 46 -142t122 -54z" />
    <glyph glyph-name="sigmafinal" unicode="&#x3c2;" horiz-adv-x="538" 
d="M324 59q78 -12 110 -41.5t32 -96.5v-47h-64v37q0 40 -15.5 58.5t-65.5 25.5l-35 6q-238 35 -238 253q0 116 65.5 188t168.5 72q89 0 145 -49.5t68 -118.5h-67q-13 44 -50 75.5t-96 31.5q-73 0 -119.5 -54.5t-46.5 -144.5q0 -88 45.5 -131.5t126.5 -57.5z" />
    <glyph glyph-name="sigma" unicode="&#x3c3;" horiz-adv-x="594" 
d="M555 504v-60h-124q91 -70 91 -197q0 -112 -65.5 -184.5t-171.5 -72.5t-171.5 73t-65.5 186q0 112 65 183.5t174 71.5h268zM455 249q0 87 -46 141t-122 54t-123.5 -54t-47.5 -141q0 -88 46.5 -143t122.5 -55t123 55t47 143z" />
    <glyph glyph-name="tau" unicode="&#x3c4;" horiz-adv-x="485" 
d="M28 444v60h421v-60h-183v-293q0 -91 83 -91h26v-60h-36q-139 0 -139 148v296h-172z" />
    <glyph glyph-name="upsilon" unicode="&#x3c5;" horiz-adv-x="561" 
d="M421 504h67v-310q0 -98 -59 -151t-148 -53t-148.5 53t-59.5 151v310h67v-306q0 -72 40 -109.5t101 -37.5q60 0 100 37.5t40 109.5v306z" />
    <glyph glyph-name="phi" unicode="&#x3c6;" horiz-adv-x="710" 
d="M388 513q124 -3 199 -75t75 -186t-75 -186t-199 -75v-182h-65v182q-125 3 -200 75t-75 186t75 186t200 75v191h65v-191zM323 52v400q-94 -2 -150.5 -56t-56.5 -144t56.5 -144t150.5 -56zM595 252q0 90 -56.5 144t-150.5 56v-400q94 2 150.5 56t56.5 144z" />
    <glyph glyph-name="chi" unicode="&#x3c7;" horiz-adv-x="513" 
d="M421 -191l-166 294l-164 -294h-73l199 352l-197 343h75l163 -287l162 287h73l-197 -345l199 -350h-74z" />
    <glyph glyph-name="psi" unicode="&#x3c8;" horiz-adv-x="694" 
d="M558 504h66v-263q0 -113 -62.5 -177.5t-181.5 -71.5v-183h-65v183q-120 6 -182.5 70.5t-62.5 178.5v263h67v-260q0 -181 178 -191v611h65v-611q178 12 178 191v260z" />
    <glyph glyph-name="omega" unicode="&#x3c9;" horiz-adv-x="758" 
d="M485 514q94 0 157.5 -73.5t63.5 -188.5q0 -118 -52.5 -190t-138.5 -72q-98 0 -136 93q-40 -93 -136 -93q-86 0 -138.5 72t-52.5 190q0 115 63.5 188.5t157.5 73.5v-61q-65 0 -109 -56t-44 -145q0 -92 34.5 -146.5t91.5 -54.5q52 0 76 40.5t24 99.5v152h66v-152
q0 -59 24 -99.5t76 -40.5q57 0 91.5 54.5t34.5 146.5q0 89 -44 145t-109 56v61z" />
    <glyph glyph-name="iotadieresis" unicode="&#x3ca;" horiz-adv-x="282" 
d="M145 151q0 -50 21.5 -70.5t61.5 -20.5h23v-60h-33q-140 0 -140 148v356h67v-353zM19 705q21 0 35.5 -14t14.5 -35t-14.5 -35t-35.5 -14q-20 0 -34.5 14t-14.5 35t14.5 35t34.5 14zM205 705q20 0 34.5 -14t14.5 -35t-14.5 -35t-34.5 -14q-21 0 -35.5 14t-14.5 35t14.5 35
t35.5 14z" />
    <glyph glyph-name="upsilondieresis" unicode="&#x3cb;" horiz-adv-x="561" 
d="M421 504h67v-310q0 -98 -59 -151t-148 -53t-148.5 53t-59.5 151v310h67v-306q0 -72 40 -109.5t101 -37.5q60 0 100 37.5t40 109.5v306zM182 705q20 0 34.5 -14t14.5 -35t-14.5 -35t-34.5 -14q-21 0 -35.5 14t-14.5 35t14.5 35t35.5 14zM380 705q21 0 35.5 -14t14.5 -35
t-14.5 -35t-35.5 -14q-20 0 -34.5 14t-14.5 35t14.5 35t34.5 14z" />
    <glyph glyph-name="omicrontonos" unicode="&#x3cc;" horiz-adv-x="571" 
d="M286 514q107 0 172 -73t65 -189t-65 -189t-172 -73t-172.5 73t-65.5 189t65.5 189t172.5 73zM286 51q76 0 122.5 55t46.5 146t-46.5 146t-122.5 55q-77 0 -123.5 -55t-46.5 -146t46.5 -146t123.5 -55zM418 731l-98 -148h-69l94 148h73z" />
    <glyph glyph-name="upsilontonos" unicode="&#x3cd;" horiz-adv-x="561" 
d="M421 504h67v-310q0 -98 -59 -151t-148 -53t-148.5 53t-59.5 151v310h67v-306q0 -72 40 -109.5t101 -37.5q60 0 100 37.5t40 109.5v306zM413 731l-98 -148h-69l94 148h73z" />
    <glyph glyph-name="omegatonos" unicode="&#x3ce;" horiz-adv-x="758" 
d="M485 514q94 0 157.5 -73.5t63.5 -188.5q0 -118 -52.5 -190t-138.5 -72q-98 0 -136 93q-40 -93 -136 -93q-86 0 -138.5 72t-52.5 190q0 115 63.5 188.5t157.5 73.5v-61q-65 0 -109 -56t-44 -145q0 -92 34.5 -146.5t91.5 -54.5q52 0 76 40.5t24 99.5v152h66v-152
q0 -59 24 -99.5t76 -40.5q57 0 91.5 54.5t34.5 146.5q0 89 -44 145t-109 56v61zM511 731l-98 -148h-69l94 148h73z" />
    <glyph glyph-name="uni0400" unicode="&#x400;" horiz-adv-x="589" 
d="M527 640h-368v-246h349v-63h-349v-267h368v-64h-437v704h437v-64zM180 923h73l94 -148h-69z" />
    <glyph glyph-name="uni0401" unicode="&#x401;" horiz-adv-x="589" 
d="M527 640h-368v-246h349v-63h-349v-267h368v-64h-437v704h437v-64zM209 897q20 0 34.5 -14t14.5 -35t-14.5 -35t-34.5 -14q-21 0 -35.5 14t-14.5 35t14.5 35t35.5 14zM415 897q21 0 35.5 -14t14.5 -35t-14.5 -35t-35.5 -14q-20 0 -34.5 14t-14.5 35t14.5 35t34.5 14z" />
    <glyph glyph-name="uni0402" unicode="&#x402;" horiz-adv-x="808" 
d="M527 433q102 0 166.5 -59.5t64.5 -160.5q0 -97 -60.5 -155.5t-159.5 -58.5h-27v64h22q67 0 110.5 39t43.5 111q0 74 -46.5 115t-123.5 41q-105 0 -175 -61v-308h-69v640h-235v64h539v-64h-235v-265q74 58 185 58z" />
    <glyph glyph-name="uni0403" unicode="&#x403;" horiz-adv-x="556" 
d="M519 640h-360v-640h-69v704h429v-64zM445 923l-98 -148h-69l94 148h73z" />
    <glyph glyph-name="uni0404" unicode="&#x404;" horiz-adv-x="704" 
d="M584 210h70q-8 -39 -28 -76.5t-53.5 -70.5t-86.5 -53t-117 -20q-137 0 -225.5 98t-88.5 264q0 165 87.5 263.5t226.5 98.5q114 0 189.5 -63t93.5 -155h-69q-21 66 -75 109.5t-139 43.5q-101 0 -166.5 -68.5t-75.5 -187.5h316v-63h-317q5 -126 72 -200.5t170 -74.5
q91 0 145.5 47t70.5 108z" />
    <glyph glyph-name="uni0405" unicode="&#x405;" horiz-adv-x="615" 
d="M52 182h70q17 -60 67.5 -94t130.5 -34q76 0 124 37t48 101q0 102 -125 122l-134 22q-81 14 -125 59t-44 116q0 92 69 147.5t168 55.5q96 0 165 -47.5t85 -137.5h-70q-17 61 -64 91t-116 30t-118 -35.5t-49 -98.5q0 -92 114 -112l135 -23q180 -30 180 -185
q0 -95 -69 -150.5t-176 -55.5q-106 0 -178.5 49.5t-87.5 142.5z" />
    <glyph glyph-name="uni0406" unicode="&#x406;" horiz-adv-x="249" 
d="M159 704v-704h-69v704h69z" />
    <glyph glyph-name="uni0407" unicode="&#x407;" horiz-adv-x="249" 
d="M159 704v-704h-69v704h69zM26 897q20 0 34.5 -14t14.5 -35t-14.5 -35t-34.5 -14q-21 0 -35.5 14t-14.5 35t14.5 35t35.5 14zM224 897q21 0 35.5 -14t14.5 -35t-14.5 -35t-35.5 -14q-20 0 -34.5 14t-14.5 35t14.5 35t34.5 14z" />
    <glyph glyph-name="uni0408" unicode="&#x408;" horiz-adv-x="533" 
d="M34 176h68q7 -50 41 -85.5t95 -35.5q69 0 104 45.5t35 123.5v480h69v-481q0 -111 -55 -172t-154 -61q-91 0 -145 54.5t-58 131.5z" />
    <glyph glyph-name="uni0409" unicode="&#x409;" horiz-adv-x="1046" 
d="M765 437q106 0 168.5 -61.5t62.5 -156.5q0 -94 -63 -156.5t-166 -62.5h-238v640h-287l-29 -418q-7 -110 -48 -167t-135 -57h-21v66h13q63 0 90.5 37.5t33.5 125.5l33 477h419v-267h167zM757 373h-159v-309h160q77 0 122.5 42.5t45.5 112.5t-45 112t-124 42z" />
    <glyph glyph-name="uni040A" unicode="&#x40a;" horiz-adv-x="1071" 
d="M159 0h-69v704h69v-290h402v290h69v-288h164q104 0 166 -57.5t62 -149.5q0 -91 -62.5 -150t-163.5 -59h-235v351h-402v-351zM787 353h-157v-289h157q75 0 120 39t45 106q0 68 -44.5 106t-120.5 38z" />
    <glyph glyph-name="uni040B" unicode="&#x40b;" horiz-adv-x="823" 
d="M38 640v64h539v-64h-235v-265q72 58 182 58q105 0 165.5 -60.5t60.5 -183.5v-189h-69v189q0 92 -44.5 136t-122.5 44q-102 0 -172 -61v-308h-69v640h-235z" />
    <glyph glyph-name="uni040C" unicode="&#x40c;" horiz-adv-x="614" 
d="M159 0h-69v704h69v-319l339 319h92l-357 -337l365 -367h-95l-344 343v-343zM450 923l-98 -148h-69l94 148h73z" />
    <glyph glyph-name="uni040D" unicode="&#x40d;" horiz-adv-x="725" 
d="M635 704v-704h-68v593l-408 -593h-69v704h69v-593l408 593h68zM231 923h73l94 -148h-69z" />
    <glyph glyph-name="uni040E" unicode="&#x40e;" horiz-adv-x="639" 
d="M23 704h77l228 -438l213 438h75l-344 -704h-76l95 194zM229 923q0 -42 26 -69t68 -27t68 27t26 69h61q-1 -67 -44.5 -108.5t-110.5 -41.5t-110.5 41.5t-44.5 108.5h61z" />
    <glyph glyph-name="uni040F" unicode="&#x40f;" horiz-adv-x="719" 
d="M90 0v704h69v-639h401v639h69v-704h-235v-150h-68v150h-236z" />
    <glyph glyph-name="uni0410" unicode="&#x410;" horiz-adv-x="656" 
d="M293 704h71l269 -704h-74l-75 199h-313l-73 -199h-75zM327 616l-132 -354h265z" />
    <glyph glyph-name="uni0411" unicode="&#x411;" horiz-adv-x="609" 
d="M512 640h-353v-220h174q103 0 164 -57.5t61 -151.5q0 -93 -61.5 -152t-162.5 -59h-244v704h422v-64zM325 356h-166v-292h166q75 0 119 39.5t44 107.5t-44 106.5t-119 38.5z" />
    <glyph glyph-name="uni0412" unicode="&#x412;" horiz-adv-x="630" 
d="M90 0v704h250q99 0 155 -49.5t56 -129.5q0 -61 -29 -102t-69 -56q48 -12 87 -55.5t39 -115.5q0 -89 -61.5 -142.5t-166.5 -53.5h-261zM349 332h-190v-269h187q75 0 118.5 36t43.5 99q0 62 -42 98t-117 36zM331 642h-172v-248h182q70 0 105 34.5t35 90.5q0 58 -39 90.5
t-111 32.5z" />
    <glyph glyph-name="uni0413" unicode="&#x413;" horiz-adv-x="556" 
d="M519 640h-360v-640h-69v704h429v-64z" />
    <glyph glyph-name="uni0414" unicode="&#x414;" horiz-adv-x="723" 
d="M692 65v-199h-67v134h-549v-134h-67v199h53q41 30 60.5 90.5t27.5 181.5l24 367h432v-639h86zM217 337q-8 -122 -24.5 -180.5t-48.5 -91.5h393v575h-300z" />
    <glyph glyph-name="uni0415" unicode="&#x415;" horiz-adv-x="589" 
d="M527 640h-368v-246h349v-63h-349v-267h368v-64h-437v704h437v-64z" />
    <glyph glyph-name="uni0416" unicode="&#x416;" horiz-adv-x="913" 
d="M422 0v348l-316 -348h-88l330 366l-323 338h89l308 -322v322h69v-321l308 321h88l-322 -337l330 -367h-88l-316 347v-347h-69z" />
    <glyph glyph-name="uni0417" unicode="&#x417;" horiz-adv-x="597" 
d="M54 526q11 90 79.5 139t161.5 49q101 0 163 -53.5t62 -137.5q0 -56 -30.5 -97t-75.5 -58q51 -13 91.5 -56t40.5 -115q0 -88 -66.5 -147.5t-175.5 -59.5t-177.5 52t-80.5 143h69q12 -59 60 -94.5t129 -35.5q80 0 125.5 40t45.5 103q0 65 -46 99t-124 34h-106v63h101
q73 0 111 36t38 91q0 58 -42 93.5t-112 35.5q-69 0 -115 -32.5t-58 -91.5h-68z" />
    <glyph glyph-name="uni0418" unicode="&#x418;" horiz-adv-x="725" 
d="M635 704v-704h-68v593l-408 -593h-69v704h69v-593l408 593h68z" />
    <glyph glyph-name="uni0419" unicode="&#x419;" horiz-adv-x="725" 
d="M635 704v-704h-68v593l-408 -593h-69v704h69v-593l408 593h68zM269 923q0 -42 26 -69t68 -27t68 27t26 69h61q-1 -67 -44.5 -108.5t-110.5 -41.5t-110.5 41.5t-44.5 108.5h61z" />
    <glyph glyph-name="uni041A" unicode="&#x41a;" horiz-adv-x="614" 
d="M159 0h-69v704h69v-319l339 319h92l-357 -337l365 -367h-95l-344 343v-343z" />
    <glyph glyph-name="uni041B" unicode="&#x41b;" horiz-adv-x="688" 
d="M9 -2v66h13q63 0 90.5 37.5t33.5 125.5l33 477h419v-704h-69v640h-287l-29 -418q-7 -110 -48 -167t-135 -57h-21z" />
    <glyph glyph-name="uni041C" unicode="&#x41c;" horiz-adv-x="880" 
d="M90 704h82l268 -614l269 614h81v-704h-68v574l-250 -574h-63l-251 574v-574h-68v704z" />
    <glyph glyph-name="uni041D" unicode="&#x41d;" horiz-adv-x="722" 
d="M159 0h-69v704h69v-309h404v309h69v-704h-69v330h-404v-330z" />
    <glyph glyph-name="uni041E" unicode="&#x41e;" horiz-adv-x="748" 
d="M374 714q144 0 231.5 -101t87.5 -261q0 -159 -88 -260.5t-231 -101.5t-231 101.5t-88 260.5q0 160 87.5 261t231.5 101zM374 55q114 0 181.5 82t67.5 215t-67.5 215t-181.5 82q-113 0 -180.5 -82t-67.5 -215t67.5 -215t180.5 -82z" />
    <glyph glyph-name="uni041F" unicode="&#x41f;" horiz-adv-x="719" 
d="M90 704h539v-704h-69v640h-401v-640h-69v704z" />
    <glyph glyph-name="uni0420" unicode="&#x420;" horiz-adv-x="608" 
d="M327 704q106 0 168.5 -62t62.5 -157t-63 -157.5t-166 -62.5h-170v-265h-69v704h237zM319 641h-160v-313h161q78 0 123 43t45 114t-45 113.5t-124 42.5z" />
    <glyph glyph-name="uni0421" unicode="&#x421;" horiz-adv-x="704" 
d="M584 217h70q-9 -56 -40.5 -105.5t-96 -85.5t-149.5 -36q-137 0 -225 100t-88 262q0 160 87 261t226 101q117 0 192 -64t92 -161h-70q-18 70 -72 115t-142 45q-109 0 -175.5 -82t-66.5 -215t67 -215t175 -82q92 0 147.5 48.5t68.5 113.5z" />
    <glyph glyph-name="uni0422" unicode="&#x422;" horiz-adv-x="619" 
d="M35 640v64h550v-64h-241v-640h-69v640h-240z" />
    <glyph glyph-name="uni0423" unicode="&#x423;" horiz-adv-x="639" 
d="M23 704h77l228 -438l213 438h75l-344 -704h-76l95 194z" />
    <glyph glyph-name="uni0424" unicode="&#x424;" horiz-adv-x="819" 
d="M443 651q139 -2 232.5 -80.5t93.5 -214.5t-94 -214t-232 -80v-73h-67v73q-139 2 -232.5 80t-93.5 214t93.5 214.5t232.5 80.5v73h67v-73zM376 125v463q-114 -2 -185 -64t-71 -168t71 -167.5t185 -63.5zM443 125q113 2 184.5 63.5t71.5 167.5t-71.5 168t-184.5 64v-463z
" />
    <glyph glyph-name="uni0425" unicode="&#x425;" horiz-adv-x="650" 
d="M537 0l-213 302l-211 -302h-82l249 353l-247 351h82l211 -299l210 299h81l-247 -352l249 -352h-82z" />
    <glyph glyph-name="uni0426" unicode="&#x426;" horiz-adv-x="743" 
d="M712 65v-199h-67v134h-555v704h69v-639h398v639h69v-639h86z" />
    <glyph glyph-name="uni0427" unicode="&#x427;" horiz-adv-x="655" 
d="M496 704h69v-704h-69v319q-68 -48 -176 -48q-113 0 -185 65.5t-72 190.5v177h69v-176q0 -96 53.5 -144t140.5 -48q100 0 170 51v317z" />
    <glyph glyph-name="uni0428" unicode="&#x428;" horiz-adv-x="974" 
d="M522 704v-639h293v639h69v-704h-794v704h69v-639h294v639h69z" />
    <glyph glyph-name="uni0429" unicode="&#x429;" horiz-adv-x="1001" 
d="M970 65v-199h-67v134h-813v704h69v-639h294v639h69v-639h293v639h69v-639h86z" />
    <glyph glyph-name="uni042A" unicode="&#x42a;" horiz-adv-x="712" 
d="M431 437q106 0 168.5 -61.5t62.5 -156.5q0 -94 -63 -156.5t-166 -62.5h-238v640h-160v64h229v-267h167zM423 373h-159v-309h160q77 0 122.5 42.5t45.5 112.5t-45 112t-124 42z" />
    <glyph glyph-name="uni042B" unicode="&#x42b;" horiz-adv-x="813" 
d="M326 437q106 0 169 -61.5t63 -156.5q0 -94 -63 -156.5t-167 -62.5h-238v704h69v-267h167zM319 373h-160v-309h160q78 0 123 42.5t45 112.5q0 71 -44.5 112.5t-123.5 41.5zM723 704v-704h-69v704h69z" />
    <glyph glyph-name="uni042C" unicode="&#x42c;" horiz-adv-x="607" 
d="M326 437q106 0 169 -61.5t63 -156.5q0 -94 -63 -156.5t-167 -62.5h-238v704h69v-267h167zM319 373h-160v-309h160q78 0 123 42.5t45 112.5q0 71 -44.5 112.5t-123.5 41.5z" />
    <glyph glyph-name="uni042D" unicode="&#x42d;" horiz-adv-x="704" 
d="M262 330v63h315q-10 119 -75 187.5t-165 68.5q-86 0 -140 -43.5t-74 -109.5h-70q20 93 94.5 155.5t189.5 62.5q139 0 225.5 -98.5t86.5 -263.5q0 -166 -88.5 -264t-225.5 -98q-122 0 -194.5 66.5t-90.5 153.5h70q16 -61 71 -108t145 -47q103 0 170 74t72 201h-316z" />
    <glyph glyph-name="uni042E" unicode="&#x42e;" horiz-adv-x="963" 
d="M159 0h-69v704h69v-309h123q11 143 95.5 231t216.5 88q142 0 228 -101t86 -261q0 -159 -86 -260.5t-228 -101.5q-136 0 -221.5 94.5t-92.5 245.5h-121v-330zM594 55q112 0 177.5 81.5t65.5 215.5t-65.5 215.5t-177.5 81.5t-177.5 -81.5t-65.5 -215.5t65.5 -215.5
t177.5 -81.5z" />
    <glyph glyph-name="uni042F" unicode="&#x42f;" horiz-adv-x="627" 
d="M110 0h-81l191 279q-69 21 -110 77t-41 131q0 96 63 156.5t168 60.5h237v-704h-69v268h-171h-2zM139 487q0 -70 45 -113t124 -43h160v310h-160q-79 0 -124 -42.5t-45 -111.5z" />
    <glyph glyph-name="uni0430" unicode="&#x430;" horiz-adv-x="528" 
d="M389 336q0 58 -35 88.5t-92 30.5q-52 0 -85 -22t-46 -58h-65q14 61 66 100t131 39q88 0 140 -47t52 -131v-336h-63v69q-60 -79 -172 -79q-75 0 -124 41.5t-49 110.5q0 71 52 111.5t144 40.5h146v42zM228 49q69 0 115 38.5t46 101.5v47h-143q-62 0 -97 -24.5t-35 -69.5
q0 -43 32 -68t82 -25z" />
    <glyph glyph-name="uni0431" unicode="&#x431;" horiz-adv-x="586" 
d="M309 506q101 0 165 -70t64 -187q0 -109 -64 -184t-171 -75q-113 0 -180 79t-67 214q0 194 53.5 290t182.5 122l195 39v-65l-182 -33q-90 -17 -131.5 -72.5t-50.5 -157.5q59 100 186 100zM300 51q78 0 124 56.5t46 141.5q0 86 -46 141.5t-122 55.5t-125.5 -52t-49.5 -143
q0 -89 47 -144.5t126 -55.5z" />
    <glyph glyph-name="uni0432" unicode="&#x432;" horiz-adv-x="511" 
d="M78 0v504h206q75 0 115.5 -35.5t40.5 -92.5q0 -42 -20 -71t-48 -40q37 -8 64 -40.5t27 -82.5q0 -63 -44.5 -102.5t-122.5 -39.5h-218zM288 231h-144v-173h144q53 0 80.5 24t27.5 65q0 39 -27.5 61.5t-80.5 22.5zM277 446h-133v-158h134q48 0 72 22t24 59q0 77 -97 77z
" />
    <glyph glyph-name="uni0433" unicode="&#x433;" horiz-adv-x="441" 
d="M406 444h-261v-444h-67v504h328v-60z" />
    <glyph glyph-name="uni0434" unicode="&#x434;" horiz-adv-x="594" 
d="M562 61v-189h-64v128h-420v-128h-64v189h41q53 34 66 184l20 259h347v-443h74zM185 243q-5 -68 -16 -111.5t-36 -70.5h289v383h-222z" />
    <glyph glyph-name="uni0435" unicode="&#x435;" horiz-adv-x="545" 
d="M497 234h-379v-3q0 -80 47 -130t121 -50q55 0 90.5 23.5t46.5 54.5h67q-13 -54 -65.5 -96.5t-138.5 -42.5q-105 0 -171.5 70.5t-66.5 191.5q0 120 65 191t167 71q98 0 157.5 -65.5t59.5 -178.5v-36zM279 454q-69 0 -112.5 -44.5t-48.5 -118.5h312q-2 77 -42.5 120
t-108.5 43z" />
    <glyph glyph-name="uni0436" unicode="&#x436;" horiz-adv-x="711" 
d="M387 504v-223l220 223h82l-232 -236l236 -268h-84l-222 251v-251h-64v251l-222 -251h-83l235 266l-232 238h82l220 -223v223h64z" />
    <glyph glyph-name="uni0437" unicode="&#x437;" horiz-adv-x="489" 
d="M53 370q9 69 63.5 106.5t130.5 37.5t124.5 -38.5t48.5 -102.5q0 -81 -74 -111q38 -9 66.5 -38t28.5 -80q0 -70 -55 -112t-139 -42q-82 0 -138.5 40t-65.5 113h66q9 -44 46.5 -68.5t93.5 -24.5q57 0 91 25.5t34 69.5q0 84 -122 84h-80v58h74q53 0 80.5 23t27.5 62
q0 38 -29.5 60.5t-79.5 22.5q-51 0 -84.5 -23t-42.5 -62h-65z" />
    <glyph glyph-name="uni0438" unicode="&#x438;" horiz-adv-x="573" 
d="M495 504v-504h-66v402l-285 -402h-66v504h66v-402l285 402h66z" />
    <glyph glyph-name="uni0439" unicode="&#x439;" horiz-adv-x="573" 
d="M495 504v-504h-66v402l-285 -402h-66v504h66v-402l285 402h66zM197 731q0 -42 24 -69t66 -27t66 27t24 69h60q-1 -68 -42 -109t-108 -41t-108 41t-42 109h60z" />
    <glyph glyph-name="uni043A" unicode="&#x43a;" horiz-adv-x="495" 
d="M145 0h-67v504h67v-219l242 219h87l-258 -235l262 -269h-88l-245 248v-248z" />
    <glyph glyph-name="uni043B" unicode="&#x43b;" horiz-adv-x="558" 
d="M14 -2v62h12q49 0 69 28.5t26 98.5l27 317h332v-504h-67v444h-206l-22 -262q-8 -97 -43.5 -140.5t-108.5 -43.5h-19z" />
    <glyph glyph-name="uni043C" unicode="&#x43c;" horiz-adv-x="714" 
d="M78 504h81l198 -424l199 424h80v-504h-65v395l-186 -395h-55l-187 397v-397h-65v504z" />
    <glyph glyph-name="uni043D" unicode="&#x43d;" horiz-adv-x="567" 
d="M145 0h-67v504h67v-211h278v211h66v-504h-66v232h-278v-232z" />
    <glyph glyph-name="uni043E" unicode="&#x43e;" horiz-adv-x="571" 
d="M286 514q107 0 172 -73t65 -189t-65 -189t-172 -73t-172.5 73t-65.5 189t65.5 189t172.5 73zM286 51q76 0 122.5 55t46.5 146t-46.5 146t-122.5 55q-77 0 -123.5 -55t-46.5 -146t46.5 -146t123.5 -55z" />
    <glyph glyph-name="uni043F" unicode="&#x43f;" horiz-adv-x="564" 
d="M78 504h408v-504h-66v444h-275v-444h-67v504z" />
    <glyph glyph-name="uni0440" unicode="&#x440;" horiz-adv-x="591" 
d="M317 514q94 0 160 -69.5t66 -192.5t-66 -192.5t-162 -69.5q-60 0 -104 24.5t-66 63.5v-269h-67v695h64v-85q23 42 68 68.5t107 26.5zM310 51q74 0 119.5 55.5t45.5 145.5t-45.5 145.5t-119.5 55.5q-75 0 -121.5 -53.5t-46.5 -142.5v-10q0 -87 46.5 -141.5t121.5 -54.5z
" />
    <glyph glyph-name="uni0441" unicode="&#x441;" horiz-adv-x="538" 
d="M283 51q63 0 98.5 32t47.5 77h66q-10 -70 -67.5 -120t-145.5 -50q-102 0 -168 72.5t-66 189.5t65.5 189.5t168.5 72.5q89 0 145 -49.5t68 -117.5h-66q-14 44 -51 75t-96 31q-73 0 -119.5 -55t-46.5 -146q0 -92 47 -146.5t120 -54.5z" />
    <glyph glyph-name="uni0442" unicode="&#x442;" horiz-adv-x="484" 
d="M32 444v60h420v-60h-177v-444h-66v444h-177z" />
    <glyph glyph-name="uni0443" unicode="&#x443;" horiz-adv-x="513" 
d="M423 504h72l-282 -695h-72l80 197l-203 498h72l167 -417z" />
    <glyph glyph-name="uni0444" unicode="&#x444;" horiz-adv-x="690" 
d="M378 513q117 -3 190.5 -75t73.5 -186q0 -113 -73 -185.5t-191 -75.5v-182h-65v182q-118 3 -191.5 75.5t-73.5 185.5q0 114 73.5 186t191.5 75v191h65v-191zM313 52v400q-87 -2 -142 -56t-55 -144q0 -89 54.5 -143.5t142.5 -56.5zM575 252q0 89 -55 143.5t-142 56.5v-400
q87 2 142 56.5t55 143.5z" />
    <glyph glyph-name="uni0445" unicode="&#x445;" horiz-adv-x="510" 
d="M403 0l-150 205l-147 -205h-78l183 252l-181 252h79l147 -207l146 207h78l-183 -253l185 -251h-79z" />
    <glyph glyph-name="uni0446" unicode="&#x446;" horiz-adv-x="589" 
d="M558 61v-189h-65v128h-415v504h67v-443h272v443h67v-443h74z" />
    <glyph glyph-name="uni0447" unicode="&#x447;" horiz-adv-x="524" 
d="M379 504h67v-504h-67v215q-50 -31 -123 -31q-90 0 -144 51t-54 149v120h67v-119q0 -69 37 -105t101 -36q67 0 116 33v227z" />
    <glyph glyph-name="uni0448" unicode="&#x448;" horiz-adv-x="789" 
d="M428 504v-443h216v443h67v-504h-633v504h67v-443h216v443h67z" />
    <glyph glyph-name="uni0449" unicode="&#x449;" horiz-adv-x="816" 
d="M785 61v-189h-65v128h-642v504h67v-443h216v443h67v-443h216v443h67v-443h74z" />
    <glyph glyph-name="uni044A" unicode="&#x44a;" horiz-adv-x="580" 
d="M240 504v-172h122q78 0 126.5 -46t48.5 -119t-48.5 -120t-127.5 -47h-187v444h-142v60h208zM354 273h-114v-213h114q54 0 85 30t31 77q0 48 -31 77t-85 29z" />
    <glyph glyph-name="uni044B" unicode="&#x44b;" horiz-adv-x="670" 
d="M145 504v-172h121q79 0 127 -46t48 -119t-48 -120t-127 -47h-188v504h67zM258 273h-113v-213h113q54 0 85 30t31 77q0 48 -31 77t-85 29zM592 504v-504h-67v504h67z" />
    <glyph glyph-name="uni044C" unicode="&#x44c;" horiz-adv-x="484" 
d="M145 504v-172h121q79 0 127 -46t48 -119t-48 -120t-127 -47h-188v504h67zM258 273h-113v-213h113q54 0 85 30t31 77q0 48 -31 77t-85 29z" />
    <glyph glyph-name="uni044D" unicode="&#x44d;" horiz-adv-x="535" 
d="M183 290h235q-9 79 -52.5 121.5t-109.5 42.5q-61 0 -97 -28.5t-48 -68.5h-66q13 65 67 111t144 46q104 0 167.5 -70.5t63.5 -191.5q0 -119 -65 -190.5t-168 -71.5q-89 0 -145.5 47.5t-65.5 115.5h65q9 -41 45 -71.5t101 -30.5q70 0 115.5 48.5t49.5 132.5h-236v58z" />
    <glyph glyph-name="uni044E" unicode="&#x44e;" horiz-adv-x="763" 
d="M145 0h-67v504h67v-211h106q12 100 74.5 160.5t156.5 60.5q105 0 169 -73t64 -189t-64 -189t-169 -73q-99 0 -163 67t-70 175h-104v-232zM482 51q75 0 120 55t45 146t-45 146t-120 55t-120 -55t-45 -146t45 -146t120 -55z" />
    <glyph glyph-name="uni044F" unicode="&#x44f;" horiz-adv-x="500" 
d="M422 0h-66v179h-112l-137 -179h-79l144 187q-55 16 -85.5 58t-30.5 97q0 71 47.5 116.5t129.5 45.5h189v-504zM123 342q0 -46 31 -75t86 -29h116v207h-116q-54 0 -85.5 -28.5t-31.5 -74.5z" />
    <glyph glyph-name="uni0450" unicode="&#x450;" horiz-adv-x="545" 
d="M497 234h-379v-3q0 -80 47 -130t121 -50q55 0 90.5 23.5t46.5 54.5h67q-13 -54 -65.5 -96.5t-138.5 -42.5q-105 0 -171.5 70.5t-66.5 191.5q0 120 65 191t167 71q98 0 157.5 -65.5t59.5 -178.5v-36zM279 454q-69 0 -112.5 -44.5t-48.5 -118.5h312q-2 77 -42.5 120
t-108.5 43zM148 731h73l94 -148h-69z" />
    <glyph glyph-name="uni0451" unicode="&#x451;" horiz-adv-x="545" 
d="M497 234h-379v-3q0 -80 47 -130t121 -50q55 0 90.5 23.5t46.5 54.5h67q-13 -54 -65.5 -96.5t-138.5 -42.5q-105 0 -171.5 70.5t-66.5 191.5q0 120 65 191t167 71q98 0 157.5 -65.5t59.5 -178.5v-36zM279 454q-69 0 -112.5 -44.5t-48.5 -118.5h312q-2 77 -42.5 120
t-108.5 43zM181 705q20 0 34.5 -14t14.5 -35t-14.5 -35t-34.5 -14q-21 0 -35.5 14t-14.5 35t14.5 35t35.5 14zM379 705q21 0 35.5 -14t14.5 -35t-14.5 -35t-35.5 -14q-20 0 -34.5 14t-14.5 35t14.5 35t34.5 14z" />
    <glyph glyph-name="uni0452" unicode="&#x452;" horiz-adv-x="569" 
d="M308 514q80 0 134 -49.5t54 -145.5v-357q0 -153 -136 -153h-29v60h19q80 0 80 96v344q0 72 -36.5 108t-96.5 36q-61 0 -105 -38.5t-44 -113.5v-301h-67v603h-74v55h74v69h67v-69h142v-55h-142v-164q23 33 65.5 54t94.5 21z" />
    <glyph glyph-name="uni0453" unicode="&#x453;" horiz-adv-x="441" 
d="M406 444h-261v-444h-67v504h328v-60zM384 731l-98 -148h-69l94 148h73z" />
    <glyph glyph-name="uni0454" unicode="&#x454;" horiz-adv-x="535" 
d="M352 290v-58h-236q4 -84 50 -132.5t116 -48.5q65 0 100.5 30.5t45.5 71.5h64q-8 -68 -64.5 -115.5t-146.5 -47.5q-103 0 -168 71.5t-65 190.5t65 190.5t168 71.5q91 0 145.5 -46t65.5 -111h-66q-12 40 -48 68.5t-97 28.5q-66 0 -110.5 -43.5t-52.5 -120.5h234z" />
    <glyph glyph-name="uni0455" unicode="&#x455;" horiz-adv-x="493" 
d="M113 140q24 -90 144 -90q56 0 89.5 23.5t33.5 65.5q0 67 -88 78l-92 12q-65 9 -103 41.5t-38 92.5q0 64 52.5 107.5t132.5 43.5q77 0 129 -37.5t62 -103.5h-65q-24 82 -126 82q-54 0 -86 -25t-32 -63q0 -64 85 -75l93 -13q143 -19 143 -136q0 -71 -54 -112t-135 -41
t-140.5 37t-70.5 113h66z" />
    <glyph glyph-name="uni0456" unicode="&#x456;" horiz-adv-x="223" 
d="M145 504v-504h-67v504h67zM112 705q21 0 35.5 -14t14.5 -35t-14.5 -35t-35.5 -14t-35.5 14t-14.5 35t14.5 35t35.5 14z" />
    <glyph glyph-name="uni0457" unicode="&#x457;" horiz-adv-x="223" 
d="M145 504v-504h-67v504h67zM42 702q18 0 31.5 -13.5t13.5 -32.5q0 -18 -13.5 -31.5t-31.5 -13.5q-20 0 -33.5 13.5t-13.5 31.5q0 19 13.5 32.5t33.5 13.5zM181 702q20 0 33.5 -13.5t13.5 -32.5q0 -18 -13.5 -31.5t-33.5 -13.5q-18 0 -31.5 13.5t-13.5 31.5q0 19 13.5 32.5
t31.5 13.5z" />
    <glyph glyph-name="uni0458" unicode="&#x458;" horiz-adv-x="223" 
d="M-21 -191v60h20q80 0 80 96v539h66v-542q0 -153 -136 -153h-30zM112 705q21 0 35.5 -14t14.5 -35t-14.5 -35t-35.5 -14t-35.5 14t-14.5 35t14.5 35t35.5 14z" />
    <glyph glyph-name="uni0459" unicode="&#x459;" horiz-adv-x="819" 
d="M601 332q79 0 127 -46t48 -119t-48 -120t-127 -47h-188v444h-206l-22 -262q-8 -97 -43.5 -140.5t-108.5 -43.5h-19v62h12q49 0 69 28.5t26 98.5l27 317h332v-172h121zM593 273h-113v-213h113q54 0 85 30t31 77q0 48 -31 77t-85 29z" />
    <glyph glyph-name="uni045A" unicode="&#x45a;" horiz-adv-x="820" 
d="M145 0h-67v504h67v-196h273v196h67v-194h127q76 0 120.5 -43.5t44.5 -111.5q0 -67 -45 -111t-121 -44h-193v249h-273v-249zM604 251h-119v-192h119q51 0 78.5 27.5t27.5 69.5t-27.5 68.5t-78.5 26.5z" />
    <glyph glyph-name="uni045B" unicode="&#x45b;" horiz-adv-x="569" 
d="M7 658h74v69h67v-69h142v-55h-142v-164q23 33 65.5 54t94.5 21q80 0 134 -49.5t54 -146.5v-318h-66v309q0 72 -36.5 108t-96.5 36q-61 0 -105 -38.5t-44 -113.5v-301h-67v603h-74v55z" />
    <glyph glyph-name="uni045C" unicode="&#x45c;" horiz-adv-x="495" 
d="M145 0h-67v504h67v-219l242 219h87l-258 -235l262 -269h-88l-245 248v-248zM392 731l-98 -148h-69l94 148h73z" />
    <glyph glyph-name="uni045D" unicode="&#x45d;" horiz-adv-x="573" 
d="M495 504v-504h-66v402l-285 -402h-66v504h66v-402l285 402h66zM155 731h73l94 -148h-69z" />
    <glyph glyph-name="uni045E" unicode="&#x45e;" horiz-adv-x="513" 
d="M423 504h72l-282 -695h-72l80 197l-203 498h72l167 -417zM167 731q0 -42 24 -69t66 -27t66 27t24 69h60q-1 -68 -42 -109t-108 -41t-108 41t-42 109h60z" />
    <glyph glyph-name="uni045F" unicode="&#x45f;" horiz-adv-x="565" 
d="M78 0v504h67v-443h275v443h67v-504h-172v-144h-65v144h-172z" />
    <glyph glyph-name="uni0462" unicode="&#x462;" horiz-adv-x="740" 
d="M35 537v62h187v115h68v-115h216v-62h-216v-118h174q103 0 164 -57.5t61 -151.5q0 -93 -61.5 -151.5t-162.5 -58.5h-243v537h-187zM456 356h-166v-293h166q75 0 119 39.5t44 107.5t-44 107t-119 39z" />
    <glyph glyph-name="uni0463" unicode="&#x463;" horiz-adv-x="604" 
d="M32 445v59h169v200h66v-200h186v-59h-186v-128h125q78 0 123.5 -44.5t45.5 -113.5q0 -70 -46 -114.5t-123 -44.5h-191v445h-169zM384 258h-117v-199h117q52 0 81 28.5t29 71.5q0 44 -29 71.5t-81 27.5z" />
    <glyph glyph-name="uni0472" unicode="&#x472;" horiz-adv-x="748" 
d="M374 714q144 0 231.5 -101t87.5 -261q0 -159 -88 -260.5t-231 -101.5t-231 101.5t-88 260.5q0 160 87.5 261t231.5 101zM374 55q111 0 178 78t71 205q-48 -38 -119 -38q-58 0 -137 32t-123 32q-67 0 -119 -35q6 -124 73 -199t176 -75zM374 649q-105 0 -171.5 -71
t-76.5 -188q48 38 119 38q58 0 137 -32.5t123 -32.5q65 0 116 33q-11 115 -77 184t-170 69z" />
    <glyph glyph-name="uni0473" unicode="&#x473;" horiz-adv-x="571" 
d="M286 514q107 0 172 -73t65 -189t-65 -189t-172 -73t-172.5 73t-65.5 189t65.5 189t172.5 73zM286 51q73 0 118 50t50 133q-33 -26 -79 -26q-40 0 -95 23t-85 23q-45 0 -79 -23q5 -82 51 -131t119 -49zM286 453q-69 0 -114 -44.5t-54 -120.5q32 25 78 25q41 0 95.5 -23
t84.5 -23q44 0 77 21q-9 76 -54 120.5t-113 44.5z" />
    <glyph glyph-name="uni0474" unicode="&#x474;" horiz-adv-x="725" 
d="M685 706h22v-64h-15q-58 0 -84 -31.5t-60 -120.5l-186 -490h-71l-268 704h75l228 -612l157 419q20 54 34.5 83.5t37.5 58.5t54.5 41t75.5 12z" />
    <glyph glyph-name="uni0475" unicode="&#x475;" horiz-adv-x="560" 
d="M524 506h22v-60h-16q-36 0 -59.5 -23t-45.5 -77l-137 -346h-69l-201 504h72l163 -420l111 284q29 76 62.5 107t97.5 31z" />
    <glyph glyph-name="uni0490" unicode="&#x490;" horiz-adv-x="556" 
d="M519 836v-196h-360v-640h-69v704h362v132h67z" />
    <glyph glyph-name="uni0491" unicode="&#x491;" horiz-adv-x="441" 
d="M406 630v-186h-261v-444h-67v504h264v126h64z" />
    <glyph glyph-name="uni0492" unicode="&#x492;" horiz-adv-x="571" 
d="M437 309h-263v-309h-69v309h-84v63h84v332h428v-64h-359v-268h263v-63z" />
    <glyph glyph-name="uni0493" unicode="&#x493;" horiz-adv-x="451" 
d="M14 275h74v229h328v-60h-261v-169h180v-56h-180v-219h-67v219h-74v56z" />
    <glyph glyph-name="uni0496" unicode="&#x496;" horiz-adv-x="955" 
d="M924 65v-199h-67v134h-50l-316 347v-347h-69v348l-316 -348h-88l330 366l-323 338h89l308 -322v322h69v-321l308 321h88l-322 -337l271 -302h88z" />
    <glyph glyph-name="uni0497" unicode="&#x497;" horiz-adv-x="739" 
d="M708 61v-189h-65v128h-34l-222 251v-251h-64v251l-222 -251h-83l235 266l-232 238h82l220 -223v223h64v-223l220 223h82l-232 -236l182 -207h69z" />
    <glyph glyph-name="uni0498" unicode="&#x498;" horiz-adv-x="597" 
d="M54 526q11 90 79.5 139t161.5 49q101 0 163 -53.5t62 -137.5q0 -56 -30.5 -97t-75.5 -58q51 -13 91.5 -56t40.5 -115q0 -81 -57 -138.5t-152 -66.5v-149h-67v148q-95 8 -154.5 59t-69.5 135h69q12 -59 60 -94.5t129 -35.5q80 0 125.5 40t45.5 103q0 65 -46 99t-124 34
h-106v63h101q73 0 111 36t38 91q0 58 -42 93.5t-112 35.5q-69 0 -115 -32.5t-58 -91.5h-68z" />
    <glyph glyph-name="uni0499" unicode="&#x499;" horiz-adv-x="489" 
d="M53 370q9 69 63.5 106.5t130.5 37.5t124.5 -38.5t48.5 -102.5q0 -81 -74 -111q38 -9 66.5 -38t28.5 -80q0 -63 -44.5 -103.5t-115.5 -48.5v-143h-65v143q-71 7 -118 46t-55 105h66q9 -44 46.5 -68.5t93.5 -24.5q57 0 91 25.5t34 69.5q0 84 -122 84h-80v58h74
q53 0 80.5 23t27.5 62q0 38 -29.5 60.5t-79.5 22.5q-51 0 -84.5 -23t-42.5 -62h-65z" />
    <glyph glyph-name="uni049A" unicode="&#x49a;" horiz-adv-x="652" 
d="M620 65v-199h-67v134h-50l-344 343v-343h-69v704h69v-319l339 319h92l-357 -337l300 -302h87z" />
    <glyph glyph-name="uni049B" unicode="&#x49b;" horiz-adv-x="520" 
d="M489 61v-189h-65v128h-34l-245 248v-248h-67v504h67v-219l242 219h87l-258 -235l202 -208h71z" />
    <glyph glyph-name="uni049C" unicode="&#x49c;" horiz-adv-x="690" 
d="M159 0h-69v704h69v-310h95v178h61v-175l251 307h85l-279 -337l287 -367h-87l-257 330v-177h-61v178h-95v-331z" />
    <glyph glyph-name="uni049D" unicode="&#x49d;" horiz-adv-x="564" 
d="M144 0h-66v504h66v-211h78v130h56v-125l185 206h80l-212 -235l216 -269h-82l-187 234v-130h-56v130h-78v-234z" />
    <glyph glyph-name="uni04A0" unicode="&#x4a0;" horiz-adv-x="719" 
d="M264 704v-318l338 318h92l-357 -337l365 -367h-94l-344 342v-342h-69v640h-160v64h229z" />
    <glyph glyph-name="uni04A1" unicode="&#x4a1;" horiz-adv-x="591" 
d="M174 0v443h-142v61h208v-220l242 220h87l-258 -235l263 -269h-88l-246 249v-249h-66z" />
    <glyph glyph-name="uni04A2" unicode="&#x4a2;" horiz-adv-x="749" 
d="M718 65v-199h-67v134h-88v330h-404v-330h-69v704h69v-309h404v309h69v-639h86z" />
    <glyph glyph-name="uni04A3" unicode="&#x4a3;" horiz-adv-x="595" 
d="M564 61v-189h-65v128h-76v232h-278v-232h-67v504h67v-211h278v211h66v-443h75z" />
    <glyph glyph-name="uni04A4" unicode="&#x4a4;" horiz-adv-x="1029" 
d="M159 0h-69v704h69v-309h404v309h429v-64h-360v-640h-69v330h-404v-330z" />
    <glyph glyph-name="uni04A5" unicode="&#x4a5;" horiz-adv-x="785" 
d="M145 0h-67v504h67v-211h278v211h327v-60h-261v-444h-66v232h-278v-232z" />
    <glyph glyph-name="uni04AA" unicode="&#x4aa;" horiz-adv-x="704" 
d="M584 217h70q-13 -84 -78 -150t-175 -75v-149h-67v149q-124 13 -201.5 111t-77.5 249q0 160 87 261t226 101q117 0 192 -64t92 -161h-70q-18 70 -72 115t-142 45q-109 0 -175.5 -82t-66.5 -215t67 -215t175 -82q92 0 147.5 48.5t68.5 113.5z" />
    <glyph glyph-name="uni04AB" unicode="&#x4ab;" horiz-adv-x="538" 
d="M283 51q63 0 98.5 32t47.5 77h66q-9 -63 -57 -110.5t-122 -56.5v-144h-65v143q-90 11 -146.5 81.5t-56.5 178.5q0 117 65.5 189.5t168.5 72.5q89 0 145 -49.5t68 -117.5h-66q-14 44 -51 75t-96 31q-73 0 -119.5 -55t-46.5 -146q0 -92 47 -146.5t120 -54.5z" />
    <glyph glyph-name="uni04AC" unicode="&#x4ac;" horiz-adv-x="619" 
d="M430 65v-199h-67v134h-88v640h-240v64h550v-64h-241v-575h86z" />
    <glyph glyph-name="uni04AD" unicode="&#x4ad;" horiz-adv-x="484" 
d="M350 61v-189h-65v128h-76v444h-177v60h420v-60h-177v-383h75z" />
    <glyph glyph-name="uni04AE" unicode="&#x4ae;" horiz-adv-x="629" 
d="M349 0h-69v285l-262 419h79l217 -351l218 351h79l-262 -419v-285z" />
    <glyph glyph-name="uni04AF" unicode="&#x4af;" horiz-adv-x="513" 
d="M495 504l-206 -505v-190h-66v192l-205 503h72l166 -417l167 417h72z" />
    <glyph glyph-name="uni04B0" unicode="&#x4b0;" horiz-adv-x="628" 
d="M539 275h-190v-275h-69v275h-191v61h158l-229 368h79l217 -352l217 352h79l-230 -368h159v-61z" />
    <glyph glyph-name="uni04B1" unicode="&#x4b1;" horiz-adv-x="513" 
d="M105 8h115l-202 496h72l166 -417l167 417h72l-203 -496h116v-57h-119v-142h-66v142h-118v57z" />
    <glyph glyph-name="uni04B2" unicode="&#x4b2;" horiz-adv-x="685" 
d="M537 0l-213 302l-211 -302h-82l249 353l-247 351h82l211 -299l210 299h81l-247 -352l203 -287h81v-199h-67v134h-50z" />
    <glyph glyph-name="uni04B3" unicode="&#x4b3;" horiz-adv-x="533" 
d="M502 61v-189h-65v128h-34l-150 205l-147 -205h-78l183 252l-181 252h79l147 -207l146 207h78l-183 -253l140 -190h65z" />
    <glyph glyph-name="uni04B4" unicode="&#x4b4;" horiz-adv-x="916" 
d="M35 640v64h526v-64h-234v-575h402v639h69v-639h86v-199h-67v134h-559v640h-223z" />
    <glyph glyph-name="uni04B5" unicode="&#x4b5;" horiz-adv-x="716" 
d="M32 444v60h403v-60h-169v-383h278v443h66v-443h74v-189h-64v128h-420v444h-168z" />
    <glyph glyph-name="uni04B6" unicode="&#x4b6;" horiz-adv-x="682" 
d="M651 65v-199h-67v134h-88v319q-68 -48 -176 -48q-113 0 -185 65.5t-72 190.5v177h69v-176q0 -96 53.5 -144t140.5 -48q100 0 170 51v317h69v-639h86z" />
    <glyph glyph-name="uni04B7" unicode="&#x4b7;" horiz-adv-x="551" 
d="M520 61v-189h-65v128h-76v215q-50 -31 -123 -31q-90 0 -144 51t-54 149v120h67v-119q0 -69 37 -105t101 -36q67 0 116 33v227h67v-443h74z" />
    <glyph glyph-name="uni04B8" unicode="&#x4b8;" horiz-adv-x="656" 
d="M347 104h-61v169q-100 10 -161.5 74t-61.5 180v177h69v-176q0 -84 41.5 -131.5t112.5 -57.5v184h61v-187q90 6 150 51v317h69v-704h-69v319q-60 -41 -150 -47v-168z" />
    <glyph glyph-name="uni04B9" unicode="&#x4b9;" horiz-adv-x="528" 
d="M287 64h-57v121q-79 8 -125.5 58.5t-46.5 140.5v120h67v-119q0 -120 105 -138v136h57v-138q54 4 96 32v227h67v-504h-67v215q-42 -25 -96 -30v-121z" />
    <glyph glyph-name="uni04BA" unicode="&#x4ba;" horiz-adv-x="665" 
d="M159 0h-69v704h69v-299q70 48 176 48q113 0 185.5 -65.5t72.5 -190.5v-197h-69v196q0 96 -53.5 144t-141.5 48q-102 0 -170 -52v-336z" />
    <glyph glyph-name="uni04BB" unicode="&#x4bb;" horiz-adv-x="566" 
d="M305 514q80 0 134 -49.5t54 -146.5v-318h-66v309q0 72 -36.5 108t-96.5 36q-61 0 -105 -38.5t-44 -113.5v-301h-67v727h67v-288q23 33 65.5 54t94.5 21z" />
    <glyph glyph-name="uni04C0" unicode="&#x4c0;" horiz-adv-x="249" 
d="M159 704v-704h-69v704h69z" />
    <glyph glyph-name="uni04C1" unicode="&#x4c1;" horiz-adv-x="913" 
d="M422 0v348l-316 -348h-88l330 366l-323 338h89l308 -322v322h69v-321l308 321h88l-322 -337l330 -367h-88l-316 347v-347h-69zM362 923q0 -42 26 -69t68 -27t68 27t26 69h61q-1 -67 -44.5 -108.5t-110.5 -41.5t-110.5 41.5t-44.5 108.5h61z" />
    <glyph glyph-name="uni04C2" unicode="&#x4c2;" horiz-adv-x="711" 
d="M387 504v-223l220 223h82l-232 -236l236 -268h-84l-222 251v-251h-64v251l-222 -251h-83l235 266l-232 238h82l220 -223v223h64zM265 731q0 -42 24 -69t66 -27t66 27t24 69h60q-1 -68 -42 -109t-108 -41t-108 41t-42 109h60z" />
    <glyph glyph-name="uni04CF" unicode="&#x4cf;" horiz-adv-x="223" 
d="M145 727v-727h-67v727h67z" />
    <glyph glyph-name="uni04D0" unicode="&#x4d0;" horiz-adv-x="656" 
d="M293 704h71l269 -704h-74l-75 199h-313l-73 -199h-75zM327 616l-132 -354h265zM236 923q0 -42 26 -69t68 -27t68 27t26 69h61q-1 -67 -44.5 -108.5t-110.5 -41.5t-110.5 41.5t-44.5 108.5h61z" />
    <glyph glyph-name="uni04D1" unicode="&#x4d1;" horiz-adv-x="528" 
d="M389 336q0 58 -35 88.5t-92 30.5q-52 0 -85 -22t-46 -58h-65q14 61 66 100t131 39q88 0 140 -47t52 -131v-336h-63v69q-60 -79 -172 -79q-75 0 -124 41.5t-49 110.5q0 71 52 111.5t144 40.5h146v42zM228 49q69 0 115 38.5t46 101.5v47h-143q-62 0 -97 -24.5t-35 -69.5
q0 -43 32 -68t82 -25zM175 731q0 -42 24 -69t66 -27t66 27t24 69h60q-1 -68 -42 -109t-108 -41t-108 41t-42 109h60z" />
    <glyph glyph-name="uni04D2" unicode="&#x4d2;" horiz-adv-x="656" 
d="M293 704h71l269 -704h-74l-75 199h-313l-73 -199h-75zM327 616l-132 -354h265zM227 897q20 0 34.5 -14t14.5 -35t-14.5 -35t-34.5 -14q-21 0 -35.5 14t-14.5 35t14.5 35t35.5 14zM433 897q21 0 35.5 -14t14.5 -35t-14.5 -35t-35.5 -14q-20 0 -34.5 14t-14.5 35t14.5 35
t34.5 14z" />
    <glyph glyph-name="uni04D3" unicode="&#x4d3;" horiz-adv-x="528" 
d="M389 336q0 58 -35 88.5t-92 30.5q-52 0 -85 -22t-46 -58h-65q14 61 66 100t131 39q88 0 140 -47t52 -131v-336h-63v69q-60 -79 -172 -79q-75 0 -124 41.5t-49 110.5q0 71 52 111.5t144 40.5h146v42zM228 49q69 0 115 38.5t46 101.5v47h-143q-62 0 -97 -24.5t-35 -69.5
q0 -43 32 -68t82 -25zM166 705q20 0 34.5 -14t14.5 -35t-14.5 -35t-34.5 -14q-21 0 -35.5 14t-14.5 35t14.5 35t35.5 14zM364 705q21 0 35.5 -14t14.5 -35t-14.5 -35t-35.5 -14q-20 0 -34.5 14t-14.5 35t14.5 35t34.5 14z" />
    <glyph glyph-name="uni04D4" unicode="&#x4d4;" horiz-adv-x="984" 
d="M452 704h470v-64h-363v-246h344v-63h-344v-267h363v-64h-431v199h-278l-123 -199h-77zM252 262h239v382z" />
    <glyph glyph-name="uni04D5" unicode="&#x4d5;" horiz-adv-x="882" 
d="M262 514q129 0 171 -98q62 98 185 98q98 0 157 -65.5t59 -177.5v-36h-379v-4q0 -80 47.5 -130t121.5 -50q54 0 89.5 23.5t46.5 54.5h67q-13 -55 -65 -97t-138 -42q-139 0 -199 113q-28 -52 -81 -82.5t-122 -30.5q-75 0 -125 41t-50 110q0 70 52 111t144 41h146v43
q0 58 -35 88.5t-92 30.5q-52 0 -85 -22t-46 -58h-65q14 61 66 100t130 39zM230 49q68 0 113.5 39.5t45.5 98.5v48h-143q-62 0 -97 -24.5t-35 -68.5q0 -43 32.5 -68t83.5 -25zM616 454q-69 0 -112 -44t-48 -118h311q-2 76 -42.5 119t-108.5 43z" />
    <glyph glyph-name="uni04D6" unicode="&#x4d6;" horiz-adv-x="589" 
d="M527 640h-368v-246h349v-63h-349v-267h368v-64h-437v704h437v-64zM218 923q0 -42 26 -69t68 -27t68 27t26 69h61q-1 -67 -44.5 -108.5t-110.5 -41.5t-110.5 41.5t-44.5 108.5h61z" />
    <glyph glyph-name="uni04D7" unicode="&#x4d7;" horiz-adv-x="545" 
d="M497 234h-379v-3q0 -80 47 -130t121 -50q55 0 90.5 23.5t46.5 54.5h67q-13 -54 -65.5 -96.5t-138.5 -42.5q-105 0 -171.5 70.5t-66.5 191.5q0 120 65 191t167 71q98 0 157.5 -65.5t59.5 -178.5v-36zM279 454q-69 0 -112.5 -44.5t-48.5 -118.5h312q-2 77 -42.5 120
t-108.5 43zM190 731q0 -42 24 -69t66 -27t66 27t24 69h60q-1 -68 -42 -109t-108 -41t-108 41t-42 109h60z" />
    <glyph glyph-name="uni04D8" unicode="&#x4d8;" horiz-adv-x="715" 
d="M55 333v43h534q-2 124 -69.5 199t-173.5 75q-154 0 -211 -129h-71q26 85 100 139t182 54q143 0 228.5 -99t85.5 -263q0 -162 -82 -262t-220 -100t-220.5 95.5t-82.5 247.5zM356 55q104 0 165.5 71t66.5 188h-464q3 -117 66.5 -188t165.5 -71z" />
    <glyph glyph-name="uni04D9" unicode="&#x4d9;" horiz-adv-x="545" 
d="M48 238v38h380q-1 80 -46.5 129t-119.5 49q-55 0 -90.5 -23.5t-45.5 -54.5h-68q14 55 66.5 96.5t138.5 41.5q106 0 170 -70t64 -192q0 -120 -62.5 -191t-164.5 -71q-100 0 -161 66.5t-61 181.5zM271 51q69 0 110.5 45.5t45.5 121.5h-311q1 -80 43 -123.5t112 -43.5z" />
    <glyph glyph-name="uni04DA" unicode="&#x4da;" horiz-adv-x="715" 
d="M55 333v43h534q-2 124 -69.5 199t-173.5 75q-154 0 -211 -129h-71q26 85 100 139t182 54q143 0 228.5 -99t85.5 -263q0 -162 -82 -262t-220 -100t-220.5 95.5t-82.5 247.5zM356 55q104 0 165.5 71t66.5 188h-464q3 -117 66.5 -188t165.5 -71zM253 897q20 0 34.5 -14
t14.5 -35t-14.5 -35t-34.5 -14q-21 0 -35.5 14t-14.5 35t14.5 35t35.5 14zM459 897q21 0 35.5 -14t14.5 -35t-14.5 -35t-35.5 -14q-20 0 -34.5 14t-14.5 35t14.5 35t34.5 14z" />
    <glyph glyph-name="uni04DB" unicode="&#x4db;" horiz-adv-x="545" 
d="M48 238v38h380q-1 80 -46.5 129t-119.5 49q-55 0 -90.5 -23.5t-45.5 -54.5h-68q14 55 66.5 96.5t138.5 41.5q106 0 170 -70t64 -192q0 -120 -62.5 -191t-164.5 -71q-100 0 -161 66.5t-61 181.5zM271 51q69 0 110.5 45.5t45.5 121.5h-311q1 -80 43 -123.5t112 -43.5z
M172 705q20 0 34.5 -14t14.5 -35t-14.5 -35t-34.5 -14q-21 0 -35.5 14t-14.5 35t14.5 35t35.5 14zM370 705q21 0 35.5 -14t14.5 -35t-14.5 -35t-35.5 -14q-20 0 -34.5 14t-14.5 35t14.5 35t34.5 14z" />
    <glyph glyph-name="uni04DC" unicode="&#x4dc;" horiz-adv-x="913" 
d="M422 0v348l-316 -348h-88l330 366l-323 338h89l308 -322v322h69v-321l308 321h88l-322 -337l330 -367h-88l-316 347v-347h-69zM353 897q20 0 34.5 -14t14.5 -35t-14.5 -35t-34.5 -14q-21 0 -35.5 14t-14.5 35t14.5 35t35.5 14zM559 897q21 0 35.5 -14t14.5 -35t-14.5 -35
t-35.5 -14q-20 0 -34.5 14t-14.5 35t14.5 35t34.5 14z" />
    <glyph glyph-name="uni04DD" unicode="&#x4dd;" horiz-adv-x="711" 
d="M387 504v-223l220 223h82l-232 -236l236 -268h-84l-222 251v-251h-64v251l-222 -251h-83l235 266l-232 238h82l220 -223v223h64zM256 705q20 0 34.5 -14t14.5 -35t-14.5 -35t-34.5 -14q-21 0 -35.5 14t-14.5 35t14.5 35t35.5 14zM454 705q21 0 35.5 -14t14.5 -35
t-14.5 -35t-35.5 -14q-20 0 -34.5 14t-14.5 35t14.5 35t34.5 14z" />
    <glyph glyph-name="uni04DE" unicode="&#x4de;" horiz-adv-x="597" 
d="M54 526q11 90 79.5 139t161.5 49q101 0 163 -53.5t62 -137.5q0 -56 -30.5 -97t-75.5 -58q51 -13 91.5 -56t40.5 -115q0 -88 -66.5 -147.5t-175.5 -59.5t-177.5 52t-80.5 143h69q12 -59 60 -94.5t129 -35.5q80 0 125.5 40t45.5 103q0 65 -46 99t-124 34h-106v63h101
q73 0 111 36t38 91q0 58 -42 93.5t-112 35.5q-69 0 -115 -32.5t-58 -91.5h-68zM191 897q20 0 34.5 -14t14.5 -35t-14.5 -35t-34.5 -14q-21 0 -35.5 14t-14.5 35t14.5 35t35.5 14zM397 897q21 0 35.5 -14t14.5 -35t-14.5 -35t-35.5 -14q-20 0 -34.5 14t-14.5 35t14.5 35
t34.5 14z" />
    <glyph glyph-name="uni04DF" unicode="&#x4df;" horiz-adv-x="489" 
d="M53 370q9 69 63.5 106.5t130.5 37.5t124.5 -38.5t48.5 -102.5q0 -81 -74 -111q38 -9 66.5 -38t28.5 -80q0 -70 -55 -112t-139 -42q-82 0 -138.5 40t-65.5 113h66q9 -44 46.5 -68.5t93.5 -24.5q57 0 91 25.5t34 69.5q0 84 -122 84h-80v58h74q53 0 80.5 23t27.5 62
q0 38 -29.5 60.5t-79.5 22.5q-51 0 -84.5 -23t-42.5 -62h-65zM145 705q20 0 34.5 -14t14.5 -35t-14.5 -35t-34.5 -14q-21 0 -35.5 14t-14.5 35t14.5 35t35.5 14zM343 705q21 0 35.5 -14t14.5 -35t-14.5 -35t-35.5 -14q-20 0 -34.5 14t-14.5 35t14.5 35t34.5 14z" />
    <glyph glyph-name="uni04E2" unicode="&#x4e2;" horiz-adv-x="725" 
d="M635 704v-704h-68v593l-408 -593h-69v704h69v-593l408 593h68zM218 878h290v-58h-290v58z" />
    <glyph glyph-name="uni04E3" unicode="&#x4e3;" horiz-adv-x="573" 
d="M495 504v-504h-66v402l-285 -402h-66v504h66v-402l285 402h66zM146 686h282v-58h-282v58z" />
    <glyph glyph-name="uni04E4" unicode="&#x4e4;" horiz-adv-x="725" 
d="M635 704v-704h-68v593l-408 -593h-69v704h69v-593l408 593h68zM260 897q20 0 34.5 -14t14.5 -35t-14.5 -35t-34.5 -14q-21 0 -35.5 14t-14.5 35t14.5 35t35.5 14zM466 897q21 0 35.5 -14t14.5 -35t-14.5 -35t-35.5 -14q-20 0 -34.5 14t-14.5 35t14.5 35t34.5 14z" />
    <glyph glyph-name="uni04E5" unicode="&#x4e5;" horiz-adv-x="573" 
d="M495 504v-504h-66v402l-285 -402h-66v504h66v-402l285 402h66zM188 705q20 0 34.5 -14t14.5 -35t-14.5 -35t-34.5 -14q-21 0 -35.5 14t-14.5 35t14.5 35t35.5 14zM386 705q21 0 35.5 -14t14.5 -35t-14.5 -35t-35.5 -14q-20 0 -34.5 14t-14.5 35t14.5 35t34.5 14z" />
    <glyph glyph-name="uni04E6" unicode="&#x4e6;" horiz-adv-x="748" 
d="M374 714q144 0 231.5 -101t87.5 -261q0 -159 -88 -260.5t-231 -101.5t-231 101.5t-88 260.5q0 160 87.5 261t231.5 101zM374 55q114 0 181.5 82t67.5 215t-67.5 215t-181.5 82q-113 0 -180.5 -82t-67.5 -215t67.5 -215t180.5 -82zM271 897q20 0 34.5 -14t14.5 -35
t-14.5 -35t-34.5 -14q-21 0 -35.5 14t-14.5 35t14.5 35t35.5 14zM477 897q21 0 35.5 -14t14.5 -35t-14.5 -35t-35.5 -14q-20 0 -34.5 14t-14.5 35t14.5 35t34.5 14z" />
    <glyph glyph-name="uni04E7" unicode="&#x4e7;" horiz-adv-x="571" 
d="M286 514q107 0 172 -73t65 -189t-65 -189t-172 -73t-172.5 73t-65.5 189t65.5 189t172.5 73zM286 51q76 0 122.5 55t46.5 146t-46.5 146t-122.5 55q-77 0 -123.5 -55t-46.5 -146t46.5 -146t123.5 -55zM187 705q20 0 34.5 -14t14.5 -35t-14.5 -35t-34.5 -14
q-21 0 -35.5 14t-14.5 35t14.5 35t35.5 14zM385 705q21 0 35.5 -14t14.5 -35t-14.5 -35t-35.5 -14q-20 0 -34.5 14t-14.5 35t14.5 35t34.5 14z" />
    <glyph glyph-name="uni04E8" unicode="&#x4e8;" horiz-adv-x="748" 
d="M374 714q144 0 231.5 -101t87.5 -261q0 -159 -88 -260.5t-231 -101.5t-231 101.5t-88 260.5q0 160 87.5 261t231.5 101zM374 55q109 0 176 75t72 200h-497q6 -124 73 -199.5t176 -75.5zM374 649q-104 0 -170.5 -69.5t-77.5 -185.5h495q-9 112 -75 183.5t-172 71.5z" />
    <glyph glyph-name="uni04E9" unicode="&#x4e9;" horiz-adv-x="571" 
d="M286 514q107 0 172 -73t65 -189t-65 -189t-172 -73t-172.5 73t-65.5 189t65.5 189t172.5 73zM286 51q73 0 118 49t50 129h-337q6 -82 51.5 -130t117.5 -48zM286 453q-69 0 -114.5 -45t-54.5 -121h336q-8 75 -52.5 120.5t-114.5 45.5z" />
    <glyph glyph-name="uni04EA" unicode="&#x4ea;" horiz-adv-x="748" 
d="M374 714q144 0 231.5 -101t87.5 -261q0 -159 -88 -260.5t-231 -101.5t-231 101.5t-88 260.5q0 160 87.5 261t231.5 101zM374 55q109 0 176 75t72 200h-497q6 -124 73 -199.5t176 -75.5zM374 649q-104 0 -170.5 -69.5t-77.5 -185.5h495q-9 112 -75 183.5t-172 71.5z
M271 897q20 0 34.5 -14t14.5 -35t-14.5 -35t-34.5 -14q-21 0 -35.5 14t-14.5 35t14.5 35t35.5 14zM477 897q21 0 35.5 -14t14.5 -35t-14.5 -35t-35.5 -14q-20 0 -34.5 14t-14.5 35t14.5 35t34.5 14z" />
    <glyph glyph-name="uni04EB" unicode="&#x4eb;" horiz-adv-x="571" 
d="M286 514q107 0 172 -73t65 -189t-65 -189t-172 -73t-172.5 73t-65.5 189t65.5 189t172.5 73zM286 51q73 0 118 49t50 129h-337q6 -82 51.5 -130t117.5 -48zM286 453q-69 0 -114.5 -45t-54.5 -121h336q-8 75 -52.5 120.5t-114.5 45.5zM187 705q20 0 34.5 -14t14.5 -35
t-14.5 -35t-34.5 -14q-21 0 -35.5 14t-14.5 35t14.5 35t35.5 14zM385 705q21 0 35.5 -14t14.5 -35t-14.5 -35t-35.5 -14q-20 0 -34.5 14t-14.5 35t14.5 35t34.5 14z" />
    <glyph glyph-name="uni04EC" unicode="&#x4ec;" horiz-adv-x="704" 
d="M262 330v63h315q-10 119 -75 187.5t-165 68.5q-86 0 -140 -43.5t-74 -109.5h-70q20 93 94.5 155.5t189.5 62.5q139 0 225.5 -98.5t86.5 -263.5q0 -166 -88.5 -264t-225.5 -98q-122 0 -194.5 66.5t-90.5 153.5h70q16 -61 71 -108t145 -47q103 0 170 74t72 201h-316z
M234 897q20 0 34.5 -14t14.5 -35t-14.5 -35t-34.5 -14q-21 0 -35.5 14t-14.5 35t14.5 35t35.5 14zM440 897q21 0 35.5 -14t14.5 -35t-14.5 -35t-35.5 -14q-20 0 -34.5 14t-14.5 35t14.5 35t34.5 14z" />
    <glyph glyph-name="uni04ED" unicode="&#x4ed;" horiz-adv-x="535" 
d="M183 290h235q-9 79 -52.5 121.5t-109.5 42.5q-61 0 -97 -28.5t-48 -68.5h-66q13 65 67 111t144 46q104 0 167.5 -70.5t63.5 -191.5q0 -119 -65 -190.5t-168 -71.5q-89 0 -145.5 47.5t-65.5 115.5h65q9 -41 45 -71.5t101 -30.5q70 0 115.5 48.5t49.5 132.5h-236v58z
M157 705q20 0 34.5 -14t14.5 -35t-14.5 -35t-34.5 -14q-21 0 -35.5 14t-14.5 35t14.5 35t35.5 14zM355 705q21 0 35.5 -14t14.5 -35t-14.5 -35t-35.5 -14q-20 0 -34.5 14t-14.5 35t14.5 35t34.5 14z" />
    <glyph glyph-name="uni04EE" unicode="&#x4ee;" horiz-adv-x="639" 
d="M23 704h77l228 -438l213 438h75l-344 -704h-76l95 194zM178 878h290v-58h-290v58z" />
    <glyph glyph-name="uni04EF" unicode="&#x4ef;" horiz-adv-x="513" 
d="M423 504h72l-282 -695h-72l80 197l-203 498h72l167 -417zM116 686h282v-58h-282v58z" />
    <glyph glyph-name="uni04F0" unicode="&#x4f0;" horiz-adv-x="639" 
d="M23 704h77l228 -438l213 438h75l-344 -704h-76l95 194zM220 897q20 0 34.5 -14t14.5 -35t-14.5 -35t-34.5 -14q-21 0 -35.5 14t-14.5 35t14.5 35t35.5 14zM426 897q21 0 35.5 -14t14.5 -35t-14.5 -35t-35.5 -14q-20 0 -34.5 14t-14.5 35t14.5 35t34.5 14z" />
    <glyph glyph-name="uni04F1" unicode="&#x4f1;" horiz-adv-x="513" 
d="M423 504h72l-282 -695h-72l80 197l-203 498h72l167 -417zM158 705q20 0 34.5 -14t14.5 -35t-14.5 -35t-34.5 -14q-21 0 -35.5 14t-14.5 35t14.5 35t35.5 14zM356 705q21 0 35.5 -14t14.5 -35t-14.5 -35t-35.5 -14q-20 0 -34.5 14t-14.5 35t14.5 35t34.5 14z" />
    <glyph glyph-name="uni04F2" unicode="&#x4f2;" horiz-adv-x="639" 
d="M23 704h77l228 -438l213 438h75l-344 -704h-76l95 194zM367 923l-91 -148h-66l86 148h71zM526 923l-90 -148h-67l86 148h71z" />
    <glyph glyph-name="uni04F3" unicode="&#x4f3;" horiz-adv-x="513" 
d="M423 504h72l-282 -695h-72l80 197l-203 498h72l167 -417zM303 731l-91 -148h-66l86 148h71zM458 731l-90 -148h-67l86 148h71z" />
    <glyph glyph-name="uni04F4" unicode="&#x4f4;" horiz-adv-x="655" 
d="M496 704h69v-704h-69v319q-68 -48 -176 -48q-113 0 -185 65.5t-72 190.5v177h69v-176q0 -96 53.5 -144t140.5 -48q100 0 170 51v317zM212 897q20 0 34.5 -14t14.5 -35t-14.5 -35t-34.5 -14q-21 0 -35.5 14t-14.5 35t14.5 35t35.5 14zM418 897q21 0 35.5 -14t14.5 -35
t-14.5 -35t-35.5 -14q-20 0 -34.5 14t-14.5 35t14.5 35t34.5 14z" />
    <glyph glyph-name="uni04F5" unicode="&#x4f5;" horiz-adv-x="524" 
d="M379 504h67v-504h-67v215q-50 -31 -123 -31q-90 0 -144 51t-54 149v120h67v-119q0 -69 37 -105t101 -36q67 0 116 33v227zM153 705q20 0 34.5 -14t14.5 -35t-14.5 -35t-34.5 -14q-21 0 -35.5 14t-14.5 35t14.5 35t35.5 14zM351 705q21 0 35.5 -14t14.5 -35t-14.5 -35
t-35.5 -14q-20 0 -34.5 14t-14.5 35t14.5 35t34.5 14z" />
    <glyph glyph-name="uni04F6" unicode="&#x4f6;" horiz-adv-x="556" 
d="M245 65v-199h-67v134h-88v704h429v-64h-360v-575h86z" />
    <glyph glyph-name="uni04F7" unicode="&#x4f7;" horiz-adv-x="441" 
d="M219 61v-189h-65v128h-76v504h328v-60h-261v-383h74z" />
    <glyph glyph-name="uni04F8" unicode="&#x4f8;" horiz-adv-x="813" 
d="M326 437q106 0 169 -61.5t63 -156.5q0 -94 -63 -156.5t-167 -62.5h-238v704h69v-267h167zM319 373h-160v-309h160q78 0 123 42.5t45 112.5q0 71 -44.5 112.5t-123.5 41.5zM723 704v-704h-69v704h69zM304 897q20 0 34.5 -14t14.5 -35t-14.5 -35t-34.5 -14q-21 0 -35.5 14
t-14.5 35t14.5 35t35.5 14zM510 897q21 0 35.5 -14t14.5 -35t-14.5 -35t-35.5 -14q-20 0 -34.5 14t-14.5 35t14.5 35t34.5 14z" />
    <glyph glyph-name="uni04F9" unicode="&#x4f9;" horiz-adv-x="670" 
d="M145 504v-172h121q79 0 127 -46t48 -119t-48 -120t-127 -47h-188v504h67zM258 273h-113v-213h113q54 0 85 30t31 77q0 48 -31 77t-85 29zM592 504v-504h-67v504h67zM236 705q20 0 34.5 -14t14.5 -35t-14.5 -35t-34.5 -14q-21 0 -35.5 14t-14.5 35t14.5 35t35.5 14z
M434 705q21 0 35.5 -14t14.5 -35t-14.5 -35t-35.5 -14q-20 0 -34.5 14t-14.5 35t14.5 35t34.5 14z" />
    <glyph glyph-name="uni0512" unicode="&#x512;" horiz-adv-x="688" 
d="M179 704h419v-741q0 -77 -37.5 -115.5t-104.5 -38.5h-31v62h21q83 0 83 95v674h-287l-29 -418q-7 -110 -48 -167t-135 -57h-21v66h13q63 0 90.5 37.5t33.5 125.5z" />
    <glyph glyph-name="uni0513" unicode="&#x513;" horiz-adv-x="558" 
d="M148 504h332v-542q0 -153 -137 -153h-29v60h20q79 0 79 96v479h-206l-22 -262q-8 -97 -43.5 -140.5t-108.5 -43.5h-19v62h12q49 0 69 28.5t26 98.5z" />
    <glyph glyph-name="uni051C" unicode="&#x51c;" horiz-adv-x="969" 
d="M938 704l-221 -704h-65l-168 587l-167 -587h-65l-221 704h73l180 -584l168 584h66l167 -582l180 582h73z" />
    <glyph glyph-name="uni051D" unicode="&#x51d;" horiz-adv-x="765" 
d="M742 504l-168 -504h-65l-127 409l-127 -409h-65l-167 504h70l130 -402l126 402h67l125 -402l131 402h70z" />
    <glyph glyph-name="uni0524" unicode="&#x524;" horiz-adv-x="746" 
d="M715 65v-199h-67v134h-88v640h-401v-640h-69v704h539v-639h86z" />
    <glyph glyph-name="uni0525" unicode="&#x525;" horiz-adv-x="592" 
d="M561 61v-189h-65v128h-76v444h-275v-444h-67v504h408v-443h75z" />
    <glyph glyph-name="Wgrave" unicode="&#x1e80;" horiz-adv-x="969" 
d="M938 704l-221 -704h-65l-168 587l-167 -587h-65l-221 704h73l180 -584l168 584h66l167 -582l180 582h73zM352 923h73l94 -148h-69z" />
    <glyph glyph-name="wgrave" unicode="&#x1e81;" horiz-adv-x="765" 
d="M742 504l-168 -504h-65l-127 409l-127 -409h-65l-167 504h70l130 -402l126 402h67l125 -402l131 402h70zM250 731h73l94 -148h-69z" />
    <glyph glyph-name="Wacute" unicode="&#x1e82;" horiz-adv-x="969" 
d="M938 704l-221 -704h-65l-168 587l-167 -587h-65l-221 704h73l180 -584l168 584h66l167 -582l180 582h73zM616 923l-98 -148h-69l94 148h73z" />
    <glyph glyph-name="wacute" unicode="&#x1e83;" horiz-adv-x="765" 
d="M742 504l-168 -504h-65l-127 409l-127 -409h-65l-167 504h70l130 -402l126 402h67l125 -402l131 402h70zM514 731l-98 -148h-69l94 148h73z" />
    <glyph glyph-name="Wdieresis" unicode="&#x1e84;" horiz-adv-x="969" 
d="M938 704l-221 -704h-65l-168 587l-167 -587h-65l-221 704h73l180 -584l168 584h66l167 -582l180 582h73zM381 897q20 0 34.5 -14t14.5 -35t-14.5 -35t-34.5 -14q-21 0 -35.5 14t-14.5 35t14.5 35t35.5 14zM587 897q21 0 35.5 -14t14.5 -35t-14.5 -35t-35.5 -14
q-20 0 -34.5 14t-14.5 35t14.5 35t34.5 14z" />
    <glyph glyph-name="wdieresis" unicode="&#x1e85;" horiz-adv-x="765" 
d="M742 504l-168 -504h-65l-127 409l-127 -409h-65l-167 504h70l130 -402l126 402h67l125 -402l131 402h70zM283 705q20 0 34.5 -14t14.5 -35t-14.5 -35t-34.5 -14q-21 0 -35.5 14t-14.5 35t14.5 35t35.5 14zM481 705q21 0 35.5 -14t14.5 -35t-14.5 -35t-35.5 -14
q-20 0 -34.5 14t-14.5 35t14.5 35t34.5 14z" />
    <glyph glyph-name="Ygrave" unicode="&#x1ef2;" horiz-adv-x="629" 
d="M349 0h-69v285l-262 419h79l217 -351l218 351h79l-262 -419v-285zM183 923h73l94 -148h-69z" />
    <glyph glyph-name="ygrave" unicode="&#x1ef3;" horiz-adv-x="513" 
d="M423 504h72l-282 -695h-72l80 197l-203 498h72l167 -417zM125 731h73l94 -148h-69z" />
    <glyph glyph-name="uni2000" unicode="&#x2000;" horiz-adv-x="500" 
 />
    <glyph glyph-name="uni2001" unicode="&#x2001;" horiz-adv-x="1000" 
 />
    <glyph glyph-name="uni2002" unicode="&#x2002;" horiz-adv-x="520" 
 />
    <glyph glyph-name="uni2003" unicode="&#x2003;" horiz-adv-x="1000" 
 />
    <glyph glyph-name="uni2004" unicode="&#x2004;" horiz-adv-x="320" 
 />
    <glyph glyph-name="uni2005" unicode="&#x2005;" horiz-adv-x="250" 
 />
    <glyph glyph-name="uni2006" unicode="&#x2006;" horiz-adv-x="150" 
 />
    <glyph glyph-name="uni2007" unicode="&#x2007;" horiz-adv-x="600" 
 />
    <glyph glyph-name="uni2008" unicode="&#x2008;" horiz-adv-x="252" 
 />
    <glyph glyph-name="uni2009" unicode="&#x2009;" horiz-adv-x="190" 
 />
    <glyph glyph-name="uni200A" unicode="&#x200a;" horiz-adv-x="325" 
 />
    <glyph glyph-name="uni200B" unicode="&#x200b;" 
 />
    <glyph glyph-name="endash" unicode="&#x2013;" horiz-adv-x="500" 
d="M0 238v64h500v-64h-500z" />
    <glyph glyph-name="emdash" unicode="&#x2014;" horiz-adv-x="1000" 
d="M0 238v64h1000v-64h-1000z" />
    <glyph glyph-name="quoteleft" unicode="&#x2018;" horiz-adv-x="250" 
d="M71 505q0 19 7 36l56 163h56l-52 -155q37 -9 37 -46q0 -22 -14.5 -36t-35.5 -14q-23 0 -38.5 15t-15.5 37z" />
    <glyph glyph-name="quoteright" unicode="&#x2019;" horiz-adv-x="250" 
d="M179 653q0 -19 -7 -36l-56 -163h-56l52 155q-37 9 -37 46q0 22 14.5 36t35.5 14q23 0 38.5 -15t15.5 -37z" />
    <glyph glyph-name="quotesinglbase" unicode="&#x201a;" horiz-adv-x="253" 
d="M179 38q0 -19 -7 -36l-56 -163h-56l52 155q-37 9 -37 46q0 22 14.5 36t35.5 14q23 0 38.5 -15t15.5 -37z" />
    <glyph glyph-name="quotedblleft" unicode="&#x201c;" horiz-adv-x="416" 
d="M237 505q0 19 7 36l56 163h56l-52 -155q37 -9 37 -46q0 -22 -14.5 -36t-35.5 -14q-23 0 -38.5 15t-15.5 37zM71 505q0 19 7 36l56 163h56l-52 -155q37 -9 37 -46q0 -22 -14.5 -36t-35.5 -14q-23 0 -38.5 15t-15.5 37z" />
    <glyph glyph-name="quotedblright" unicode="&#x201d;" horiz-adv-x="416" 
d="M179 653q0 -19 -7 -36l-56 -163h-56l52 155q-37 9 -37 46q0 22 14.5 36t35.5 14q23 0 38.5 -15t15.5 -37zM345 653q0 -19 -7 -36l-56 -163h-56l52 155q-37 9 -37 46q0 22 14.5 36t35.5 14q23 0 38.5 -15t15.5 -37z" />
    <glyph glyph-name="quotedblbase" unicode="&#x201e;" horiz-adv-x="419" 
d="M179 38q0 -19 -7 -36l-56 -163h-56l52 155q-37 9 -37 46q0 22 14.5 36t35.5 14q23 0 38.5 -15t15.5 -37zM345 38q0 -19 -7 -36l-56 -163h-56l52 155q-37 9 -37 46q0 22 14.5 36t35.5 14q23 0 38.5 -15t15.5 -37z" />
    <glyph glyph-name="dagger" unicode="&#x2020;" horiz-adv-x="433" 
d="M391 515h-144v-289h-61v289h-145v60h145v168h61v-168h144v-60z" />
    <glyph glyph-name="daggerdbl" unicode="&#x2021;" horiz-adv-x="433" 
d="M391 223h-144v-168h-61v168h-145v60h145v232h-145v60h145v168h61v-168h144v-60h-144v-232h144v-60z" />
    <glyph glyph-name="bullet" unicode="&#x2022;" horiz-adv-x="381" 
d="M191 390q54 0 91 -37t37 -92q0 -54 -37 -91t-91 -37t-91 37t-37 91q0 55 37 92t91 37z" />
    <glyph glyph-name="ellipsis" unicode="&#x2026;" horiz-adv-x="705" 
d="M353 91q21 0 36 -14.5t15 -36.5q0 -21 -15 -36t-36 -15t-36 15t-15 36q0 22 15 36.5t36 14.5zM126 91q21 0 36 -14.5t15 -36.5q0 -21 -15 -36t-36 -15t-36 15t-15 36q0 22 15 36.5t36 14.5zM580 91q21 0 36 -14.5t15 -36.5q0 -21 -15 -36t-36 -15t-36 15t-15 36
q0 22 15 36.5t36 14.5z" />
    <glyph glyph-name="perthousand" unicode="&#x2030;" horiz-adv-x="1231" 
d="M139 0l498 704h73l-498 -704h-73zM202 658q-45 0 -71 -33.5t-26 -85.5t26 -85.5t71 -33.5t71.5 33.5t26.5 85.5t-26.5 85.5t-71.5 33.5zM43 539q0 76 44.5 125.5t114.5 49.5t115 -50t45 -125q0 -76 -44.5 -126t-115.5 -50q-70 0 -114.5 50t-44.5 126zM648 285
q-45 0 -71.5 -33.5t-26.5 -85.5t26.5 -85.5t71.5 -33.5t71 33.5t26 85.5t-26 85.5t-71 33.5zM488 166q0 75 45 125t115 50t114.5 -49.5t44.5 -125.5t-44.5 -126t-114.5 -50t-115 50t-45 126zM1029 285q-45 0 -71.5 -33.5t-26.5 -85.5t26.5 -85.5t71.5 -33.5t71 33.5t26 85.5
t-26 85.5t-71 33.5zM869 166q0 75 45 125t115 50t114.5 -49.5t44.5 -125.5t-44.5 -126t-114.5 -50t-115 50t-45 126z" />
    <glyph glyph-name="guilsinglleft" unicode="&#x2039;" horiz-adv-x="360" 
d="M133 257l174 -207h-78l-176 207l176 207h78z" />
    <glyph glyph-name="guilsinglright" unicode="&#x203a;" horiz-adv-x="360" 
d="M227 257l-174 207h78l176 -207l-176 -207h-78z" />
    <glyph glyph-name="fraction" unicode="&#x2044;" horiz-adv-x="246" 
d="M-162 0l499 704h71l-499 -704h-71z" />
    <glyph glyph-name="zerosuperior" unicode="&#x2070;" horiz-adv-x="409" 
d="M205 780q75 0 119.5 -60t44.5 -156t-44.5 -156.5t-119.5 -60.5q-76 0 -120.5 60t-44.5 157q0 96 44.5 156t120.5 60zM205 401q48 0 75.5 45.5t27.5 117.5t-27.5 117.5t-75.5 45.5q-49 0 -76.5 -45t-27.5 -118t27.5 -118t76.5 -45z" />
    <glyph glyph-name="foursuperior" unicode="&#x2074;" horiz-adv-x="399" 
d="M366 500v-51h-61v-95h-57v95h-215v50l196 276h76v-275h61zM94 500h154v212z" />
    <glyph glyph-name="fivesuperior" unicode="&#x2075;" horiz-adv-x="392" 
d="M214 629q57 0 98 -37.5t41 -100.5t-44 -103.5t-108 -40.5q-62 0 -104.5 32.5t-50.5 81.5h60q7 -23 31.5 -41.5t62.5 -18.5q39 0 65.5 25.5t26.5 64.5q0 40 -27 63.5t-65 23.5q-62 0 -91 -48h-59l20 244h260v-53h-210l-12 -135q38 43 106 43z" />
    <glyph glyph-name="sixsuperior" unicode="&#x2076;" horiz-adv-x="395" 
d="M220 629q58 0 99 -38t41 -98q0 -62 -43 -104t-107 -42q-79 0 -124.5 55.5t-45.5 150.5q0 110 46.5 168.5t123.5 58.5q57 0 95.5 -31t45.5 -75h-59q-6 22 -29 37.5t-53 15.5q-50 0 -79.5 -40t-32.5 -121q38 63 122 63zM208 400q38 0 64.5 26t26.5 65t-27 63.5t-65 24.5
q-39 0 -67 -25t-28 -62q0 -39 27.5 -65.5t68.5 -26.5z" />
    <glyph glyph-name="sevensuperior" unicode="&#x2077;" horiz-adv-x="348" 
d="M27 774h288v-48l-171 -372h-65l170 367h-222v53z" />
    <glyph glyph-name="eightsuperior" unicode="&#x2078;" horiz-adv-x="395" 
d="M40 468q0 41 26 69.5t58 36.5q-28 10 -49.5 33.5t-21.5 59.5q0 47 40.5 80t104.5 33t104 -33t40 -80q0 -36 -21.5 -59.5t-49.5 -33.5q32 -8 58.5 -36.5t26.5 -69.5q0 -51 -45 -86t-113 -35q-69 0 -113.5 35t-44.5 86zM284 662q0 30 -24 49t-62 19t-62 -19t-24 -49
q0 -29 25 -48t61 -19t61 19t25 48zM296 472q0 33 -28 54.5t-70 21.5q-43 0 -70.5 -21t-27.5 -55q0 -32 27.5 -53t70.5 -21t70.5 21t27.5 53z" />
    <glyph glyph-name="ninesuperior" unicode="&#x2079;" horiz-adv-x="395" 
d="M176 499q-58 0 -99.5 38t-41.5 98q0 62 43 103.5t107 41.5q79 0 125 -55t46 -150q0 -110 -47 -169t-124 -59q-57 0 -95.5 31.5t-44.5 75.5h59q6 -22 28.5 -37.5t52.5 -15.5q50 0 80 40t32 121q-37 -63 -121 -63zM187 728q-38 0 -64.5 -26t-26.5 -65t27 -63.5t65 -24.5
q39 0 67.5 25.5t28.5 61.5q0 38 -28 65t-69 27z" />
    <glyph glyph-name="uni207A" unicode="&#x207a;" horiz-adv-x="385" 
d="M166 710h52v-121h117v-51h-117v-121h-52v121h-117v51h117v121z" />
    <glyph glyph-name="uni207B" unicode="&#x207b;" horiz-adv-x="385" 
d="M330 538h-275v51h275v-51z" />
    <glyph glyph-name="uni207C" unicode="&#x207c;" horiz-adv-x="385" 
d="M53 603v50h279v-50h-279zM53 473v51h279v-51h-279z" />
    <glyph glyph-name="parenleftsuperior" unicode="&#x207d;" horiz-adv-x="221" 
d="M199 828q-88 -117 -88 -265t88 -266h-56q-91 111 -91 266q0 80 26 149.5t65 115.5h56z" />
    <glyph glyph-name="parenrightsuperior" unicode="&#x207e;" horiz-adv-x="221" 
d="M22 828h57q38 -47 64 -116t26 -149q0 -154 -90 -266h-57q89 120 89 266q0 147 -89 265z" />
    <glyph glyph-name="zeroinferior" unicode="&#x2080;" horiz-adv-x="409" 
d="M205 305q75 0 119.5 -60t44.5 -156t-44.5 -156.5t-119.5 -60.5q-76 0 -120.5 60t-44.5 157q0 96 44.5 156t120.5 60zM205 -74q48 0 75.5 45.5t27.5 117.5t-27.5 117.5t-75.5 45.5q-49 0 -76.5 -45t-27.5 -118t27.5 -118t76.5 -45z" />
    <glyph glyph-name="oneinferior" unicode="&#x2081;" horiz-adv-x="281" 
d="M202 299v-420h-60v354l-107 -66v60l111 72h56z" />
    <glyph glyph-name="twoinferior" unicode="&#x2082;" horiz-adv-x="379" 
d="M127 -68h214v-53h-296v49l165 155q1 1 10 9.5t11 10.5t10 10.5t10 12t7.5 11.5t7 14l3.5 14t2 16q0 31 -23.5 51t-58.5 20q-36 0 -59.5 -19.5t-29.5 -49.5h-58q6 53 47 87.5t103 34.5q61 0 100.5 -35t39.5 -88q0 -59 -79 -133z" />
    <glyph glyph-name="threeinferior" unicode="&#x2083;" horiz-adv-x="386" 
d="M44 189q7 52 48.5 84t100.5 32q61 0 100.5 -32t39.5 -80q0 -34 -19.5 -58.5t-47.5 -35.5q32 -8 57 -35t25 -69q0 -51 -43 -87t-109 -36q-63 0 -108 33.5t-50 86.5h57q7 -30 35 -48t66 -18q40 0 65.5 21t25.5 51q0 33 -25 52t-67 19h-52v51h46q39 0 61 19t22 47
q0 29 -22.5 47.5t-58.5 18.5q-35 0 -59 -17.5t-30 -45.5h-58z" />
    <glyph glyph-name="fourinferior" unicode="&#x2084;" horiz-adv-x="399" 
d="M366 25v-51h-61v-95h-57v95h-215v50l196 276h76v-275h61zM94 25h154v212z" />
    <glyph glyph-name="fiveinferior" unicode="&#x2085;" horiz-adv-x="392" 
d="M214 154q57 0 98 -37.5t41 -100.5t-44 -103.5t-108 -40.5q-62 0 -104.5 32.5t-50.5 81.5h60q7 -23 31.5 -41.5t62.5 -18.5q39 0 65.5 25.5t26.5 64.5q0 40 -27 63.5t-65 23.5q-62 0 -91 -48h-59l20 244h260v-53h-210l-12 -135q38 43 106 43z" />
    <glyph glyph-name="sixinferior" unicode="&#x2086;" horiz-adv-x="395" 
d="M220 154q58 0 99 -38t41 -98q0 -62 -43 -104t-107 -42q-79 0 -124.5 55.5t-45.5 150.5q0 110 46.5 168.5t123.5 58.5q57 0 95.5 -31t45.5 -75h-59q-6 22 -29 37.5t-53 15.5q-50 0 -79.5 -40t-32.5 -121q38 63 122 63zM208 -75q38 0 64.5 26t26.5 65t-27 63.5t-65 24.5
q-39 0 -67 -25t-28 -62q0 -39 27.5 -65.5t68.5 -26.5z" />
    <glyph glyph-name="seveninferior" unicode="&#x2087;" horiz-adv-x="348" 
d="M27 302h288v-48l-171 -372h-65l170 367h-222v53z" />
    <glyph glyph-name="eightinferior" unicode="&#x2088;" horiz-adv-x="395" 
d="M40 -7q0 41 26 69.5t58 36.5q-28 10 -49.5 33.5t-21.5 59.5q0 47 40.5 80t104.5 33t104 -33t40 -80q0 -36 -21.5 -59.5t-49.5 -33.5q32 -8 58.5 -36.5t26.5 -69.5q0 -51 -45 -86t-113 -35q-69 0 -113.5 35t-44.5 86zM284 187q0 30 -24 49t-62 19t-62 -19t-24 -49
q0 -29 25 -48t61 -19t61 19t25 48zM296 -3q0 33 -28 54.5t-70 21.5q-43 0 -70.5 -21t-27.5 -55q0 -32 27.5 -53t70.5 -21t70.5 21t27.5 53z" />
    <glyph glyph-name="nineinferior" unicode="&#x2089;" horiz-adv-x="395" 
d="M176 24q-58 0 -99.5 38t-41.5 98q0 62 43 103.5t107 41.5q79 0 125 -55t46 -150q0 -110 -47 -169t-124 -59q-57 0 -95.5 31.5t-44.5 75.5h59q6 -22 28.5 -37.5t52.5 -15.5q50 0 80 40t32 121q-37 -63 -121 -63zM187 253q-38 0 -64.5 -26t-26.5 -65t27 -63.5t65 -24.5
q39 0 67.5 25.5t28.5 61.5q0 38 -28 65t-69 27z" />
    <glyph glyph-name="uni208A" unicode="&#x208a;" horiz-adv-x="385" 
d="M166 235h52v-121h117v-51h-117v-121h-52v121h-117v51h117v121z" />
    <glyph glyph-name="uni208B" unicode="&#x208b;" horiz-adv-x="385" 
d="M330 63h-275v51h275v-51z" />
    <glyph glyph-name="uni208C" unicode="&#x208c;" horiz-adv-x="385" 
d="M53 129v50h279v-50h-279zM53 -1v51h279v-51h-279z" />
    <glyph glyph-name="parenleftinferior" unicode="&#x208d;" horiz-adv-x="221" 
d="M199 354q-88 -117 -88 -265t88 -266h-56q-91 111 -91 266q0 80 26 149.5t65 115.5h56z" />
    <glyph glyph-name="parenrightinferior" unicode="&#x208e;" horiz-adv-x="221" 
d="M22 354h57q38 -47 64 -116t26 -149q0 -154 -90 -266h-57q89 120 89 266q0 147 -89 265z" />
    <glyph glyph-name="Euro" unicode="&#x20ac;" horiz-adv-x="657" 
d="M549 174h68q-14 -74 -73 -129t-153 -55q-99 0 -166.5 67.5t-88.5 190.5h-102v57h96q-2 30 -2 47q0 29 1 43h-95v57h102q20 122 86.5 192t168.5 70q89 0 149.5 -53t74.5 -128h-67q-15 48 -54.5 83t-102.5 35q-76 0 -123 -52.5t-63 -146.5h242l-9 -57h-239q-1 -14 -1 -43
q0 -32 1 -47h227l-8 -57h-212q17 -93 64 -143.5t120 -50.5q63 0 104.5 36t54.5 84z" />
    <glyph glyph-name="uni20B4" unicode="&#x20b4;" horiz-adv-x="643" 
d="M45 249v59h553v-59h-391q-41 -31 -41 -82q0 -52 43.5 -83t108.5 -31q68 0 113.5 31.5t61.5 86.5h68q-15 -86 -82.5 -133.5t-160.5 -47.5q-94 0 -157 47.5t-63 124.5q0 54 33 87h-86zM45 395v59h391q42 30 42 85q0 53 -41.5 82.5t-102.5 29.5q-130 0 -161 -112h-67
q16 83 79 129t150 46q88 0 149.5 -47t61.5 -124q0 -54 -35 -89h87v-59h-553z" />
    <glyph glyph-name="uni20B8" unicode="&#x20b8;" horiz-adv-x="605" 
d="M48 483v63h509v-63h-220v-483h-69v483h-220zM48 644v60h509v-60h-509z" />
    <glyph glyph-name="uni20BD" unicode="&#x20bd;" horiz-adv-x="630" 
d="M34 123v58h104v96h-104v59h104v368h211q106 0 169 -59t63 -153q0 -95 -62.5 -155t-167.5 -60h-145v-96h237v-58h-237v-123h-68v123h-104zM342 641h-136v-302h136q79 0 123.5 41t44.5 111q0 69 -44.5 109.5t-123.5 40.5z" />
    <glyph glyph-name="uni20BF" unicode="&#x20bf;" horiz-adv-x="605" 
d="M90 17v670h90v99h58v-99h91v99h58v-105q67 -14 103.5 -58t36.5 -106q0 -58 -27.5 -97.5t-65.5 -53.5q45 -11 82 -52.5t37 -109.5q0 -73 -44 -121.5t-122 -61.5v-109h-58v105h-91v-105h-58v105h-90zM334 333h-178v-256h176q71 0 112.5 34t41.5 94q0 59 -40.5 93.5
t-111.5 34.5zM317 628h-161v-236h171q66 0 99.5 33t33.5 86q0 55 -37.5 86t-105.5 31z" />
    <glyph glyph-name="uni2116" unicode="&#x2116;" horiz-adv-x="1119" 
d="M164 704l404 -590v590h68v-704h-67l-411 598v-598h-68v704h74zM720 538q0 77 49 126.5t125 49.5t124.5 -49.5t48.5 -126.5t-48.5 -126.5t-124.5 -49.5t-125 49.5t-49 126.5zM894 657q-48 0 -78.5 -33t-30.5 -86t30.5 -86t78.5 -33t78 33t30 86t-30 86t-78 33zM731 240v62
h327v-62h-327z" />
    <glyph glyph-name="trademark" unicode="&#x2122;" horiz-adv-x="964" 
d="M453 704h74l147 -338l147 338h74v-419h-57v327l-142 -327h-44l-142 327v-327h-57v419zM30 649v55h348v-55h-144v-364h-60v364h-144z" />
    <glyph glyph-name="oneeighth" unicode="&#x215b;" horiz-adv-x="922" 
d="M202 706v-420h-60v354l-107 -66v60l111 72h56zM119 0l499 704h71l-499 -704h-71zM567 114q0 41 26 69.5t58 36.5q-28 10 -49.5 33.5t-21.5 59.5q0 47 40.5 80t104.5 33t104 -33t40 -80q0 -36 -21.5 -59.5t-49.5 -33.5q32 -8 58.5 -36.5t26.5 -69.5q0 -51 -45 -86
t-113 -35q-69 0 -113.5 35t-44.5 86zM811 308q0 30 -24 49t-62 19t-62 -19t-24 -49q0 -29 25 -48t61 -19t61 19t25 48zM823 118q0 33 -28 54.5t-70 21.5q-43 0 -70.5 -21t-27.5 -55q0 -32 27.5 -53t70.5 -21t70.5 21t27.5 53z" />
    <glyph glyph-name="threeeighths" unicode="&#x215c;" horiz-adv-x="1027" 
d="M44 596q7 52 48.5 84t100.5 32q61 0 100.5 -32t39.5 -80q0 -34 -19.5 -58.5t-47.5 -35.5q32 -8 57 -35t25 -69q0 -51 -43 -87t-109 -36q-63 0 -108 33.5t-50 86.5h57q7 -30 35 -48t66 -18q40 0 65.5 21t25.5 51q0 33 -25 52t-67 19h-52v51h46q39 0 61 19t22 47
q0 29 -22.5 47.5t-58.5 18.5q-35 0 -59 -17.5t-30 -45.5h-58zM224 0l499 704h71l-499 -704h-71zM672 114q0 41 26 69.5t58 36.5q-28 10 -49.5 33.5t-21.5 59.5q0 47 40.5 80t104.5 33t104 -33t40 -80q0 -36 -21.5 -59.5t-49.5 -33.5q32 -8 58.5 -36.5t26.5 -69.5
q0 -51 -45 -86t-113 -35q-69 0 -113.5 35t-44.5 86zM916 308q0 30 -24 49t-62 19t-62 -19t-24 -49q0 -29 25 -48t61 -19t61 19t25 48zM928 118q0 33 -28 54.5t-70 21.5q-43 0 -70.5 -21t-27.5 -55q0 -32 27.5 -53t70.5 -21t70.5 21t27.5 53z" />
    <glyph glyph-name="fiveeighths" unicode="&#x215d;" horiz-adv-x="1033" 
d="M214 561q57 0 98 -37.5t41 -100.5t-44 -103.5t-108 -40.5q-62 0 -104.5 32.5t-50.5 81.5h60q7 -23 31.5 -41.5t62.5 -18.5q39 0 65.5 25.5t26.5 64.5q0 40 -27 63.5t-65 23.5q-62 0 -91 -48h-59l20 244h260v-53h-210l-12 -135q38 43 106 43zM230 0l499 704h71l-499 -704
h-71zM678 114q0 41 26 69.5t58 36.5q-28 10 -49.5 33.5t-21.5 59.5q0 47 40.5 80t104.5 33t104 -33t40 -80q0 -36 -21.5 -59.5t-49.5 -33.5q32 -8 58.5 -36.5t26.5 -69.5q0 -51 -45 -86t-113 -35q-69 0 -113.5 35t-44.5 86zM922 308q0 30 -24 49t-62 19t-62 -19t-24 -49
q0 -29 25 -48t61 -19t61 19t25 48zM934 118q0 33 -28 54.5t-70 21.5q-43 0 -70.5 -21t-27.5 -55q0 -32 27.5 -53t70.5 -21t70.5 21t27.5 53z" />
    <glyph glyph-name="seveneighths" unicode="&#x215e;" horiz-adv-x="930" 
d="M27 706h288v-48l-171 -372h-65l170 367h-222v53zM127 0l499 704h71l-499 -704h-71zM575 114q0 41 26 69.5t58 36.5q-28 10 -49.5 33.5t-21.5 59.5q0 47 40.5 80t104.5 33t104 -33t40 -80q0 -36 -21.5 -59.5t-49.5 -33.5q32 -8 58.5 -36.5t26.5 -69.5q0 -51 -45 -86
t-113 -35q-69 0 -113.5 35t-44.5 86zM819 308q0 30 -24 49t-62 19t-62 -19t-24 -49q0 -29 25 -48t61 -19t61 19t25 48zM831 118q0 33 -28 54.5t-70 21.5q-43 0 -70.5 -21t-27.5 -55q0 -32 27.5 -53t70.5 -21t70.5 21t27.5 53z" />
    <glyph glyph-name="leftArrow" unicode="&#x2190;" horiz-adv-x="869" 
d="M292 135l-217 217l217 218h83l-186 -187h601v-61h-602l187 -187h-83z" />
    <glyph glyph-name="upArrow" unicode="&#x2191;" horiz-adv-x="574" 
d="M504 498v-83l-186 186v-601h-62v601l-186 -186v83l217 218z" />
    <glyph glyph-name="rightArrow" unicode="&#x2192;" horiz-adv-x="869" 
d="M577 135h-83l187 187h-601v61h600l-186 187h83l218 -218z" />
    <glyph glyph-name="downArrow" unicode="&#x2193;" horiz-adv-x="574" 
d="M504 207l-217 -218l-217 218v83l186 -186v600h62v-600l186 186v-83z" />
    <glyph glyph-name="leftRightArrow" unicode="&#x2194;" horiz-adv-x="940" 
d="M282 145l-207 207l207 207h79l-178 -178h574l-178 178h80l207 -207l-207 -207h-80l178 178h-574l178 -178h-79z" />
    <glyph glyph-name="uni2196" unicode="&#x2196;" horiz-adv-x="679" 
d="M83 397v307h307l57 -57h-264l426 -427l-42 -42l-427 426v-264z" />
    <glyph glyph-name="uni2197" unicode="&#x2197;" horiz-adv-x="680" 
d="M597 397l-59 -59v264l-425 -425l-43 43l424 425h-264l60 59h307v-307z" />
    <glyph glyph-name="uni2198" unicode="&#x2198;" horiz-adv-x="680" 
d="M597 308v-308h-307l-60 59h265l-425 425l44 43l424 -424v264z" />
    <glyph glyph-name="uni2199" unicode="&#x2199;" horiz-adv-x="680" 
d="M83 308l59 59v-263l425 423l43 -43l-425 -425h264l-59 -59h-307v308z" />
    <glyph glyph-name="partialdiff" unicode="&#x2202;" horiz-adv-x="581" 
d="M275 727q2 -1 6 -4q244 -162 244 -442q0 -136 -64.5 -213.5t-176.5 -77.5q-107 0 -171.5 74.5t-64.5 183.5q0 115 66 184.5t166 69.5q98 0 155 -63q-47 153 -252 288h92zM285 51q78 0 125 55t47 145q-3 90 -50 140.5t-122 50.5q-76 0 -122.5 -54.5t-46.5 -139.5t45 -141
t124 -56z" />
    <glyph glyph-name="product" unicode="&#x220f;" horiz-adv-x="659" 
d="M90 704h479v-844h-69v780h-341v-780h-69v844z" />
    <glyph glyph-name="summation" unicode="&#x2211;" horiz-adv-x="564" 
d="M501 704v-62h-357l239 -359l-240 -361h358v-62h-438v58l241 364l-241 364v58h438z" />
    <glyph glyph-name="minus" unicode="&#x2212;" horiz-adv-x="613" 
d="M527 238h-441v64h441v-64z" />
    <glyph glyph-name="radical" unicode="&#x221a;" horiz-adv-x="703" 
d="M571 727h66l-252 -842h-67l-146 354h-117v60h164l130 -317z" />
    <glyph glyph-name="infinity" unicode="&#x221e;" horiz-adv-x="901" 
d="M664 473q87 0 141 -56t54 -136t-54 -135.5t-141 -55.5q-115 0 -213 135q-100 -135 -213 -135q-87 0 -141 55.5t-54 135.5t54 136t141 56q115 0 213 -137q98 137 213 137zM662 153q58 0 94 36.5t36 91.5q0 56 -36 92.5t-94 36.5q-53 0 -93.5 -34t-81.5 -95
q43 -61 83 -94.5t92 -33.5zM240 153q51 0 91.5 33.5t82.5 93.5q-42 61 -82 95.5t-92 34.5q-58 0 -94 -36.5t-36 -92.5q0 -55 36 -91.5t94 -36.5z" />
    <glyph glyph-name="integral" unicode="&#x222b;" horiz-adv-x="523" 
d="M480 704v-60h-34q-90 0 -108 -106l-86 -536q-26 -160 -173 -160h-36v60h34q91 0 108 106l87 536q25 160 172 160h36z" />
    <glyph glyph-name="approxequal" unicode="&#x2248;" horiz-adv-x="613" 
d="M478 440h59v-16q0 -60 -36.5 -96t-89.5 -36q-33 0 -64.5 15t-51.5 32.5t-45 32.5t-47 15q-30 0 -49 -20t-19 -55v-11h-59v16q0 60 36.5 96t89.5 36q33 0 64.5 -15t51.5 -32.5t45 -32.5t47 -15q30 0 49 20t19 55v11zM478 235h59v-17q0 -59 -36 -95t-90 -36
q-42 0 -79.5 23.5t-69.5 47t-59 23.5q-30 0 -49 -20t-19 -54v-12h-59v17q0 59 36.5 95t89.5 36q42 0 79.5 -23.5t69.5 -47t59 -23.5q30 0 49 20t19 54v12z" />
    <glyph glyph-name="notequal" unicode="&#x2260;" horiz-adv-x="613" 
d="M381 509h63l-47 -107h130v-61h-157l-64 -145h221v-60h-248l-47 -107h-63l47 107h-130v60h157l64 145h-221v61h248z" />
    <glyph glyph-name="lessequal" unicode="&#x2264;" horiz-adv-x="613" 
d="M536 521v-65l-377 -163l377 -180v-96h-460v60h401l-401 189v56z" />
    <glyph glyph-name="greaterequal" unicode="&#x2265;" horiz-adv-x="613" 
d="M537 322v-56l-401 -189h401v-60h-460v96l376 180l-376 163v65z" />
    <glyph glyph-name="uni2460" unicode="&#x2460;" horiz-adv-x="939" 
d="M469 -16q150 0 252.5 102.5t102.5 257.5t-102.5 257.5t-251.5 102.5q-150 0 -252.5 -102.5t-102.5 -257.5t102.5 -257.5t251.5 -102.5zM469 -75q-173 0 -293.5 120t-120.5 299t120.5 299t294.5 120q173 0 293.5 -120t120.5 -299t-120.5 -299t-294.5 -120zM515 554v-420
h-60v354l-107 -66v60l111 72h56z" />
    <glyph glyph-name="uni2461" unicode="&#x2461;" horiz-adv-x="939" 
d="M469 -16q150 0 252.5 102.5t102.5 257.5t-102.5 257.5t-251.5 102.5q-150 0 -252.5 -102.5t-102.5 -257.5t102.5 -257.5t251.5 -102.5zM469 -75q-173 0 -293.5 120t-120.5 299t120.5 299t294.5 120q173 0 293.5 -120t120.5 -299t-120.5 -299t-294.5 -120zM405 187h214
v-53h-296v49l165 155q1 1 10 9.5t11 10.5t10 10.5t10 12t7.5 11.5t7 14l3.5 14t2 16q0 31 -23.5 51t-58.5 20q-36 0 -59.5 -19.5t-29.5 -49.5h-58q6 53 47 87.5t103 34.5q61 0 100.5 -35t39.5 -88q0 -59 -79 -133z" />
    <glyph glyph-name="uni2462" unicode="&#x2462;" horiz-adv-x="939" 
d="M469 -16q150 0 252.5 102.5t102.5 257.5t-102.5 257.5t-251.5 102.5q-150 0 -252.5 -102.5t-102.5 -257.5t102.5 -257.5t251.5 -102.5zM469 -75q-173 0 -293.5 120t-120.5 299t120.5 299t294.5 120q173 0 293.5 -120t120.5 -299t-120.5 -299t-294.5 -120zM320 444
q7 52 48.5 84t100.5 32q61 0 100.5 -32t39.5 -80q0 -34 -19.5 -58.5t-47.5 -35.5q32 -8 57 -35t25 -69q0 -51 -43 -87t-109 -36q-63 0 -108 33.5t-50 86.5h57q7 -30 35 -48t66 -18q40 0 65.5 21t25.5 51q0 33 -25 52t-67 19h-52v51h46q39 0 61 19t22 47q0 29 -22.5 47.5
t-58.5 18.5q-35 0 -59 -17.5t-30 -45.5h-58z" />
    <glyph glyph-name="uni2463" unicode="&#x2463;" horiz-adv-x="939" 
d="M469 -16q150 0 252.5 102.5t102.5 257.5t-102.5 257.5t-251.5 102.5q-150 0 -252.5 -102.5t-102.5 -257.5t102.5 -257.5t251.5 -102.5zM469 -75q-173 0 -293.5 120t-120.5 299t120.5 299t294.5 120q173 0 293.5 -120t120.5 -299t-120.5 -299t-294.5 -120zM621 280v-51
h-61v-95h-57v95h-215v50l196 276h76v-275h61zM349 280h154v212z" />
    <glyph glyph-name="uni2464" unicode="&#x2464;" horiz-adv-x="939" 
d="M469 -16q150 0 252.5 102.5t102.5 257.5t-102.5 257.5t-251.5 102.5q-150 0 -252.5 -102.5t-102.5 -257.5t102.5 -257.5t251.5 -102.5zM469 -75q-173 0 -293.5 120t-120.5 299t120.5 299t294.5 120q173 0 293.5 -120t120.5 -299t-120.5 -299t-294.5 -120zM483 409
q57 0 98 -37.5t41 -100.5t-44 -103.5t-108 -40.5q-62 0 -104.5 32.5t-50.5 81.5h60q7 -23 31.5 -41.5t62.5 -18.5q39 0 65.5 25.5t26.5 64.5q0 40 -27 63.5t-65 23.5q-62 0 -91 -48h-59l20 244h260v-53h-210l-12 -135q38 43 106 43z" />
    <glyph glyph-name="uni2465" unicode="&#x2465;" horiz-adv-x="939" 
d="M469 -16q150 0 252.5 102.5t102.5 257.5t-102.5 257.5t-251.5 102.5q-150 0 -252.5 -102.5t-102.5 -257.5t102.5 -257.5t251.5 -102.5zM469 -75q-173 0 -293.5 120t-120.5 299t120.5 299t294.5 120q173 0 293.5 -120t120.5 -299t-120.5 -299t-294.5 -120zM481 409
q58 0 99 -38t41 -98q0 -62 -43 -104t-107 -42q-79 0 -124.5 55.5t-45.5 150.5q0 110 46.5 168.5t123.5 58.5q57 0 95.5 -31t45.5 -75h-59q-6 22 -29 37.5t-53 15.5q-50 0 -79.5 -40t-32.5 -121q38 63 122 63zM469 180q38 0 64.5 26t26.5 65t-27 63.5t-65 24.5q-39 0 -67 -25
t-28 -62q0 -39 27.5 -65.5t68.5 -26.5z" />
    <glyph glyph-name="uni2466" unicode="&#x2466;" horiz-adv-x="939" 
d="M469 -16q150 0 252.5 102.5t102.5 257.5t-102.5 257.5t-251.5 102.5q-150 0 -252.5 -102.5t-102.5 -257.5t102.5 -257.5t251.5 -102.5zM469 -75q-173 0 -293.5 120t-120.5 299t120.5 299t294.5 120q173 0 293.5 -120t120.5 -299t-120.5 -299t-294.5 -120zM325 554h288
v-48l-171 -372h-65l170 367h-222v53z" />
    <glyph glyph-name="uni2467" unicode="&#x2467;" horiz-adv-x="939" 
d="M469 -16q150 0 252.5 102.5t102.5 257.5t-102.5 257.5t-251.5 102.5q-150 0 -252.5 -102.5t-102.5 -257.5t102.5 -257.5t251.5 -102.5zM469 -75q-173 0 -293.5 120t-120.5 299t120.5 299t294.5 120q173 0 293.5 -120t120.5 -299t-120.5 -299t-294.5 -120zM311 248
q0 41 26 69.5t58 36.5q-28 10 -49.5 33.5t-21.5 59.5q0 47 40.5 80t104.5 33t104 -33t40 -80q0 -36 -21.5 -59.5t-49.5 -33.5q32 -8 58.5 -36.5t26.5 -69.5q0 -51 -45 -86t-113 -35q-69 0 -113.5 35t-44.5 86zM555 442q0 30 -24 49t-62 19t-62 -19t-24 -49q0 -29 25 -48
t61 -19t61 19t25 48zM567 252q0 33 -28 54.5t-70 21.5q-43 0 -70.5 -21t-27.5 -55q0 -32 27.5 -53t70.5 -21t70.5 21t27.5 53z" />
    <glyph glyph-name="uni2468" unicode="&#x2468;" horiz-adv-x="939" 
d="M469 -16q150 0 252.5 102.5t102.5 257.5t-102.5 257.5t-251.5 102.5q-150 0 -252.5 -102.5t-102.5 -257.5t102.5 -257.5t251.5 -102.5zM469 -75q-173 0 -293.5 120t-120.5 299t120.5 299t294.5 120q173 0 293.5 -120t120.5 -299t-120.5 -299t-294.5 -120zM458 279
q-58 0 -99.5 38t-41.5 98q0 62 43 103.5t107 41.5q79 0 125 -55t46 -150q0 -110 -47 -169t-124 -59q-57 0 -95.5 31.5t-44.5 75.5h59q6 -22 28.5 -37.5t52.5 -15.5q50 0 80 40t32 121q-37 -63 -121 -63zM469 508q-38 0 -64.5 -26t-26.5 -65t27 -63.5t65 -24.5
q39 0 67.5 25.5t28.5 61.5q0 38 -28 65t-69 27z" />
    <glyph glyph-name="uni24EA" unicode="&#x24ea;" horiz-adv-x="939" 
d="M469 -16q150 0 252.5 102.5t102.5 257.5t-102.5 257.5t-251.5 102.5q-150 0 -252.5 -102.5t-102.5 -257.5t102.5 -257.5t251.5 -102.5zM469 -75q-173 0 -293.5 120t-120.5 299t120.5 299t294.5 120q173 0 293.5 -120t120.5 -299t-120.5 -299t-294.5 -120zM469 560
q75 0 119.5 -60t44.5 -156t-44.5 -156.5t-119.5 -60.5q-76 0 -120.5 60t-44.5 157q0 96 44.5 156t120.5 60zM469 181q48 0 75.5 45.5t27.5 117.5t-27.5 117.5t-75.5 45.5q-49 0 -76.5 -45t-27.5 -118t27.5 -118t76.5 -45z" />
    <glyph glyph-name="uni24FF" unicode="&#x24ff;" horiz-adv-x="939" 
d="M469 -75q-173 0 -293.5 120t-120.5 299t120.5 299t293.5 120q174 0 294.5 -120t120.5 -299t-120.5 -299t-294.5 -120zM469 560q-76 0 -120.5 -60t-44.5 -156q0 -97 44.5 -157t120.5 -60q75 0 119.5 60.5t44.5 156.5t-44.5 156t-119.5 60zM469 181q-49 0 -76.5 45
t-27.5 118t27.5 118t76.5 45q48 0 75.5 -45.5t27.5 -117.5t-27.5 -117.5t-75.5 -45.5z" />
    <glyph glyph-name="lozenge" unicode="&#x25ca;" horiz-adv-x="570" 
d="M320 704l195 -352l-195 -352h-69l-196 352l196 352h69zM444 352l-159 286l-158 -286l158 -286z" />
    <glyph glyph-name="circle" unicode="&#x25cb;" horiz-adv-x="939" 
d="M469 -16q150 0 252.5 102.5t102.5 257.5t-102.5 257.5t-251.5 102.5q-150 0 -252.5 -102.5t-102.5 -257.5t102.5 -257.5t251.5 -102.5zM469 -75q-173 0 -293.5 120t-120.5 299t120.5 299t294.5 120q173 0 293.5 -120t120.5 -299t-120.5 -299t-294.5 -120z" />
    <glyph glyph-name="blackcircle" unicode="&#x25cf;" horiz-adv-x="939" 
d="M469 -75q-173 0 -293.5 120t-120.5 299t120.5 299t293.5 120q174 0 294.5 -120t120.5 -299t-120.5 -299t-294.5 -120z" />
    <glyph glyph-name="uni2776" unicode="&#x2776;" horiz-adv-x="939" 
d="M469 -75q-173 0 -293.5 120t-120.5 299t120.5 299t293.5 120q174 0 294.5 -120t120.5 -299t-120.5 -299t-294.5 -120zM515 134v420h-56l-111 -72v-60l107 66v-354h60z" />
    <glyph glyph-name="uni2777" unicode="&#x2777;" horiz-adv-x="939" 
d="M469 -75q-173 0 -293.5 120t-120.5 299t120.5 299t293.5 120q174 0 294.5 -120t120.5 -299t-120.5 -299t-294.5 -120zM619 187h-214l126 117q79 74 79 133q0 53 -39.5 88t-100.5 35q-62 0 -103 -34.5t-47 -87.5h58q6 30 29.5 49.5t59.5 19.5q35 0 58.5 -20t23.5 -51
q0 -8 -2 -16l-3.5 -14t-7 -14t-7.5 -11.5t-10 -12t-10 -10.5t-11 -10.5t-10 -9.5l-165 -155v-49h296v53z" />
    <glyph glyph-name="uni2778" unicode="&#x2778;" horiz-adv-x="939" 
d="M469 -75q-173 0 -293.5 120t-120.5 299t120.5 299t293.5 120q174 0 294.5 -120t120.5 -299t-120.5 -299t-294.5 -120zM320 444h58q6 28 30 45.5t59 17.5q36 0 58.5 -18.5t22.5 -47.5q0 -28 -22 -47t-61 -19h-46v-51h52q42 0 67 -19t25 -52q0 -30 -25.5 -51t-65.5 -21
q-38 0 -66 18t-35 48h-57q5 -53 50 -86.5t108 -33.5q66 0 109 36t43 87q0 42 -25 69t-57 35q28 11 47.5 35.5t19.5 58.5q0 48 -39.5 80t-100.5 32q-59 0 -100.5 -32t-48.5 -84z" />
    <glyph glyph-name="uni2779" unicode="&#x2779;" horiz-adv-x="939" 
d="M469 -75q-173 0 -293.5 120t-120.5 299t120.5 299t293.5 120q174 0 294.5 -120t120.5 -299t-120.5 -299t-294.5 -120zM621 229v51h-61v275h-76l-196 -276v-50h215v-95h57v95h61zM503 280h-154l154 212v-212z" />
    <glyph glyph-name="uni277A" unicode="&#x277a;" horiz-adv-x="939" 
d="M469 -75q-173 0 -293.5 120t-120.5 299t120.5 299t293.5 120q174 0 294.5 -120t120.5 -299t-120.5 -299t-294.5 -120zM483 409q-68 0 -106 -43l12 135h210v53h-260l-20 -244h59q29 48 91 48q38 0 65 -23.5t27 -63.5q0 -39 -26.5 -64.5t-65.5 -25.5q-38 0 -62.5 18.5
t-31.5 41.5h-60q8 -49 50.5 -81.5t104.5 -32.5q64 0 108 40.5t44 103.5t-41 100.5t-98 37.5z" />
    <glyph glyph-name="uni277B" unicode="&#x277b;" horiz-adv-x="939" 
d="M469 -75q-173 0 -293.5 120t-120.5 299t120.5 299t293.5 120q174 0 294.5 -120t120.5 -299t-120.5 -299t-294.5 -120zM481 409q-84 0 -122 -63q3 81 32.5 121t79.5 40q30 0 53 -15.5t29 -37.5h59q-7 44 -45.5 75t-95.5 31q-77 0 -123.5 -58.5t-46.5 -168.5
q0 -95 45.5 -150.5t124.5 -55.5q64 0 107 42t43 104q0 60 -41 98t-99 38zM469 180q-41 0 -68.5 26.5t-27.5 65.5q0 37 28 62t67 25q38 0 65 -24.5t27 -63.5t-26.5 -65t-64.5 -26z" />
    <glyph glyph-name="uni277C" unicode="&#x277c;" horiz-adv-x="939" 
d="M469 -75q-173 0 -293.5 120t-120.5 299t120.5 299t293.5 120q174 0 294.5 -120t120.5 -299t-120.5 -299t-294.5 -120zM613 554h-288v-53h222l-170 -367h65l171 372v48z" />
    <glyph glyph-name="uni277D" unicode="&#x277d;" horiz-adv-x="939" 
d="M469 -75q-173 0 -293.5 120t-120.5 299t120.5 299t293.5 120q174 0 294.5 -120t120.5 -299t-120.5 -299t-294.5 -120zM311 248q0 -51 44.5 -86t113.5 -35q68 0 113 35t45 86q0 41 -26.5 69.5t-58.5 36.5q28 10 49.5 33.5t21.5 59.5q0 47 -40 80t-104 33t-104.5 -33
t-40.5 -80q0 -36 21.5 -59.5t49.5 -33.5q-32 -8 -58 -36.5t-26 -69.5zM555 442q0 -29 -25 -48t-61 -19t-61 19t-25 48q0 30 24 49t62 19t62 -19t24 -49zM567 252q0 -32 -27.5 -53t-70.5 -21t-70.5 21t-27.5 53q0 34 27.5 55t70.5 21q42 0 70 -21.5t28 -54.5z" />
    <glyph glyph-name="uni277E" unicode="&#x277e;" horiz-adv-x="939" 
d="M469 -75q-173 0 -293.5 120t-120.5 299t120.5 299t293.5 120q174 0 294.5 -120t120.5 -299t-120.5 -299t-294.5 -120zM458 279q84 0 121 63q-2 -81 -32 -121t-80 -40q-30 0 -52.5 15.5t-28.5 37.5h-59q6 -44 44.5 -75.5t95.5 -31.5q77 0 124 59t47 169q0 95 -46 150
t-125 55q-64 0 -107 -41.5t-43 -103.5q0 -60 41.5 -98t99.5 -38zM469 508q41 0 69 -27t28 -65q0 -36 -28.5 -61.5t-67.5 -25.5q-38 0 -65 24.5t-27 63.5t26.5 65t64.5 26z" />
    <glyph glyph-name="numbersign.case" horiz-adv-x="613" 
d="M565 492v-57h-115v-180h115v-57h-115v-120h-59v120h-169v-120h-59v120h-115v57h115v180h-115v57h115v124h59v-124h169v124h59v-124h115zM222 435v-180h169v180h-169z" />
    <glyph glyph-name="parenleft.case" horiz-adv-x="329" 
d="M299 794q-148 -196 -148 -443q0 -246 148 -442h-68q-63 77 -106 193t-43 249t43 249.5t106 193.5h68z" />
    <glyph glyph-name="parenleft.dnom" horiz-adv-x="221" 
d="M199 475q-88 -117 -88 -265t88 -266h-56q-91 111 -91 266q0 80 26 149.5t65 115.5h56z" />
    <glyph glyph-name="parenleft.numr" horiz-adv-x="221" 
d="M199 760q-88 -117 -88 -265t88 -266h-56q-91 111 -91 266q0 80 26 149.5t65 115.5h56z" />
    <glyph glyph-name="parenright.case" horiz-adv-x="329" 
d="M30 794h68q64 -77 107 -193.5t43 -249.5t-43 -249t-107 -193h-68q149 198 149 442q0 245 -149 443z" />
    <glyph glyph-name="parenright.dnom" horiz-adv-x="221" 
d="M22 475h57q38 -47 64 -116t26 -149q0 -154 -90 -266h-57q89 120 89 266q0 147 -89 265z" />
    <glyph glyph-name="parenright.numr" horiz-adv-x="221" 
d="M22 760h57q38 -47 64 -116t26 -149q0 -154 -90 -266h-57q89 120 89 266q0 147 -89 265z" />
    <glyph glyph-name="asterisk.case" horiz-adv-x="613" 
d="M336 599l-1 -229l217 71l18 -55l-215 -71l134 -184l-47 -35l-136 185l-134 -185l-47 35l133 184l-216 71l18 55l217 -70l-1 228h60z" />
    <glyph glyph-name="plus.case" horiz-adv-x="613" 
d="M274 593h65v-207h200v-64h-200v-208h-65v208h-200v64h200v207z" />
    <glyph glyph-name="plus.dnom" horiz-adv-x="385" 
d="M166 357h52v-121h117v-51h-117v-121h-52v121h-117v51h117v121z" />
    <glyph glyph-name="plus.numr" horiz-adv-x="385" 
d="M166 642h52v-121h117v-51h-117v-121h-52v121h-117v51h117v121z" />
    <glyph glyph-name="hyphen.case" horiz-adv-x="424" 
d="M58 322v64h308v-64h-308z" />
    <glyph glyph-name="slash.case" horiz-adv-x="352" 
d="M273 794h66l-260 -885h-66z" />
    <glyph glyph-name="zero.dnom" horiz-adv-x="409" 
d="M205 426q75 0 119.5 -60t44.5 -156t-44.5 -156.5t-119.5 -60.5q-76 0 -120.5 60t-44.5 157q0 96 44.5 156t120.5 60zM205 47q48 0 75.5 45.5t27.5 117.5t-27.5 117.5t-75.5 45.5q-49 0 -76.5 -45t-27.5 -118t27.5 -118t76.5 -45z" />
    <glyph glyph-name="zero.numr" horiz-adv-x="409" 
d="M205 712q75 0 119.5 -60t44.5 -156t-44.5 -156.5t-119.5 -60.5q-76 0 -120.5 60t-44.5 157q0 96 44.5 156t120.5 60zM205 333q48 0 75.5 45.5t27.5 117.5t-27.5 117.5t-75.5 45.5q-49 0 -76.5 -45t-27.5 -118t27.5 -118t76.5 -45z" />
    <glyph glyph-name="zero.tf" horiz-adv-x="613" 
d="M306 715q121 0 190 -100t69 -263q0 -162 -69 -262t-190 -100q-120 0 -189 100t-69 262t69 262.5t189 100.5zM306 54q89 0 139 83t50 215q0 133 -50 216t-139 83q-88 0 -138 -83t-50 -216q0 -132 50 -215t138 -83z" />
    <glyph glyph-name="one.dnom" horiz-adv-x="281" 
d="M202 420v-420h-60v354l-107 -66v60l111 72h56z" />
    <glyph glyph-name="one.numr" horiz-adv-x="281" 
d="M202 706v-420h-60v354l-107 -66v60l111 72h56z" />
    <glyph glyph-name="one.tf" horiz-adv-x="613" 
d="M403 705v-705h-70v624l-200 -116v73l207 124h63z" />
    <glyph glyph-name="two.dnom" horiz-adv-x="379" 
d="M127 53h214v-53h-296v49l165 155q1 1 10 9.5t11 10.5t10 10.5t10 12t7.5 11.5t7 14l3.5 14t2 16q0 31 -23.5 51t-58.5 20q-36 0 -59.5 -19.5t-29.5 -49.5h-58q6 53 47 87.5t103 34.5q61 0 100.5 -35t39.5 -88q0 -59 -79 -133z" />
    <glyph glyph-name="two.numr" horiz-adv-x="379" 
d="M127 339h214v-53h-296v49l165 155q1 1 10 9.5t11 10.5t10 10.5t10 12t7.5 11.5t7 14l3.5 14t2 16q0 31 -23.5 51t-58.5 20q-36 0 -59.5 -19.5t-29.5 -49.5h-58q6 53 47 87.5t103 34.5q61 0 100.5 -35t39.5 -88q0 -59 -79 -133z" />
    <glyph glyph-name="two.tf" horiz-adv-x="613" 
d="M459 512q0 61 -43 100t-108 39q-67 0 -111.5 -36t-57.5 -96h-68q13 88 77.5 142t161.5 54q96 0 157.5 -58.5t61.5 -144.5q0 -38 -11 -71.5t-34.5 -65t-41.5 -50.5t-50 -49l-224 -212h379v-64h-474v60l274 262q39 38 58 59t36.5 57t17.5 74z" />
    <glyph glyph-name="three.dnom" horiz-adv-x="386" 
d="M44 310q7 52 48.5 84t100.5 32q61 0 100.5 -32t39.5 -80q0 -34 -19.5 -58.5t-47.5 -35.5q32 -8 57 -35t25 -69q0 -51 -43 -87t-109 -36q-63 0 -108 33.5t-50 86.5h57q7 -30 35 -48t66 -18q40 0 65.5 21t25.5 51q0 33 -25 52t-67 19h-52v51h46q39 0 61 19t22 47
q0 29 -22.5 47.5t-58.5 18.5q-35 0 -59 -17.5t-30 -45.5h-58z" />
    <glyph glyph-name="three.numr" horiz-adv-x="386" 
d="M44 596q7 52 48.5 84t100.5 32q61 0 100.5 -32t39.5 -80q0 -34 -19.5 -58.5t-47.5 -35.5q32 -8 57 -35t25 -69q0 -51 -43 -87t-109 -36q-63 0 -108 33.5t-50 86.5h57q7 -30 35 -48t66 -18q40 0 65.5 21t25.5 51q0 33 -25 52t-67 19h-52v51h46q39 0 61 19t22 47
q0 29 -22.5 47.5t-58.5 18.5q-35 0 -59 -17.5t-30 -45.5h-58z" />
    <glyph glyph-name="three.tf" horiz-adv-x="613" 
d="M70 530q15 88 80.5 136.5t155.5 48.5q99 0 159.5 -54t60.5 -136q0 -60 -32 -99.5t-76 -56.5q49 -12 91.5 -55.5t42.5 -117.5q0 -86 -68 -146t-171 -60q-100 0 -170.5 52t-82.5 140h70q11 -57 61 -92.5t122 -35.5q74 0 121.5 41.5t47.5 102.5q0 64 -47.5 99.5t-124.5 35.5
h-87v63h83q71 0 110.5 36.5t39.5 91.5q0 57 -41 92t-109 35q-65 0 -109 -32.5t-58 -88.5h-69z" />
    <glyph glyph-name="four.dnom" horiz-adv-x="399" 
d="M366 146v-51h-61v-95h-57v95h-215v50l196 276h76v-275h61zM94 146h154v212z" />
    <glyph glyph-name="four.numr" horiz-adv-x="399" 
d="M366 432v-51h-61v-95h-57v95h-215v50l196 276h76v-275h61zM94 432h154v212z" />
    <glyph glyph-name="four.tf" horiz-adv-x="613" 
d="M469 0h-69v172h-360v56l347 478h82v-472h105v-62h-105v-172zM119 234h281v388z" />
    <glyph glyph-name="five.dnom" horiz-adv-x="392" 
d="M214 275q57 0 98 -37.5t41 -100.5t-44 -103.5t-108 -40.5q-62 0 -104.5 32.5t-50.5 81.5h60q7 -23 31.5 -41.5t62.5 -18.5q39 0 65.5 25.5t26.5 64.5q0 40 -27 63.5t-65 23.5q-62 0 -91 -48h-59l20 244h260v-53h-210l-12 -135q38 43 106 43z" />
    <glyph glyph-name="five.numr" horiz-adv-x="392" 
d="M214 561q57 0 98 -37.5t41 -100.5t-44 -103.5t-108 -40.5q-62 0 -104.5 32.5t-50.5 81.5h60q7 -23 31.5 -41.5t62.5 -18.5q39 0 65.5 25.5t26.5 64.5q0 40 -27 63.5t-65 23.5q-62 0 -91 -48h-59l20 244h260v-53h-210l-12 -135q38 43 106 43z" />
    <glyph glyph-name="five.tf" horiz-adv-x="613" 
d="M314 54q75 0 123 48.5t48 125.5t-49.5 123t-119.5 46q-110 0 -170 -92h-69l34 400h406v-64h-347l-23 -258q68 77 180 77q93 0 160.5 -63.5t67.5 -167.5q0 -106 -69 -172.5t-171 -66.5q-100 0 -166 53t-79 131h71q12 -49 57 -84.5t116 -35.5z" />
    <glyph glyph-name="six.dnom" horiz-adv-x="395" 
d="M220 275q58 0 99 -38t41 -98q0 -62 -43 -104t-107 -42q-79 0 -124.5 55.5t-45.5 150.5q0 110 46.5 168.5t123.5 58.5q57 0 95.5 -31t45.5 -75h-59q-6 22 -29 37.5t-53 15.5q-50 0 -79.5 -40t-32.5 -121q38 63 122 63zM208 46q38 0 64.5 26t26.5 65t-27 63.5t-65 24.5
q-39 0 -67 -25t-28 -62q0 -39 27.5 -65.5t68.5 -26.5z" />
    <glyph glyph-name="six.numr" horiz-adv-x="395" 
d="M220 561q58 0 99 -38t41 -98q0 -62 -43 -104t-107 -42q-79 0 -124.5 55.5t-45.5 150.5q0 110 46.5 168.5t123.5 58.5q57 0 95.5 -31t45.5 -75h-59q-6 22 -29 37.5t-53 15.5q-50 0 -79.5 -40t-32.5 -121q38 63 122 63zM208 332q38 0 64.5 26t26.5 65t-27 63.5t-65 24.5
q-39 0 -67 -25t-28 -62q0 -39 27.5 -65.5t68.5 -26.5z" />
    <glyph glyph-name="six.tf" horiz-adv-x="613" 
d="M331 461q94 0 162 -64t68 -168q0 -105 -68.5 -172t-169.5 -67q-126 0 -196 92t-70 253q0 188 74.5 284t194.5 96q89 0 148.5 -49t71.5 -119h-69q-13 44 -51.5 74t-99.5 30q-91 0 -145.5 -77.5t-55.5 -237.5q27 59 82.5 92t123.5 33zM321 54q71 0 120 48.5t49 125.5
q0 76 -49 123t-121 47t-122 -48t-50 -121q0 -76 49.5 -125.5t123.5 -49.5z" />
    <glyph glyph-name="seven.dnom" horiz-adv-x="348" 
d="M27 420h288v-48l-171 -372h-65l170 367h-222v53z" />
    <glyph glyph-name="seven.numr" horiz-adv-x="348" 
d="M27 706h288v-48l-171 -372h-65l170 367h-222v53z" />
    <glyph glyph-name="seven.tf" horiz-adv-x="613" 
d="M535 646l-298 -646h-78l297 641h-388v64h467v-59z" />
    <glyph glyph-name="eight.dnom" horiz-adv-x="395" 
d="M40 114q0 41 26 69.5t58 36.5q-28 10 -49.5 33.5t-21.5 59.5q0 47 40.5 80t104.5 33t104 -33t40 -80q0 -36 -21.5 -59.5t-49.5 -33.5q32 -8 58.5 -36.5t26.5 -69.5q0 -51 -45 -86t-113 -35q-69 0 -113.5 35t-44.5 86zM284 308q0 30 -24 49t-62 19t-62 -19t-24 -49
q0 -29 25 -48t61 -19t61 19t25 48zM296 118q0 33 -28 54.5t-70 21.5q-43 0 -70.5 -21t-27.5 -55q0 -32 27.5 -53t70.5 -21t70.5 21t27.5 53z" />
    <glyph glyph-name="eight.numr" horiz-adv-x="395" 
d="M40 400q0 41 26 69.5t58 36.5q-28 10 -49.5 33.5t-21.5 59.5q0 47 40.5 80t104.5 33t104 -33t40 -80q0 -36 -21.5 -59.5t-49.5 -33.5q32 -8 58.5 -36.5t26.5 -69.5q0 -51 -45 -86t-113 -35q-69 0 -113.5 35t-44.5 86zM284 594q0 30 -24 49t-62 19t-62 -19t-24 -49
q0 -29 25 -48t61 -19t61 19t25 48zM296 404q0 33 -28 54.5t-70 21.5q-43 0 -70.5 -21t-27.5 -55q0 -32 27.5 -53t70.5 -21t70.5 21t27.5 53z" />
    <glyph glyph-name="eight.tf" horiz-adv-x="613" 
d="M58 190q0 74 44.5 121t94.5 58q-45 17 -80.5 56.5t-35.5 103.5q0 81 62.5 133.5t163.5 52.5q100 0 162.5 -52.5t62.5 -133.5q0 -65 -36 -104.5t-80 -55.5q50 -11 95 -58t45 -121q0 -89 -70 -144.5t-179 -55.5q-110 0 -179.5 55.5t-69.5 144.5zM463 525q0 57 -43.5 92.5
t-112.5 35.5q-70 0 -113 -35t-43 -93q0 -57 45 -93t111 -36t111 36t45 93zM486 193q0 65 -51 104.5t-128 39.5t-128 -39.5t-51 -104.5q0 -62 49.5 -101t129.5 -39q79 0 129 39t50 101z" />
    <glyph glyph-name="nine.dnom" horiz-adv-x="395" 
d="M176 145q-58 0 -99.5 38t-41.5 98q0 62 43 103.5t107 41.5q79 0 125 -55t46 -150q0 -110 -47 -169t-124 -59q-57 0 -95.5 31.5t-44.5 75.5h59q6 -22 28.5 -37.5t52.5 -15.5q50 0 80 40t32 121q-37 -63 -121 -63zM187 374q-38 0 -64.5 -26t-26.5 -65t27 -63.5t65 -24.5
q39 0 67.5 25.5t28.5 61.5q0 38 -28 65t-69 27z" />
    <glyph glyph-name="nine.numr" horiz-adv-x="395" 
d="M176 431q-58 0 -99.5 38t-41.5 98q0 62 43 103.5t107 41.5q79 0 125 -55t46 -150q0 -110 -47 -169t-124 -59q-57 0 -95.5 31.5t-44.5 75.5h59q6 -22 28.5 -37.5t52.5 -15.5q50 0 80 40t32 121q-37 -63 -121 -63zM187 660q-38 0 -64.5 -26t-26.5 -65t27 -63.5t65 -24.5
q39 0 67.5 25.5t28.5 61.5q0 38 -28 65t-69 27z" />
    <glyph glyph-name="nine.tf" horiz-adv-x="613" 
d="M282 244q-94 0 -162 64.5t-68 168.5t68.5 171t168.5 67q127 0 197 -91.5t70 -253.5q0 -188 -74.5 -284t-194.5 -96q-89 0 -148.5 49.5t-71.5 118.5h70q13 -43 51 -73.5t99 -30.5q91 0 145.5 77.5t55.5 237.5q-27 -59 -83 -92t-123 -33zM291 651q-71 0 -119.5 -48
t-48.5 -125q0 -76 49.5 -123.5t119.5 -47.5q73 0 123 48t50 122q0 76 -49.5 125t-124.5 49z" />
    <glyph glyph-name="colon.case" horiz-adv-x="252" 
d="M126 204q21 0 36 -14.5t15 -36.5q0 -21 -15 -36t-36 -15t-36 15t-15 36q0 22 15 36.5t36 14.5zM126 602q21 0 36 -14.5t15 -36.5q0 -21 -15 -36t-36 -15t-36 15t-15 36q0 22 15 36.5t36 14.5z" />
    <glyph glyph-name="less.case" horiz-adv-x="613" 
d="M537 106l-460 219v55l460 219v-69l-375 -178l375 -177v-69z" />
    <glyph glyph-name="equal.case" horiz-adv-x="613" 
d="M86 424v62h441v-62h-441zM86 219v62h441v-62h-441z" />
    <glyph glyph-name="equal.dnom" horiz-adv-x="385" 
d="M53 250v50h279v-50h-279zM53 120v51h279v-51h-279z" />
    <glyph glyph-name="equal.numr" horiz-adv-x="385" 
d="M53 535v50h279v-50h-279zM53 405v51h279v-51h-279z" />
    <glyph glyph-name="greater.case" horiz-adv-x="613" 
d="M77 106v69l375 177l-375 178v69l460 -219v-55z" />
    <glyph glyph-name="at.case" horiz-adv-x="906" 
d="M471 764q170 0 277.5 -110t107.5 -274q0 -122 -46 -178t-113 -56q-42 0 -72 20.5t-43 54.5q-46 -78 -144 -78q-77 0 -130 57t-53 153q0 93 53 150t133 57q88 0 132 -69v59h63v-271q0 -35 19 -56t48 -21q89 0 89 178q0 141 -88 233.5t-233 92.5q-147 0 -246.5 -97
t-99.5 -263q0 -164 103 -256t260 -92q94 0 162 27v-59q-64 -26 -162 -26q-187 0 -307 109t-120 297q0 189 117.5 303.5t292.5 114.5zM447 201q55 0 90.5 39.5t35.5 106.5v11q0 64 -35 104t-91 40t-91 -40t-35 -109q0 -70 35 -111t91 -41z" />
    <glyph glyph-name="bracketleft.case" horiz-adv-x="354" 
d="M324 735h-149v-767h149v-59h-216v885h216v-59z" />
    <glyph glyph-name="backslash.case" horiz-adv-x="352" 
d="M79 794l260 -885h-66l-260 885h66z" />
    <glyph glyph-name="bracketright.case" horiz-adv-x="354" 
d="M30 -91v59h149v767h-149v59h216v-885h-216z" />
    <glyph glyph-name="a.salt" horiz-adv-x="592" 
d="M275 -10q-94 0 -160.5 69t-66.5 193t66.5 193t162.5 69q61 0 106.5 -26.5t66.5 -67.5v84h64v-504h-64v86q-22 -42 -67.5 -69t-107.5 -27zM282 453q-74 0 -120 -55t-46 -146q0 -90 46 -145.5t120 -55.5q75 0 121.5 53.5t46.5 142.5v10q0 88 -46 142t-122 54z" />
    <glyph glyph-name="braceleft.case" horiz-adv-x="364" 
d="M207 482q0 -61 -17.5 -90.5t-59.5 -40.5q41 -11 59 -41t18 -91v-137q0 -63 23.5 -88.5t74.5 -25.5h29v-59h-32q-161 0 -161 166v135q0 56 -19.5 83.5t-66.5 27.5h-30v58h30q47 0 66.5 27.5t19.5 83.5v138q0 166 161 166h32v-59h-29q-51 0 -74.5 -25.5t-23.5 -87.5v-140z
" />
    <glyph glyph-name="bar.case" horiz-adv-x="259" 
d="M98 794h63v-885h-63v885z" />
    </font>
</defs>
</svg>
