<?xml version="1.0" standalone="no"?>
<!DOCTYPE svg PUBLIC "-//W3C//DTD SVG 1.1//EN" "http://www.w3.org/Graphics/SVG/1.1/DTD/svg11.dtd" >
<svg xmlns="http://www.w3.org/2000/svg" xmlns:xlink="http://www.w3.org/1999/xlink" version="1.1">
<metadata>
Created by FontForge 20190801 at Tue Aug 20 08:50:00 2019
 By Jimmy Wärting
Copyright (c) 2019 by Art. Lebedev Studio. All rights reserved.
</metadata>
<defs>
<font id="ALSHauss-Regular" horiz-adv-x="614" >
  <font-face 
    font-family="ALS Hauss"
    font-weight="400"
    font-stretch="normal"
    units-per-em="1000"
    panose-1="2 0 0 0 0 0 0 0 0 0"
    ascent="800"
    descent="-200"
    x-height="504"
    cap-height="704"
    bbox="-174 -262 1219 962"
    underline-thickness="50"
    underline-position="-100"
    stemh="78"
    stemv="88"
    unicode-range="U+000D-277E"
  />
<missing-glyph horiz-adv-x="611" 
d="M55 704h501v-704h-501v704zM433 582h-256v-460h256v460z" />
    <glyph glyph-name="registered" unicode="&#x28;R&#x29;" horiz-adv-x="612" 
d="M306 205c-145 0 -261 112 -261 264s116 264 261 264s261 -112 261 -264s-116 -264 -261 -264zM306 264c114 0 200 85 200 205s-86 205 -200 205s-200 -85 -200 -205s86 -205 200 -205zM409 512c0 -31 -17 -57 -41 -73l59 -98h-67l-49 82h-48v-82h-59v258h108
c59 0 97 -36 97 -87zM308 547h-45v-72h45c24 0 39 15 39 36s-14 36 -39 36z" />
    <glyph glyph-name="copyright" unicode="&#x28;C&#x29;" horiz-adv-x="872" 
d="M436 -30c178 0 311 135 311 324s-133 324 -311 324s-311 -135 -311 -324s133 -324 311 -324zM436 -105c-220 0 -389 168 -389 399s169 399 389 399s389 -168 389 -399s-169 -399 -389 -399zM433 152c63 0 91 37 100 72h79c-8 -77 -79 -145 -179 -145
c-117 0 -196 90 -196 215s78 218 196 218c110 0 170 -75 179 -144h-79c-11 35 -40 70 -100 70c-68 0 -115 -53 -115 -144c0 -90 46 -142 115 -142z" />
    <glyph glyph-name="Ldot" unicode="L&#xb7;" horiz-adv-x="572" 
d="M177 704v-622h357v-82h-446v704h89zM360 436c34 0 62 -26 62 -61s-28 -61 -62 -61s-62 26 -62 61s28 61 62 61z" />
    <glyph glyph-name="ldot" unicode="l&#xb7;" horiz-adv-x="353" 
d="M161 727v-727h-86v727h86zM286 413c34 0 62 -26 62 -61s-28 -61 -62 -61s-62 26 -62 61s28 61 62 61z" />
    <glyph glyph-name="uni2460" unicode="&#x28;&#x31;&#x29;" horiz-adv-x="944" 
d="M472 -6c192 0 344 147 344 350s-152 350 -344 350s-344 -147 -344 -350s152 -350 344 -350zM472 -80c-232 0 -420 180 -420 424s188 424 420 424s420 -180 420 -424s-188 -424 -420 -424zM528 556v-425h-76v343l-105 -64v75l110 71h71z" />
    <glyph glyph-name="uni2461" unicode="&#x28;&#x32;&#x29;" horiz-adv-x="944" 
d="M472 -6c192 0 344 147 344 350s-152 350 -344 350s-344 -147 -344 -350s152 -350 344 -350zM472 -80c-232 0 -420 180 -420 424s188 424 420 424s420 -180 420 -424s-188 -424 -420 -424zM422 196h204v-65h-306v61l165 152c24 23 57 49 57 90c0 37 -31 63 -74 63
c-44 0 -72 -27 -79 -61h-72c7 72 66 127 155 127c86 0 147 -55 147 -127c0 -55 -40 -98 -80 -134z" />
    <glyph glyph-name="uni2462" unicode="&#x28;&#x33;&#x29;" horiz-adv-x="944" 
d="M472 -6c192 0 344 147 344 350s-152 350 -344 350s-344 -147 -344 -350s152 -350 344 -350zM472 -80c-232 0 -420 180 -420 424s188 424 420 424s420 -180 420 -424s-188 -424 -420 -424zM316 442c10 76 77 121 156 121c84 0 145 -49 145 -115c0 -49 -31 -80 -65 -94
c36 -9 80 -44 80 -104c0 -71 -65 -126 -157 -126c-87 0 -157 49 -164 125h72c10 -37 45 -60 92 -60c46 0 80 27 80 65c0 40 -32 62 -82 62h-52v64h44c49 0 75 27 75 59c0 35 -29 59 -72 59c-44 0 -72 -25 -79 -56h-73z" />
    <glyph glyph-name="uni2463" unicode="&#x28;&#x34;&#x29;" horiz-adv-x="944" 
d="M472 -6c192 0 344 147 344 350s-152 350 -344 350s-344 -147 -344 -350s152 -350 344 -350zM472 -80c-232 0 -420 180 -420 424s188 424 420 424s420 -180 420 -424s-188 -424 -420 -424zM633 285v-64h-60v-90h-72v90h-213v62l189 274h96v-272h60zM364 285h137v195z" />
    <glyph glyph-name="uni2464" unicode="&#x28;&#x35;&#x29;" horiz-adv-x="944" 
d="M472 -6c192 0 344 147 344 350s-152 350 -344 350s-344 -147 -344 -350s152 -350 344 -350zM472 -80c-232 0 -420 180 -420 424s188 424 420 424s420 -180 420 -424s-188 -424 -420 -424zM489 411c74 0 142 -50 142 -140s-72 -147 -158 -147c-89 0 -152 52 -161 119h75
c7 -21 31 -54 85 -54c46 0 82 33 82 81c0 50 -38 79 -82 79c-31 0 -62 -11 -82 -43h-74l20 250h271v-65h-209l-10 -119c21 22 56 39 101 39z" />
    <glyph glyph-name="uni2465" unicode="&#x28;&#x36;&#x29;" horiz-adv-x="944" 
d="M472 -6c192 0 344 147 344 350s-152 350 -344 350s-344 -147 -344 -350s152 -350 344 -350zM472 -80c-232 0 -420 180 -420 424s188 424 420 424s420 -180 420 -424s-188 -424 -420 -424zM487 410c76 0 143 -53 143 -138c0 -84 -66 -148 -156 -148
c-111 0 -177 83 -177 211c0 153 75 228 176 228c82 0 139 -50 148 -112h-74c-7 23 -34 47 -74 47c-57 0 -97 -42 -102 -142c25 35 67 54 116 54zM471 189c47 0 82 35 82 81c0 48 -38 79 -83 79c-46 0 -85 -33 -85 -79s38 -81 86 -81z" />
    <glyph glyph-name="uni2466" unicode="&#x28;&#x37;&#x29;" horiz-adv-x="944" 
d="M472 -6c192 0 344 147 344 350s-152 350 -344 350s-344 -147 -344 -350s152 -350 344 -350zM472 -80c-232 0 -420 180 -420 424s188 424 420 424s420 -180 420 -424s-188 -424 -420 -424zM323 557h298v-59l-168 -366h-82l168 360h-216v65z" />
    <glyph glyph-name="uni2467" unicode="&#x28;&#x38;&#x29;" horiz-adv-x="944" 
d="M472 -6c192 0 344 147 344 350s-152 350 -344 350s-344 -147 -344 -350s152 -350 344 -350zM472 -80c-232 0 -420 180 -420 424s188 424 420 424s420 -180 420 -424s-188 -424 -420 -424zM308 248c0 57 43 94 81 105c-31 12 -68 41 -68 94c0 63 59 116 151 116
c91 0 150 -53 150 -116c0 -53 -37 -82 -68 -94c38 -11 81 -48 81 -105c0 -69 -66 -124 -163 -124c-98 0 -164 55 -164 124zM548 440c0 36 -31 61 -76 61c-46 0 -77 -25 -77 -61s34 -61 77 -61c42 0 76 25 76 61zM559 253c0 39 -35 68 -87 68c-53 0 -88 -29 -88 -68
s36 -67 88 -67c51 0 87 28 87 67z" />
    <glyph glyph-name="uni2468" unicode="&#x28;&#x39;&#x29;" horiz-adv-x="944" 
d="M472 -6c192 0 344 147 344 350s-152 350 -344 350s-344 -147 -344 -350s152 -350 344 -350zM472 -80c-232 0 -420 180 -420 424s188 424 420 424s420 -180 420 -424s-188 -424 -420 -424zM457 278c-76 0 -143 53 -143 138c0 84 66 148 156 148c111 0 177 -83 177 -211
c0 -153 -75 -228 -176 -228c-82 0 -139 50 -148 112h74c7 -23 34 -47 74 -47c57 0 97 42 102 142c-25 -35 -67 -54 -116 -54zM473 499c-47 0 -82 -35 -82 -81c0 -48 38 -79 83 -79c46 0 85 33 85 79s-38 81 -86 81z" />
    <glyph glyph-name="uni24EA" unicode="&#x28;&#x30;&#x29;" horiz-adv-x="944" 
d="M472 -6c192 0 344 147 344 350s-152 350 -344 350s-344 -147 -344 -350s152 -350 344 -350zM472 -80c-232 0 -420 180 -420 424s188 424 420 424s420 -180 420 -424s-188 -424 -420 -424zM472 563c105 0 171 -90 171 -219c0 -130 -66 -220 -171 -220s-171 90 -171 220
c0 129 66 219 171 219zM472 190c62 0 94 65 94 154c0 88 -32 153 -94 153s-94 -65 -94 -153c0 -89 32 -154 94 -154z" />
    <glyph glyph-name=".notdef" horiz-adv-x="611" 
d="M55 704h501v-704h-501v704zM433 582h-256v-460h256v460z" />
    <glyph glyph-name="space" unicode=" " horiz-adv-x="220" 
 />
    <glyph glyph-name="exclam" unicode="!" horiz-adv-x="304" 
d="M111 210l-6 494h93l-6 -494h-81zM152 111c34 0 62 -26 62 -61s-28 -61 -62 -61s-62 26 -62 61s28 61 62 61z" />
    <glyph glyph-name="quotedbl" unicode="&#x22;" horiz-adv-x="423" 
d="M260 433v271h84l-6 -271h-78zM79 433v271h84l-6 -271h-78z" />
    <glyph glyph-name="numbersign" unicode="#" horiz-adv-x="721" 
d="M671 516v-74h-129l-32 -181h116v-74h-129l-32 -187h-77l32 187h-176l-32 -187h-77l32 187h-117v74h129l32 181h-117v74h129l33 188h78l-33 -188h175l33 188h78l-33 -188h117zM288 442l-31 -181h176l31 181h-176z" />
    <glyph glyph-name="dollar" unicode="$" horiz-adv-x="592" 
d="M49 191h87c17 -51 57 -91 124 -103v233l-32 6c-107 18 -169 85 -169 177c0 111 90 182 201 193v89h73v-91c100 -13 179 -71 199 -176h-86c-18 57 -58 87 -113 97v-223l33 -5c97 -17 177 -66 177 -180c0 -119 -88 -192 -210 -201v-95h-73v97c-110 13 -194 73 -211 182z
M349 307l-16 2v-224c73 8 123 50 123 118c0 59 -37 92 -107 104zM146 508c0 -49 34 -88 98 -99l16 -3v212c-63 -9 -114 -45 -114 -110z" />
    <glyph glyph-name="percent" unicode="%" horiz-adv-x="869" 
d="M136 0l505 704h92l-505 -704h-92zM206 644c-55 0 -88 -47 -88 -108s33 -108 88 -108s88 47 88 108s-33 108 -88 108zM40 536c0 101 68 179 166 179s166 -78 166 -179s-68 -179 -166 -179s-166 78 -166 179zM663 276c-55 0 -88 -47 -88 -108s33 -108 88 -108s88 47 88 108
s-33 108 -88 108zM497 168c0 101 68 179 166 179s166 -78 166 -179s-68 -179 -166 -179s-166 78 -166 179z" />
    <glyph glyph-name="ampersand" unicode="&#x26;" horiz-adv-x="726" 
d="M699 313l-134 -166l136 -147h-109l-82 89l-9 -9c-57 -57 -128 -91 -215 -91c-144 0 -231 93 -231 205c0 91 56 158 167 202l-12 13c-39 40 -74 82 -74 142c0 90 76 164 184 164c104 0 176 -69 176 -163c0 -80 -50 -134 -142 -178l159 -171l85 110h101zM453 138l6 6
l-184 200c-91 -36 -129 -83 -129 -147c0 -75 51 -129 145 -129c62 0 118 24 162 70zM221 554c0 -46 32 -79 53 -100l28 -28c73 33 111 74 111 127c0 55 -42 87 -95 87c-55 0 -97 -34 -97 -86z" />
    <glyph glyph-name="quoteright" unicode="&#x2019;" horiz-adv-x="266" 
d="M197 641c0 -14 -3 -29 -9 -45l-60 -163h-71l56 157c-22 7 -42 25 -42 55c0 34 26 59 61 59c36 0 65 -26 65 -63z" />
    <glyph glyph-name="parenleft" unicode="(" horiz-adv-x="345" 
d="M315 727c-89 -124 -146 -273 -146 -443s57 -318 146 -442h-87c-71 90 -148 248 -148 442s77 353 148 443h87z" />
    <glyph glyph-name="parenright" unicode=")" horiz-adv-x="345" 
d="M30 727h87c71 -90 148 -249 148 -443s-77 -352 -148 -442h-87c89 124 146 272 146 442s-57 319 -146 443z" />
    <glyph glyph-name="asterisk" unicode="*" horiz-adv-x="440" 
d="M255 715l-3 -139l133 45l21 -65l-133 -42l83 -112l-56 -39l-80 113l-81 -113l-55 39l83 112l-133 42l21 65l132 -45l-2 139h70z" />
    <glyph glyph-name="plus" unicode="+" 
d="M265 512h83v-201h194v-82h-194v-202h-83v202h-193v82h193v201z" />
    <glyph glyph-name="comma" unicode="," horiz-adv-x="264" 
d="M194 46c0 -14 -3 -29 -9 -45l-60 -163h-71l56 157c-22 7 -42 25 -42 55c0 34 26 59 61 59c36 0 65 -26 65 -63z" />
    <glyph glyph-name="hyphen" unicode="-" horiz-adv-x="421" 
d="M55 229v82h311v-82h-311z" />
    <glyph glyph-name="period" unicode="." horiz-adv-x="264" 
d="M132 111c34 0 62 -26 62 -61s-28 -61 -62 -61s-62 26 -62 61s28 61 62 61z" />
    <glyph glyph-name="slash" unicode="/" horiz-adv-x="366" 
d="M271 727h85l-261 -885h-85z" />
    <glyph glyph-name="zero" unicode="0" horiz-adv-x="652" 
d="M326 715c169 0 266 -152 266 -363s-97 -363 -266 -363s-266 152 -266 363s97 363 266 363zM326 71c115 0 175 123 175 281s-60 281 -175 281s-175 -123 -175 -281s60 -281 175 -281z" />
    <glyph glyph-name="one" unicode="1" horiz-adv-x="446" 
d="M321 704v-704h-89v600l-177 -111v93l186 122h80z" />
    <glyph glyph-name="two" unicode="2" horiz-adv-x="610" 
d="M442 508c0 71 -55 125 -136 125c-85 0 -137 -48 -153 -120h-88c16 119 107 202 243 202c138 0 225 -93 225 -207c0 -107 -68 -173 -140 -239l-203 -187h360v-82h-483v77l266 249c67 63 109 107 109 182z" />
    <glyph glyph-name="three" unicode="3" 
d="M65 524c19 128 123 191 240 191c141 0 227 -85 227 -195c0 -87 -61 -134 -105 -151c47 -11 130 -60 130 -170c0 -118 -102 -210 -243 -210c-134 0 -241 70 -257 197h90c14 -68 77 -115 167 -115c89 0 152 53 152 130c0 83 -71 121 -158 121h-87v81h81
c88 0 139 51 139 116c0 67 -49 114 -136 114c-82 0 -135 -43 -151 -109h-89z" />
    <glyph glyph-name="four" unicode="4" horiz-adv-x="648" 
d="M495 0h-89v165h-356v72l339 467h106v-460h103v-79h-103v-165zM149 244h257v354z" />
    <glyph glyph-name="five" unicode="5" horiz-adv-x="623" 
d="M318 71c94 0 156 64 156 158s-71 151 -153 151c-66 0 -118 -27 -155 -78h-90l34 402h416v-82h-340l-20 -229c40 43 98 68 169 68c118 0 230 -86 230 -231c0 -147 -108 -241 -246 -241c-143 0 -235 89 -249 191h91c11 -49 62 -109 157 -109z" />
    <glyph glyph-name="six" unicode="6" horiz-adv-x="630" 
d="M345 461c120 0 230 -89 230 -232s-106 -240 -242 -240c-181 0 -273 142 -273 357c0 255 121 369 275 369c130 0 213 -85 228 -174h-91c-13 44 -54 92 -137 92c-105 0 -184 -78 -187 -281c39 72 116 109 197 109zM330 71c86 0 154 62 154 156c0 93 -69 153 -154 153
c-86 0 -156 -60 -156 -153c0 -94 70 -156 156 -156z" />
    <glyph glyph-name="seven" unicode="7" horiz-adv-x="559" 
d="M509 627l-287 -627h-100l287 622h-369v82h469v-77z" />
    <glyph glyph-name="eight" unicode="8" horiz-adv-x="627" 
d="M60 192c0 106 82 162 132 175c-44 18 -110 63 -110 158c0 108 91 190 232 190c140 0 231 -82 231 -190c0 -95 -66 -140 -110 -158c50 -13 132 -69 132 -175c0 -122 -105 -203 -253 -203c-149 0 -254 81 -254 203zM455 518c0 71 -57 117 -141 117
c-85 0 -142 -46 -142 -117c0 -70 63 -117 142 -117c78 0 141 47 141 117zM476 196c0 80 -70 130 -162 130c-93 0 -163 -50 -163 -130c0 -75 64 -127 163 -127c98 0 162 52 162 127z" />
    <glyph glyph-name="nine" unicode="9" horiz-adv-x="630" 
d="M285 243c-120 0 -230 89 -230 232s106 240 242 240c181 0 273 -142 273 -357c0 -255 -121 -369 -275 -369c-130 0 -213 85 -228 174h91c13 -44 54 -92 137 -92c105 0 184 78 187 280c-40 -72 -116 -108 -197 -108zM300 633c-86 0 -154 -62 -154 -156
c0 -93 69 -153 154 -153c86 0 156 60 156 153c0 94 -70 156 -156 156z" />
    <glyph glyph-name="colon" unicode=":" horiz-adv-x="264" 
d="M132 111c34 0 62 -26 62 -61s-28 -61 -62 -61s-62 26 -62 61s28 61 62 61zM132 489c34 0 62 -26 62 -61s-28 -61 -62 -61s-62 26 -62 61s28 61 62 61z" />
    <glyph glyph-name="semicolon" unicode=";" horiz-adv-x="264" 
d="M194 46c0 -14 -3 -29 -9 -45l-60 -163h-71l56 157c-22 7 -42 25 -42 55c0 34 26 59 61 59c36 0 65 -26 65 -63zM131 489c34 0 62 -26 62 -61s-28 -61 -62 -61s-62 26 -62 61s28 61 62 61z" />
    <glyph glyph-name="less" unicode="&#x3c;" 
d="M540 19l-465 215v71l465 215v-86l-357 -165l357 -164v-86z" />
    <glyph glyph-name="equal" unicode="=" 
d="M83 331v79h447v-79h-447zM83 127v79h447v-79h-447z" />
    <glyph glyph-name="greater" unicode="&#x3e;" 
d="M75 19v86l357 164l-357 165v86l465 -215v-71z" />
    <glyph glyph-name="question" unicode="?" horiz-adv-x="531" 
d="M390 527c0 64 -50 108 -125 108c-83 0 -123 -46 -141 -105h-87c17 103 98 185 229 185c132 0 214 -80 214 -184c0 -103 -60 -142 -112 -179c-49 -35 -88 -54 -88 -121v-21h-84v26c0 91 43 123 105 166c47 33 89 63 89 125zM241 111c34 0 62 -26 62 -61s-28 -61 -62 -61
s-62 26 -62 61s28 61 62 61z" />
    <glyph glyph-name="at" unicode="@" horiz-adv-x="907" 
d="M473 693c229 0 387 -165 387 -386c0 -175 -82 -232 -167 -232c-59 0 -99 29 -118 70c-24 -38 -68 -73 -140 -73c-97 0 -183 76 -183 210c0 125 84 207 186 207c64 0 102 -28 125 -63v53h79v-265c0 -40 24 -68 60 -68c45 0 77 37 77 161c0 182 -117 313 -307 313
c-181 0 -333 -122 -333 -345c0 -218 153 -333 352 -333c57 0 116 9 163 28v-74c-45 -19 -105 -27 -164 -27c-249 0 -432 150 -432 406c0 261 186 418 415 418zM448 145c64 0 115 47 115 132v8c0 80 -48 131 -115 131c-64 0 -112 -50 -112 -134c0 -85 47 -137 112 -137z" />
    <glyph glyph-name="A" unicode="A" horiz-adv-x="664" 
d="M286 704h92l266 -704h-96l-69 186h-296l-67 -186h-96zM331 591l-118 -323h236z" />
    <glyph glyph-name="B" unicode="B" horiz-adv-x="635" 
d="M88 0v704h261c136 0 211 -80 211 -182c0 -86 -48 -136 -92 -154c50 -14 119 -66 119 -169c0 -118 -89 -199 -232 -199h-267zM354 323h-178v-243h173c88 0 147 44 147 121c0 75 -55 122 -142 122zM338 624h-162v-222h168c85 0 126 48 126 111c0 69 -49 111 -132 111z" />
    <glyph glyph-name="C" unicode="C" horiz-adv-x="706" 
d="M569 220h90c-15 -101 -104 -231 -290 -231c-187 0 -317 150 -317 363c0 210 127 363 317 363c168 0 266 -104 288 -230h-90c-23 80 -81 147 -198 147c-138 0 -226 -116 -226 -280c0 -161 86 -280 225 -280c124 0 187 83 201 148z" />
    <glyph glyph-name="D" unicode="D" horiz-adv-x="708" 
d="M307 704c219 0 349 -133 349 -352s-130 -352 -349 -352h-219v704h219zM296 81c180 0 269 100 269 271s-90 271 -269 271h-119v-542h119z" />
    <glyph glyph-name="E" unicode="E" horiz-adv-x="594" 
d="M534 622h-357v-220h338v-81h-338v-239h357v-82h-446v704h446v-82z" />
    <glyph glyph-name="F" unicode="F" horiz-adv-x="587" 
d="M177 0h-89v704h444v-82h-355v-233h331v-81h-331v-308z" />
    <glyph glyph-name="G" unicode="G" horiz-adv-x="723" 
d="M362 362h304v-73c0 -171 -108 -300 -294 -300c-185 0 -320 147 -320 363c0 214 129 363 322 363c160 0 261 -101 286 -224h-92c-26 82 -85 141 -194 141c-141 0 -231 -112 -231 -280c0 -172 96 -281 231 -281c124 0 203 83 203 206v5h-215v80z" />
    <glyph glyph-name="H" unicode="H" horiz-adv-x="730" 
d="M177 0h-89v704h89v-301h376v301h89v-704h-89v320h-376v-320z" />
    <glyph glyph-name="I" unicode="I" horiz-adv-x="265" 
d="M177 704v-704h-89v704h89z" />
    <glyph glyph-name="J" unicode="J" horiz-adv-x="540" 
d="M32 181h88c4 -42 35 -109 120 -109c88 0 126 66 126 155v477h89v-477c0 -150 -79 -238 -216 -238s-206 101 -207 192z" />
    <glyph glyph-name="K" unicode="K" horiz-adv-x="626" 
d="M177 0h-89v704h89v-314l313 314h115l-334 -337l340 -367h-118l-316 336v-336z" />
    <glyph glyph-name="L" unicode="L" horiz-adv-x="572" 
d="M177 704v-622h357v-82h-446v704h89z" />
    <glyph glyph-name="M" unicode="M" horiz-adv-x="893" 
d="M88 704h108l251 -589l251 589h107v-704h-87v541l-230 -541h-82l-231 541v-541h-87v704z" />
    <glyph glyph-name="N" unicode="N" horiz-adv-x="733" 
d="M184 704l374 -558v558h87v-704h-87l-383 570v-570h-87v704h96z" />
    <glyph glyph-name="O" unicode="O" horiz-adv-x="752" 
d="M376 715c197 0 324 -154 324 -363s-127 -363 -324 -363s-324 154 -324 363s127 363 324 363zM376 72c144 0 233 116 233 280s-89 280 -233 280s-233 -116 -233 -280s89 -280 233 -280z" />
    <glyph glyph-name="P" unicode="P" horiz-adv-x="613" 
d="M333 704c150 0 234 -101 234 -224c0 -121 -87 -225 -232 -225h-158v-255h-89v704h245zM323 623h-146v-287h146c98 0 153 60 153 144c0 85 -54 143 -153 143z" />
    <glyph glyph-name="Q" unicode="Q" horiz-adv-x="752" 
d="M376 715c197 0 324 -154 324 -363c0 -121 -42 -224 -116 -289l84 -124h-99l-54 79c-41 -18 -87 -29 -139 -29c-197 0 -324 154 -324 363s127 363 324 363zM376 72c34 0 64 6 91 18l-82 123h99l51 -77c48 50 74 126 74 216c0 164 -89 280 -233 280s-233 -116 -233 -280
s89 -280 233 -280z" />
    <glyph glyph-name="R" unicode="R" horiz-adv-x="634" 
d="M572 485c0 -89 -55 -176 -151 -208l187 -277h-105l-178 264h-148v-264h-89v704h252c155 0 232 -105 232 -219zM329 623h-152v-278h152c105 0 152 66 152 140c0 76 -46 138 -152 138z" />
    <glyph glyph-name="S" unicode="S" horiz-adv-x="616" 
d="M49 183h91c22 -65 79 -112 180 -112c92 0 156 46 156 125c0 62 -39 96 -112 108l-130 21c-112 18 -175 84 -175 180c0 130 111 210 242 210c127 0 232 -62 255 -188h-91c-23 75 -83 106 -164 106c-79 0 -151 -43 -151 -121c0 -52 36 -88 103 -99l131 -22
c101 -17 183 -68 183 -189c0 -135 -106 -213 -249 -213c-137 0 -248 64 -269 194z" />
    <glyph glyph-name="T" unicode="T" horiz-adv-x="623" 
d="M35 622v82h553v-82h-232v-622h-89v622h-232z" />
    <glyph glyph-name="U" unicode="U" horiz-adv-x="720" 
d="M83 276v428h89v-425c0 -139 81 -207 188 -207s188 68 188 207v425h89v-428c0 -192 -120 -287 -277 -287s-277 95 -277 287z" />
    <glyph glyph-name="V" unicode="V" horiz-adv-x="660" 
d="M640 704l-264 -704h-92l-264 704h96l214 -587l214 587h96z" />
    <glyph glyph-name="W" unicode="W" horiz-adv-x="980" 
d="M952 704l-218 -704h-84l-161 557l-161 -557h-82l-218 704h94l165 -548l160 548h86l159 -548l166 548h94z" />
    <glyph glyph-name="X" unicode="X" horiz-adv-x="658" 
d="M524 0l-197 287l-194 -287h-105l244 355l-242 349h105l195 -284l194 284h104l-242 -351l244 -353h-106z" />
    <glyph glyph-name="Y" unicode="Y" horiz-adv-x="637" 
d="M363 0h-89v276l-259 428h101l202 -338l203 338h101l-259 -428v-276z" />
    <glyph glyph-name="Z" unicode="Z" horiz-adv-x="618" 
d="M59 75l391 547h-391v82h500v-75l-392 -547h392v-82h-500v75z" />
    <glyph glyph-name="bracketleft" unicode="[" horiz-adv-x="366" 
d="M336 651h-145v-733h145v-76h-231v885h231v-76z" />
    <glyph glyph-name="backslash" unicode="\" horiz-adv-x="366" 
d="M95 727l261 -885h-85l-261 885h85z" />
    <glyph glyph-name="bracketright" unicode="]" horiz-adv-x="366" 
d="M30 -158v76h145v733h-145v76h231v-885h-231z" />
    <glyph glyph-name="asciicircum" unicode="^" horiz-adv-x="450" 
d="M423 376h-85l-113 226l-113 -226h-85l160 316h76z" />
    <glyph glyph-name="underscore" unicode="_" horiz-adv-x="483" 
d="M0 -48h483v-78h-483v78z" />
    <glyph glyph-name="quoteleft" unicode="&#x2018;" horiz-adv-x="266" 
d="M69 496c0 14 3 29 9 45l60 163h71l-56 -157c22 -7 42 -25 42 -55c0 -34 -26 -59 -61 -59c-36 0 -65 26 -65 63z" />
    <glyph glyph-name="a" unicode="a" horiz-adv-x="531" 
d="M376 334c0 70 -49 105 -114 105c-66 0 -102 -30 -116 -67h-83c16 78 86 143 201 143c118 0 197 -68 197 -181v-334h-81v60c-38 -47 -98 -71 -162 -71c-98 0 -174 59 -174 155c0 97 75 156 198 156h134v34zM229 64c80 0 147 49 147 126v37h-129c-69 0 -116 -28 -116 -82
c0 -53 42 -81 98 -81z" />
    <glyph glyph-name="b" unicode="b" horiz-adv-x="595" 
d="M323 515c114 0 227 -86 227 -263c0 -178 -114 -263 -230 -263c-84 0 -140 38 -162 78v-67h-83v727h86v-290c26 41 78 78 162 78zM312 67c90 0 150 75 150 185s-60 185 -150 185c-93 0 -154 -71 -154 -183v-4c0 -112 61 -183 154 -183z" />
    <glyph glyph-name="c" unicode="c" horiz-adv-x="539" 
d="M284 67c84 0 118 53 129 96h86c-11 -90 -91 -174 -216 -174c-143 0 -238 109 -238 263c0 151 93 263 238 263c134 0 203 -92 216 -172h-86c-13 42 -50 94 -130 94c-92 0 -150 -76 -150 -185c0 -110 60 -185 151 -185z" />
    <glyph glyph-name="d" unicode="d" horiz-adv-x="595" 
d="M272 -11c-114 0 -227 86 -227 263c0 178 114 263 230 263c80 0 135 -36 159 -74v286h86v-727h-83v72c-25 -43 -79 -83 -165 -83zM283 437c-90 0 -150 -75 -150 -185s60 -185 150 -185c93 0 154 71 154 183v4c0 112 -61 183 -154 183z" />
    <glyph glyph-name="e" unicode="e" horiz-adv-x="547" 
d="M502 226h-367v-2c0 -90 62 -158 155 -158c70 0 110 38 119 64h87c-13 -59 -76 -141 -207 -141c-146 0 -244 101 -244 263c0 163 99 263 237 263c134 0 220 -95 220 -245v-44zM280 438c-84 0 -137 -57 -144 -139h279c-4 87 -54 139 -135 139z" />
    <glyph glyph-name="f" unicode="f" horiz-adv-x="326" 
d="M189 0h-86v427h-86v77h86v64c0 105 59 159 160 159h35v-77h-29c-50 0 -80 -22 -80 -84v-62h109v-77h-109v-427z" />
    <glyph glyph-name="g" unicode="g" horiz-adv-x="595" 
d="M437 504h83v-473c0 -147 -90 -239 -235 -239c-140 0 -209 79 -216 153h85c13 -36 45 -75 132 -75c95 0 148 62 148 161v46c-26 -40 -79 -78 -162 -78c-114 0 -227 86 -227 258c0 173 114 258 230 258c84 0 139 -38 162 -78v67zM283 77c93 0 154 72 154 178v4
c0 106 -61 178 -154 178c-90 0 -150 -75 -150 -180s60 -180 150 -180z" />
    <glyph glyph-name="h" unicode="h" horiz-adv-x="569" 
d="M311 515c98 0 188 -59 188 -198v-317h-86v305c0 92 -50 132 -118 132c-65 0 -134 -39 -134 -140v-297h-86v727h86v-278c25 32 77 66 150 66z" />
    <glyph glyph-name="i" unicode="i" horiz-adv-x="236" 
d="M161 504v-504h-86v504h86zM118 715c33 0 59 -25 59 -58s-26 -58 -59 -58s-59 25 -59 58s26 58 59 58z" />
    <glyph glyph-name="j" unicode="j" horiz-adv-x="236" 
d="M-15 -191v77h22c34 0 68 15 68 88v530h86v-534c0 -112 -52 -161 -140 -161h-36zM118 715c33 0 59 -25 59 -58s-26 -58 -59 -58s-59 25 -59 58s26 58 59 58z" />
    <glyph glyph-name="k" unicode="k" horiz-adv-x="506" 
d="M161 0h-86v727h86v-439l218 216h109l-237 -235l240 -269h-111l-219 243v-243z" />
    <glyph glyph-name="l" unicode="l" horiz-adv-x="236" 
d="M161 727v-727h-86v727h86z" />
    <glyph glyph-name="m" unicode="m" horiz-adv-x="867" 
d="M618 515c88 0 179 -56 179 -192v-323h-86v312c0 89 -51 125 -111 125c-62 0 -121 -43 -121 -128v-309h-86v312c0 89 -51 125 -111 125c-62 0 -121 -43 -121 -128v-309h-86v504h83v-59c25 38 80 70 143 70c58 0 118 -26 151 -84c27 42 87 84 166 84z" />
    <glyph glyph-name="n" unicode="n" horiz-adv-x="569" 
d="M75 504h83v-59c24 34 77 70 153 70c98 0 188 -59 188 -198v-317h-86v305c0 92 -50 132 -118 132c-65 0 -134 -39 -134 -140v-297h-86v504z" />
    <glyph glyph-name="o" unicode="o" horiz-adv-x="574" 
d="M287 515c147 0 242 -110 242 -263s-95 -263 -242 -263s-242 110 -242 263s95 263 242 263zM287 67c95 0 154 75 154 185s-59 185 -154 185s-154 -75 -154 -185s59 -185 154 -185z" />
    <glyph glyph-name="p" unicode="p" horiz-adv-x="595" 
d="M323 515c114 0 227 -86 227 -263c0 -178 -114 -263 -230 -263c-81 0 -135 35 -159 73v-253h-86v695h83v-72c24 42 78 83 165 83zM312 67c90 0 150 75 150 185s-60 185 -150 185c-93 0 -154 -71 -154 -183v-4c0 -112 61 -183 154 -183z" />
    <glyph glyph-name="q" unicode="q" horiz-adv-x="595" 
d="M272 -11c-114 0 -227 86 -227 263c0 178 114 263 230 263c84 0 139 -39 162 -78v67h83v-695h-86v258c-26 -41 -79 -78 -162 -78zM283 437c-90 0 -150 -75 -150 -185s60 -185 150 -185c93 0 154 71 154 183v4c0 112 -61 183 -154 183z" />
    <glyph glyph-name="r" unicode="r" horiz-adv-x="371" 
d="M317 506h26v-81h-26c-88 0 -156 -48 -156 -148v-277h-86v504h83v-77c35 55 91 79 159 79z" />
    <glyph glyph-name="s" unicode="s" horiz-adv-x="496" 
d="M130 141c11 -47 57 -76 126 -76c67 0 110 26 110 76c0 38 -29 62 -77 68l-90 12c-81 11 -143 49 -143 137c0 89 80 157 189 157c105 0 181 -52 197 -144h-84c-16 46 -55 68 -113 68c-65 0 -103 -33 -103 -75c0 -36 24 -57 72 -63l91 -12c82 -11 147 -51 147 -143
c0 -102 -87 -157 -194 -157c-96 0 -200 39 -213 152h85z" />
    <glyph glyph-name="t" unicode="t" horiz-adv-x="336" 
d="M187 157c0 -66 35 -80 77 -80h34v-77h-48c-98 0 -149 48 -149 153v274h-84v77h84v134h86v-134h111v-77h-111v-270z" />
    <glyph glyph-name="u" unicode="u" horiz-adv-x="569" 
d="M494 0h-83v59c-25 -34 -77 -70 -153 -70c-98 0 -188 59 -188 198v317h86v-305c0 -92 50 -132 118 -132c65 0 134 39 134 140v297h86v-504z" />
    <glyph glyph-name="v" unicode="v" horiz-adv-x="513" 
d="M498 504l-197 -504h-89l-197 504h93l148 -396l149 396h93z" />
    <glyph glyph-name="w" unicode="w" horiz-adv-x="773" 
d="M753 504l-165 -504h-83l-120 385l-118 -385h-82l-165 504h90l117 -371l116 371h87l116 -371l117 371h90z" />
    <glyph glyph-name="x" unicode="x" horiz-adv-x="517" 
d="M391 0l-135 191l-132 -191h-99l179 252l-177 252h101l133 -193l130 193h99l-177 -255l179 -249h-101z" />
    <glyph glyph-name="y" unicode="y" horiz-adv-x="519" 
d="M411 504h93l-276 -695h-93l78 197l-198 498h93l152 -393z" />
    <glyph glyph-name="z" unicode="z" horiz-adv-x="490" 
d="M50 0v67l280 360h-280v77h390v-68l-281 -359h281v-77h-390z" />
    <glyph glyph-name="braceleft" unicode="{" horiz-adv-x="374" 
d="M223 412c0 -80 -22 -114 -76 -129c54 -15 76 -50 76 -130v-128c0 -81 26 -107 89 -107h32v-76h-37c-101 0 -170 49 -170 174v125c0 67 -17 104 -77 104h-35v75h35c60 0 77 37 77 104v129c0 125 69 174 170 174h37v-76h-32c-63 0 -89 -26 -89 -107v-132z" />
    <glyph glyph-name="bar" unicode="|" horiz-adv-x="270" 
d="M95 727h80v-885h-80v885z" />
    <glyph glyph-name="braceright" unicode="}" horiz-adv-x="374" 
d="M151 412v132c0 81 -26 107 -89 107h-32v76h37c101 0 170 -49 170 -174v-129c0 -67 17 -104 77 -104h35v-75h-35c-60 0 -77 -37 -77 -104v-125c0 -125 -69 -174 -170 -174h-37v76h32c63 0 89 26 89 107v128c0 80 22 115 76 130c-54 15 -76 49 -76 129z" />
    <glyph glyph-name="asciitilde" unicode="~" 
d="M476 353h78v-30c0 -93 -60 -147 -138 -147c-108 0 -148 105 -216 105c-37 0 -62 -27 -62 -72v-24h-78v30c0 93 60 147 138 147c108 0 148 -105 216 -105c37 0 62 27 62 72v24z" />
    <glyph glyph-name="exclamdown" unicode="&#xa1;" horiz-adv-x="304" 
d="M111 294h81l6 -485h-93zM152 515c34 0 62 -26 62 -61s-28 -61 -62 -61s-62 26 -62 61s28 61 62 61z" />
    <glyph glyph-name="cent" unicode="&#xa2;" horiz-adv-x="565" 
d="M432 448c-11 36 -45 79 -107 91v-375c66 11 98 56 107 94h86c-9 -82 -84 -160 -193 -172v-95h-71v95c-122 17 -202 116 -202 266c0 147 79 248 202 265v96h71v-95c116 -13 182 -97 193 -170h-86zM140 352c0 -103 45 -168 114 -186v371c-70 -17 -114 -82 -114 -185z" />
    <glyph glyph-name="sterling" unicode="&#xa3;" horiz-adv-x="584" 
d="M475 304h-237c1 -10 2 -20 2 -31c0 -72 -30 -136 -85 -191h384v-82h-493v77c49 49 107 122 107 197c0 10 -1 20 -3 30h-104v78h79c-15 38 -30 79 -30 130c0 123 98 203 219 203c118 0 203 -75 223 -181h-91c-18 66 -68 99 -135 99c-72 0 -126 -42 -126 -123
c0 -51 18 -87 34 -128h256v-78z" />
    <glyph glyph-name="fraction" unicode="&#x2044;" horiz-adv-x="254" 
d="M-170 0l505 704h89l-505 -704h-89z" />
    <glyph glyph-name="yen" unicode="&#xa5;" horiz-adv-x="603" 
d="M521 129h-175v-129h-89v129h-175v74h175v81h-175v74h134l-201 346h98l188 -335l190 335h97l-202 -346h135v-74h-175v-81h175v-74z" />
    <glyph glyph-name="florin" unicode="&#x192;" horiz-adv-x="512" 
d="M140 443h95l15 94c17 106 71 167 183 167h39v-77h-36c-61 0 -90 -36 -100 -97l-14 -87h99v-77h-112l-57 -357c-17 -106 -71 -167 -183 -167h-39v77h36c61 0 90 36 100 97l56 350h-82v77z" />
    <glyph glyph-name="section" unicode="&#xa7;" horiz-adv-x="536" 
d="M48 296c0 67 43 114 93 137c-39 25 -66 64 -66 118c0 93 80 164 192 164c103 0 186 -58 197 -148h-85c-13 46 -53 72 -113 72c-62 0 -105 -32 -105 -82c0 -47 36 -68 83 -77l98 -19c87 -17 146 -72 146 -152c0 -64 -39 -109 -85 -133c37 -28 59 -70 59 -119
c0 -98 -82 -169 -195 -169c-109 0 -195 54 -209 158h85c12 -54 61 -82 126 -82c63 0 107 35 107 86c0 45 -28 71 -81 81l-105 19c-82 15 -142 63 -142 146zM329 207l8 -2c35 18 65 50 65 91c0 52 -35 80 -88 90l-103 20h-2c-41 -17 -76 -50 -76 -94c0 -50 31 -76 83 -85z
" />
    <glyph glyph-name="currency" unicode="&#xa4;" 
d="M525 352c0 -45 -14 -87 -38 -122l90 -90l-58 -57l-90 90c-35 -24 -77 -37 -122 -37c-46 0 -88 13 -122 37l-90 -90l-58 57l90 90c-24 35 -38 77 -38 122s14 87 38 122l-90 90l58 57l90 -90c34 23 76 37 122 37c45 0 87 -14 122 -37l90 90l58 -57l-90 -90
c24 -35 38 -77 38 -122zM171 352c0 -81 61 -138 136 -138s136 57 136 138s-61 138 -136 138s-136 -57 -136 -138z" />
    <glyph glyph-name="quotesingle" unicode="'" horiz-adv-x="242" 
d="M79 433v271h84l-6 -271h-78z" />
    <glyph glyph-name="quotedblleft" unicode="&#x201c;" horiz-adv-x="448" 
d="M251 496c0 14 3 29 9 45l60 163h71l-56 -157c22 -7 42 -25 42 -55c0 -34 -26 -59 -61 -59c-36 0 -65 26 -65 63zM69 496c0 14 3 29 9 45l60 163h71l-56 -157c22 -7 42 -25 42 -55c0 -34 -26 -59 -61 -59c-36 0 -65 26 -65 63z" />
    <glyph glyph-name="guillemotleft" unicode="&#xab;" horiz-adv-x="599" 
d="M153 257l171 -208h-100l-174 208l174 208h100zM378 257l171 -208h-100l-174 208l174 208h100z" />
    <glyph glyph-name="guilsinglleft" unicode="&#x2039;" horiz-adv-x="374" 
d="M153 257l171 -208h-100l-174 208l174 208h100z" />
    <glyph glyph-name="guilsinglright" unicode="&#x203a;" horiz-adv-x="374" 
d="M221 257l-171 208h100l174 -208l-174 -208h-100z" />
    <glyph glyph-name="endash" unicode="&#x2013;" horiz-adv-x="500" 
d="M0 229v82h500v-82h-500z" />
    <glyph glyph-name="dagger" unicode="&#x2020;" horiz-adv-x="450" 
d="M410 504h-146v-292h-78v292h-146v77h146v170h78v-170h146v-77z" />
    <glyph glyph-name="daggerdbl" unicode="&#x2021;" horiz-adv-x="450" 
d="M410 214h-146v-170h-78v170h-146v77h146v213h-146v77h146v170h78v-170h146v-77h-146v-213h146v-77z" />
    <glyph glyph-name="periodcentered" unicode="&#xb7;" horiz-adv-x="264" 
d="M132 313c34 0 62 -26 62 -61s-28 -61 -62 -61s-62 26 -62 61s28 61 62 61z" />
    <glyph glyph-name="paragraph" unicode="&#xb6;" horiz-adv-x="592" 
d="M260 704h244v-805h-79v729h-153c-80 0 -138 -43 -138 -127c0 -79 58 -124 138 -124h70v-478h-79v402h-5c-122 0 -210 83 -210 200c0 122 87 203 212 203z" />
    <glyph glyph-name="bullet" unicode="&#x2022;" horiz-adv-x="410" 
d="M205 407c80 0 145 -62 145 -146s-65 -146 -145 -146s-145 62 -145 146s65 146 145 146z" />
    <glyph glyph-name="quotesinglbase" unicode="&#x201a;" horiz-adv-x="266" 
d="M197 46c0 -14 -3 -29 -9 -45l-60 -163h-71l56 157c-22 7 -42 25 -42 55c0 34 26 59 61 59c36 0 65 -26 65 -63z" />
    <glyph glyph-name="quotedblbase" unicode="&#x201e;" horiz-adv-x="448" 
d="M197 46c0 -14 -3 -29 -9 -45l-60 -163h-71l56 157c-22 7 -42 25 -42 55c0 34 26 59 61 59c36 0 65 -26 65 -63zM379 46c0 -14 -3 -29 -9 -45l-60 -163h-71l56 157c-22 7 -42 25 -42 55c0 34 26 59 61 59c36 0 65 -26 65 -63z" />
    <glyph glyph-name="quotedblright" unicode="&#x201d;" horiz-adv-x="448" 
d="M197 641c0 -14 -3 -29 -9 -45l-60 -163h-71l56 157c-22 7 -42 25 -42 55c0 34 26 59 61 59c36 0 65 -26 65 -63zM379 641c0 -14 -3 -29 -9 -45l-60 -163h-71l56 157c-22 7 -42 25 -42 55c0 34 26 59 61 59c36 0 65 -26 65 -63z" />
    <glyph glyph-name="guillemotright" unicode="&#xbb;" horiz-adv-x="599" 
d="M221 257l-171 208h100l174 -208l-174 -208h-100zM446 257l-171 208h100l174 -208l-174 -208h-100z" />
    <glyph glyph-name="ellipsis" unicode="&#x2026;" horiz-adv-x="746" 
d="M373 111c34 0 62 -26 62 -61s-28 -61 -62 -61s-62 26 -62 61s28 61 62 61zM132 111c34 0 62 -26 62 -61s-28 -61 -62 -61s-62 26 -62 61s28 61 62 61zM614 111c34 0 62 -26 62 -61s-28 -61 -62 -61s-62 26 -62 61s28 61 62 61z" />
    <glyph glyph-name="perthousand" unicode="&#x2030;" horiz-adv-x="1259" 
d="M136 0l505 704h92l-505 -704h-92zM206 644c-55 0 -88 -47 -88 -108s33 -108 88 -108s88 47 88 108s-33 108 -88 108zM40 536c0 101 68 179 166 179s166 -78 166 -179s-68 -179 -166 -179s-166 78 -166 179zM663 276c-55 0 -88 -47 -88 -108s33 -108 88 -108s88 47 88 108
s-33 108 -88 108zM497 168c0 101 68 179 166 179s166 -78 166 -179s-68 -179 -166 -179s-166 78 -166 179zM1053 276c-55 0 -88 -47 -88 -108s33 -108 88 -108s88 47 88 108s-33 108 -88 108zM887 168c0 101 68 179 166 179s166 -78 166 -179s-68 -179 -166 -179
s-166 78 -166 179z" />
    <glyph glyph-name="questiondown" unicode="&#xbf;" horiz-adv-x="531" 
d="M290 515c34 0 62 -26 62 -61s-28 -61 -62 -61s-62 26 -62 61s28 61 62 61zM141 -23c0 -64 50 -108 125 -108c83 0 123 46 141 105h87c-17 -103 -98 -185 -229 -185c-132 0 -214 80 -214 184c0 103 60 142 112 179c49 35 88 54 88 121v21h84v-26c0 -91 -43 -123 -105 -166
c-47 -33 -89 -63 -89 -125z" />
    <glyph glyph-name="grave" unicode="`" horiz-adv-x="520" 
d="M166 735h93l95 -154h-87z" />
    <glyph glyph-name="acute" unicode="&#xb4;" horiz-adv-x="520" 
d="M354 735l-101 -154h-87l95 154h93z" />
    <glyph glyph-name="circumflex" unicode="&#x2c6;" horiz-adv-x="520" 
d="M181 581h-91l127 154h84l128 -154h-91l-79 91z" />
    <glyph glyph-name="tilde" unicode="&#x2dc;" horiz-adv-x="520" 
d="M357 719h65v-16c0 -71 -38 -113 -97 -113c-72 0 -91 64 -128 64c-18 0 -34 -14 -34 -42v-16h-65v16c0 71 38 113 97 113c72 0 91 -64 128 -64c18 0 34 14 34 42v16z" />
    <glyph glyph-name="macron" unicode="&#xaf;" horiz-adv-x="520" 
d="M113 694h294v-74h-294v74z" />
    <glyph glyph-name="breve" unicode="&#x2d8;" horiz-adv-x="520" 
d="M178 735c0 -48 28 -88 82 -88s82 40 82 88h77c-2 -93 -65 -156 -159 -156s-157 63 -159 156h77z" />
    <glyph glyph-name="dotaccent" unicode="&#x2d9;" horiz-adv-x="520" 
d="M260 715c33 0 59 -25 59 -58s-26 -58 -59 -58s-59 25 -59 58s26 58 59 58z" />
    <glyph glyph-name="dieresis" unicode="&#xa8;" horiz-adv-x="520" 
d="M157 715c33 0 59 -25 59 -58s-26 -58 -59 -58s-59 25 -59 58s26 58 59 58zM363 715c33 0 59 -25 59 -58s-26 -58 -59 -58s-59 25 -59 58s26 58 59 58z" />
    <glyph glyph-name="ring" unicode="&#x2da;" horiz-adv-x="520" 
d="M366 667c0 -59 -45 -103 -106 -103s-106 44 -106 103s45 103 106 103s106 -44 106 -103zM214 667c0 -27 21 -46 46 -46s46 19 46 46s-21 46 -46 46s-46 -19 -46 -46z" />
    <glyph glyph-name="cedilla" unicode="&#xb8;" horiz-adv-x="520" 
d="M288 13v-13l-20 -54c37 -4 81 -30 81 -86s-40 -98 -123 -98h-55v62h53c30 0 48 14 48 38s-19 35 -46 35h-36v21l36 95h62z" />
    <glyph glyph-name="hungarumlaut" unicode="&#x2dd;" horiz-adv-x="520" 
d="M266 735l-95 -154h-84l89 154h90zM432 735l-95 -154h-84l89 154h90z" />
    <glyph glyph-name="ogonek" unicode="&#x2db;" horiz-adv-x="520" 
d="M339 0c-44 -27 -85 -70 -85 -110c0 -31 20 -51 59 -51h34v-68h-51c-83 0 -123 44 -123 100c0 66 54 127 106 151z" />
    <glyph glyph-name="caron" unicode="&#x2c7;" horiz-adv-x="520" 
d="M182 735l78 -91l79 91h91l-128 -154h-84l-127 154h91z" />
    <glyph glyph-name="emdash" unicode="&#x2014;" horiz-adv-x="1000" 
d="M0 229v82h1000v-82h-1000z" />
    <glyph glyph-name="AE" unicode="&#xc6;" horiz-adv-x="993" 
d="M438 704h495v-82h-355v-220h336v-81h-336v-239h355v-82h-443v187h-268l-113 -187h-99zM271 268h219v362z" />
    <glyph glyph-name="ordfeminine" unicode="&#xaa;" horiz-adv-x="383" 
d="M263 590c0 41 -28 65 -74 65c-38 0 -65 -15 -73 -43h-72c11 60 72 103 147 103c89 0 145 -49 145 -125v-228h-68v43c-25 -32 -66 -51 -115 -51c-73 0 -123 44 -123 108c0 66 55 107 143 107h90v21zM173 413c50 0 90 35 90 79v22h-86c-46 0 -72 -19 -72 -49s28 -52 68 -52
z" />
    <glyph glyph-name="Lslash" unicode="&#x141;" horiz-adv-x="589" 
d="M371 447l-177 -86v-279h357v-82h-446v318l-82 -39v83l82 39v303h89v-260l177 86v-83z" />
    <glyph glyph-name="Oslash" unicode="&#xd8;" horiz-adv-x="752" 
d="M690 740l-84 -122c60 -65 94 -158 94 -266c0 -209 -127 -363 -324 -363c-66 0 -125 17 -173 48l-50 -73h-91l84 121c-60 65 -94 159 -94 267c0 209 127 363 324 363c66 0 124 -18 172 -48l51 73h91zM376 71c145 0 234 117 234 281c0 77 -20 143 -56 192l-303 -437
c35 -23 77 -36 125 -36zM142 352c0 -77 19 -144 55 -193l303 438c-35 23 -76 36 -124 36c-145 0 -234 -117 -234 -281z" />
    <glyph glyph-name="OE" unicode="&#x152;" horiz-adv-x="1019" 
d="M959 704v-82h-354v-220h335v-81h-335v-239h354v-82h-547c-209 0 -360 136 -360 352s151 352 360 352h547zM143 352c0 -168 110 -271 280 -271h93v542h-93c-169 0 -280 -103 -280 -271z" />
    <glyph glyph-name="ordmasculine" unicode="&#xba;" horiz-adv-x="407" 
d="M203 715c103 0 174 -74 174 -181c0 -106 -71 -180 -173 -180c-103 0 -174 74 -174 181c0 106 71 180 173 180zM203 419c61 0 99 49 99 115c0 67 -38 116 -98 116c-61 0 -99 -49 -99 -115c0 -67 38 -116 98 -116z" />
    <glyph glyph-name="ae" unicode="&#xe6;" horiz-adv-x="873" 
d="M262 515c79 0 138 -32 168 -88c40 56 103 88 179 88c133 0 219 -95 219 -245v-44h-367v-2c0 -90 62 -158 155 -158c70 0 110 38 119 64h87c-13 -59 -76 -141 -206 -141c-88 0 -157 37 -197 103c-38 -61 -108 -103 -197 -103c-101 0 -178 59 -178 155c0 97 75 156 198 156
h134v34c0 70 -49 105 -114 105c-66 0 -102 -30 -116 -67h-83c16 78 85 143 199 143zM233 64c80 0 143 53 143 126v37h-129c-69 0 -116 -27 -116 -82c0 -53 43 -81 102 -81zM606 438c-84 0 -137 -57 -144 -139h279c-4 87 -54 139 -135 139z" />
    <glyph glyph-name="dotlessi" unicode="&#x131;" horiz-adv-x="236" 
d="M161 504v-504h-86v504h86z" />
    <glyph glyph-name="lslash" unicode="&#x142;" horiz-adv-x="272" 
d="M11 375l82 40v312h86v-270l82 40v-79l-82 -40v-378h-86v336l-82 -40v79z" />
    <glyph glyph-name="oslash" unicode="&#xf8;" horiz-adv-x="574" 
d="M522 542l-64 -96c45 -47 71 -115 71 -194c0 -153 -95 -263 -242 -263c-43 0 -82 10 -115 27l-35 -54h-85l64 96c-46 47 -71 114 -71 194c0 153 95 263 242 263c43 0 81 -10 114 -27l36 54h85zM287 65c95 0 157 76 157 187c0 48 -12 90 -34 122l-194 -293
c20 -11 44 -16 71 -16zM130 252c0 -49 12 -91 33 -123l194 293c-20 11 -44 17 -70 17c-95 0 -157 -76 -157 -187z" />
    <glyph glyph-name="oe" unicode="&#x153;" horiz-adv-x="940" 
d="M287 515c90 0 157 -42 195 -109c40 69 109 109 194 109c133 0 219 -95 219 -245v-44h-367v-2c0 -90 62 -158 155 -158c70 0 110 38 119 64h87c-13 -59 -76 -141 -206 -141c-91 0 -161 40 -201 109c-38 -67 -105 -109 -195 -109c-147 0 -242 110 -242 263s95 263 242 263z
M287 67c95 0 154 75 154 185s-59 185 -154 185s-154 -75 -154 -185s59 -185 154 -185zM673 438c-84 0 -137 -57 -144 -139h279c-4 87 -54 139 -135 139z" />
    <glyph glyph-name="germandbls" unicode="&#xdf;" horiz-adv-x="594" 
d="M75 0v496c0 139 90 231 228 231c137 0 210 -89 210 -187c0 -86 -54 -128 -98 -147c53 -14 134 -68 134 -183c0 -123 -86 -210 -229 -210h-75v77h69c88 0 147 53 147 135c0 86 -66 134 -153 134h-49v77h33c85 0 133 49 133 113c0 67 -47 113 -123 113
c-84 0 -141 -58 -141 -159v-490h-86z" />
    <glyph glyph-name="onesuperior" unicode="&#xb9;" horiz-adv-x="292" 
d="M215 772v-425h-76v343l-105 -64v75l110 71h71z" />
    <glyph glyph-name="logicalnot" unicode="&#xac;" 
d="M80 387h447v-266h-83v184h-364v82z" />
    <glyph glyph-name="mu" unicode="&#xb5;" horiz-adv-x="578" 
d="M417 504h86v-504h-83v59c-25 -34 -79 -70 -155 -70c-36 0 -78 11 -104 30v-210h-86v695h86v-305c0 -92 52 -132 120 -132c65 0 136 39 136 140v297z" />
    <glyph glyph-name="trademark" unicode="&#x2122;" horiz-adv-x="983" 
d="M460 704h95l134 -322l135 322h94v-425h-72v309l-130 -309h-55l-129 308v-308h-72v425zM30 635v69h354v-69h-139v-356h-76v356h-139z" />
    <glyph glyph-name="Eth" unicode="&#xd0;" horiz-adv-x="725" 
d="M324 704c219 0 349 -133 349 -352s-130 -352 -349 -352h-219v322h-81v79h81v303h219zM367 322h-173v-241h119c180 0 269 100 269 271s-90 271 -269 271h-119v-222h173v-79z" />
    <glyph glyph-name="onehalf" unicode="&#xbd;" horiz-adv-x="933" 
d="M215 704v-425h-76v343l-105 -64v75l110 71h71zM122 0l505 704h89l-505 -704h-89zM692 65h204v-65h-306v61l165 152c24 23 57 49 57 90c0 37 -31 63 -74 63c-44 0 -72 -27 -79 -61h-72c7 72 66 127 155 127c86 0 147 -55 147 -127c0 -55 -40 -98 -80 -134z" />
    <glyph glyph-name="plusminus" unicode="&#xb1;" 
d="M532 259h-185v-173h183v-76h-445v76h182v173h-185v76h185v184h80v-184h185v-76z" />
    <glyph glyph-name="Thorn" unicode="&#xde;" horiz-adv-x="607" 
d="M177 0h-89v704h89v-131h152c144 0 232 -90 232 -212c0 -120 -91 -213 -230 -213h-154v-148zM319 492h-142v-263h142c92 0 151 49 151 132c0 84 -58 131 -151 131z" />
    <glyph glyph-name="onequarter" unicode="&#xbc;" horiz-adv-x="903" 
d="M215 704v-425h-76v343l-105 -64v75l110 71h71zM122 0l505 704h89l-505 -704h-89zM872 154v-64h-60v-90h-72v90h-213v62l189 274h96v-272h60zM603 154h137v195z" />
    <glyph glyph-name="divide" unicode="&#xf7;" 
d="M307 519c33 0 60 -25 60 -59s-27 -59 -60 -59c-34 0 -61 25 -61 59s27 59 61 59zM542 231h-470v78h470v-78zM307 138c33 0 60 -25 60 -59s-27 -59 -60 -59c-34 0 -61 25 -61 59s27 59 61 59z" />
    <glyph glyph-name="brokenbar" unicode="&#xa6;" horiz-adv-x="270" 
d="M175 209v-367h-80v367h80zM95 360v367h80v-367h-80z" />
    <glyph glyph-name="degree" unicode="&#xb0;" horiz-adv-x="440" 
d="M395 534c0 -100 -80 -173 -175 -173s-175 73 -175 173s80 173 175 173s175 -73 175 -173zM121 534c0 -57 46 -99 99 -99s99 42 99 99s-46 99 -99 99s-99 -42 -99 -99z" />
    <glyph glyph-name="thorn" unicode="&#xfe;" horiz-adv-x="595" 
d="M323 515c114 0 227 -86 227 -263c0 -178 -114 -263 -230 -263c-81 0 -135 35 -159 73v-253h-86v918h86v-290c26 41 78 78 162 78zM312 67c90 0 150 75 150 185s-60 185 -150 185c-93 0 -154 -71 -154 -183v-4c0 -112 61 -183 154 -183z" />
    <glyph glyph-name="threequarters" unicode="&#xbe;" horiz-adv-x="1004" 
d="M41 590c10 76 77 121 156 121c84 0 145 -49 145 -115c0 -49 -31 -80 -65 -94c36 -9 80 -44 80 -104c0 -71 -65 -126 -157 -126c-87 0 -157 49 -164 125h72c10 -37 45 -60 92 -60c46 0 80 27 80 65c0 40 -32 62 -82 62h-52v64h44c49 0 75 27 75 59c0 35 -29 59 -72 59
c-44 0 -72 -25 -79 -56h-73zM223 0l505 704h89l-505 -704h-89zM973 154v-64h-60v-90h-72v90h-213v62l189 274h96v-272h60zM704 154h137v195z" />
    <glyph glyph-name="twosuperior" unicode="&#xb2;" horiz-adv-x="387" 
d="M146 412h204v-65h-306v61l165 152c24 23 57 49 57 90c0 37 -31 63 -74 63c-44 0 -72 -27 -79 -61h-72c7 72 66 127 155 127c86 0 147 -55 147 -127c0 -55 -40 -98 -80 -134z" />
    <glyph glyph-name="minus" unicode="&#x2212;" 
d="M530 229h-447v82h447v-82z" />
    <glyph glyph-name="eth" unicode="&#xf0;" horiz-adv-x="583" 
d="M200 548v69l79 31c-36 31 -73 57 -104 79h109c13 -10 39 -26 68 -50l124 50v-69l-73 -29c64 -69 128 -176 128 -336c0 -195 -92 -304 -245 -304c-147 0 -241 115 -241 259c0 163 105 254 235 254c64 0 118 -23 153 -67c-17 65 -56 119 -101 165zM286 67
c95 0 157 71 157 185c0 111 -67 173 -156 173c-93 0 -154 -74 -154 -177c0 -105 58 -181 153 -181z" />
    <glyph glyph-name="multiply" unicode="&#xd7;" 
d="M528 104l-55 -54l-166 166l-166 -166l-55 54l166 166l-165 166l54 55l166 -166l166 166l54 -55l-166 -166z" />
    <glyph glyph-name="threesuperior" unicode="&#xb3;" horiz-adv-x="393" 
d="M41 658c10 76 77 121 156 121c84 0 145 -49 145 -115c0 -49 -31 -80 -65 -94c36 -9 80 -44 80 -104c0 -71 -65 -126 -157 -126c-87 0 -157 49 -164 125h72c10 -37 45 -60 92 -60c46 0 80 27 80 65c0 40 -32 62 -82 62h-52v64h44c49 0 75 27 75 59c0 35 -29 59 -72 59
c-44 0 -72 -25 -79 -56h-73z" />
    <glyph glyph-name="Aacute" unicode="&#xc1;" horiz-adv-x="664" 
d="M286 704h92l266 -704h-96l-69 186h-296l-67 -186h-96zM331 591l-118 -323h236zM481 927l-101 -154h-87l95 154h93z" />
    <glyph glyph-name="Acircumflex" unicode="&#xc2;" horiz-adv-x="664" 
d="M286 704h92l266 -704h-96l-69 186h-296l-67 -186h-96zM331 591l-118 -323h236zM251 773h-91l132 154h84l132 -154h-91l-83 91z" />
    <glyph glyph-name="Adieresis" unicode="&#xc4;" horiz-adv-x="664" 
d="M286 704h92l266 -704h-96l-69 186h-296l-67 -186h-96zM331 591l-118 -323h236zM227 907c33 0 59 -25 59 -58s-26 -58 -59 -58s-59 25 -59 58s26 58 59 58zM441 907c33 0 59 -25 59 -58s-26 -58 -59 -58s-59 25 -59 58s26 58 59 58z" />
    <glyph glyph-name="Agrave" unicode="&#xc0;" horiz-adv-x="664" 
d="M286 704h92l266 -704h-96l-69 186h-296l-67 -186h-96zM331 591l-118 -323h236zM187 927h93l95 -154h-87z" />
    <glyph glyph-name="Aring" unicode="&#xc5;" horiz-adv-x="664" 
d="M286 704h92l266 -704h-96l-69 186h-296l-67 -186h-96zM331 591l-118 -323h236zM440 859c0 -59 -45 -103 -106 -103s-106 44 -106 103s45 103 106 103s106 -44 106 -103zM288 859c0 -27 21 -46 46 -46s46 19 46 46s-21 46 -46 46s-46 -19 -46 -46z" />
    <glyph glyph-name="Atilde" unicode="&#xc3;" horiz-adv-x="664" 
d="M286 704h92l266 -704h-96l-69 186h-296l-67 -186h-96zM331 591l-118 -323h236zM434 911h65v-18c0 -69 -38 -111 -97 -111c-73 0 -97 64 -134 64c-19 0 -34 -15 -34 -43v-15h-65v18c0 69 38 111 97 111c73 0 97 -64 134 -64c19 0 34 15 34 43v15z" />
    <glyph glyph-name="Ccedilla" unicode="&#xc7;" horiz-adv-x="706" 
d="M569 220h90c-14 -95 -94 -216 -259 -229l-16 -45c37 -4 81 -30 81 -86s-40 -98 -123 -98h-55v62h53c30 0 48 14 48 38s-19 35 -46 35h-36v21l27 73c-167 18 -281 162 -281 361c0 210 127 363 317 363c168 0 266 -104 288 -230h-90c-23 80 -81 147 -198 147
c-138 0 -226 -116 -226 -280c0 -161 86 -280 225 -280c124 0 187 83 201 148z" />
    <glyph glyph-name="Eacute" unicode="&#xc9;" horiz-adv-x="594" 
d="M534 622h-357v-220h338v-81h-338v-239h357v-82h-446v704h446v-82zM461 927l-101 -154h-87l95 154h93z" />
    <glyph glyph-name="Ecircumflex" unicode="&#xca;" horiz-adv-x="594" 
d="M534 622h-357v-220h338v-81h-338v-239h357v-82h-446v704h446v-82zM231 773h-91l132 154h84l132 -154h-91l-83 91z" />
    <glyph glyph-name="Edieresis" unicode="&#xcb;" horiz-adv-x="594" 
d="M534 622h-357v-220h338v-81h-338v-239h357v-82h-446v704h446v-82zM207 907c33 0 59 -25 59 -58s-26 -58 -59 -58s-59 25 -59 58s26 58 59 58zM421 907c33 0 59 -25 59 -58s-26 -58 -59 -58s-59 25 -59 58s26 58 59 58z" />
    <glyph glyph-name="Egrave" unicode="&#xc8;" horiz-adv-x="594" 
d="M534 622h-357v-220h338v-81h-338v-239h357v-82h-446v704h446v-82zM167 927h93l95 -154h-87z" />
    <glyph glyph-name="Iacute" unicode="&#xcd;" horiz-adv-x="265" 
d="M177 704v-704h-89v704h89zM279 927l-101 -154h-87l95 154h93z" />
    <glyph glyph-name="Icircumflex" unicode="&#xce;" horiz-adv-x="265" 
d="M177 704v-704h-89v704h89zM55 773h-91l127 154h84l128 -154h-91l-79 91z" />
    <glyph glyph-name="Idieresis" unicode="&#xcf;" horiz-adv-x="265" 
d="M177 704v-704h-89v704h89zM30 907c33 0 59 -25 59 -58s-26 -58 -59 -58s-59 25 -59 58s26 58 59 58zM236 907c33 0 59 -25 59 -58s-26 -58 -59 -58s-59 25 -59 58s26 58 59 58z" />
    <glyph glyph-name="Igrave" unicode="&#xcc;" horiz-adv-x="265" 
d="M177 704v-704h-89v704h89zM-13 927h93l95 -154h-87z" />
    <glyph glyph-name="Ntilde" unicode="&#xd1;" horiz-adv-x="733" 
d="M184 704l374 -558v558h87v-704h-87l-383 570v-570h-87v704h96zM470 911h65v-18c0 -69 -38 -111 -97 -111c-73 0 -97 64 -134 64c-19 0 -34 -15 -34 -43v-15h-65v18c0 69 38 111 97 111c73 0 97 -64 134 -64c19 0 34 15 34 43v15z" />
    <glyph glyph-name="Oacute" unicode="&#xd3;" horiz-adv-x="752" 
d="M376 715c197 0 324 -154 324 -363s-127 -363 -324 -363s-324 154 -324 363s127 363 324 363zM376 72c144 0 233 116 233 280s-89 280 -233 280s-233 -116 -233 -280s89 -280 233 -280zM523 927l-101 -154h-87l95 154h93z" />
    <glyph glyph-name="Ocircumflex" unicode="&#xd4;" horiz-adv-x="752" 
d="M376 715c197 0 324 -154 324 -363s-127 -363 -324 -363s-324 154 -324 363s127 363 324 363zM376 72c144 0 233 116 233 280s-89 280 -233 280s-233 -116 -233 -280s89 -280 233 -280zM293 773h-91l132 154h84l132 -154h-91l-83 91z" />
    <glyph glyph-name="Odieresis" unicode="&#xd6;" horiz-adv-x="752" 
d="M376 715c197 0 324 -154 324 -363s-127 -363 -324 -363s-324 154 -324 363s127 363 324 363zM376 72c144 0 233 116 233 280s-89 280 -233 280s-233 -116 -233 -280s89 -280 233 -280zM269 907c33 0 59 -25 59 -58s-26 -58 -59 -58s-59 25 -59 58s26 58 59 58zM483 907
c33 0 59 -25 59 -58s-26 -58 -59 -58s-59 25 -59 58s26 58 59 58z" />
    <glyph glyph-name="Ograve" unicode="&#xd2;" horiz-adv-x="752" 
d="M376 715c197 0 324 -154 324 -363s-127 -363 -324 -363s-324 154 -324 363s127 363 324 363zM376 72c144 0 233 116 233 280s-89 280 -233 280s-233 -116 -233 -280s89 -280 233 -280zM229 927h93l95 -154h-87z" />
    <glyph glyph-name="Otilde" unicode="&#xd5;" horiz-adv-x="752" 
d="M376 715c197 0 324 -154 324 -363s-127 -363 -324 -363s-324 154 -324 363s127 363 324 363zM376 72c144 0 233 116 233 280s-89 280 -233 280s-233 -116 -233 -280s89 -280 233 -280zM476 911h65v-18c0 -69 -38 -111 -97 -111c-73 0 -97 64 -134 64
c-19 0 -34 -15 -34 -43v-15h-65v18c0 69 38 111 97 111c73 0 97 -64 134 -64c19 0 34 15 34 43v15z" />
    <glyph glyph-name="Scaron" unicode="&#x160;" horiz-adv-x="616" 
d="M49 183h91c22 -65 79 -112 180 -112c92 0 156 46 156 125c0 62 -39 96 -112 108l-130 21c-112 18 -175 84 -175 180c0 130 111 210 242 210c127 0 232 -62 255 -188h-91c-23 75 -83 106 -164 106c-79 0 -151 -43 -151 -121c0 -52 36 -88 103 -99l131 -22
c101 -17 183 -68 183 -189c0 -135 -106 -213 -249 -213c-137 0 -248 64 -269 194zM224 927l83 -91l83 91h91l-132 -154h-84l-132 154h91z" />
    <glyph glyph-name="Uacute" unicode="&#xda;" horiz-adv-x="720" 
d="M83 276v428h89v-425c0 -139 81 -207 188 -207s188 68 188 207v425h89v-428c0 -192 -120 -287 -277 -287s-277 95 -277 287zM507 927l-101 -154h-87l95 154h93z" />
    <glyph glyph-name="Ucircumflex" unicode="&#xdb;" horiz-adv-x="720" 
d="M83 276v428h89v-425c0 -139 81 -207 188 -207s188 68 188 207v425h89v-428c0 -192 -120 -287 -277 -287s-277 95 -277 287zM277 773h-91l132 154h84l132 -154h-91l-83 91z" />
    <glyph glyph-name="Udieresis" unicode="&#xdc;" horiz-adv-x="720" 
d="M83 276v428h89v-425c0 -139 81 -207 188 -207s188 68 188 207v425h89v-428c0 -192 -120 -287 -277 -287s-277 95 -277 287zM253 907c33 0 59 -25 59 -58s-26 -58 -59 -58s-59 25 -59 58s26 58 59 58zM467 907c33 0 59 -25 59 -58s-26 -58 -59 -58s-59 25 -59 58
s26 58 59 58z" />
    <glyph glyph-name="Ugrave" unicode="&#xd9;" horiz-adv-x="720" 
d="M83 276v428h89v-425c0 -139 81 -207 188 -207s188 68 188 207v425h89v-428c0 -192 -120 -287 -277 -287s-277 95 -277 287zM213 927h93l95 -154h-87z" />
    <glyph glyph-name="Yacute" unicode="&#xdd;" horiz-adv-x="637" 
d="M363 0h-89v276l-259 428h101l202 -338l203 338h101l-259 -428v-276zM467 927l-101 -154h-87l95 154h93z" />
    <glyph glyph-name="Ydieresis" unicode="&#x178;" horiz-adv-x="637" 
d="M363 0h-89v276l-259 428h101l202 -338l203 338h101l-259 -428v-276zM213 907c33 0 59 -25 59 -58s-26 -58 -59 -58s-59 25 -59 58s26 58 59 58zM427 907c33 0 59 -25 59 -58s-26 -58 -59 -58s-59 25 -59 58s26 58 59 58z" />
    <glyph glyph-name="Zcaron" unicode="&#x17d;" horiz-adv-x="618" 
d="M59 75l391 547h-391v82h500v-75l-392 -547h392v-82h-500v75zM227 927l83 -91l83 91h91l-132 -154h-84l-132 154h91z" />
    <glyph glyph-name="aacute" unicode="&#xe1;" horiz-adv-x="531" 
d="M376 334c0 70 -49 105 -114 105c-66 0 -102 -30 -116 -67h-83c16 78 86 143 201 143c118 0 197 -68 197 -181v-334h-81v60c-38 -47 -98 -71 -162 -71c-98 0 -174 59 -174 155c0 97 75 156 198 156h134v34zM229 64c80 0 147 49 147 126v37h-129c-69 0 -116 -28 -116 -82
c0 -53 42 -81 98 -81zM413 735l-101 -154h-87l95 154h93z" />
    <glyph glyph-name="acircumflex" unicode="&#xe2;" horiz-adv-x="531" 
d="M376 334c0 70 -49 105 -114 105c-66 0 -102 -30 -116 -67h-83c16 78 86 143 201 143c118 0 197 -68 197 -181v-334h-81v60c-38 -47 -98 -71 -162 -71c-98 0 -174 59 -174 155c0 97 75 156 198 156h134v34zM229 64c80 0 147 49 147 126v37h-129c-69 0 -116 -28 -116 -82
c0 -53 42 -81 98 -81zM188 581h-91l127 154h84l128 -154h-91l-79 91z" />
    <glyph glyph-name="adieresis" unicode="&#xe4;" horiz-adv-x="531" 
d="M376 334c0 70 -49 105 -114 105c-66 0 -102 -30 -116 -67h-83c16 78 86 143 201 143c118 0 197 -68 197 -181v-334h-81v60c-38 -47 -98 -71 -162 -71c-98 0 -174 59 -174 155c0 97 75 156 198 156h134v34zM229 64c80 0 147 49 147 126v37h-129c-69 0 -116 -28 -116 -82
c0 -53 42 -81 98 -81zM163 715c33 0 59 -25 59 -58s-26 -58 -59 -58s-59 25 -59 58s26 58 59 58zM369 715c33 0 59 -25 59 -58s-26 -58 -59 -58s-59 25 -59 58s26 58 59 58z" />
    <glyph glyph-name="agrave" unicode="&#xe0;" horiz-adv-x="531" 
d="M376 334c0 70 -49 105 -114 105c-66 0 -102 -30 -116 -67h-83c16 78 86 143 201 143c118 0 197 -68 197 -181v-334h-81v60c-38 -47 -98 -71 -162 -71c-98 0 -174 59 -174 155c0 97 75 156 198 156h134v34zM229 64c80 0 147 49 147 126v37h-129c-69 0 -116 -28 -116 -82
c0 -53 42 -81 98 -81zM119 735h93l95 -154h-87z" />
    <glyph glyph-name="aring" unicode="&#xe5;" horiz-adv-x="531" 
d="M376 334c0 70 -49 105 -114 105c-66 0 -102 -30 -116 -67h-83c16 78 86 143 201 143c118 0 197 -68 197 -181v-334h-81v60c-38 -47 -98 -71 -162 -71c-98 0 -174 59 -174 155c0 97 75 156 198 156h134v34zM229 64c80 0 147 49 147 126v37h-129c-69 0 -116 -28 -116 -82
c0 -53 42 -81 98 -81zM372 667c0 -59 -45 -103 -106 -103s-106 44 -106 103s45 103 106 103s106 -44 106 -103zM220 667c0 -27 21 -46 46 -46s46 19 46 46s-21 46 -46 46s-46 -19 -46 -46z" />
    <glyph glyph-name="atilde" unicode="&#xe3;" horiz-adv-x="531" 
d="M376 334c0 70 -49 105 -114 105c-66 0 -102 -30 -116 -67h-83c16 78 86 143 201 143c118 0 197 -68 197 -181v-334h-81v60c-38 -47 -98 -71 -162 -71c-98 0 -174 59 -174 155c0 97 75 156 198 156h134v34zM229 64c80 0 147 49 147 126v37h-129c-69 0 -116 -28 -116 -82
c0 -53 42 -81 98 -81zM363 719h65v-16c0 -71 -38 -113 -97 -113c-72 0 -91 64 -128 64c-18 0 -34 -14 -34 -42v-16h-65v16c0 71 38 113 97 113c72 0 91 -64 128 -64c18 0 34 14 34 42v16z" />
    <glyph glyph-name="ccedilla" unicode="&#xe7;" horiz-adv-x="539" 
d="M284 67c84 0 118 53 129 96h86c-10 -83 -78 -160 -186 -172l-16 -45c37 -4 81 -30 81 -86s-40 -98 -123 -98h-55v62h53c30 0 48 14 48 38s-19 35 -46 35h-36v21l28 74c-123 16 -202 119 -202 260c0 151 93 263 238 263c134 0 203 -92 216 -172h-86c-13 42 -50 94 -130 94
c-92 0 -150 -76 -150 -185c0 -110 60 -185 151 -185z" />
    <glyph glyph-name="eacute" unicode="&#xe9;" horiz-adv-x="547" 
d="M502 226h-367v-2c0 -90 62 -158 155 -158c70 0 110 38 119 64h87c-13 -59 -76 -141 -207 -141c-146 0 -244 101 -244 263c0 163 99 263 237 263c134 0 220 -95 220 -245v-44zM280 438c-84 0 -137 -57 -144 -139h279c-4 87 -54 139 -135 139zM429 735l-101 -154h-87
l95 154h93z" />
    <glyph glyph-name="ecircumflex" unicode="&#xea;" horiz-adv-x="547" 
d="M502 226h-367v-2c0 -90 62 -158 155 -158c70 0 110 38 119 64h87c-13 -59 -76 -141 -207 -141c-146 0 -244 101 -244 263c0 163 99 263 237 263c134 0 220 -95 220 -245v-44zM280 438c-84 0 -137 -57 -144 -139h279c-4 87 -54 139 -135 139zM204 581h-91l127 154h84
l128 -154h-91l-79 91z" />
    <glyph glyph-name="edieresis" unicode="&#xeb;" horiz-adv-x="547" 
d="M502 226h-367v-2c0 -90 62 -158 155 -158c70 0 110 38 119 64h87c-13 -59 -76 -141 -207 -141c-146 0 -244 101 -244 263c0 163 99 263 237 263c134 0 220 -95 220 -245v-44zM280 438c-84 0 -137 -57 -144 -139h279c-4 87 -54 139 -135 139zM179 715c33 0 59 -25 59 -58
s-26 -58 -59 -58s-59 25 -59 58s26 58 59 58zM385 715c33 0 59 -25 59 -58s-26 -58 -59 -58s-59 25 -59 58s26 58 59 58z" />
    <glyph glyph-name="egrave" unicode="&#xe8;" horiz-adv-x="547" 
d="M502 226h-367v-2c0 -90 62 -158 155 -158c70 0 110 38 119 64h87c-13 -59 -76 -141 -207 -141c-146 0 -244 101 -244 263c0 163 99 263 237 263c134 0 220 -95 220 -245v-44zM280 438c-84 0 -137 -57 -144 -139h279c-4 87 -54 139 -135 139zM135 735h93l95 -154h-87z" />
    <glyph glyph-name="iacute" unicode="&#xed;" horiz-adv-x="236" 
d="M161 504v-504h-86v504h86zM264 735l-101 -154h-87l95 154h93z" />
    <glyph glyph-name="icircumflex" unicode="&#xee;" horiz-adv-x="236" 
d="M161 504v-504h-86v504h86zM46 581h-88l118 154h84l118 -154h-88l-72 90z" />
    <glyph glyph-name="idieresis" unicode="&#xef;" horiz-adv-x="236" 
d="M161 504v-504h-86v504h86zM21 715c33 0 59 -25 59 -58s-26 -58 -59 -58s-59 25 -59 58s26 58 59 58zM215 715c33 0 59 -25 59 -58s-26 -58 -59 -58s-59 25 -59 58s26 58 59 58z" />
    <glyph glyph-name="igrave" unicode="&#xec;" horiz-adv-x="236" 
d="M161 504v-504h-86v504h86zM-28 735h93l95 -154h-87z" />
    <glyph glyph-name="ntilde" unicode="&#xf1;" horiz-adv-x="569" 
d="M75 504h83v-59c24 34 77 70 153 70c98 0 188 -59 188 -198v-317h-86v305c0 92 -50 132 -118 132c-65 0 -134 -39 -134 -140v-297h-86v504zM389 719h65v-16c0 -71 -38 -113 -97 -113c-72 0 -91 64 -128 64c-18 0 -34 -14 -34 -42v-16h-65v16c0 71 38 113 97 113
c72 0 91 -64 128 -64c18 0 34 14 34 42v16z" />
    <glyph glyph-name="oacute" unicode="&#xf3;" horiz-adv-x="574" 
d="M287 515c147 0 242 -110 242 -263s-95 -263 -242 -263s-242 110 -242 263s95 263 242 263zM287 67c95 0 154 75 154 185s-59 185 -154 185s-154 -75 -154 -185s59 -185 154 -185zM434 735l-101 -154h-87l95 154h93z" />
    <glyph glyph-name="ocircumflex" unicode="&#xf4;" horiz-adv-x="574" 
d="M287 515c147 0 242 -110 242 -263s-95 -263 -242 -263s-242 110 -242 263s95 263 242 263zM287 67c95 0 154 75 154 185s-59 185 -154 185s-154 -75 -154 -185s59 -185 154 -185zM209 581h-91l127 154h84l128 -154h-91l-79 91z" />
    <glyph glyph-name="odieresis" unicode="&#xf6;" horiz-adv-x="574" 
d="M287 515c147 0 242 -110 242 -263s-95 -263 -242 -263s-242 110 -242 263s95 263 242 263zM287 67c95 0 154 75 154 185s-59 185 -154 185s-154 -75 -154 -185s59 -185 154 -185zM184 715c33 0 59 -25 59 -58s-26 -58 -59 -58s-59 25 -59 58s26 58 59 58zM390 715
c33 0 59 -25 59 -58s-26 -58 -59 -58s-59 25 -59 58s26 58 59 58z" />
    <glyph glyph-name="ograve" unicode="&#xf2;" horiz-adv-x="574" 
d="M287 515c147 0 242 -110 242 -263s-95 -263 -242 -263s-242 110 -242 263s95 263 242 263zM287 67c95 0 154 75 154 185s-59 185 -154 185s-154 -75 -154 -185s59 -185 154 -185zM140 735h93l95 -154h-87z" />
    <glyph glyph-name="otilde" unicode="&#xf5;" horiz-adv-x="574" 
d="M287 515c147 0 242 -110 242 -263s-95 -263 -242 -263s-242 110 -242 263s95 263 242 263zM287 67c95 0 154 75 154 185s-59 185 -154 185s-154 -75 -154 -185s59 -185 154 -185zM384 719h65v-16c0 -71 -38 -113 -97 -113c-72 0 -91 64 -128 64c-18 0 -34 -14 -34 -42
v-16h-65v16c0 71 38 113 97 113c72 0 91 -64 128 -64c18 0 34 14 34 42v16z" />
    <glyph glyph-name="scaron" unicode="&#x161;" horiz-adv-x="496" 
d="M130 141c11 -47 57 -76 126 -76c67 0 110 26 110 76c0 38 -29 62 -77 68l-90 12c-81 11 -143 49 -143 137c0 89 80 157 189 157c105 0 181 -52 197 -144h-84c-16 46 -55 68 -113 68c-65 0 -103 -33 -103 -75c0 -36 24 -57 72 -63l91 -12c82 -11 147 -51 147 -143
c0 -102 -87 -157 -194 -157c-96 0 -200 39 -213 152h85zM171 735l78 -91l79 91h91l-128 -154h-84l-127 154h91z" />
    <glyph glyph-name="uacute" unicode="&#xfa;" horiz-adv-x="569" 
d="M494 0h-83v59c-25 -34 -77 -70 -153 -70c-98 0 -188 59 -188 198v317h86v-305c0 -92 50 -132 118 -132c65 0 134 39 134 140v297h86v-504zM429 735l-101 -154h-87l95 154h93z" />
    <glyph glyph-name="ucircumflex" unicode="&#xfb;" horiz-adv-x="569" 
d="M494 0h-83v59c-25 -34 -77 -70 -153 -70c-98 0 -188 59 -188 198v317h86v-305c0 -92 50 -132 118 -132c65 0 134 39 134 140v297h86v-504zM204 581h-91l127 154h84l128 -154h-91l-79 91z" />
    <glyph glyph-name="udieresis" unicode="&#xfc;" horiz-adv-x="569" 
d="M494 0h-83v59c-25 -34 -77 -70 -153 -70c-98 0 -188 59 -188 198v317h86v-305c0 -92 50 -132 118 -132c65 0 134 39 134 140v297h86v-504zM179 715c33 0 59 -25 59 -58s-26 -58 -59 -58s-59 25 -59 58s26 58 59 58zM385 715c33 0 59 -25 59 -58s-26 -58 -59 -58
s-59 25 -59 58s26 58 59 58z" />
    <glyph glyph-name="ugrave" unicode="&#xf9;" horiz-adv-x="569" 
d="M494 0h-83v59c-25 -34 -77 -70 -153 -70c-98 0 -188 59 -188 198v317h86v-305c0 -92 50 -132 118 -132c65 0 134 39 134 140v297h86v-504zM135 735h93l95 -154h-87z" />
    <glyph glyph-name="yacute" unicode="&#xfd;" horiz-adv-x="519" 
d="M411 504h93l-276 -695h-93l78 197l-198 498h93l152 -393zM406 735l-101 -154h-87l95 154h93z" />
    <glyph glyph-name="ydieresis" unicode="&#xff;" horiz-adv-x="519" 
d="M411 504h93l-276 -695h-93l78 197l-198 498h93l152 -393zM156 715c33 0 59 -25 59 -58s-26 -58 -59 -58s-59 25 -59 58s26 58 59 58zM362 715c33 0 59 -25 59 -58s-26 -58 -59 -58s-59 25 -59 58s26 58 59 58z" />
    <glyph glyph-name="zcaron" unicode="&#x17e;" horiz-adv-x="490" 
d="M50 0v67l280 360h-280v77h390v-68l-281 -359h281v-77h-390zM167 735l78 -91l79 91h91l-128 -154h-84l-127 154h91z" />
    <glyph glyph-name="parenleftsuperior" unicode="&#x207d;" horiz-adv-x="231" 
d="M211 824c-55 -73 -88 -165 -88 -265c0 -101 33 -192 88 -266h-70c-46 56 -92 150 -92 266c0 115 46 210 92 265h70z" />
    <glyph glyph-name="parenrightsuperior" unicode="&#x207e;" horiz-adv-x="231" 
d="M20 824h71c46 -56 91 -150 91 -265c0 -117 -46 -210 -91 -266h-71c55 74 89 164 89 266c0 101 -34 192 -89 265z" />
    <glyph glyph-name="parenleftinferior" unicode="&#x208d;" horiz-adv-x="231" 
d="M211 354c-55 -73 -88 -165 -88 -265c0 -101 33 -192 88 -266h-70c-46 56 -92 150 -92 266c0 115 46 210 92 265h70z" />
    <glyph glyph-name="parenrightinferior" unicode="&#x208e;" horiz-adv-x="231" 
d="M20 354h71c46 -56 91 -150 91 -265c0 -117 -46 -210 -91 -266h-71c55 74 89 164 89 266c0 101 -34 192 -89 265z" />
    <glyph glyph-name="oneeighth" unicode="&#x215b;" horiz-adv-x="949" 
d="M215 704v-425h-76v343l-105 -64v75l110 71h71zM122 0l505 704h89l-505 -704h-89zM584 117c0 57 43 94 81 105c-31 12 -68 41 -68 94c0 63 59 116 151 116c91 0 150 -53 150 -116c0 -53 -37 -82 -68 -94c38 -11 81 -48 81 -105c0 -69 -66 -124 -163 -124
c-98 0 -164 55 -164 124zM824 309c0 36 -31 61 -76 61c-46 0 -77 -25 -77 -61s34 -61 77 -61c42 0 76 25 76 61zM835 122c0 39 -35 68 -87 68c-53 0 -88 -29 -88 -68s36 -67 88 -67c51 0 87 28 87 67z" />
    <glyph glyph-name="threeeighths" unicode="&#x215c;" horiz-adv-x="1050" 
d="M41 590c10 76 77 121 156 121c84 0 145 -49 145 -115c0 -49 -31 -80 -65 -94c36 -9 80 -44 80 -104c0 -71 -65 -126 -157 -126c-87 0 -157 49 -164 125h72c10 -37 45 -60 92 -60c46 0 80 27 80 65c0 40 -32 62 -82 62h-52v64h44c49 0 75 27 75 59c0 35 -29 59 -72 59
c-44 0 -72 -25 -79 -56h-73zM223 0l505 704h89l-505 -704h-89zM685 117c0 57 43 94 81 105c-31 12 -68 41 -68 94c0 63 59 116 151 116c91 0 150 -53 150 -116c0 -53 -37 -82 -68 -94c38 -11 81 -48 81 -105c0 -69 -66 -124 -163 -124c-98 0 -164 55 -164 124zM925 309
c0 36 -31 61 -76 61c-46 0 -77 -25 -77 -61s34 -61 77 -61c42 0 76 25 76 61zM936 122c0 39 -35 68 -87 68c-53 0 -88 -29 -88 -68s36 -67 88 -67c51 0 87 28 87 67z" />
    <glyph glyph-name="fiveeighths" unicode="&#x215d;" horiz-adv-x="1057" 
d="M221 559c74 0 142 -50 142 -140s-72 -147 -158 -147c-89 0 -152 52 -161 119h75c7 -21 31 -54 85 -54c46 0 82 33 82 81c0 50 -38 79 -82 79c-31 0 -62 -11 -82 -43h-74l20 250h271v-65h-209l-10 -119c21 22 56 39 101 39zM230 0l505 704h89l-505 -704h-89zM692 117
c0 57 43 94 81 105c-31 12 -68 41 -68 94c0 63 59 116 151 116c91 0 150 -53 150 -116c0 -53 -37 -82 -68 -94c38 -11 81 -48 81 -105c0 -69 -66 -124 -163 -124c-98 0 -164 55 -164 124zM932 309c0 36 -31 61 -76 61c-46 0 -77 -25 -77 -61s34 -61 77 -61c42 0 76 25 76 61
zM943 122c0 39 -35 68 -87 68c-53 0 -88 -29 -88 -68s36 -67 88 -67c51 0 87 28 87 67z" />
    <glyph glyph-name="seveneighths" unicode="&#x215e;" horiz-adv-x="951" 
d="M25 704h298v-59l-168 -366h-82l168 360h-216v65zM124 0l505 704h89l-505 -704h-89zM586 117c0 57 43 94 81 105c-31 12 -68 41 -68 94c0 63 59 116 151 116c91 0 150 -53 150 -116c0 -53 -37 -82 -68 -94c38 -11 81 -48 81 -105c0 -69 -66 -124 -163 -124
c-98 0 -164 55 -164 124zM826 309c0 36 -31 61 -76 61c-46 0 -77 -25 -77 -61s34 -61 77 -61c42 0 76 25 76 61zM837 122c0 39 -35 68 -87 68c-53 0 -88 -29 -88 -68s36 -67 88 -67c51 0 87 28 87 67z" />
    <glyph glyph-name="zerosuperior" unicode="&#x2070;" horiz-adv-x="418" 
d="M209 779c105 0 171 -90 171 -219c0 -130 -66 -220 -171 -220s-171 90 -171 220c0 129 66 219 171 219zM209 406c62 0 94 65 94 154c0 88 -32 153 -94 153s-94 -65 -94 -153c0 -89 32 -154 94 -154z" />
    <glyph glyph-name="foursuperior" unicode="&#x2074;" horiz-adv-x="407" 
d="M376 501v-64h-60v-90h-72v90h-213v62l189 274h96v-272h60zM107 501h137v195z" />
    <glyph glyph-name="fivesuperior" unicode="&#x2075;" horiz-adv-x="400" 
d="M221 627c74 0 142 -50 142 -140s-72 -147 -158 -147c-89 0 -152 52 -161 119h75c7 -21 31 -54 85 -54c46 0 82 33 82 81c0 50 -38 79 -82 79c-31 0 -62 -11 -82 -43h-74l20 250h271v-65h-209l-10 -119c21 22 56 39 101 39z" />
    <glyph glyph-name="sixsuperior" unicode="&#x2076;" horiz-adv-x="405" 
d="M228 626c76 0 143 -53 143 -138c0 -84 -66 -148 -156 -148c-111 0 -177 83 -177 211c0 153 75 228 176 228c82 0 139 -50 148 -112h-74c-7 23 -34 47 -74 47c-57 0 -97 -42 -102 -142c25 35 67 54 116 54zM212 405c47 0 82 35 82 81c0 48 -38 79 -83 79
c-46 0 -85 -33 -85 -79s38 -81 86 -81z" />
    <glyph glyph-name="sevensuperior" unicode="&#x2077;" horiz-adv-x="354" 
d="M25 772h298v-59l-168 -366h-82l168 360h-216v65z" />
    <glyph glyph-name="eightsuperior" unicode="&#x2078;" horiz-adv-x="403" 
d="M38 464c0 57 43 94 81 105c-31 12 -68 41 -68 94c0 63 59 116 151 116c91 0 150 -53 150 -116c0 -53 -37 -82 -68 -94c38 -11 81 -48 81 -105c0 -69 -66 -124 -163 -124c-98 0 -164 55 -164 124zM278 656c0 36 -31 61 -76 61c-46 0 -77 -25 -77 -61s34 -61 77 -61
c42 0 76 25 76 61zM289 469c0 39 -35 68 -87 68c-53 0 -88 -29 -88 -68s36 -67 88 -67c51 0 87 28 87 67z" />
    <glyph glyph-name="ninesuperior" unicode="&#x2079;" horiz-adv-x="405" 
d="M177 493c-76 0 -143 53 -143 138c0 84 66 148 156 148c111 0 177 -83 177 -211c0 -153 -75 -228 -176 -228c-82 0 -139 50 -148 112h74c7 -23 34 -47 74 -47c57 0 97 42 102 142c-25 -35 -67 -54 -116 -54zM193 714c-47 0 -82 -35 -82 -81c0 -48 38 -79 83 -79
c46 0 85 33 85 79s-38 81 -86 81z" />
    <glyph glyph-name="zeroinferior" unicode="&#x2080;" horiz-adv-x="418" 
d="M209 309c105 0 171 -90 171 -219c0 -130 -66 -220 -171 -220s-171 90 -171 220c0 129 66 219 171 219zM209 -64c62 0 94 65 94 154c0 88 -32 153 -94 153s-94 -65 -94 -153c0 -89 32 -154 94 -154z" />
    <glyph glyph-name="oneinferior" unicode="&#x2081;" horiz-adv-x="292" 
d="M215 302v-425h-76v343l-105 -64v75l110 71h71z" />
    <glyph glyph-name="twoinferior" unicode="&#x2082;" horiz-adv-x="387" 
d="M146 -58h204v-65h-306v61l165 152c24 23 57 49 57 90c0 37 -31 63 -74 63c-44 0 -72 -27 -79 -61h-72c7 72 66 127 155 127c86 0 147 -55 147 -127c0 -55 -40 -98 -80 -134z" />
    <glyph glyph-name="threeinferior" unicode="&#x2083;" horiz-adv-x="393" 
d="M41 188c10 76 77 121 156 121c84 0 145 -49 145 -115c0 -49 -31 -80 -65 -94c36 -9 80 -44 80 -104c0 -71 -65 -126 -157 -126c-87 0 -157 49 -164 125h72c10 -37 45 -60 92 -60c46 0 80 27 80 65c0 40 -32 62 -82 62h-52v64h44c49 0 75 27 75 59c0 35 -29 59 -72 59
c-44 0 -72 -25 -79 -56h-73z" />
    <glyph glyph-name="fourinferior" unicode="&#x2084;" horiz-adv-x="407" 
d="M376 31v-64h-60v-90h-72v90h-213v62l189 274h96v-272h60zM107 31h137v195z" />
    <glyph glyph-name="fiveinferior" unicode="&#x2085;" horiz-adv-x="400" 
d="M221 157c74 0 142 -50 142 -140s-72 -147 -158 -147c-89 0 -152 52 -161 119h75c7 -21 31 -54 85 -54c46 0 82 33 82 81c0 50 -38 79 -82 79c-31 0 -62 -11 -82 -43h-74l20 250h271v-65h-209l-10 -119c21 22 56 39 101 39z" />
    <glyph glyph-name="sixinferior" unicode="&#x2086;" horiz-adv-x="405" 
d="M228 156c76 0 143 -53 143 -138c0 -84 -66 -148 -156 -148c-111 0 -177 83 -177 211c0 153 75 228 176 228c82 0 139 -50 148 -112h-74c-7 23 -34 47 -74 47c-57 0 -97 -42 -102 -142c25 35 67 54 116 54zM212 -65c47 0 82 35 82 81c0 48 -38 79 -83 79
c-46 0 -85 -33 -85 -79s38 -81 86 -81z" />
    <glyph glyph-name="seveninferior" unicode="&#x2087;" horiz-adv-x="354" 
d="M25 302h298v-59l-168 -366h-82l168 360h-216v65z" />
    <glyph glyph-name="eightinferior" unicode="&#x2088;" horiz-adv-x="403" 
d="M38 -6c0 57 43 94 81 105c-31 12 -68 41 -68 94c0 63 59 116 151 116c91 0 150 -53 150 -116c0 -53 -37 -82 -68 -94c38 -11 81 -48 81 -105c0 -69 -66 -124 -163 -124c-98 0 -164 55 -164 124zM278 186c0 36 -31 61 -76 61c-46 0 -77 -25 -77 -61s34 -61 77 -61
c42 0 76 25 76 61zM289 -1c0 39 -35 68 -87 68c-53 0 -88 -29 -88 -68s36 -67 88 -67c51 0 87 28 87 67z" />
    <glyph glyph-name="nineinferior" unicode="&#x2089;" horiz-adv-x="405" 
d="M177 23c-76 0 -143 53 -143 138c0 84 66 148 156 148c111 0 177 -83 177 -211c0 -153 -75 -228 -176 -228c-82 0 -139 50 -148 112h74c7 -23 34 -47 74 -47c57 0 97 42 102 142c-25 -35 -67 -54 -116 -54zM193 244c-47 0 -82 -35 -82 -81c0 -48 38 -79 83 -79
c46 0 85 33 85 79s-38 81 -86 81z" />
    <glyph glyph-name="uni0000" horiz-adv-x="0" 
 />
    <glyph glyph-name="uni0000" horiz-adv-x="0" 
 />
    <glyph glyph-name="uni000D" unicode="&#xd;" horiz-adv-x="220" 
 />
    <glyph glyph-name="uni00A0" unicode="&#xa0;" horiz-adv-x="220" 
 />
    <glyph glyph-name="uni00AD" unicode="&#xad;" horiz-adv-x="421" 
d="M55 229v82h311v-82h-311z" />
    <glyph glyph-name="Amacron" unicode="&#x100;" horiz-adv-x="664" 
d="M286 704h92l266 -704h-96l-69 186h-296l-67 -186h-96zM331 591l-118 -323h236zM183 886h302v-74h-302v74z" />
    <glyph glyph-name="amacron" unicode="&#x101;" horiz-adv-x="531" 
d="M376 334c0 70 -49 105 -114 105c-66 0 -102 -30 -116 -67h-83c16 78 86 143 201 143c118 0 197 -68 197 -181v-334h-81v60c-38 -47 -98 -71 -162 -71c-98 0 -174 59 -174 155c0 97 75 156 198 156h134v34zM229 64c80 0 147 49 147 126v37h-129c-69 0 -116 -28 -116 -82
c0 -53 42 -81 98 -81zM119 694h294v-74h-294v74z" />
    <glyph glyph-name="Abreve" unicode="&#x102;" horiz-adv-x="664" 
d="M286 704h92l266 -704h-96l-69 186h-296l-67 -186h-96zM331 591l-118 -323h236zM248 927c0 -48 32 -88 86 -88s86 40 86 88h77c-2 -93 -69 -156 -163 -156s-161 63 -163 156h77z" />
    <glyph glyph-name="abreve" unicode="&#x103;" horiz-adv-x="531" 
d="M376 334c0 70 -49 105 -114 105c-66 0 -102 -30 -116 -67h-83c16 78 86 143 201 143c118 0 197 -68 197 -181v-334h-81v60c-38 -47 -98 -71 -162 -71c-98 0 -174 59 -174 155c0 97 75 156 198 156h134v34zM229 64c80 0 147 49 147 126v37h-129c-69 0 -116 -28 -116 -82
c0 -53 42 -81 98 -81zM184 735c0 -48 28 -88 82 -88s82 40 82 88h77c-2 -93 -65 -156 -159 -156s-157 63 -159 156h77z" />
    <glyph glyph-name="Aogonek" unicode="&#x104;" horiz-adv-x="664" 
d="M286 704h92l266 -704c-44 -27 -85 -70 -85 -110c0 -31 20 -51 59 -51h34v-68h-51c-83 0 -123 44 -123 100c0 51 31 99 70 129l-69 186h-296l-67 -186h-96zM331 591l-118 -323h236z" />
    <glyph glyph-name="aogonek" unicode="&#x105;" horiz-adv-x="531" 
d="M376 334c0 70 -49 105 -114 105c-66 0 -102 -30 -116 -67h-83c16 78 86 143 201 143c118 0 197 -68 197 -181v-334c-44 -27 -85 -70 -85 -110c0 -31 20 -51 59 -51h34v-68h-51c-83 0 -123 44 -123 100c0 57 40 111 85 139v50c-38 -47 -98 -71 -162 -71
c-98 0 -174 59 -174 155c0 97 75 156 198 156h134v34zM229 64c80 0 147 49 147 126v37h-129c-69 0 -116 -28 -116 -82c0 -53 42 -81 98 -81z" />
    <glyph glyph-name="Cacute" unicode="&#x106;" horiz-adv-x="706" 
d="M569 220h90c-15 -101 -104 -231 -290 -231c-187 0 -317 150 -317 363c0 210 127 363 317 363c168 0 266 -104 288 -230h-90c-23 80 -81 147 -198 147c-138 0 -226 -116 -226 -280c0 -161 86 -280 225 -280c124 0 187 83 201 148zM516 927l-101 -154h-87l95 154h93z" />
    <glyph glyph-name="cacute" unicode="&#x107;" horiz-adv-x="539" 
d="M284 67c84 0 118 53 129 96h86c-11 -90 -91 -174 -216 -174c-143 0 -238 109 -238 263c0 151 93 263 238 263c134 0 203 -92 216 -172h-86c-13 42 -50 94 -130 94c-92 0 -150 -76 -150 -185c0 -110 60 -185 151 -185zM430 735l-101 -154h-87l95 154h93z" />
    <glyph glyph-name="Ccircumflex" unicode="&#x108;" horiz-adv-x="706" 
d="M569 220h90c-15 -101 -104 -231 -290 -231c-187 0 -317 150 -317 363c0 210 127 363 317 363c168 0 266 -104 288 -230h-90c-23 80 -81 147 -198 147c-138 0 -226 -116 -226 -280c0 -161 86 -280 225 -280c124 0 187 83 201 148zM286 773h-91l132 154h84l132 -154h-91
l-83 91z" />
    <glyph glyph-name="ccircumflex" unicode="&#x109;" horiz-adv-x="539" 
d="M284 67c84 0 118 53 129 96h86c-11 -90 -91 -174 -216 -174c-143 0 -238 109 -238 263c0 151 93 263 238 263c134 0 203 -92 216 -172h-86c-13 42 -50 94 -130 94c-92 0 -150 -76 -150 -185c0 -110 60 -185 151 -185zM205 581h-91l127 154h84l128 -154h-91l-79 91z" />
    <glyph glyph-name="Cdotaccent" unicode="&#x10a;" horiz-adv-x="706" 
d="M569 220h90c-15 -101 -104 -231 -290 -231c-187 0 -317 150 -317 363c0 210 127 363 317 363c168 0 266 -104 288 -230h-90c-23 80 -81 147 -198 147c-138 0 -226 -116 -226 -280c0 -161 86 -280 225 -280c124 0 187 83 201 148zM370 907c33 0 59 -25 59 -58
s-26 -58 -59 -58s-59 25 -59 58s26 58 59 58z" />
    <glyph glyph-name="cdotaccent" unicode="&#x10b;" horiz-adv-x="539" 
d="M284 67c84 0 118 53 129 96h86c-11 -90 -91 -174 -216 -174c-143 0 -238 109 -238 263c0 151 93 263 238 263c134 0 203 -92 216 -172h-86c-13 42 -50 94 -130 94c-92 0 -150 -76 -150 -185c0 -110 60 -185 151 -185zM284 715c33 0 59 -25 59 -58s-26 -58 -59 -58
s-59 25 -59 58s26 58 59 58z" />
    <glyph glyph-name="Ccaron" unicode="&#x10c;" horiz-adv-x="706" 
d="M569 220h90c-15 -101 -104 -231 -290 -231c-187 0 -317 150 -317 363c0 210 127 363 317 363c168 0 266 -104 288 -230h-90c-23 80 -81 147 -198 147c-138 0 -226 -116 -226 -280c0 -161 86 -280 225 -280c124 0 187 83 201 148zM286 927l83 -91l83 91h91l-132 -154h-84
l-132 154h91z" />
    <glyph glyph-name="ccaron" unicode="&#x10d;" horiz-adv-x="539" 
d="M284 67c84 0 118 53 129 96h86c-11 -90 -91 -174 -216 -174c-143 0 -238 109 -238 263c0 151 93 263 238 263c134 0 203 -92 216 -172h-86c-13 42 -50 94 -130 94c-92 0 -150 -76 -150 -185c0 -110 60 -185 151 -185zM205 735l78 -91l79 91h91l-128 -154h-84l-127 154h91
z" />
    <glyph glyph-name="Dcaron" unicode="&#x10e;" horiz-adv-x="708" 
d="M307 704c219 0 349 -133 349 -352s-130 -352 -349 -352h-219v704h219zM296 81c180 0 269 100 269 271s-90 271 -269 271h-119v-542h119zM234 927l83 -91l83 91h91l-132 -154h-84l-132 154h91z" />
    <glyph glyph-name="dcaron" unicode="&#x10f;" horiz-adv-x="691" 
d="M272 -11c-114 0 -227 86 -227 263c0 178 114 263 230 263c80 0 135 -36 159 -74v286h86v-727h-83v72c-25 -43 -79 -83 -165 -83zM283 437c-90 0 -150 -75 -150 -185s60 -185 150 -185c93 0 154 71 154 183v4c0 112 -61 183 -154 183zM699 675c0 -14 -4 -29 -10 -45
l-46 -124h-67l43 120c-20 5 -40 23 -40 52c0 33 25 56 58 56c34 0 62 -24 62 -59z" />
    <glyph glyph-name="Dcroat" unicode="&#x110;" horiz-adv-x="725" 
d="M324 704c219 0 349 -133 349 -352s-130 -352 -349 -352h-219v322h-81v79h81v303h219zM367 322h-173v-241h119c180 0 269 100 269 271s-90 271 -269 271h-119v-222h173v-79z" />
    <glyph glyph-name="dcroat" unicode="&#x111;" horiz-adv-x="598" 
d="M297 662h137v65h86v-65h73v-68h-73v-594h-83v72c-25 -43 -79 -83 -165 -83c-114 0 -227 86 -227 263c0 178 114 263 230 263c80 0 135 -36 159 -74v153h-137v68zM283 437c-90 0 -150 -75 -150 -185s60 -185 150 -185c93 0 154 71 154 183v4c0 112 -61 183 -154 183z" />
    <glyph glyph-name="Emacron" unicode="&#x112;" horiz-adv-x="594" 
d="M534 622h-357v-220h338v-81h-338v-239h357v-82h-446v704h446v-82zM163 886h302v-74h-302v74z" />
    <glyph glyph-name="emacron" unicode="&#x113;" horiz-adv-x="547" 
d="M502 226h-367v-2c0 -90 62 -158 155 -158c70 0 110 38 119 64h87c-13 -59 -76 -141 -207 -141c-146 0 -244 101 -244 263c0 163 99 263 237 263c134 0 220 -95 220 -245v-44zM280 438c-84 0 -137 -57 -144 -139h279c-4 87 -54 139 -135 139zM135 694h294v-74h-294v74z
" />
    <glyph glyph-name="Edotaccent" unicode="&#x116;" horiz-adv-x="594" 
d="M534 622h-357v-220h338v-81h-338v-239h357v-82h-446v704h446v-82zM315 907c33 0 59 -25 59 -58s-26 -58 -59 -58s-59 25 -59 58s26 58 59 58z" />
    <glyph glyph-name="edotaccent" unicode="&#x117;" horiz-adv-x="547" 
d="M502 226h-367v-2c0 -90 62 -158 155 -158c70 0 110 38 119 64h87c-13 -59 -76 -141 -207 -141c-146 0 -244 101 -244 263c0 163 99 263 237 263c134 0 220 -95 220 -245v-44zM280 438c-84 0 -137 -57 -144 -139h279c-4 87 -54 139 -135 139zM283 715c33 0 59 -25 59 -58
s-26 -58 -59 -58s-59 25 -59 58s26 58 59 58z" />
    <glyph glyph-name="Eogonek" unicode="&#x118;" horiz-adv-x="594" 
d="M534 622h-357v-220h338v-81h-338v-239h357v-82c-44 -27 -85 -70 -85 -110c0 -31 20 -51 59 -51h34v-68h-51c-83 0 -123 44 -123 100c0 51 32 99 70 129h-350v704h446v-82z" />
    <glyph glyph-name="eogonek" unicode="&#x119;" horiz-adv-x="547" 
d="M502 226h-367v-2c0 -90 62 -158 155 -158c70 0 110 38 119 64h87c-8 -33 -31 -74 -73 -103c-46 -34 -122 -80 -122 -137c0 -31 20 -51 59 -51h34v-68h-51c-83 0 -123 44 -123 100c0 47 29 87 64 118c-144 3 -239 103 -239 263c0 163 99 263 237 263
c134 0 220 -95 220 -245v-44zM280 438c-84 0 -137 -57 -144 -139h279c-4 87 -54 139 -135 139z" />
    <glyph glyph-name="Ecaron" unicode="&#x11a;" horiz-adv-x="594" 
d="M534 622h-357v-220h338v-81h-338v-239h357v-82h-446v704h446v-82zM231 927l83 -91l83 91h91l-132 -154h-84l-132 154h91z" />
    <glyph glyph-name="ecaron" unicode="&#x11b;" horiz-adv-x="547" 
d="M502 226h-367v-2c0 -90 62 -158 155 -158c70 0 110 38 119 64h87c-13 -59 -76 -141 -207 -141c-146 0 -244 101 -244 263c0 163 99 263 237 263c134 0 220 -95 220 -245v-44zM280 438c-84 0 -137 -57 -144 -139h279c-4 87 -54 139 -135 139zM204 735l78 -91l79 91h91
l-128 -154h-84l-127 154h91z" />
    <glyph glyph-name="Gcircumflex" unicode="&#x11c;" horiz-adv-x="723" 
d="M362 362h304v-73c0 -171 -108 -300 -294 -300c-185 0 -320 147 -320 363c0 214 129 363 322 363c160 0 261 -101 286 -224h-92c-26 82 -85 141 -194 141c-141 0 -231 -112 -231 -280c0 -172 96 -281 231 -281c124 0 203 83 203 206v5h-215v80zM291 773h-91l132 154h84
l132 -154h-91l-83 91z" />
    <glyph glyph-name="gcircumflex" unicode="&#x11d;" horiz-adv-x="595" 
d="M437 504h83v-473c0 -147 -90 -239 -235 -239c-140 0 -209 79 -216 153h85c13 -36 45 -75 132 -75c95 0 148 62 148 161v46c-26 -40 -79 -78 -162 -78c-114 0 -227 86 -227 258c0 173 114 258 230 258c84 0 139 -38 162 -78v67zM283 77c93 0 154 72 154 178v4
c0 106 -61 178 -154 178c-90 0 -150 -75 -150 -180s60 -180 150 -180zM211 581h-91l127 154h84l128 -154h-91l-79 91z" />
    <glyph glyph-name="Gbreve" unicode="&#x11e;" horiz-adv-x="723" 
d="M362 362h304v-73c0 -171 -108 -300 -294 -300c-185 0 -320 147 -320 363c0 214 129 363 322 363c160 0 261 -101 286 -224h-92c-26 82 -85 141 -194 141c-141 0 -231 -112 -231 -280c0 -172 96 -281 231 -281c124 0 203 83 203 206v5h-215v80zM288 927
c0 -48 32 -88 86 -88s86 40 86 88h77c-2 -93 -69 -156 -163 -156s-161 63 -163 156h77z" />
    <glyph glyph-name="gbreve" unicode="&#x11f;" horiz-adv-x="595" 
d="M437 504h83v-473c0 -147 -90 -239 -235 -239c-140 0 -209 79 -216 153h85c13 -36 45 -75 132 -75c95 0 148 62 148 161v46c-26 -40 -79 -78 -162 -78c-114 0 -227 86 -227 258c0 173 114 258 230 258c84 0 139 -38 162 -78v67zM283 77c93 0 154 72 154 178v4
c0 106 -61 178 -154 178c-90 0 -150 -75 -150 -180s60 -180 150 -180zM207 735c0 -48 28 -88 82 -88s82 40 82 88h77c-2 -93 -65 -156 -159 -156s-157 63 -159 156h77z" />
    <glyph glyph-name="Gdotaccent" unicode="&#x120;" horiz-adv-x="723" 
d="M362 362h304v-73c0 -171 -108 -300 -294 -300c-185 0 -320 147 -320 363c0 214 129 363 322 363c160 0 261 -101 286 -224h-92c-26 82 -85 141 -194 141c-141 0 -231 -112 -231 -280c0 -172 96 -281 231 -281c124 0 203 83 203 206v5h-215v80zM375 907
c33 0 59 -25 59 -58s-26 -58 -59 -58s-59 25 -59 58s26 58 59 58z" />
    <glyph glyph-name="gdotaccent" unicode="&#x121;" horiz-adv-x="595" 
d="M437 504h83v-473c0 -147 -90 -239 -235 -239c-140 0 -209 79 -216 153h85c13 -36 45 -75 132 -75c95 0 148 62 148 161v46c-26 -40 -79 -78 -162 -78c-114 0 -227 86 -227 258c0 173 114 258 230 258c84 0 139 -38 162 -78v67zM283 77c93 0 154 72 154 178v4
c0 106 -61 178 -154 178c-90 0 -150 -75 -150 -180s60 -180 150 -180zM290 715c33 0 59 -25 59 -58s-26 -58 -59 -58s-59 25 -59 58s26 58 59 58z" />
    <glyph glyph-name="uni0122" unicode="&#x122;" horiz-adv-x="723" 
d="M362 362h304v-73c0 -171 -108 -300 -294 -300c-185 0 -320 147 -320 363c0 214 129 363 322 363c160 0 261 -101 286 -224h-92c-26 82 -85 141 -194 141c-141 0 -231 -112 -231 -280c0 -172 96 -281 231 -281c124 0 203 83 203 206v5h-215v80zM432 -113
c0 -14 -4 -29 -10 -45l-39 -104h-67l36 100c-20 5 -40 23 -40 52c0 33 25 56 58 56c34 0 62 -24 62 -59z" />
    <glyph glyph-name="uni0123" unicode="&#x123;" horiz-adv-x="595" 
d="M437 504h83v-473c0 -147 -90 -239 -235 -239c-140 0 -209 79 -216 153h85c13 -36 45 -75 132 -75c95 0 148 62 148 161v46c-26 -40 -79 -78 -162 -78c-114 0 -227 86 -227 258c0 173 114 258 230 258c84 0 139 -38 162 -78v67zM283 77c93 0 154 72 154 178v4
c0 106 -61 178 -154 178c-90 0 -150 -75 -150 -180s60 -180 150 -180zM229 640c0 14 4 29 10 45l39 104h67l-36 -100c20 -5 40 -23 40 -52c0 -33 -25 -56 -58 -56c-34 0 -62 24 -62 59z" />
    <glyph glyph-name="Hcircumflex" unicode="&#x124;" horiz-adv-x="730" 
d="M177 0h-89v704h89v-301h376v301h89v-704h-89v320h-376v-320zM282 773h-91l132 154h84l132 -154h-91l-83 91z" />
    <glyph glyph-name="hcircumflex" unicode="&#x125;" horiz-adv-x="569" 
d="M311 515c98 0 188 -59 188 -198v-317h-86v305c0 92 -50 132 -118 132c-65 0 -134 -39 -134 -140v-297h-86v727h86v-278c25 32 77 66 150 66zM46 793h-88l118 154h84l118 -154h-88l-72 90z" />
    <glyph glyph-name="Hbar" unicode="&#x126;" horiz-adv-x="756" 
d="M189 0h-88v523h-69v77h69v104h88v-104h378v104h88v-104h69v-77h-69v-523h-88v310h-378v-310zM189 523v-131h378v131h-378z" />
    <glyph glyph-name="hbar" unicode="&#x127;" horiz-adv-x="572" 
d="M5 662h73v65h86v-65h137v-68h-137v-145c25 32 77 66 150 66c98 0 188 -59 188 -198v-317h-86v305c0 92 -50 132 -118 132c-65 0 -134 -39 -134 -140v-297h-86v594h-73v68z" />
    <glyph glyph-name="Itilde" unicode="&#x128;" horiz-adv-x="265" 
d="M177 704v-704h-89v704h89zM230 911h65v-16c0 -71 -38 -113 -97 -113c-72 0 -91 64 -128 64c-18 0 -34 -14 -34 -42v-16h-65v16c0 71 38 113 97 113c72 0 91 -64 128 -64c18 0 34 14 34 42v16z" />
    <glyph glyph-name="itilde" unicode="&#x129;" horiz-adv-x="236" 
d="M161 504v-504h-86v504h86zM209 719h65v-16c0 -71 -37 -113 -95 -113c-71 0 -84 64 -120 64c-17 0 -32 -14 -32 -42v-16h-65v16c0 71 37 113 95 113c71 0 84 -64 120 -64c17 0 32 14 32 42v16z" />
    <glyph glyph-name="Imacron" unicode="&#x12a;" horiz-adv-x="265" 
d="M177 704v-704h-89v704h89zM-14 886h294v-74h-294v74z" />
    <glyph glyph-name="imacron" unicode="&#x12b;" horiz-adv-x="236" 
d="M161 504v-504h-86v504h86zM-9 694h254v-74h-254v74z" />
    <glyph glyph-name="Ibreve" unicode="&#x12c;" horiz-adv-x="265" 
d="M177 704v-704h-89v704h89zM51 927c0 -48 28 -88 82 -88s82 40 82 88h77c-2 -93 -65 -156 -159 -156s-157 63 -159 156h77z" />
    <glyph glyph-name="ibreve" unicode="&#x12d;" horiz-adv-x="236" 
d="M161 504v-504h-86v504h86zM41 735c0 -48 24 -88 77 -88s77 40 77 88h77c-2 -93 -61 -156 -154 -156s-152 63 -154 156h77z" />
    <glyph glyph-name="Iogonek" unicode="&#x12e;" horiz-adv-x="265" 
d="M177 704v-704c-44 -27 -85 -70 -85 -110c0 -31 20 -51 59 -51h34v-68h-51c-83 0 -123 44 -123 100c0 54 35 104 77 134v699h89z" />
    <glyph glyph-name="iogonek" unicode="&#x12f;" horiz-adv-x="236" 
d="M161 504v-504c-44 -27 -85 -70 -85 -110c0 -31 20 -51 59 -51h34v-68h-51c-83 0 -123 44 -123 100c0 55 37 107 80 136v497h86zM118 715c33 0 59 -25 59 -58s-26 -58 -59 -58s-59 25 -59 58s26 58 59 58z" />
    <glyph glyph-name="Idotaccent" unicode="&#x130;" horiz-adv-x="265" 
d="M177 704v-704h-89v704h89zM133 907c33 0 59 -25 59 -58s-26 -58 -59 -58s-59 25 -59 58s26 58 59 58z" />
    <glyph glyph-name="Jcircumflex" unicode="&#x134;" horiz-adv-x="540" 
d="M32 181h88c4 -42 35 -109 120 -109c88 0 126 66 126 155v477h89v-477c0 -150 -79 -238 -216 -238s-206 101 -207 192zM333 773h-91l127 154h84l128 -154h-91l-79 91z" />
    <glyph glyph-name="jcircumflex" unicode="&#x135;" horiz-adv-x="236" 
d="M-15 -191v77h22c34 0 68 15 68 88v530h86v-534c0 -112 -52 -161 -140 -161h-36zM46 581h-88l118 154h84l118 -154h-88l-72 90z" />
    <glyph glyph-name="uni0136" unicode="&#x136;" horiz-adv-x="626" 
d="M177 0h-89v704h89v-314l313 314h115l-334 -337l340 -367h-118l-316 336v-336zM392 -113c0 -14 -4 -29 -10 -45l-39 -104h-67l36 100c-20 5 -40 23 -40 52c0 33 25 56 58 56c34 0 62 -24 62 -59z" />
    <glyph glyph-name="uni0137" unicode="&#x137;" horiz-adv-x="506" 
d="M161 0h-86v727h86v-439l218 216h109l-237 -235l240 -269h-111l-219 243v-243zM327 -113c0 -14 -4 -29 -10 -45l-39 -104h-67l36 100c-20 5 -40 23 -40 52c0 33 25 56 58 56c34 0 62 -24 62 -59z" />
    <glyph glyph-name="Lacute" unicode="&#x139;" horiz-adv-x="572" 
d="M177 704v-622h357v-82h-446v704h89zM280 927l-101 -154h-87l95 154h93z" />
    <glyph glyph-name="lacute" unicode="&#x13a;" horiz-adv-x="236" 
d="M161 727v-727h-86v727h86zM265 947l-101 -154h-87l95 154h93z" />
    <glyph glyph-name="uni013B" unicode="&#x13b;" horiz-adv-x="572" 
d="M177 704v-622h357v-82h-446v704h89zM372 -113c0 -14 -4 -29 -10 -45l-39 -104h-67l36 100c-20 5 -40 23 -40 52c0 33 25 56 58 56c34 0 62 -24 62 -59z" />
    <glyph glyph-name="uni013C" unicode="&#x13c;" horiz-adv-x="236" 
d="M161 727v-727h-86v727h86zM178 -113c0 -14 -4 -29 -10 -45l-39 -104h-67l36 100c-20 5 -40 23 -40 52c0 33 25 56 58 56c34 0 62 -24 62 -59z" />
    <glyph glyph-name="Lcaron" unicode="&#x13d;" horiz-adv-x="572" 
d="M177 704v-622h357v-82h-446v704h89zM385 652c0 -14 -4 -29 -10 -45l-46 -124h-67l43 120c-20 5 -40 23 -40 52c0 33 25 56 58 56c34 0 62 -24 62 -59z" />
    <glyph glyph-name="lcaron" unicode="&#x13e;" horiz-adv-x="332" 
d="M161 727v-727h-86v727h86zM340 675c0 -14 -4 -29 -10 -45l-46 -124h-67l43 120c-20 5 -40 23 -40 52c0 33 25 56 58 56c34 0 62 -24 62 -59z" />
    <glyph glyph-name="Nacute" unicode="&#x143;" horiz-adv-x="733" 
d="M184 704l374 -558v558h87v-704h-87l-383 570v-570h-87v704h96zM517 927l-101 -154h-87l95 154h93z" />
    <glyph glyph-name="nacute" unicode="&#x144;" horiz-adv-x="569" 
d="M75 504h83v-59c24 34 77 70 153 70c98 0 188 -59 188 -198v-317h-86v305c0 92 -50 132 -118 132c-65 0 -134 -39 -134 -140v-297h-86v504zM439 735l-101 -154h-87l95 154h93z" />
    <glyph glyph-name="uni0145" unicode="&#x145;" horiz-adv-x="733" 
d="M184 704l374 -558v558h87v-704h-87l-383 570v-570h-87v704h96zM422 -105c0 -14 -4 -29 -10 -45l-39 -104h-67l36 100c-20 5 -40 23 -40 52c0 33 25 56 58 56c34 0 62 -24 62 -59z" />
    <glyph glyph-name="uni0146" unicode="&#x146;" horiz-adv-x="569" 
d="M75 504h83v-59c24 34 77 70 153 70c98 0 188 -59 188 -198v-317h-86v305c0 92 -50 132 -118 132c-65 0 -134 -39 -134 -140v-297h-86v504zM347 -113c0 -14 -4 -29 -10 -45l-39 -104h-67l36 100c-20 5 -40 23 -40 52c0 33 25 56 58 56c34 0 62 -24 62 -59z" />
    <glyph glyph-name="Ncaron" unicode="&#x147;" horiz-adv-x="733" 
d="M184 704l374 -558v558h87v-704h-87l-383 570v-570h-87v704h96zM287 927l83 -91l83 91h91l-132 -154h-84l-132 154h91z" />
    <glyph glyph-name="ncaron" unicode="&#x148;" horiz-adv-x="569" 
d="M75 504h83v-59c24 34 77 70 153 70c98 0 188 -59 188 -198v-317h-86v305c0 92 -50 132 -118 132c-65 0 -134 -39 -134 -140v-297h-86v504zM214 735l78 -91l79 91h91l-128 -154h-84l-127 154h91z" />
    <glyph glyph-name="Eng" unicode="&#x14a;" horiz-adv-x="733" 
d="M558 704h87v-733c0 -112 -60 -162 -148 -162h-36v80h23c34 0 74 14 74 86v25l-383 570v-570h-87v704h96l374 -558v558z" />
    <glyph glyph-name="eng" unicode="&#x14b;" horiz-adv-x="569" 
d="M311 515c98 0 188 -59 188 -198v-347c0 -112 -52 -161 -140 -161h-36v77h22c34 0 68 15 68 88v331c0 92 -50 132 -118 132c-65 0 -134 -39 -134 -140v-297h-86v504h83v-59c24 34 77 70 153 70z" />
    <glyph glyph-name="Omacron" unicode="&#x14c;" horiz-adv-x="752" 
d="M376 715c197 0 324 -154 324 -363s-127 -363 -324 -363s-324 154 -324 363s127 363 324 363zM376 72c144 0 233 116 233 280s-89 280 -233 280s-233 -116 -233 -280s89 -280 233 -280zM225 886h302v-74h-302v74z" />
    <glyph glyph-name="omacron" unicode="&#x14d;" horiz-adv-x="574" 
d="M287 515c147 0 242 -110 242 -263s-95 -263 -242 -263s-242 110 -242 263s95 263 242 263zM287 67c95 0 154 75 154 185s-59 185 -154 185s-154 -75 -154 -185s59 -185 154 -185zM140 694h294v-74h-294v74z" />
    <glyph glyph-name="Obreve" unicode="&#x14e;" horiz-adv-x="752" 
d="M376 715c197 0 324 -154 324 -363s-127 -363 -324 -363s-324 154 -324 363s127 363 324 363zM376 72c144 0 233 116 233 280s-89 280 -233 280s-233 -116 -233 -280s89 -280 233 -280zM290 927c0 -48 32 -88 86 -88s86 40 86 88h77c-2 -93 -69 -156 -163 -156
s-161 63 -163 156h77z" />
    <glyph glyph-name="obreve" unicode="&#x14f;" horiz-adv-x="574" 
d="M287 515c147 0 242 -110 242 -263s-95 -263 -242 -263s-242 110 -242 263s95 263 242 263zM287 67c95 0 154 75 154 185s-59 185 -154 185s-154 -75 -154 -185s59 -185 154 -185zM205 735c0 -48 28 -88 82 -88s82 40 82 88h77c-2 -93 -65 -156 -159 -156
s-157 63 -159 156h77z" />
    <glyph glyph-name="Ohungarumlaut" unicode="&#x150;" horiz-adv-x="752" 
d="M376 715c197 0 324 -154 324 -363s-127 -363 -324 -363s-324 154 -324 363s127 363 324 363zM376 72c144 0 233 116 233 280s-89 280 -233 280s-233 -116 -233 -280s89 -280 233 -280zM428 927l-95 -154h-84l89 154h90zM598 927l-95 -154h-84l89 154h90z" />
    <glyph glyph-name="ohungarumlaut" unicode="&#x151;" horiz-adv-x="574" 
d="M287 515c147 0 242 -110 242 -263s-95 -263 -242 -263s-242 110 -242 263s95 263 242 263zM287 67c95 0 154 75 154 185s-59 185 -154 185s-154 -75 -154 -185s59 -185 154 -185zM341 735l-95 -154h-84l89 154h90zM507 735l-95 -154h-84l89 154h90z" />
    <glyph glyph-name="Racute" unicode="&#x154;" horiz-adv-x="634" 
d="M572 485c0 -89 -55 -176 -151 -208l187 -277h-105l-178 264h-148v-264h-89v704h252c155 0 232 -105 232 -219zM329 623h-152v-278h152c105 0 152 66 152 140c0 76 -46 138 -152 138zM462 927l-101 -154h-87l95 154h93z" />
    <glyph glyph-name="racute" unicode="&#x155;" horiz-adv-x="371" 
d="M317 506h26v-81h-26c-88 0 -156 -48 -156 -148v-277h-86v504h83v-77c35 55 91 79 159 79zM356 735l-101 -154h-87l95 154h93z" />
    <glyph glyph-name="uni0156" unicode="&#x156;" horiz-adv-x="634" 
d="M572 485c0 -89 -55 -176 -151 -208l187 -277h-105l-178 264h-148v-264h-89v704h252c155 0 232 -105 232 -219zM329 623h-152v-278h152c105 0 152 66 152 140c0 76 -46 138 -152 138zM398 -113c0 -14 -4 -29 -10 -45l-39 -104h-67l36 100c-20 5 -40 23 -40 52
c0 33 25 56 58 56c34 0 62 -24 62 -59z" />
    <glyph glyph-name="uni0157" unicode="&#x157;" horiz-adv-x="371" 
d="M317 506h26v-81h-26c-88 0 -156 -48 -156 -148v-277h-86v504h83v-77c35 55 91 79 159 79zM178 -113c0 -14 -4 -29 -10 -45l-39 -104h-67l36 100c-20 5 -40 23 -40 52c0 33 25 56 58 56c34 0 62 -24 62 -59z" />
    <glyph glyph-name="Rcaron" unicode="&#x158;" horiz-adv-x="634" 
d="M572 485c0 -89 -55 -176 -151 -208l187 -277h-105l-178 264h-148v-264h-89v704h252c155 0 232 -105 232 -219zM329 623h-152v-278h152c105 0 152 66 152 140c0 76 -46 138 -152 138zM232 927l83 -91l83 91h91l-132 -154h-84l-132 154h91z" />
    <glyph glyph-name="rcaron" unicode="&#x159;" horiz-adv-x="371" 
d="M317 506h26v-81h-26c-88 0 -156 -48 -156 -148v-277h-86v504h83v-77c35 55 91 79 159 79zM131 735l78 -91l79 91h91l-128 -154h-84l-127 154h91z" />
    <glyph glyph-name="Sacute" unicode="&#x15a;" horiz-adv-x="616" 
d="M49 183h91c22 -65 79 -112 180 -112c92 0 156 46 156 125c0 62 -39 96 -112 108l-130 21c-112 18 -175 84 -175 180c0 130 111 210 242 210c127 0 232 -62 255 -188h-91c-23 75 -83 106 -164 106c-79 0 -151 -43 -151 -121c0 -52 36 -88 103 -99l131 -22
c101 -17 183 -68 183 -189c0 -135 -106 -213 -249 -213c-137 0 -248 64 -269 194zM454 927l-101 -154h-87l95 154h93z" />
    <glyph glyph-name="sacute" unicode="&#x15b;" horiz-adv-x="496" 
d="M130 141c11 -47 57 -76 126 -76c67 0 110 26 110 76c0 38 -29 62 -77 68l-90 12c-81 11 -143 49 -143 137c0 89 80 157 189 157c105 0 181 -52 197 -144h-84c-16 46 -55 68 -113 68c-65 0 -103 -33 -103 -75c0 -36 24 -57 72 -63l91 -12c82 -11 147 -51 147 -143
c0 -102 -87 -157 -194 -157c-96 0 -200 39 -213 152h85zM396 735l-101 -154h-87l95 154h93z" />
    <glyph glyph-name="Scircumflex" unicode="&#x15c;" horiz-adv-x="616" 
d="M49 183h91c22 -65 79 -112 180 -112c92 0 156 46 156 125c0 62 -39 96 -112 108l-130 21c-112 18 -175 84 -175 180c0 130 111 210 242 210c127 0 232 -62 255 -188h-91c-23 75 -83 106 -164 106c-79 0 -151 -43 -151 -121c0 -52 36 -88 103 -99l131 -22
c101 -17 183 -68 183 -189c0 -135 -106 -213 -249 -213c-137 0 -248 64 -269 194zM224 773h-91l132 154h84l132 -154h-91l-83 91z" />
    <glyph glyph-name="scircumflex" unicode="&#x15d;" horiz-adv-x="496" 
d="M130 141c11 -47 57 -76 126 -76c67 0 110 26 110 76c0 38 -29 62 -77 68l-90 12c-81 11 -143 49 -143 137c0 89 80 157 189 157c105 0 181 -52 197 -144h-84c-16 46 -55 68 -113 68c-65 0 -103 -33 -103 -75c0 -36 24 -57 72 -63l91 -12c82 -11 147 -51 147 -143
c0 -102 -87 -157 -194 -157c-96 0 -200 39 -213 152h85zM171 581h-91l127 154h84l128 -154h-91l-79 91z" />
    <glyph glyph-name="Scedilla" unicode="&#x15e;" horiz-adv-x="616" 
d="M49 183h91c22 -65 79 -112 180 -112c92 0 156 46 156 125c0 62 -39 96 -112 108l-130 21c-112 18 -175 84 -175 180c0 130 111 210 242 210c127 0 232 -62 255 -188h-91c-23 75 -83 106 -164 106c-79 0 -151 -43 -151 -121c0 -52 36 -88 103 -99l131 -22
c101 -17 183 -68 183 -189c0 -126 -92 -202 -220 -211l-16 -45c37 -4 81 -30 81 -86s-40 -98 -123 -98h-55v62h53c30 0 48 14 48 38s-19 35 -46 35h-36v21l27 73c-119 10 -212 74 -231 192z" />
    <glyph glyph-name="scedilla" unicode="&#x15f;" horiz-adv-x="496" 
d="M130 141c11 -47 57 -76 126 -76c67 0 110 26 110 76c0 38 -29 62 -77 68l-90 12c-81 11 -143 49 -143 137c0 89 80 157 189 157c105 0 181 -52 197 -144h-84c-16 46 -55 68 -113 68c-65 0 -103 -33 -103 -75c0 -36 24 -57 72 -63l91 -12c82 -11 147 -51 147 -143
c0 -93 -72 -146 -165 -155l-16 -45c37 -4 81 -30 81 -86s-40 -98 -123 -98h-55v62h53c30 0 48 14 48 38s-19 35 -46 35h-36v21l27 73c-84 9 -164 51 -175 150h85z" />
    <glyph glyph-name="uni0162" unicode="&#x162;" horiz-adv-x="623" 
d="M35 622v82h553v-82h-232v-622h-11l-20 -54c37 -4 81 -30 81 -86s-40 -98 -123 -98h-55v62h53c30 0 48 14 48 38s-19 35 -46 35h-36v21l31 82h-11v622h-232z" />
    <glyph glyph-name="uni0163" unicode="&#x163;" horiz-adv-x="336" 
d="M187 157c0 -66 35 -80 77 -80h34v-77h-48h-10l-20 -54c37 -4 81 -30 81 -86s-40 -98 -123 -98h-55v62h53c30 0 48 14 48 38s-19 35 -46 35h-36v21l35 94c-50 20 -76 66 -76 141v274h-84v77h84v134h86v-134h111v-77h-111v-270z" />
    <glyph glyph-name="Tcaron" unicode="&#x164;" horiz-adv-x="623" 
d="M35 622v82h553v-82h-232v-622h-89v622h-232zM229 927l83 -91l83 91h91l-132 -154h-84l-132 154h91z" />
    <glyph glyph-name="tcaron" unicode="&#x165;" horiz-adv-x="336" 
d="M187 157c0 -66 35 -80 77 -80h34v-77h-48c-98 0 -149 48 -149 153v274h-84v77h84v134h86v-134h111v-77h-111v-270zM362 724c0 -14 -4 -29 -10 -45l-39 -104h-67l36 100c-20 5 -40 23 -40 52c0 33 25 56 58 56c34 0 62 -24 62 -59z" />
    <glyph glyph-name="Tbar" unicode="&#x166;" horiz-adv-x="623" 
d="M529 289h-173v-289h-89v289h-173v80h173v253h-232v82h553v-82h-232v-253h173v-80z" />
    <glyph glyph-name="tbar" unicode="&#x167;" horiz-adv-x="336" 
d="M17 310h84v118h-84v76h84v134h85v-134h112v-76h-112v-118h112v-72h-112v-81c0 -66 35 -81 77 -81h35v-76h-48c-98 0 -149 48 -149 153v85h-84v72z" />
    <glyph glyph-name="Utilde" unicode="&#x168;" horiz-adv-x="720" 
d="M83 276v428h89v-425c0 -139 81 -207 188 -207s188 68 188 207v425h89v-428c0 -192 -120 -287 -277 -287s-277 95 -277 287zM460 911h65v-18c0 -69 -38 -111 -97 -111c-73 0 -97 64 -134 64c-19 0 -34 -15 -34 -43v-15h-65v18c0 69 38 111 97 111c73 0 97 -64 134 -64
c19 0 34 15 34 43v15z" />
    <glyph glyph-name="utilde" unicode="&#x169;" horiz-adv-x="569" 
d="M494 0h-83v59c-25 -34 -77 -70 -153 -70c-98 0 -188 59 -188 198v317h86v-305c0 -92 50 -132 118 -132c65 0 134 39 134 140v297h86v-504zM379 719h65v-16c0 -71 -38 -113 -97 -113c-72 0 -91 64 -128 64c-18 0 -34 -14 -34 -42v-16h-65v16c0 71 38 113 97 113
c72 0 91 -64 128 -64c18 0 34 14 34 42v16z" />
    <glyph glyph-name="Umacron" unicode="&#x16a;" horiz-adv-x="720" 
d="M83 276v428h89v-425c0 -139 81 -207 188 -207s188 68 188 207v425h89v-428c0 -192 -120 -287 -277 -287s-277 95 -277 287zM209 886h302v-74h-302v74z" />
    <glyph glyph-name="umacron" unicode="&#x16b;" horiz-adv-x="569" 
d="M494 0h-83v59c-25 -34 -77 -70 -153 -70c-98 0 -188 59 -188 198v317h86v-305c0 -92 50 -132 118 -132c65 0 134 39 134 140v297h86v-504zM135 694h294v-74h-294v74z" />
    <glyph glyph-name="Ubreve" unicode="&#x16c;" horiz-adv-x="720" 
d="M83 276v428h89v-425c0 -139 81 -207 188 -207s188 68 188 207v425h89v-428c0 -192 -120 -287 -277 -287s-277 95 -277 287zM274 927c0 -48 32 -88 86 -88s86 40 86 88h77c-2 -93 -69 -156 -163 -156s-161 63 -163 156h77z" />
    <glyph glyph-name="ubreve" unicode="&#x16d;" horiz-adv-x="569" 
d="M494 0h-83v59c-25 -34 -77 -70 -153 -70c-98 0 -188 59 -188 198v317h86v-305c0 -92 50 -132 118 -132c65 0 134 39 134 140v297h86v-504zM200 735c0 -48 28 -88 82 -88s82 40 82 88h77c-2 -93 -65 -156 -159 -156s-157 63 -159 156h77z" />
    <glyph glyph-name="Uring" unicode="&#x16e;" horiz-adv-x="720" 
d="M83 276v428h89v-425c0 -139 81 -207 188 -207s188 68 188 207v425h89v-428c0 -192 -120 -287 -277 -287s-277 95 -277 287zM466 859c0 -59 -45 -103 -106 -103s-106 44 -106 103s45 103 106 103s106 -44 106 -103zM314 859c0 -27 21 -46 46 -46s46 19 46 46
s-21 46 -46 46s-46 -19 -46 -46z" />
    <glyph glyph-name="uring" unicode="&#x16f;" horiz-adv-x="569" 
d="M494 0h-83v59c-25 -34 -77 -70 -153 -70c-98 0 -188 59 -188 198v317h86v-305c0 -92 50 -132 118 -132c65 0 134 39 134 140v297h86v-504zM388 667c0 -59 -45 -103 -106 -103s-106 44 -106 103s45 103 106 103s106 -44 106 -103zM236 667c0 -27 21 -46 46 -46
s46 19 46 46s-21 46 -46 46s-46 -19 -46 -46z" />
    <glyph glyph-name="Uhungarumlaut" unicode="&#x170;" horiz-adv-x="720" 
d="M83 276v428h89v-425c0 -139 81 -207 188 -207s188 68 188 207v425h89v-428c0 -192 -120 -287 -277 -287s-277 95 -277 287zM412 927l-95 -154h-84l89 154h90zM582 927l-95 -154h-84l89 154h90z" />
    <glyph glyph-name="uhungarumlaut" unicode="&#x171;" horiz-adv-x="569" 
d="M494 0h-83v59c-25 -34 -77 -70 -153 -70c-98 0 -188 59 -188 198v317h86v-305c0 -92 50 -132 118 -132c65 0 134 39 134 140v297h86v-504zM336 735l-95 -154h-84l89 154h90zM502 735l-95 -154h-84l89 154h90z" />
    <glyph glyph-name="Uogonek" unicode="&#x172;" horiz-adv-x="720" 
d="M83 276v428h89v-425c0 -139 81 -207 188 -207s188 68 188 207v425h89v-428c0 -118 -45 -199 -116 -244c-45 -36 -128 -83 -128 -142c0 -31 20 -51 59 -51h34v-68h-51c-83 0 -123 44 -123 100c0 47 29 87 64 118h-16c-157 0 -277 95 -277 287z" />
    <glyph glyph-name="uogonek" unicode="&#x173;" horiz-adv-x="569" 
d="M494 0c-44 -27 -85 -70 -85 -110c0 -31 20 -51 59 -51h34v-68h-51c-83 0 -123 44 -123 100c0 57 39 110 83 138v50c-25 -34 -77 -70 -153 -70c-98 0 -188 59 -188 198v317h86v-305c0 -92 50 -132 118 -132c65 0 134 39 134 140v297h86v-504z" />
    <glyph glyph-name="Wcircumflex" unicode="&#x174;" horiz-adv-x="980" 
d="M952 704l-218 -704h-84l-161 557l-161 -557h-82l-218 704h94l165 -548l160 548h86l159 -548l166 548h94zM406 773h-91l132 154h84l132 -154h-91l-83 91z" />
    <glyph glyph-name="wcircumflex" unicode="&#x175;" horiz-adv-x="773" 
d="M753 504l-165 -504h-83l-120 385l-118 -385h-82l-165 504h90l117 -371l116 371h87l116 -371l117 371h90zM308 581h-91l127 154h84l128 -154h-91l-79 91z" />
    <glyph glyph-name="Ycircumflex" unicode="&#x176;" horiz-adv-x="637" 
d="M363 0h-89v276l-259 428h101l202 -338l203 338h101l-259 -428v-276zM237 773h-91l132 154h84l132 -154h-91l-83 91z" />
    <glyph glyph-name="ycircumflex" unicode="&#x177;" horiz-adv-x="519" 
d="M411 504h93l-276 -695h-93l78 197l-198 498h93l152 -393zM181 581h-91l127 154h84l128 -154h-91l-79 91z" />
    <glyph glyph-name="Zacute" unicode="&#x179;" horiz-adv-x="618" 
d="M59 75l391 547h-391v82h500v-75l-392 -547h392v-82h-500v75zM457 927l-101 -154h-87l95 154h93z" />
    <glyph glyph-name="zacute" unicode="&#x17a;" horiz-adv-x="490" 
d="M50 0v67l280 360h-280v77h390v-68l-281 -359h281v-77h-390zM392 735l-101 -154h-87l95 154h93z" />
    <glyph glyph-name="Zdotaccent" unicode="&#x17b;" horiz-adv-x="618" 
d="M59 75l391 547h-391v82h500v-75l-392 -547h392v-82h-500v75zM311 907c33 0 59 -25 59 -58s-26 -58 -59 -58s-59 25 -59 58s26 58 59 58z" />
    <glyph glyph-name="zdotaccent" unicode="&#x17c;" horiz-adv-x="490" 
d="M50 0v67l280 360h-280v77h390v-68l-281 -359h281v-77h-390zM246 715c33 0 59 -25 59 -58s-26 -58 -59 -58s-59 25 -59 58s26 58 59 58z" />
    <glyph glyph-name="uni018F" unicode="&#x18f;" horiz-adv-x="713" 
d="M52 332v53h517c-4 151 -98 248 -224 248c-98 0 -156 -42 -192 -112h-92c35 111 135 194 284 194c193 0 316 -143 316 -363c0 -218 -118 -363 -304 -363c-188 0 -305 145 -305 343zM355 71c129 0 206 96 213 234h-427c5 -140 92 -234 214 -234z" />
    <glyph glyph-name="uni01CD" unicode="&#x1cd;" horiz-adv-x="664" 
d="M286 704h92l266 -704h-96l-69 186h-296l-67 -186h-96zM331 591l-118 -323h236zM251 927l83 -91l83 91h91l-132 -154h-84l-132 154h91z" />
    <glyph glyph-name="uni01CE" unicode="&#x1ce;" horiz-adv-x="531" 
d="M376 334c0 70 -49 105 -114 105c-66 0 -102 -30 -116 -67h-83c16 78 86 143 201 143c118 0 197 -68 197 -181v-334h-81v60c-38 -47 -98 -71 -162 -71c-98 0 -174 59 -174 155c0 97 75 156 198 156h134v34zM229 64c80 0 147 49 147 126v37h-129c-69 0 -116 -28 -116 -82
c0 -53 42 -81 98 -81zM188 735l78 -91l79 91h91l-128 -154h-84l-127 154h91z" />
    <glyph glyph-name="uni01D1" unicode="&#x1d1;" horiz-adv-x="752" 
d="M376 715c197 0 324 -154 324 -363s-127 -363 -324 -363s-324 154 -324 363s127 363 324 363zM376 72c144 0 233 116 233 280s-89 280 -233 280s-233 -116 -233 -280s89 -280 233 -280zM293 927l83 -91l83 91h91l-132 -154h-84l-132 154h91z" />
    <glyph glyph-name="uni01D2" unicode="&#x1d2;" horiz-adv-x="574" 
d="M287 515c147 0 242 -110 242 -263s-95 -263 -242 -263s-242 110 -242 263s95 263 242 263zM287 67c95 0 154 75 154 185s-59 185 -154 185s-154 -75 -154 -185s59 -185 154 -185zM209 735l78 -91l79 91h91l-128 -154h-84l-127 154h91z" />
    <glyph glyph-name="uni01D3" unicode="&#x1d3;" horiz-adv-x="720" 
d="M83 276v428h89v-425c0 -139 81 -207 188 -207s188 68 188 207v425h89v-428c0 -192 -120 -287 -277 -287s-277 95 -277 287zM277 927l83 -91l83 91h91l-132 -154h-84l-132 154h91z" />
    <glyph glyph-name="uni01D4" unicode="&#x1d4;" horiz-adv-x="569" 
d="M494 0h-83v59c-25 -34 -77 -70 -153 -70c-98 0 -188 59 -188 198v317h86v-305c0 -92 50 -132 118 -132c65 0 134 39 134 140v297h86v-504zM204 735l78 -91l79 91h91l-128 -154h-84l-127 154h91z" />
    <glyph glyph-name="uni0218" unicode="&#x218;" horiz-adv-x="616" 
d="M49 183h91c22 -65 79 -112 180 -112c92 0 156 46 156 125c0 62 -39 96 -112 108l-130 21c-112 18 -175 84 -175 180c0 130 111 210 242 210c127 0 232 -62 255 -188h-91c-23 75 -83 106 -164 106c-79 0 -151 -43 -151 -121c0 -52 36 -88 103 -99l131 -22
c101 -17 183 -68 183 -189c0 -135 -106 -213 -249 -213c-137 0 -248 64 -269 194zM378 -113c0 -14 -4 -29 -10 -45l-39 -104h-67l36 100c-20 5 -40 23 -40 52c0 33 25 56 58 56c34 0 62 -24 62 -59z" />
    <glyph glyph-name="uni0219" unicode="&#x219;" horiz-adv-x="496" 
d="M130 141c11 -47 57 -76 126 -76c67 0 110 26 110 76c0 38 -29 62 -77 68l-90 12c-81 11 -143 49 -143 137c0 89 80 157 189 157c105 0 181 -52 197 -144h-84c-16 46 -55 68 -113 68c-65 0 -103 -33 -103 -75c0 -36 24 -57 72 -63l91 -12c82 -11 147 -51 147 -143
c0 -102 -87 -157 -194 -157c-96 0 -200 39 -213 152h85zM318 -113c0 -14 -4 -29 -10 -45l-39 -104h-67l36 100c-20 5 -40 23 -40 52c0 33 25 56 58 56c34 0 62 -24 62 -59z" />
    <glyph glyph-name="uni021A" unicode="&#x21a;" horiz-adv-x="623" 
d="M35 622v82h553v-82h-232v-622h-89v622h-232zM372 -113c0 -14 -4 -29 -10 -45l-39 -104h-67l36 100c-20 5 -40 23 -40 52c0 33 25 56 58 56c34 0 62 -24 62 -59z" />
    <glyph glyph-name="uni021B" unicode="&#x21b;" horiz-adv-x="336" 
d="M187 157c0 -66 35 -80 77 -80h34v-77h-48c-98 0 -149 48 -149 153v274h-84v77h84v134h86v-134h111v-77h-111v-270zM260 -113c0 -14 -4 -29 -10 -45l-39 -104h-67l36 100c-20 5 -40 23 -40 52c0 33 25 56 58 56c34 0 62 -24 62 -59z" />
    <glyph glyph-name="uni0237" unicode="&#x237;" horiz-adv-x="236" 
d="M-15 -191v77h22c34 0 68 15 68 88v530h86v-534c0 -112 -52 -161 -140 -161h-36z" />
    <glyph glyph-name="uni0259" unicode="&#x259;" horiz-adv-x="547" 
d="M45 235v47h367c0 90 -57 156 -152 156c-70 0 -110 -37 -119 -63h-87c13 59 76 140 207 140c148 0 241 -101 241 -263c0 -163 -95 -263 -233 -263c-134 0 -224 95 -224 246zM271 66c85 0 134 58 140 143h-279c2 -90 57 -143 139 -143z" />
    <glyph glyph-name="gravecomb" unicode="&#x300;" horiz-adv-x="0" 
d="M-147 735h93l95 -154h-87z" />
    <glyph glyph-name="acutecomb" unicode="&#x301;" horiz-adv-x="0" 
d="M147 735l-101 -154h-87l95 154h93z" />
    <glyph glyph-name="uni0302" unicode="&#x302;" horiz-adv-x="0" 
d="M-78 581h-91l127 154h84l128 -154h-91l-79 91z" />
    <glyph glyph-name="tildecomb" unicode="&#x303;" horiz-adv-x="0" 
d="M97 719h65v-16c0 -71 -38 -113 -97 -113c-72 0 -91 64 -128 64c-18 0 -34 -14 -34 -42v-16h-65v16c0 71 38 113 97 113c72 0 91 -64 128 -64c18 0 34 14 34 42v16z" />
    <glyph glyph-name="uni0304" unicode="&#x304;" horiz-adv-x="0" 
d="M-147 694h294v-74h-294v74z" />
    <glyph glyph-name="uni0306" unicode="&#x306;" horiz-adv-x="0" 
d="M-82 735c0 -48 28 -88 82 -88s82 40 82 88h77c-2 -93 -65 -156 -159 -156s-157 63 -159 156h77z" />
    <glyph glyph-name="uni0307" unicode="&#x307;" horiz-adv-x="0" 
d="M0 715c33 0 59 -25 59 -58s-26 -58 -59 -58s-59 25 -59 58s26 58 59 58z" />
    <glyph glyph-name="uni0308" unicode="&#x308;" horiz-adv-x="0" 
d="M-103 715c33 0 59 -25 59 -58s-26 -58 -59 -58s-59 25 -59 58s26 58 59 58zM103 715c33 0 59 -25 59 -58s-26 -58 -59 -58s-59 25 -59 58s26 58 59 58z" />
    <glyph glyph-name="uni030A" unicode="&#x30a;" horiz-adv-x="0" 
d="M106 667c0 -59 -45 -103 -106 -103s-106 44 -106 103s45 103 106 103s106 -44 106 -103zM-46 667c0 -27 21 -46 46 -46s46 19 46 46s-21 46 -46 46s-46 -19 -46 -46z" />
    <glyph glyph-name="uni030B" unicode="&#x30b;" horiz-adv-x="0" 
d="M54 735l-95 -154h-84l89 154h90zM220 735l-95 -154h-84l89 154h90z" />
    <glyph glyph-name="uni030C" unicode="&#x30c;" horiz-adv-x="0" 
d="M-78 735l78 -91l79 91h91l-128 -154h-84l-127 154h91z" />
    <glyph glyph-name="uni0312" unicode="&#x312;" horiz-adv-x="0" 
d="M-60 640c0 14 4 29 10 45l39 104h67l-36 -100c20 -5 40 -23 40 -52c0 -33 -25 -56 -58 -56c-34 0 -62 24 -62 59z" />
    <glyph glyph-name="uni0326" unicode="&#x326;" horiz-adv-x="0" 
d="M60 -113c0 -14 -4 -29 -10 -45l-39 -104h-67l36 100c-20 5 -40 23 -40 52c0 33 25 56 58 56c34 0 62 -24 62 -59z" />
    <glyph glyph-name="uni0327" unicode="&#x327;" horiz-adv-x="0" 
d="M33 13v-13l-20 -54c37 -4 81 -30 81 -86s-40 -98 -123 -98h-55v62h53c30 0 48 14 48 38s-19 35 -46 35h-36v21l36 95h62z" />
    <glyph glyph-name="uni0328" unicode="&#x328;" horiz-adv-x="0" 
d="M0 0c-44 -27 -85 -70 -85 -110c0 -31 20 -51 59 -51h34v-68h-51c-83 0 -123 44 -123 100c0 66 54 127 106 151z" />
    <glyph glyph-name="uni037E" unicode="&#x37e;" horiz-adv-x="264" 
d="M194 46c0 -14 -3 -29 -9 -45l-60 -163h-71l56 157c-22 7 -42 25 -42 55c0 34 26 59 61 59c36 0 65 -26 65 -63zM131 489c34 0 62 -26 62 -61s-28 -61 -62 -61s-62 26 -62 61s28 61 62 61z" />
    <glyph glyph-name="tonos" unicode="&#x384;" horiz-adv-x="520" 
d="M354 735l-101 -154h-87l95 154h93z" />
    <glyph glyph-name="dieresistonos" unicode="&#x385;" horiz-adv-x="520" 
d="M127 708c30 0 55 -24 55 -54s-25 -54 -55 -54s-55 24 -55 54s25 54 55 54zM323 735l-50 -154h-73l44 154h79zM393 708c30 0 55 -24 55 -54s-25 -54 -55 -54s-55 24 -55 54s25 54 55 54z" />
    <glyph glyph-name="Alphatonos" unicode="&#x386;" horiz-adv-x="664" 
d="M286 704h92l266 -704h-96l-69 186h-296l-67 -186h-96zM331 591l-118 -323h236zM232 704l-101 -154h-87l95 154h93z" />
    <glyph glyph-name="anoteleia" unicode="&#x387;" horiz-adv-x="264" 
d="M132 313c34 0 62 -26 62 -61s-28 -61 -62 -61s-62 26 -62 61s28 61 62 61z" />
    <glyph glyph-name="Epsilontonos" unicode="&#x388;" horiz-adv-x="710" 
d="M650 622h-357v-220h338v-81h-338v-239h357v-82h-446v704h446v-82zM168 704l-101 -154h-87l95 154h93z" />
    <glyph glyph-name="Etatonos" unicode="&#x389;" horiz-adv-x="846" 
d="M293 0h-89v704h89v-301h376v301h89v-704h-89v320h-376v-320zM168 704l-101 -154h-87l95 154h93z" />
    <glyph glyph-name="Iotatonos" unicode="&#x38a;" horiz-adv-x="381" 
d="M293 704v-704h-89v704h89zM168 704l-101 -154h-87l95 154h93z" />
    <glyph glyph-name="Omicrontonos" unicode="&#x38c;" horiz-adv-x="802" 
d="M426 715c197 0 324 -154 324 -363s-127 -363 -324 -363s-324 154 -324 363s127 363 324 363zM426 72c144 0 233 116 233 280s-89 280 -233 280s-233 -116 -233 -280s89 -280 233 -280zM170 704l-101 -154h-87l95 154h93z" />
    <glyph glyph-name="Upsilontonos" unicode="&#x38e;" horiz-adv-x="808" 
d="M534 0h-89v276l-259 428h101l202 -338l203 338h101l-259 -428v-276zM168 704l-101 -154h-87l95 154h93z" />
    <glyph glyph-name="Omegatonos" unicode="&#x38f;" horiz-adv-x="813" 
d="M756 370c0 -127 -57 -226 -133 -289h133v-81h-254v81c82 50 163 147 163 287c0 154 -89 264 -233 264s-233 -110 -233 -264c0 -140 81 -237 163 -287v-81h-254v81h132c-75 63 -132 162 -132 289c0 198 128 345 324 345s324 -147 324 -345zM170 704l-101 -154h-87l95 154
h93z" />
    <glyph glyph-name="iotadieresistonos" unicode="&#x390;" horiz-adv-x="292" 
d="M161 157c0 -66 35 -80 77 -80h24v-77h-38c-98 0 -149 48 -149 153v351h86v-347zM1 708c30 0 55 -24 55 -54s-25 -54 -55 -54s-55 24 -55 54s25 54 55 54zM197 735l-50 -154h-73l44 154h79zM267 708c30 0 55 -24 55 -54s-25 -54 -55 -54s-55 24 -55 54s25 54 55 54z" />
    <glyph glyph-name="Alpha" unicode="&#x391;" horiz-adv-x="664" 
d="M286 704h92l266 -704h-96l-69 186h-296l-67 -186h-96zM331 591l-118 -323h236z" />
    <glyph glyph-name="Beta" unicode="&#x392;" horiz-adv-x="635" 
d="M88 0v704h261c136 0 211 -80 211 -182c0 -86 -48 -136 -92 -154c50 -14 119 -66 119 -169c0 -118 -89 -199 -232 -199h-267zM354 323h-178v-243h173c88 0 147 44 147 121c0 75 -55 122 -142 122zM338 624h-162v-222h168c85 0 126 48 126 111c0 69 -49 111 -132 111z" />
    <glyph glyph-name="Gamma" unicode="&#x393;" horiz-adv-x="562" 
d="M524 622h-347v-622h-89v704h436v-82z" />
    <glyph glyph-name="uni0394" unicode="&#x394;" horiz-adv-x="680" 
d="M386 704l275 -704h-642l275 704h92zM340 591l-195 -508h389z" />
    <glyph glyph-name="Epsilon" unicode="&#x395;" horiz-adv-x="594" 
d="M534 622h-357v-220h338v-81h-338v-239h357v-82h-446v704h446v-82z" />
    <glyph glyph-name="Zeta" unicode="&#x396;" horiz-adv-x="618" 
d="M59 75l391 547h-391v82h500v-75l-392 -547h392v-82h-500v75z" />
    <glyph glyph-name="Eta" unicode="&#x397;" horiz-adv-x="730" 
d="M177 0h-89v704h89v-301h376v301h89v-704h-89v320h-376v-320z" />
    <glyph glyph-name="Theta" unicode="&#x398;" horiz-adv-x="752" 
d="M376 715c197 0 324 -154 324 -363s-127 -363 -324 -363s-324 154 -324 363s127 363 324 363zM376 72c144 0 234 116 234 280s-90 280 -234 280s-234 -116 -234 -280s90 -280 234 -280zM529 321h-306v81h306v-81z" />
    <glyph glyph-name="Iota" unicode="&#x399;" horiz-adv-x="265" 
d="M177 704v-704h-89v704h89z" />
    <glyph glyph-name="Kappa" unicode="&#x39a;" horiz-adv-x="626" 
d="M177 0h-89v704h89v-314l313 314h115l-334 -337l340 -367h-118l-316 336v-336z" />
    <glyph glyph-name="Lambda" unicode="&#x39b;" horiz-adv-x="654" 
d="M23 0l258 704h92l258 -704h-96l-208 584l-208 -584h-96z" />
    <glyph glyph-name="Mu" unicode="&#x39c;" horiz-adv-x="893" 
d="M88 704h108l251 -589l251 589h107v-704h-87v541l-230 -541h-82l-231 541v-541h-87v704z" />
    <glyph glyph-name="Nu" unicode="&#x39d;" horiz-adv-x="733" 
d="M184 704l374 -558v558h87v-704h-87l-383 570v-570h-87v704h96z" />
    <glyph glyph-name="Xi" unicode="&#x39e;" horiz-adv-x="628" 
d="M60 84h508v-84h-508v84zM106 402h416v-82h-416v82zM60 704h508v-84h-508v84z" />
    <glyph glyph-name="Omicron" unicode="&#x39f;" horiz-adv-x="752" 
d="M376 715c197 0 324 -154 324 -363s-127 -363 -324 -363s-324 154 -324 363s127 363 324 363zM376 72c144 0 233 116 233 280s-89 280 -233 280s-233 -116 -233 -280s89 -280 233 -280z" />
    <glyph glyph-name="Pi" unicode="&#x3a0;" horiz-adv-x="727" 
d="M88 704h551v-704h-89v622h-373v-622h-89v704z" />
    <glyph glyph-name="Rho" unicode="&#x3a1;" horiz-adv-x="613" 
d="M333 704c150 0 234 -101 234 -224c0 -121 -87 -225 -232 -225h-158v-255h-89v704h245zM323 623h-146v-287h146c98 0 153 60 153 144c0 85 -54 143 -153 143z" />
    <glyph glyph-name="Sigma" unicode="&#x3a3;" horiz-adv-x="611" 
d="M551 704v-81h-380l221 -270l-223 -272h383v-81h-493v74l228 278l-227 278v74h491z" />
    <glyph glyph-name="Tau" unicode="&#x3a4;" horiz-adv-x="623" 
d="M35 622v82h553v-82h-232v-622h-89v622h-232z" />
    <glyph glyph-name="Upsilon" unicode="&#x3a5;" horiz-adv-x="637" 
d="M363 0h-89v276l-259 428h101l202 -338l203 338h101l-259 -428v-276z" />
    <glyph glyph-name="Phi" unicode="&#x3a6;" horiz-adv-x="825" 
d="M456 652c175 -3 322 -107 322 -296c0 -188 -147 -292 -322 -295v-72h-87v72c-175 3 -322 107 -322 295c0 189 147 293 322 296v72h87v-72zM369 142v429c-138 -3 -232 -83 -232 -215c0 -131 94 -211 232 -214zM456 142c138 3 232 83 232 214c0 132 -94 212 -232 215v-429z
" />
    <glyph glyph-name="Chi" unicode="&#x3a7;" horiz-adv-x="658" 
d="M524 0l-197 287l-194 -287h-105l244 355l-242 349h105l195 -284l194 284h104l-242 -351l244 -353h-106z" />
    <glyph glyph-name="Psi" unicode="&#x3a8;" horiz-adv-x="827" 
d="M167 451c0 -127 69 -198 202 -206v459h89v-459c133 8 202 79 202 206v253h89v-257c0 -183 -119 -277 -291 -285v-162h-89v162c-172 8 -291 102 -291 285v257h89v-253z" />
    <glyph glyph-name="uni03A9" unicode="&#x3a9;" horiz-adv-x="762" 
d="M705 370c0 -127 -57 -226 -133 -289h133v-81h-254v81c82 50 163 147 163 287c0 154 -89 264 -233 264s-233 -110 -233 -264c0 -140 81 -237 163 -287v-81h-254v81h132c-75 63 -132 162 -132 289c0 198 128 345 324 345s324 -147 324 -345z" />
    <glyph glyph-name="Iotadieresis" unicode="&#x3aa;" horiz-adv-x="265" 
d="M177 704v-704h-89v704h89zM30 907c33 0 59 -25 59 -58s-26 -58 -59 -58s-59 25 -59 58s26 58 59 58zM236 907c33 0 59 -25 59 -58s-26 -58 -59 -58s-59 25 -59 58s26 58 59 58z" />
    <glyph glyph-name="Upsilondieresis" unicode="&#x3ab;" horiz-adv-x="637" 
d="M363 0h-89v276l-259 428h101l202 -338l203 338h101l-259 -428v-276zM213 907c33 0 59 -25 59 -58s-26 -58 -59 -58s-59 25 -59 58s26 58 59 58zM427 907c33 0 59 -25 59 -58s-26 -58 -59 -58s-59 25 -59 58s26 58 59 58z" />
    <glyph glyph-name="alphatonos" unicode="&#x3ac;" horiz-adv-x="595" 
d="M272 -11c-114 0 -227 86 -227 263c0 178 114 263 230 263c84 0 139 -39 162 -78v67h83v-504h-83v72c-25 -43 -79 -83 -165 -83zM283 437c-90 0 -150 -75 -150 -185s60 -185 150 -185c93 0 154 71 154 183v4c0 112 -61 183 -154 183zM436 735l-101 -154h-87l95 154h93z
" />
    <glyph glyph-name="epsilontonos" unicode="&#x3ad;" horiz-adv-x="505" 
d="M460 365h-84c-9 43 -46 74 -121 74c-70 0 -109 -30 -109 -75s40 -68 104 -68h81v-74h-80c-77 0 -115 -32 -115 -80c0 -51 47 -77 117 -77c69 0 124 22 132 81h85c-8 -111 -108 -157 -217 -157c-117 0 -203 54 -203 150c0 77 56 112 93 121c-35 11 -82 44 -82 107
c0 88 82 148 194 148c114 0 195 -53 205 -150zM405 735l-101 -154h-87l95 154h93z" />
    <glyph glyph-name="etatonos" unicode="&#x3ae;" horiz-adv-x="569" 
d="M75 504h83v-59c24 34 77 70 153 70c98 0 188 -59 188 -198v-508h-86v496c0 92 -50 132 -118 132c-65 0 -134 -39 -134 -140v-297h-86v504zM439 735l-101 -154h-87l95 154h93z" />
    <glyph glyph-name="iotatonos" unicode="&#x3af;" horiz-adv-x="292" 
d="M161 157c0 -66 35 -80 77 -80h24v-77h-38c-98 0 -149 48 -149 153v351h86v-347zM265 735l-101 -154h-87l95 154h93z" />
    <glyph glyph-name="upsilondieresistonos" unicode="&#x3b0;" horiz-adv-x="564" 
d="M408 504h86v-307c0 -139 -94 -208 -212 -208s-212 69 -212 208v307h86v-303c0 -92 56 -134 126 -134s126 42 126 134v303zM150 708c30 0 55 -24 55 -54s-25 -54 -55 -54s-55 24 -55 54s25 54 55 54zM346 735l-50 -154h-73l44 154h79zM416 708c30 0 55 -24 55 -54
s-25 -54 -55 -54s-55 24 -55 54s25 54 55 54z" />
    <glyph glyph-name="alpha" unicode="&#x3b1;" horiz-adv-x="595" 
d="M272 -11c-114 0 -227 86 -227 263c0 178 114 263 230 263c84 0 139 -39 162 -78v67h83v-504h-83v72c-25 -43 -79 -83 -165 -83zM283 437c-90 0 -150 -75 -150 -185s60 -185 150 -185c93 0 154 71 154 183v4c0 112 -61 183 -154 183z" />
    <glyph glyph-name="beta" unicode="&#x3b2;" horiz-adv-x="600" 
d="M421 395c52 -16 131 -70 131 -186c0 -125 -91 -220 -223 -220c-72 0 -132 28 -168 76v-256h-86v711c0 131 96 218 226 218c134 0 212 -90 212 -188c0 -87 -50 -136 -92 -155zM319 67c87 0 145 60 145 144c0 88 -61 138 -158 138h-32v77h28c83 0 123 54 123 120
c0 67 -49 114 -125 114c-80 0 -139 -54 -139 -142v-306c0 -82 72 -145 158 -145z" />
    <glyph glyph-name="gamma" unicode="&#x3b3;" horiz-adv-x="519" 
d="M504 504l-202 -506v-189h-86v191l-201 504h93l151 -394l152 394h93z" />
    <glyph glyph-name="delta" unicode="&#x3b4;" horiz-adv-x="580" 
d="M259 649c-45 0 -71 -24 -71 -56c0 -46 45 -64 87 -74c53 -12 92 -22 121 -36c74 -35 139 -101 139 -235c0 -147 -95 -259 -245 -259s-245 110 -245 257c0 124 64 197 150 225c-63 25 -95 70 -95 127c0 73 57 129 156 129h224v-78h-221zM290 67c95 0 157 76 157 181
c0 115 -69 179 -157 179s-157 -64 -157 -179c0 -105 62 -181 157 -181z" />
    <glyph glyph-name="epsilon" unicode="&#x3b5;" horiz-adv-x="505" 
d="M460 365h-84c-9 43 -46 74 -121 74c-70 0 -109 -30 -109 -75s40 -68 104 -68h81v-74h-80c-77 0 -115 -32 -115 -80c0 -51 47 -77 117 -77c69 0 124 22 132 81h85c-8 -111 -108 -157 -217 -157c-117 0 -203 54 -203 150c0 77 56 112 93 121c-35 11 -82 44 -82 107
c0 88 82 148 194 148c114 0 195 -53 205 -150z" />
    <glyph glyph-name="zeta" unicode="&#x3b6;" horiz-adv-x="465" 
d="M306 509c-117 -117 -173 -201 -173 -285s42 -127 128 -141l38 -6c106 -17 151 -48 151 -147v-55h-82v41c0 42 -8 70 -74 79l-37 5c-138 19 -212 98 -212 224c0 124 93 233 207 345l81 80h-261v78h378v-75z" />
    <glyph glyph-name="eta" unicode="&#x3b7;" horiz-adv-x="569" 
d="M75 504h83v-59c24 34 77 70 153 70c98 0 188 -59 188 -198v-508h-86v496c0 92 -50 132 -118 132c-65 0 -134 -39 -134 -140v-297h-86v504z" />
    <glyph glyph-name="theta" unicode="&#x3b8;" 
d="M307 738c175 0 247 -163 247 -374s-72 -375 -247 -375s-247 164 -247 375s72 374 247 374zM307 67c119 0 156 121 159 269h-318c4 -146 41 -269 159 -269zM307 660c-113 0 -151 -112 -158 -247h316c-7 124 -41 247 -158 247z" />
    <glyph glyph-name="iota" unicode="&#x3b9;" horiz-adv-x="292" 
d="M161 157c0 -66 35 -80 77 -80h24v-77h-38c-98 0 -149 48 -149 153v351h86v-347z" />
    <glyph glyph-name="kappa" unicode="&#x3ba;" horiz-adv-x="506" 
d="M161 0h-86v504h86v-216l218 216h109l-237 -235l240 -269h-111l-219 243v-243z" />
    <glyph glyph-name="lambda" unicode="&#x3bb;" horiz-adv-x="519" 
d="M102 727c101 0 134 -49 173 -148l229 -579h-93l-151 392l-152 -392h-93l199 498l-21 54c-25 64 -49 97 -100 97h-20v78h29z" />
    <glyph glyph-name="uni03BC" unicode="&#x3bc;" horiz-adv-x="578" 
d="M417 504h86v-504h-83v59c-25 -34 -79 -70 -155 -70c-36 0 -78 11 -104 30v-210h-86v695h86v-305c0 -92 52 -132 120 -132c65 0 136 39 136 140v297z" />
    <glyph glyph-name="nu" unicode="&#x3bd;" horiz-adv-x="513" 
d="M498 504l-197 -504h-89l-197 504h93l148 -396l149 396h93z" />
    <glyph glyph-name="xi" unicode="&#x3be;" horiz-adv-x="488" 
d="M65 727h393v-78h-144c-89 0 -139 -51 -139 -116s47 -107 132 -107h115v-78h-134c-97 0 -155 -57 -155 -135c0 -74 55 -118 141 -130l43 -6c106 -15 151 -49 151 -147v-55h-82v41c0 42 -8 70 -74 79l-45 6c-137 18 -222 96 -222 212c0 106 79 163 132 179
c-49 24 -90 68 -90 135c0 53 31 98 69 122h-91v78z" />
    <glyph glyph-name="omicron" unicode="&#x3bf;" horiz-adv-x="574" 
d="M287 515c147 0 242 -110 242 -263s-95 -263 -242 -263s-242 110 -242 263s95 263 242 263zM287 67c95 0 154 75 154 185s-59 185 -154 185s-154 -75 -154 -185s59 -185 154 -185z" />
    <glyph glyph-name="pi" unicode="&#x3c0;" horiz-adv-x="607" 
d="M194 0h-86v427h-80v77h551v-77h-80v-427h-86v427h-219v-427z" />
    <glyph glyph-name="rho" unicode="&#x3c1;" horiz-adv-x="584" 
d="M301 515c123 0 238 -86 238 -263c0 -176 -118 -263 -230 -263c-79 0 -134 35 -159 73v-253h-86v445c0 176 112 261 237 261zM301 67c90 0 150 75 150 185s-60 185 -150 185c-93 0 -154 -71 -154 -183v-4c0 -112 61 -183 154 -183z" />
    <glyph glyph-name="sigmafinal" unicode="&#x3c2;" horiz-adv-x="539" 
d="M322 77c105 -17 152 -48 152 -147v-55h-82v41c0 42 -8 70 -74 79l-35 5c-142 20 -238 99 -238 254c0 150 93 261 238 261c134 0 203 -93 216 -173h-86c-13 42 -50 95 -130 95c-92 0 -150 -75 -150 -183c0 -110 61 -156 152 -171z" />
    <glyph glyph-name="sigma" unicode="&#x3c3;" horiz-adv-x="600" 
d="M564 504v-77h-117c44 -38 81 -96 81 -181c0 -147 -95 -257 -242 -257s-241 112 -241 260c0 145 92 255 244 255h275zM441 249c0 105 -57 178 -152 178s-156 -73 -156 -178s58 -182 153 -182s155 77 155 182z" />
    <glyph glyph-name="tau" unicode="&#x3c4;" horiz-adv-x="489" 
d="M28 427v77h425v-77h-175v-270c0 -66 35 -80 77 -80h27v-77h-41c-98 0 -149 48 -149 153v274h-164z" />
    <glyph glyph-name="upsilon" unicode="&#x3c5;" horiz-adv-x="564" 
d="M408 504h86v-307c0 -139 -94 -208 -212 -208s-212 69 -212 208v307h86v-303c0 -92 56 -134 126 -134s126 42 126 134v303z" />
    <glyph glyph-name="phi" unicode="&#x3c6;" horiz-adv-x="716" 
d="M400 514c160 -5 271 -107 271 -262s-111 -257 -271 -262v-181h-84v181c-160 5 -271 107 -271 262s111 257 271 262v190h84v-190zM316 68v368c-105 -2 -184 -68 -184 -184s79 -182 184 -184zM584 252c0 116 -79 182 -184 184v-368c105 2 184 68 184 184z" />
    <glyph glyph-name="chi" unicode="&#x3c7;" horiz-adv-x="519" 
d="M408 -191l-150 278l-149 -278h-94l194 352l-192 343h96l148 -268l147 268h94l-192 -344l194 -351h-96z" />
    <glyph glyph-name="psi" unicode="&#x3c8;" horiz-adv-x="698" 
d="M545 504h86v-264c0 -149 -84 -237 -240 -249v-182h-84v182c-157 12 -240 100 -240 249v264h86v-260c0 -109 52 -165 154 -174v594h84v-594c102 9 154 65 154 174v260z" />
    <glyph glyph-name="omega" unicode="&#x3c9;" horiz-adv-x="759" 
d="M482 515c135 0 228 -112 228 -263c0 -154 -71 -263 -194 -263c-69 0 -113 38 -137 91c-23 -54 -68 -91 -136 -91c-123 0 -194 109 -194 263c0 151 93 263 228 263v-78c-82 0 -140 -76 -140 -185c0 -110 39 -185 109 -185c73 0 91 73 91 136v143h85v-143
c0 -63 18 -136 91 -136c70 0 109 75 109 185c0 109 -58 185 -140 185v78z" />
    <glyph glyph-name="iotadieresis" unicode="&#x3ca;" horiz-adv-x="292" 
d="M161 157c0 -66 35 -80 77 -80h24v-77h-38c-98 0 -149 48 -149 153v351h86v-347zM22 715c33 0 59 -25 59 -58s-26 -58 -59 -58s-59 25 -59 58s26 58 59 58zM216 715c33 0 59 -25 59 -58s-26 -58 -59 -58s-59 25 -59 58s26 58 59 58z" />
    <glyph glyph-name="upsilondieresis" unicode="&#x3cb;" horiz-adv-x="564" 
d="M408 504h86v-307c0 -139 -94 -208 -212 -208s-212 69 -212 208v307h86v-303c0 -92 56 -134 126 -134s126 42 126 134v303zM179 715c33 0 59 -25 59 -58s-26 -58 -59 -58s-59 25 -59 58s26 58 59 58zM385 715c33 0 59 -25 59 -58s-26 -58 -59 -58s-59 25 -59 58
s26 58 59 58z" />
    <glyph glyph-name="omicrontonos" unicode="&#x3cc;" horiz-adv-x="574" 
d="M287 515c147 0 242 -110 242 -263s-95 -263 -242 -263s-242 110 -242 263s95 263 242 263zM287 67c95 0 154 75 154 185s-59 185 -154 185s-154 -75 -154 -185s59 -185 154 -185zM434 735l-101 -154h-87l95 154h93z" />
    <glyph glyph-name="upsilontonos" unicode="&#x3cd;" horiz-adv-x="564" 
d="M408 504h86v-307c0 -139 -94 -208 -212 -208s-212 69 -212 208v307h86v-303c0 -92 56 -134 126 -134s126 42 126 134v303zM429 735l-101 -154h-87l95 154h93z" />
    <glyph glyph-name="omegatonos" unicode="&#x3ce;" horiz-adv-x="759" 
d="M482 515c135 0 228 -112 228 -263c0 -154 -71 -263 -194 -263c-69 0 -113 38 -137 91c-23 -54 -68 -91 -136 -91c-123 0 -194 109 -194 263c0 151 93 263 228 263v-78c-82 0 -140 -76 -140 -185c0 -110 39 -185 109 -185c73 0 91 73 91 136v143h85v-143
c0 -63 18 -136 91 -136c70 0 109 75 109 185c0 109 -58 185 -140 185v78zM526 735l-101 -154h-87l95 154h93z" />
    <glyph glyph-name="uni0400" unicode="&#x400;" horiz-adv-x="594" 
d="M534 622h-357v-220h338v-81h-338v-239h357v-82h-446v704h446v-82zM167 927h93l95 -154h-87z" />
    <glyph glyph-name="uni0401" unicode="&#x401;" horiz-adv-x="594" 
d="M534 622h-357v-220h338v-81h-338v-239h357v-82h-446v704h446v-82zM207 907c33 0 59 -25 59 -58s-26 -58 -59 -58s-59 25 -59 58s26 58 59 58zM421 907c33 0 59 -25 59 -58s-26 -58 -59 -58s-59 25 -59 58s26 58 59 58z" />
    <glyph glyph-name="uni0402" unicode="&#x402;" horiz-adv-x="814" 
d="M531 436c138 0 236 -86 236 -223c0 -127 -85 -214 -219 -214h-28v82h21c75 0 135 43 135 132c0 90 -64 140 -158 140c-64 0 -126 -25 -164 -57v-296h-89v622h-227v82h543v-82h-227v-238c35 26 94 52 177 52z" />
    <glyph glyph-name="uni0403" unicode="&#x403;" horiz-adv-x="562" 
d="M524 622h-347v-622h-89v704h436v-82zM466 927l-101 -154h-87l95 154h93z" />
    <glyph glyph-name="uni0404" unicode="&#x404;" horiz-adv-x="706" 
d="M569 210h90c-19 -93 -103 -221 -290 -221c-183 0 -317 139 -317 363c0 221 131 363 317 363c165 0 265 -104 288 -220h-89c-24 70 -85 137 -199 137c-122 0 -210 -88 -224 -232h306v-80h-307c9 -151 96 -248 224 -248c125 0 183 83 201 138z" />
    <glyph glyph-name="uni0405" unicode="&#x405;" horiz-adv-x="616" 
d="M49 183h91c22 -65 79 -112 180 -112c92 0 156 46 156 125c0 62 -39 96 -112 108l-130 21c-112 18 -175 84 -175 180c0 130 111 210 242 210c127 0 232 -62 255 -188h-91c-23 75 -83 106 -164 106c-79 0 -151 -43 -151 -121c0 -52 36 -88 103 -99l131 -22
c101 -17 183 -68 183 -189c0 -135 -106 -213 -249 -213c-137 0 -248 64 -269 194z" />
    <glyph glyph-name="uni0406" unicode="&#x406;" horiz-adv-x="265" 
d="M177 704v-704h-89v704h89z" />
    <glyph glyph-name="uni0407" unicode="&#x407;" horiz-adv-x="265" 
d="M177 704v-704h-89v704h89zM30 907c33 0 59 -25 59 -58s-26 -58 -59 -58s-59 25 -59 58s26 58 59 58zM236 907c33 0 59 -25 59 -58s-26 -58 -59 -58s-59 25 -59 58s26 58 59 58z" />
    <glyph glyph-name="uni0408" unicode="&#x408;" horiz-adv-x="540" 
d="M32 181h88c4 -42 35 -109 120 -109c88 0 126 66 126 155v477h89v-477c0 -150 -79 -238 -216 -238s-206 101 -207 192z" />
    <glyph glyph-name="uni0409" unicode="&#x409;" horiz-adv-x="1043" 
d="M763 445c149 0 234 -100 234 -222c0 -120 -88 -223 -232 -223h-247v622h-263l-26 -389c-9 -137 -49 -235 -193 -235h-26v83h15c83 0 110 46 118 158l32 465h432v-259h156zM753 364h-146v-283h146c97 0 153 59 153 142c0 84 -55 141 -153 141z" />
    <glyph glyph-name="uni040A" unicode="&#x40a;" horiz-adv-x="1072" 
d="M177 0h-89v704h89v-282h373v282h89v-279h155c144 0 232 -90 232 -212c0 -120 -91 -213 -230 -213h-246v341h-373v-341zM784 344h-145v-263h145c92 0 151 49 151 132c0 84 -58 131 -151 131z" />
    <glyph glyph-name="uni040B" unicode="&#x40b;" horiz-adv-x="827" 
d="M38 622v82h543v-82h-227v-238c35 26 93 52 174 52c135 0 231 -73 231 -251v-185h-89v185c0 121 -62 168 -155 168c-62 0 -123 -25 -161 -57v-296h-89v622h-227z" />
    <glyph glyph-name="uni040C" unicode="&#x40c;" horiz-adv-x="626" 
d="M177 0h-89v704h89v-314l313 314h115l-334 -337l340 -367h-118l-316 336v-336zM469 927l-101 -154h-87l95 154h93z" />
    <glyph glyph-name="uni040D" unicode="&#x40d;" horiz-adv-x="733" 
d="M645 704v-704h-88v562l-381 -562h-88v704h88v-562l381 562h88zM220 927h93l95 -154h-87z" />
    <glyph glyph-name="uni040E" unicode="&#x40e;" horiz-adv-x="647" 
d="M20 704h100l211 -413l199 413h97l-343 -704h-98l97 198zM241 927c0 -48 32 -88 86 -88s86 40 86 88h77c-2 -93 -69 -156 -163 -156s-161 63 -163 156h77z" />
    <glyph glyph-name="uni040F" unicode="&#x40f;" horiz-adv-x="727" 
d="M88 0v704h89v-621h373v621h89v-704h-232v-153h-87v153h-232z" />
    <glyph glyph-name="uni0410" unicode="&#x410;" horiz-adv-x="664" 
d="M286 704h92l266 -704h-96l-69 186h-296l-67 -186h-96zM331 591l-118 -323h236z" />
    <glyph glyph-name="uni0411" unicode="&#x411;" 
d="M518 622h-341v-196h164c141 0 226 -87 226 -212c0 -123 -87 -214 -224 -214h-255v704h430v-82zM330 345h-153v-264h153c90 0 146 51 146 133s-56 131 -146 131z" />
    <glyph glyph-name="uni0412" unicode="&#x412;" horiz-adv-x="635" 
d="M88 0v704h261c136 0 211 -80 211 -182c0 -86 -48 -136 -92 -154c50 -14 119 -66 119 -169c0 -118 -89 -199 -232 -199h-267zM354 323h-178v-243h173c88 0 147 44 147 121c0 75 -55 122 -142 122zM338 624h-162v-222h168c85 0 126 48 126 111c0 69 -49 111 -132 111z" />
    <glyph glyph-name="uni0413" unicode="&#x413;" horiz-adv-x="562" 
d="M524 622h-347v-622h-89v704h436v-82z" />
    <glyph glyph-name="uni0414" unicode="&#x414;" horiz-adv-x="733" 
d="M703 83v-217h-86v134h-521v-134h-86v217h54c53 37 74 113 84 260l24 361h445v-621h86zM234 343c-10 -151 -25 -218 -65 -260h359v539h-276z" />
    <glyph glyph-name="uni0415" unicode="&#x415;" horiz-adv-x="594" 
d="M534 622h-357v-220h338v-81h-338v-239h357v-82h-446v704h446v-82z" />
    <glyph glyph-name="uni0416" unicode="&#x416;" horiz-adv-x="933" 
d="M422 0v344l-294 -344h-111l311 366l-304 338h111l287 -317v317h89v-317l287 317h111l-304 -336l311 -368h-111l-294 344v-344h-89z" />
    <glyph glyph-name="uni0417" unicode="&#x417;" horiz-adv-x="600" 
d="M50 524c15 129 127 191 245 191c140 0 231 -81 231 -195c0 -80 -50 -134 -100 -152c45 -11 126 -60 126 -168c0 -120 -98 -211 -247 -211c-145 0 -247 73 -262 197h89c14 -64 71 -114 173 -114c96 0 156 50 156 129c0 84 -66 120 -156 120h-107v81h101
c93 0 136 50 136 115c0 71 -56 115 -140 115s-143 -39 -157 -108h-88z" />
    <glyph glyph-name="uni0418" unicode="&#x418;" horiz-adv-x="733" 
d="M645 704v-704h-88v562l-381 -562h-88v704h88v-562l381 562h88z" />
    <glyph glyph-name="uni0419" unicode="&#x419;" horiz-adv-x="733" 
d="M645 704v-704h-88v562l-381 -562h-88v704h88v-562l381 562h88zM281 927c0 -48 32 -88 86 -88s86 40 86 88h77c-2 -93 -69 -156 -163 -156s-161 63 -163 156h77z" />
    <glyph glyph-name="uni041A" unicode="&#x41a;" horiz-adv-x="626" 
d="M177 0h-89v704h89v-314l313 314h115l-334 -337l340 -367h-118l-316 336v-336z" />
    <glyph glyph-name="uni041B" unicode="&#x41b;" horiz-adv-x="695" 
d="M10 -2v83h15c83 0 110 46 118 158l32 465h432v-704h-89v622h-263l-26 -389c-9 -137 -49 -235 -193 -235h-26z" />
    <glyph glyph-name="uni041C" unicode="&#x41c;" horiz-adv-x="893" 
d="M88 704h108l251 -589l251 589h107v-704h-87v541l-230 -541h-82l-231 541v-541h-87v704z" />
    <glyph glyph-name="uni041D" unicode="&#x41d;" horiz-adv-x="730" 
d="M177 0h-89v704h89v-301h376v301h89v-704h-89v320h-376v-320z" />
    <glyph glyph-name="uni041E" unicode="&#x41e;" horiz-adv-x="752" 
d="M376 715c197 0 324 -154 324 -363s-127 -363 -324 -363s-324 154 -324 363s127 363 324 363zM376 72c144 0 233 116 233 280s-89 280 -233 280s-233 -116 -233 -280s89 -280 233 -280z" />
    <glyph glyph-name="uni041F" unicode="&#x41f;" horiz-adv-x="727" 
d="M88 704h551v-704h-89v622h-373v-622h-89v704z" />
    <glyph glyph-name="uni0420" unicode="&#x420;" horiz-adv-x="613" 
d="M333 704c150 0 234 -101 234 -224c0 -121 -87 -225 -232 -225h-158v-255h-89v704h245zM323 623h-146v-287h146c98 0 153 60 153 144c0 85 -54 143 -153 143z" />
    <glyph glyph-name="uni0421" unicode="&#x421;" horiz-adv-x="706" 
d="M569 220h90c-15 -101 -104 -231 -290 -231c-187 0 -317 150 -317 363c0 210 127 363 317 363c168 0 266 -104 288 -230h-90c-23 80 -81 147 -198 147c-138 0 -226 -116 -226 -280c0 -161 86 -280 225 -280c124 0 187 83 201 148z" />
    <glyph glyph-name="uni0422" unicode="&#x422;" horiz-adv-x="623" 
d="M35 622v82h553v-82h-232v-622h-89v622h-232z" />
    <glyph glyph-name="uni0423" unicode="&#x423;" horiz-adv-x="647" 
d="M20 704h100l211 -413l199 413h97l-343 -704h-98l97 198z" />
    <glyph glyph-name="uni0424" unicode="&#x424;" horiz-adv-x="825" 
d="M456 652c175 -3 322 -107 322 -296c0 -188 -147 -292 -322 -295v-72h-87v72c-175 3 -322 107 -322 295c0 189 147 293 322 296v72h87v-72zM369 142v429c-138 -3 -232 -83 -232 -215c0 -131 94 -211 232 -214zM456 142c138 3 232 83 232 214c0 132 -94 212 -232 215v-429z
" />
    <glyph glyph-name="uni0425" unicode="&#x425;" horiz-adv-x="658" 
d="M524 0l-197 287l-194 -287h-105l244 355l-242 349h105l195 -284l194 284h104l-242 -351l244 -353h-106z" />
    <glyph glyph-name="uni0426" unicode="&#x426;" horiz-adv-x="752" 
d="M722 83v-217h-86v134h-548v704h89v-621h370v621h89v-621h86z" />
    <glyph glyph-name="uni0427" unicode="&#x427;" horiz-adv-x="666" 
d="M489 704h89v-704h-89v301c-39 -24 -92 -39 -164 -39c-144 0 -265 83 -265 264v178h89v-177c0 -126 81 -182 185 -182c67 0 118 18 155 43v316z" />
    <glyph glyph-name="uni0428" unicode="&#x428;" horiz-adv-x="979" 
d="M534 704v-621h268v621h89v-704h-803v704h89v-621h268v621h89z" />
    <glyph glyph-name="uni0429" unicode="&#x429;" horiz-adv-x="1007" 
d="M977 83v-217h-86v134h-803v704h89v-621h268v621h89v-621h268v621h89v-621h86z" />
    <glyph glyph-name="uni042A" unicode="&#x42a;" horiz-adv-x="715" 
d="M435 445c149 0 234 -100 234 -222c0 -120 -88 -223 -232 -223h-247v622h-155v82h244v-259h156zM425 364h-146v-283h146c97 0 153 59 153 142c0 84 -55 141 -153 141z" />
    <glyph glyph-name="uni042B" unicode="&#x42b;" horiz-adv-x="826" 
d="M333 445c149 0 234 -100 234 -222c0 -120 -88 -223 -232 -223h-247v704h89v-259h156zM323 364h-146v-283h146c97 0 153 59 153 142c0 84 -55 141 -153 141zM738 704v-704h-89v704h89z" />
    <glyph glyph-name="uni042C" unicode="&#x42c;" horiz-adv-x="613" 
d="M333 445c149 0 234 -100 234 -222c0 -120 -88 -223 -232 -223h-247v704h89v-259h156zM323 364h-146v-283h146c97 0 153 59 153 142c0 84 -55 141 -153 141z" />
    <glyph glyph-name="uni042D" unicode="&#x42d;" horiz-adv-x="706" 
d="M255 320v80h306c-15 144 -101 232 -223 232c-114 0 -175 -67 -199 -137h-89c24 116 123 220 288 220c186 0 316 -142 316 -363c0 -224 -134 -363 -317 -363c-187 0 -271 128 -290 221h90c18 -55 76 -138 201 -138c127 0 214 97 224 248h-307z" />
    <glyph glyph-name="uni042E" unicode="&#x42e;" horiz-adv-x="978" 
d="M177 0h-89v704h89v-301h113c19 182 137 312 317 312c196 0 319 -154 319 -363s-123 -363 -319 -363c-186 0 -306 138 -318 331h-112v-320zM607 72c143 0 228 116 228 280s-85 280 -228 280s-228 -116 -228 -280s85 -280 228 -280z" />
    <glyph glyph-name="uni042F" unicode="&#x42f;" horiz-adv-x="636" 
d="M131 0h-105l185 274c-88 31 -144 110 -144 208c0 126 89 222 234 222h247v-704h-89v260h-154zM158 482c0 -81 54 -142 155 -142h146v283h-147c-101 0 -154 -61 -154 -141z" />
    <glyph glyph-name="uni0430" unicode="&#x430;" horiz-adv-x="531" 
d="M376 334c0 70 -49 105 -114 105c-66 0 -102 -30 -116 -67h-83c16 78 86 143 201 143c118 0 197 -68 197 -181v-334h-81v60c-38 -47 -98 -71 -162 -71c-98 0 -174 59 -174 155c0 97 75 156 198 156h134v34zM229 64c80 0 147 49 147 126v37h-129c-69 0 -116 -28 -116 -82
c0 -53 42 -81 98 -81z" />
    <glyph glyph-name="uni0431" unicode="&#x431;" horiz-adv-x="590" 
d="M314 504c130 0 231 -91 231 -256c0 -144 -92 -259 -239 -259c-154 0 -254 111 -254 306c0 252 71 363 241 398l202 41v-83l-184 -34c-114 -21 -161 -84 -172 -198c38 56 99 85 175 85zM302 67c95 0 155 76 155 181s-61 179 -154 179c-89 0 -160 -62 -160 -175
c0 -114 64 -185 159 -185z" />
    <glyph glyph-name="uni0432" unicode="&#x432;" horiz-adv-x="514" 
d="M75 0v504h214c107 0 158 -58 158 -130c0 -59 -33 -95 -66 -108c45 -12 88 -53 88 -123c0 -81 -60 -143 -168 -143h-226zM291 222h-131v-148h131c62 0 92 29 92 76c0 46 -30 72 -92 72zM281 430h-121v-135h121c53 0 81 27 81 69c0 43 -28 66 -81 66z" />
    <glyph glyph-name="uni0433" unicode="&#x433;" horiz-adv-x="444" 
d="M409 427h-248v-427h-86v504h334v-77z" />
    <glyph glyph-name="uni0434" unicode="&#x434;" horiz-adv-x="604" 
d="M574 78v-206h-83v128h-393v-128h-83v206h42c33 19 54 86 61 173l20 253h362v-426h74zM201 249c-6 -69 -12 -134 -45 -171h258v349h-199z" />
    <glyph glyph-name="uni0435" unicode="&#x435;" horiz-adv-x="547" 
d="M502 226h-367v-2c0 -90 62 -158 155 -158c70 0 110 38 119 64h87c-13 -59 -76 -141 -207 -141c-146 0 -244 101 -244 263c0 163 99 263 237 263c134 0 220 -95 220 -245v-44zM280 438c-84 0 -137 -57 -144 -139h279c-4 87 -54 139 -135 139z" />
    <glyph glyph-name="uni0436" unicode="&#x436;" horiz-adv-x="727" 
d="M405 504v-219l199 219h104l-215 -236l218 -268h-106l-200 246v-246h-84v246l-200 -246h-105l217 266l-215 238h104l199 -219v219h84z" />
    <glyph glyph-name="uni0437" unicode="&#x437;" horiz-adv-x="491" 
d="M50 369c11 96 100 146 198 146c100 0 177 -55 177 -144c0 -61 -37 -94 -72 -108c37 -9 93 -41 93 -118c0 -96 -86 -156 -199 -156c-106 0 -194 52 -207 155h85c12 -51 60 -79 124 -79c67 0 111 30 111 81c0 49 -38 74 -110 74h-79v74h74c61 0 95 27 95 74
c0 45 -37 71 -95 71c-64 0 -101 -31 -111 -70h-84z" />
    <glyph glyph-name="uni0438" unicode="&#x438;" horiz-adv-x="577" 
d="M502 504v-504h-85v371l-257 -371h-85v504h85v-372l257 372h85z" />
    <glyph glyph-name="uni0439" unicode="&#x439;" horiz-adv-x="577" 
d="M502 504v-504h-85v371l-257 -371h-85v504h85v-372l257 372h85zM207 735c0 -48 28 -88 82 -88s82 40 82 88h77c-2 -93 -65 -156 -159 -156s-157 63 -159 156h77z" />
    <glyph glyph-name="uni043A" unicode="&#x43a;" horiz-adv-x="506" 
d="M161 0h-86v504h86v-216l218 216h109l-237 -235l240 -269h-111l-219 243v-243z" />
    <glyph glyph-name="uni043B" unicode="&#x43b;" horiz-adv-x="566" 
d="M15 -2v78h14c63 0 81 32 88 119l26 309h348v-504h-86v427h-185l-20 -238c-11 -137 -58 -191 -161 -191h-24z" />
    <glyph glyph-name="uni043C" unicode="&#x43c;" horiz-adv-x="725" 
d="M75 504h105l183 -402l183 402h104v-504h-84v366l-167 -366h-72l-168 366v-366h-84v504z" />
    <glyph glyph-name="uni043D" unicode="&#x43d;" horiz-adv-x="571" 
d="M161 0h-86v504h86v-203h249v203h86v-504h-86v223h-249v-223z" />
    <glyph glyph-name="uni043E" unicode="&#x43e;" horiz-adv-x="574" 
d="M287 515c147 0 242 -110 242 -263s-95 -263 -242 -263s-242 110 -242 263s95 263 242 263zM287 67c95 0 154 75 154 185s-59 185 -154 185s-154 -75 -154 -185s59 -185 154 -185z" />
    <glyph glyph-name="uni043F" unicode="&#x43f;" horiz-adv-x="568" 
d="M75 504h418v-504h-86v427h-246v-427h-86v504z" />
    <glyph glyph-name="uni0440" unicode="&#x440;" horiz-adv-x="595" 
d="M323 515c114 0 227 -86 227 -263c0 -178 -114 -263 -230 -263c-81 0 -135 35 -159 73v-253h-86v695h83v-72c24 42 78 83 165 83zM312 67c90 0 150 75 150 185s-60 185 -150 185c-93 0 -154 -71 -154 -183v-4c0 -112 61 -183 154 -183z" />
    <glyph glyph-name="uni0441" unicode="&#x441;" horiz-adv-x="539" 
d="M284 67c84 0 118 53 129 96h86c-11 -90 -91 -174 -216 -174c-143 0 -238 109 -238 263c0 151 93 263 238 263c134 0 203 -92 216 -172h-86c-13 42 -50 94 -130 94c-92 0 -150 -76 -150 -185c0 -110 60 -185 151 -185z" />
    <glyph glyph-name="uni0442" unicode="&#x442;" horiz-adv-x="489" 
d="M32 427v77h425v-77h-170v-427h-86v427h-169z" />
    <glyph glyph-name="uni0443" unicode="&#x443;" horiz-adv-x="519" 
d="M411 504h93l-276 -695h-93l78 197l-198 498h93l152 -393z" />
    <glyph glyph-name="uni0444" unicode="&#x444;" horiz-adv-x="696" 
d="M390 514c150 -5 261 -107 261 -262s-111 -257 -261 -262v-181h-84v181c-150 5 -261 107 -261 262s111 257 261 262v190h84v-190zM306 68v368c-95 -2 -174 -68 -174 -184s79 -182 174 -184zM564 252c0 116 -79 182 -174 184v-368c95 2 174 68 174 184z" />
    <glyph glyph-name="uni0445" unicode="&#x445;" horiz-adv-x="517" 
d="M391 0l-135 191l-132 -191h-99l179 252l-177 252h101l133 -193l130 193h99l-177 -255l179 -249h-101z" />
    <glyph glyph-name="uni0446" unicode="&#x446;" horiz-adv-x="594" 
d="M564 78v-206h-83v128h-406v504h86v-426h243v426h86v-426h74z" />
    <glyph glyph-name="uni0447" unicode="&#x447;" horiz-adv-x="528" 
d="M367 504h86v-504h-86v204c-27 -15 -62 -25 -111 -25c-118 0 -201 66 -201 203v122h86v-120c0 -86 47 -127 125 -127c45 0 76 10 101 26v221z" />
    <glyph glyph-name="uni0448" unicode="&#x448;" horiz-adv-x="796" 
d="M441 504v-426h194v426h86v-504h-646v504h86v-426h194v426h86z" />
    <glyph glyph-name="uni0449" unicode="&#x449;" horiz-adv-x="825" 
d="M795 78v-206h-83v128h-637v504h86v-426h194v426h86v-426h194v426h86v-426h74z" />
    <glyph glyph-name="uni044A" unicode="&#x44a;" horiz-adv-x="586" 
d="M256 504v-163h113c107 0 177 -71 177 -169s-70 -172 -178 -172h-198v427h-138v77h224zM358 265h-102v-189h102c66 0 102 42 102 96s-36 93 -102 93z" />
    <glyph glyph-name="uni044B" unicode="&#x44b;" horiz-adv-x="685" 
d="M161 504v-163h113c107 0 177 -71 177 -169s-70 -172 -178 -172h-198v504h86zM610 504v-504h-86v504h86zM263 265h-102v-189h102c66 0 102 42 102 96s-36 93 -102 93z" />
    <glyph glyph-name="uni044C" unicode="&#x44c;" horiz-adv-x="491" 
d="M161 504v-163h113c107 0 177 -71 177 -169s-70 -172 -178 -172h-198v504h86zM263 265h-102v-189h102c66 0 102 42 102 96s-36 93 -102 93z" />
    <glyph glyph-name="uni044D" unicode="&#x44d;" horiz-adv-x="538" 
d="M182 297h221c-12 90 -67 141 -146 141c-83 0 -118 -48 -129 -85h-85c12 77 78 162 214 162c143 0 236 -105 236 -263c0 -157 -95 -263 -237 -263c-128 0 -206 78 -216 168h83c10 -39 43 -91 132 -91c84 0 142 60 150 157h-223v74z" />
    <glyph glyph-name="uni044E" unicode="&#x44e;" horiz-adv-x="775" 
d="M161 0h-86v504h86v-203h96c19 127 109 214 235 214c145 0 238 -110 238 -263s-93 -263 -238 -263c-132 0 -226 96 -237 234h-94v-223zM492 67c93 0 150 75 150 185s-57 185 -150 185s-150 -75 -150 -185s57 -185 150 -185z" />
    <glyph glyph-name="uni044F" unicode="&#x44f;" horiz-adv-x="506" 
d="M431 0h-86v171h-90l-130 -171h-100l138 181c-69 24 -110 85 -110 157c0 92 64 166 178 166h200v-504zM139 338c0 -54 38 -92 102 -92h104v183h-104c-64 0 -102 -38 -102 -91z" />
    <glyph glyph-name="uni0450" unicode="&#x450;" horiz-adv-x="547" 
d="M502 226h-367v-2c0 -90 62 -158 155 -158c70 0 110 38 119 64h87c-13 -59 -76 -141 -207 -141c-146 0 -244 101 -244 263c0 163 99 263 237 263c134 0 220 -95 220 -245v-44zM280 438c-84 0 -137 -57 -144 -139h279c-4 87 -54 139 -135 139zM135 735h93l95 -154h-87z" />
    <glyph glyph-name="uni0451" unicode="&#x451;" horiz-adv-x="547" 
d="M502 226h-367v-2c0 -90 62 -158 155 -158c70 0 110 38 119 64h87c-13 -59 -76 -141 -207 -141c-146 0 -244 101 -244 263c0 163 99 263 237 263c134 0 220 -95 220 -245v-44zM280 438c-84 0 -137 -57 -144 -139h279c-4 87 -54 139 -135 139zM179 715c33 0 59 -25 59 -58
s-26 -58 -59 -58s-59 25 -59 58s26 58 59 58zM385 715c33 0 59 -25 59 -58s-26 -58 -59 -58s-59 25 -59 58s26 58 59 58z" />
    <glyph glyph-name="uni0452" unicode="&#x452;" horiz-adv-x="572" 
d="M314 515c98 0 188 -59 188 -198v-347c0 -112 -52 -161 -140 -161h-36v77h22c34 0 68 15 68 88v331c0 92 -50 132 -118 132c-65 0 -134 -39 -134 -140v-297h-86v593h-73v69h73v65h86v-65h137v-69h-137v-144c25 32 77 66 150 66z" />
    <glyph glyph-name="uni0453" unicode="&#x453;" horiz-adv-x="444" 
d="M409 427h-248v-427h-86v504h334v-77zM398 735l-101 -154h-87l95 154h93z" />
    <glyph glyph-name="uni0454" unicode="&#x454;" horiz-adv-x="538" 
d="M356 297v-74h-223c8 -97 65 -157 150 -157c89 0 121 52 132 91h83c-10 -90 -88 -168 -216 -168c-142 0 -237 106 -237 263c0 158 94 263 237 263c136 0 205 -85 216 -162h-86c-12 37 -47 85 -130 85c-80 0 -135 -51 -148 -141h222z" />
    <glyph glyph-name="uni0455" unicode="&#x455;" horiz-adv-x="496" 
d="M130 141c11 -47 57 -76 126 -76c67 0 110 26 110 76c0 38 -29 62 -77 68l-90 12c-81 11 -143 49 -143 137c0 89 80 157 189 157c105 0 181 -52 197 -144h-84c-16 46 -55 68 -113 68c-65 0 -103 -33 -103 -75c0 -36 24 -57 72 -63l91 -12c82 -11 147 -51 147 -143
c0 -102 -87 -157 -194 -157c-96 0 -200 39 -213 152h85z" />
    <glyph glyph-name="uni0456" unicode="&#x456;" horiz-adv-x="236" 
d="M161 504v-504h-86v504h86zM118 715c33 0 59 -25 59 -58s-26 -58 -59 -58s-59 25 -59 58s26 58 59 58z" />
    <glyph glyph-name="uni0457" unicode="&#x457;" horiz-adv-x="236" 
d="M161 504v-504h-86v504h86zM44 711c29 0 54 -25 54 -54s-25 -54 -54 -54c-32 0 -55 25 -55 54s23 54 55 54zM192 711c32 0 55 -25 55 -54s-23 -54 -55 -54c-29 0 -54 25 -54 54s25 54 54 54z" />
    <glyph glyph-name="uni0458" unicode="&#x458;" horiz-adv-x="236" 
d="M-15 -191v77h22c34 0 68 15 68 88v530h86v-534c0 -112 -52 -161 -140 -161h-36zM118 715c33 0 59 -25 59 -58s-26 -58 -59 -58s-59 25 -59 58s26 58 59 58z" />
    <glyph glyph-name="uni0459" unicode="&#x459;" horiz-adv-x="821" 
d="M604 341c107 0 177 -71 177 -169s-70 -172 -178 -172h-198v427h-185l-20 -238c-11 -137 -58 -191 -161 -191h-24v78h14c63 0 81 32 88 119l26 309h348v-163h113zM593 265h-102v-189h102c66 0 102 42 102 96s-36 93 -102 93z" />
    <glyph glyph-name="uni045A" unicode="&#x45a;" horiz-adv-x="820" 
d="M161 0h-86v504h86v-188h246v188h86v-185h118c107 0 169 -70 169 -160s-64 -159 -170 -159h-203v240h-246v-240zM600 244h-107v-169h107c64 0 94 39 94 85s-30 84 -94 84z" />
    <glyph glyph-name="uni045B" unicode="&#x45b;" horiz-adv-x="572" 
d="M5 662h73v65h86v-65h137v-68h-137v-145c25 32 77 66 150 66c98 0 188 -59 188 -198v-317h-86v305c0 92 -50 132 -118 132c-65 0 -134 -39 -134 -140v-297h-86v594h-73v68z" />
    <glyph glyph-name="uni045C" unicode="&#x45c;" horiz-adv-x="506" 
d="M161 0h-86v504h86v-216l218 216h109l-237 -235l240 -269h-111l-219 243v-243zM412 735l-101 -154h-87l95 154h93z" />
    <glyph glyph-name="uni045D" unicode="&#x45d;" horiz-adv-x="577" 
d="M502 504v-504h-85v371l-257 -371h-85v504h85v-372l257 372h85zM142 735h93l95 -154h-87z" />
    <glyph glyph-name="uni045E" unicode="&#x45e;" horiz-adv-x="519" 
d="M411 504h93l-276 -695h-93l78 197l-198 498h93l152 -393zM177 735c0 -48 28 -88 82 -88s82 40 82 88h77c-2 -93 -65 -156 -159 -156s-157 63 -159 156h77z" />
    <glyph glyph-name="uni045F" unicode="&#x45f;" horiz-adv-x="569" 
d="M75 0v504h86v-426h247v426h86v-504h-168v-147h-83v147h-168z" />
    <glyph glyph-name="uni0462" unicode="&#x462;" horiz-adv-x="738" 
d="M35 528v79h178v108h88v-108h206v-79h-206v-104h164c141 0 226 -86 226 -211c0 -123 -87 -213 -224 -213h-254v528h-178zM454 344h-153v-264h153c90 0 146 51 146 133s-56 131 -146 131z" />
    <glyph glyph-name="uni0463" unicode="&#x463;" horiz-adv-x="604" 
d="M32 429v75h160v200h85v-200h180v-75h-180v-108h118c107 0 169 -71 169 -161s-64 -160 -170 -160h-202v429h-160zM384 246h-107v-171h107c64 0 94 40 94 86s-30 85 -94 85z" />
    <glyph glyph-name="uni0472" unicode="&#x472;" horiz-adv-x="752" 
d="M376 715c197 0 324 -154 324 -363s-127 -363 -324 -363s-324 154 -324 363s127 363 324 363zM376 72c137 0 225 105 233 257c-27 -20 -65 -34 -114 -34c-107 0 -156 54 -239 54c-49 0 -86 -14 -113 -29c11 -147 98 -248 233 -248zM376 632c-131 0 -217 -96 -232 -236
c27 20 64 34 114 34c106 0 156 -54 238 -54c48 0 83 12 111 27c-17 136 -103 229 -231 229z" />
    <glyph glyph-name="uni0473" unicode="&#x473;" horiz-adv-x="574" 
d="M287 515c147 0 242 -110 242 -263s-95 -263 -242 -263s-242 110 -242 263s95 263 242 263zM287 67c87 0 145 64 153 160c-18 -13 -43 -22 -74 -22c-71 0 -104 36 -159 36c-31 0 -55 -9 -73 -18c10 -94 66 -156 153 -156zM287 437c-83 0 -138 -57 -151 -144
c17 13 41 22 72 22c71 0 104 -36 159 -36c30 0 53 7 70 16c-13 86 -68 142 -150 142z" />
    <glyph glyph-name="uni0474" unicode="&#x474;" horiz-adv-x="730" 
d="M681 706h26v-82h-15c-82 0 -100 -46 -137 -146l-179 -478h-92l-264 704h96l214 -587l141 387c44 121 80 202 210 202z" />
    <glyph glyph-name="uni0475" unicode="&#x475;" horiz-adv-x="562" 
d="M521 506h26v-77h-18c-48 0 -73 -31 -98 -95l-130 -334h-89l-197 504h93l148 -396l95 253c37 99 71 145 170 145z" />
    <glyph glyph-name="uni0490" unicode="&#x490;" horiz-adv-x="562" 
d="M524 836v-214h-347v-622h-89v704h351v132h85z" />
    <glyph glyph-name="uni0491" unicode="&#x491;" horiz-adv-x="444" 
d="M409 630v-203h-248v-427h-86v504h252v126h82z" />
    <glyph glyph-name="uni0492" unicode="&#x492;" horiz-adv-x="579" 
d="M447 295h-253v-295h-89v295h-81v80h81v329h436v-82h-347v-247h253v-80z" />
    <glyph glyph-name="uni0493" unicode="&#x493;" horiz-adv-x="457" 
d="M15 278h73v226h334v-77h-248v-149h172v-71h-172v-207h-86v207h-73v71z" />
    <glyph glyph-name="uni0496" unicode="&#x496;" horiz-adv-x="964" 
d="M934 83v-217h-86v134h-43l-294 344v-344h-89v344l-294 -344h-111l311 366l-304 338h111l287 -317v317h89v-317l287 317h111l-304 -336l241 -285h88z" />
    <glyph glyph-name="uni0497" unicode="&#x497;" horiz-adv-x="748" 
d="M718 78v-206h-83v128h-30l-200 246v-246h-84v246l-200 -246h-105l217 266l-215 238h104l199 -219v219h84v-219l199 219h104l-215 -236l154 -190h71z" />
    <glyph glyph-name="uni0498" unicode="&#x498;" horiz-adv-x="600" 
d="M50 524c15 129 127 191 245 191c140 0 231 -81 231 -195c0 -80 -50 -134 -100 -152c45 -11 126 -60 126 -168s-80 -193 -204 -208v-152h-86v151c-122 13 -206 83 -219 195h89c14 -64 71 -114 173 -114c96 0 156 50 156 129c0 84 -66 120 -156 120h-107v81h101
c93 0 136 50 136 115c0 71 -56 115 -140 115s-143 -39 -157 -108h-88z" />
    <glyph glyph-name="uni0499" unicode="&#x499;" horiz-adv-x="491" 
d="M50 369c11 96 100 146 198 146c100 0 177 -55 177 -144c0 -61 -37 -94 -72 -108c37 -9 93 -41 93 -118c0 -84 -65 -140 -156 -153v-146h-83v146c-88 11 -156 62 -167 152h85c12 -51 60 -79 124 -79c67 0 111 30 111 81c0 49 -38 74 -110 74h-79v74h74c61 0 95 27 95 74
c0 45 -37 71 -95 71c-64 0 -101 -31 -111 -70h-84z" />
    <glyph glyph-name="uni049A" unicode="&#x49a;" horiz-adv-x="652" 
d="M622 83v-217h-86v134h-43l-316 336v-336h-89v704h89v-314l313 314h115l-334 -337l263 -284h88z" />
    <glyph glyph-name="uni049B" unicode="&#x49b;" horiz-adv-x="523" 
d="M493 78v-206h-83v128h-30l-219 243v-243h-86v504h86v-216l218 216h109l-237 -235l170 -191h72z" />
    <glyph glyph-name="uni049C" unicode="&#x49c;" horiz-adv-x="709" 
d="M177 0h-89v704h89v-302h86v172h78v-167l226 297h108l-260 -337l266 -367h-111l-229 318v-168h-78v171h-86v-321z" />
    <glyph glyph-name="uni049D" unicode="&#x49d;" horiz-adv-x="582" 
d="M160 0h-85v504h85v-204h69v124h71v-117l162 197h102l-197 -235l200 -269h-104l-163 222v-122h-71v124h-69v-224z" />
    <glyph glyph-name="uni04A0" unicode="&#x4a0;" horiz-adv-x="728" 
d="M279 704v-314l313 314h115l-334 -337l340 -367h-118l-316 336v-336h-89v622h-155v82h244z" />
    <glyph glyph-name="uni04A1" unicode="&#x4a1;" horiz-adv-x="601" 
d="M170 0v426h-138v78h224v-216l218 216h109l-237 -235l240 -269h-111l-219 243v-243h-86z" />
    <glyph glyph-name="uni04A2" unicode="&#x4a2;" horiz-adv-x="758" 
d="M728 83v-217h-86v134h-89v320h-376v-320h-89v704h89v-301h376v301h89v-621h86z" />
    <glyph glyph-name="uni04A3" unicode="&#x4a3;" horiz-adv-x="600" 
d="M570 78v-206h-83v128h-77v223h-249v-223h-86v504h86v-203h249v203h86v-426h74z" />
    <glyph glyph-name="uni04A4" unicode="&#x4a4;" horiz-adv-x="1027" 
d="M177 0h-89v704h89v-301h376v301h436v-82h-347v-622h-89v320h-376v-320z" />
    <glyph glyph-name="uni04A5" unicode="&#x4a5;" horiz-adv-x="779" 
d="M161 0h-86v504h86v-203h249v203h334v-77h-248v-427h-86v223h-249v-223z" />
    <glyph glyph-name="uni04AA" unicode="&#x4aa;" horiz-adv-x="706" 
d="M569 220h90c-14 -93 -91 -210 -247 -228v-152h-86v152c-164 21 -274 164 -274 360c0 210 127 363 317 363c168 0 266 -104 288 -230h-90c-23 80 -81 147 -198 147c-138 0 -226 -116 -226 -280c0 -161 86 -280 225 -280c124 0 187 83 201 148z" />
    <glyph glyph-name="uni04AB" unicode="&#x4ab;" horiz-adv-x="539" 
d="M284 67c84 0 118 53 129 96h86c-10 -79 -73 -154 -173 -170v-147h-83v146c-121 18 -198 121 -198 260c0 151 93 263 238 263c134 0 203 -92 216 -172h-86c-13 42 -50 94 -130 94c-92 0 -150 -76 -150 -185c0 -110 60 -185 151 -185z" />
    <glyph glyph-name="uni04AC" unicode="&#x4ac;" horiz-adv-x="623" 
d="M442 83v-217h-86v134h-89v622h-232v82h553v-82h-232v-539h86z" />
    <glyph glyph-name="uni04AD" unicode="&#x4ad;" horiz-adv-x="489" 
d="M361 78v-206h-83v128h-77v427h-169v77h425v-77h-170v-349h74z" />
    <glyph glyph-name="uni04AE" unicode="&#x4ae;" horiz-adv-x="637" 
d="M363 0h-89v276l-259 428h101l202 -338l203 338h101l-259 -428v-276z" />
    <glyph glyph-name="uni04AF" unicode="&#x4af;" horiz-adv-x="519" 
d="M504 504l-202 -506v-189h-86v191l-201 504h93l151 -394l152 394h93z" />
    <glyph glyph-name="uni04B0" unicode="&#x4b0;" horiz-adv-x="635" 
d="M547 266h-185v-266h-89v266h-185v78h145l-218 360h100l202 -341l203 341h100l-218 -360h145v-78z" />
    <glyph glyph-name="uni04B1" unicode="&#x4b1;" horiz-adv-x="519" 
d="M101 5h113l-199 499h93l151 -394l152 394h93l-199 -499h113v-71h-116v-125h-86v125h-115v71z" />
    <glyph glyph-name="uni04B2" unicode="&#x4b2;" horiz-adv-x="683" 
d="M653 83v-217h-86v134h-43l-197 287l-194 -287h-105l244 355l-242 349h105l195 -284l194 284h104l-242 -351l186 -270h81z" />
    <glyph glyph-name="uni04B3" unicode="&#x4b3;" horiz-adv-x="534" 
d="M504 78v-206h-83v128h-30l-135 191l-132 -191h-99l179 252l-177 252h101l133 -193l130 193h99l-177 -255l123 -171h68z" />
    <glyph glyph-name="uni04B4" unicode="&#x4b4;" horiz-adv-x="917" 
d="M35 622v82h523v-82h-222v-539h376v621h89v-621h86v-217h-86v134h-554v622h-212z" />
    <glyph glyph-name="uni04B5" unicode="&#x4b5;" horiz-adv-x="716" 
d="M32 427v77h404v-77h-159v-349h249v426h86v-426h74v-206h-83v128h-412v427h-159z" />
    <glyph glyph-name="uni04B6" unicode="&#x4b6;" horiz-adv-x="694" 
d="M664 83v-217h-86v134h-89v301c-39 -24 -92 -39 -164 -39c-144 0 -265 83 -265 264v178h89v-177c0 -126 81 -182 185 -182c67 0 118 18 155 43v316h89v-621h86z" />
    <glyph glyph-name="uni04B7" unicode="&#x4b7;" horiz-adv-x="557" 
d="M527 78v-206h-83v128h-77v204c-27 -15 -62 -25 -111 -25c-118 0 -201 66 -201 203v122h86v-120c0 -86 47 -127 125 -127c45 0 76 10 101 26v221h86v-426h74z" />
    <glyph glyph-name="uni04B8" unicode="&#x4b8;" horiz-adv-x="668" 
d="M359 103h-78v162c-124 16 -221 99 -221 261v178h89v-177c0 -104 54 -160 132 -177v177h78v-181c56 4 100 20 132 42v316h89v-704h-89v302c-33 -21 -76 -35 -132 -39v-160z" />
    <glyph glyph-name="uni04B9" unicode="&#x4b9;" horiz-adv-x="534" 
d="M297 66h-71v115c-103 11 -171 77 -171 201v122h86v-120c0 -70 30 -110 85 -123v129h71v-132c32 4 56 13 76 25v221h86v-504h-86v204c-20 -11 -45 -19 -76 -23v-115z" />
    <glyph glyph-name="uni04BA" unicode="&#x4ba;" horiz-adv-x="674" 
d="M177 0h-89v704h89v-281c39 25 91 40 164 40c144 0 265 -83 265 -264v-199h-89v198c0 126 -81 182 -185 182c-67 0 -119 -19 -155 -44v-336z" />
    <glyph glyph-name="uni04BB" unicode="&#x4bb;" horiz-adv-x="569" 
d="M311 515c98 0 188 -59 188 -198v-317h-86v305c0 92 -50 132 -118 132c-65 0 -134 -39 -134 -140v-297h-86v727h86v-278c25 32 77 66 150 66z" />
    <glyph glyph-name="uni04C0" unicode="&#x4c0;" horiz-adv-x="265" 
d="M177 704v-704h-89v704h89z" />
    <glyph glyph-name="uni04C1" unicode="&#x4c1;" horiz-adv-x="933" 
d="M422 0v344l-294 -344h-111l311 366l-304 338h111l287 -317v317h89v-317l287 317h111l-304 -336l311 -368h-111l-294 344v-344h-89zM381 927c0 -48 32 -88 86 -88s86 40 86 88h77c-2 -93 -69 -156 -163 -156s-161 63 -163 156h77z" />
    <glyph glyph-name="uni04C2" unicode="&#x4c2;" horiz-adv-x="727" 
d="M405 504v-219l199 219h104l-215 -236l218 -268h-106l-200 246v-246h-84v246l-200 -246h-105l217 266l-215 238h104l199 -219v219h84zM281 735c0 -48 28 -88 82 -88s82 40 82 88h77c-2 -93 -65 -156 -159 -156s-157 63 -159 156h77z" />
    <glyph glyph-name="uni04CF" unicode="&#x4cf;" horiz-adv-x="236" 
d="M161 727v-727h-86v727h86z" />
    <glyph glyph-name="uni04D0" unicode="&#x4d0;" horiz-adv-x="664" 
d="M286 704h92l266 -704h-96l-69 186h-296l-67 -186h-96zM331 591l-118 -323h236zM248 927c0 -48 32 -88 86 -88s86 40 86 88h77c-2 -93 -69 -156 -163 -156s-161 63 -163 156h77z" />
    <glyph glyph-name="uni04D1" unicode="&#x4d1;" horiz-adv-x="531" 
d="M376 334c0 70 -49 105 -114 105c-66 0 -102 -30 -116 -67h-83c16 78 86 143 201 143c118 0 197 -68 197 -181v-334h-81v60c-38 -47 -98 -71 -162 -71c-98 0 -174 59 -174 155c0 97 75 156 198 156h134v34zM229 64c80 0 147 49 147 126v37h-129c-69 0 -116 -28 -116 -82
c0 -53 42 -81 98 -81zM184 735c0 -48 28 -88 82 -88s82 40 82 88h77c-2 -93 -65 -156 -159 -156s-157 63 -159 156h77z" />
    <glyph glyph-name="uni04D2" unicode="&#x4d2;" horiz-adv-x="664" 
d="M286 704h92l266 -704h-96l-69 186h-296l-67 -186h-96zM331 591l-118 -323h236zM227 907c33 0 59 -25 59 -58s-26 -58 -59 -58s-59 25 -59 58s26 58 59 58zM441 907c33 0 59 -25 59 -58s-26 -58 -59 -58s-59 25 -59 58s26 58 59 58z" />
    <glyph glyph-name="uni04D3" unicode="&#x4d3;" horiz-adv-x="531" 
d="M376 334c0 70 -49 105 -114 105c-66 0 -102 -30 -116 -67h-83c16 78 86 143 201 143c118 0 197 -68 197 -181v-334h-81v60c-38 -47 -98 -71 -162 -71c-98 0 -174 59 -174 155c0 97 75 156 198 156h134v34zM229 64c80 0 147 49 147 126v37h-129c-69 0 -116 -28 -116 -82
c0 -53 42 -81 98 -81zM163 715c33 0 59 -25 59 -58s-26 -58 -59 -58s-59 25 -59 58s26 58 59 58zM369 715c33 0 59 -25 59 -58s-26 -58 -59 -58s-59 25 -59 58s26 58 59 58z" />
    <glyph glyph-name="uni04D4" unicode="&#x4d4;" horiz-adv-x="993" 
d="M438 704h495v-82h-355v-220h336v-81h-336v-239h355v-82h-443v187h-268l-113 -187h-99zM271 268h219v362z" />
    <glyph glyph-name="uni04D5" unicode="&#x4d5;" horiz-adv-x="873" 
d="M262 515c79 0 138 -32 168 -88c40 56 103 88 179 88c133 0 219 -95 219 -245v-44h-367v-2c0 -90 62 -158 155 -158c70 0 110 38 119 64h87c-13 -59 -76 -141 -206 -141c-88 0 -157 37 -197 103c-38 -61 -108 -103 -197 -103c-101 0 -178 59 -178 155c0 97 75 156 198 156
h134v34c0 70 -49 105 -114 105c-66 0 -102 -30 -116 -67h-83c16 78 85 143 199 143zM233 64c80 0 143 53 143 126v37h-129c-69 0 -116 -27 -116 -82c0 -53 43 -81 102 -81zM606 438c-84 0 -137 -57 -144 -139h279c-4 87 -54 139 -135 139z" />
    <glyph glyph-name="uni04D6" unicode="&#x4d6;" horiz-adv-x="594" 
d="M534 622h-357v-220h338v-81h-338v-239h357v-82h-446v704h446v-82zM228 927c0 -48 32 -88 86 -88s86 40 86 88h77c-2 -93 -69 -156 -163 -156s-161 63 -163 156h77z" />
    <glyph glyph-name="uni04D7" unicode="&#x4d7;" horiz-adv-x="547" 
d="M502 226h-367v-2c0 -90 62 -158 155 -158c70 0 110 38 119 64h87c-13 -59 -76 -141 -207 -141c-146 0 -244 101 -244 263c0 163 99 263 237 263c134 0 220 -95 220 -245v-44zM280 438c-84 0 -137 -57 -144 -139h279c-4 87 -54 139 -135 139zM200 735c0 -48 28 -88 82 -88
s82 40 82 88h77c-2 -93 -65 -156 -159 -156s-157 63 -159 156h77z" />
    <glyph glyph-name="uni04D8" unicode="&#x4d8;" horiz-adv-x="713" 
d="M52 332v53h517c-4 151 -98 248 -224 248c-98 0 -156 -42 -192 -112h-92c35 111 135 194 284 194c193 0 316 -143 316 -363c0 -218 -118 -363 -304 -363c-188 0 -305 145 -305 343zM355 71c129 0 206 96 213 234h-427c5 -140 92 -234 214 -234z" />
    <glyph glyph-name="uni04D9" unicode="&#x4d9;" horiz-adv-x="547" 
d="M45 235v47h367c0 90 -57 156 -152 156c-70 0 -110 -37 -119 -63h-87c13 59 76 140 207 140c148 0 241 -101 241 -263c0 -163 -95 -263 -233 -263c-134 0 -224 95 -224 246zM271 66c85 0 134 58 140 143h-279c2 -90 57 -143 139 -143z" />
    <glyph glyph-name="uni04DA" unicode="&#x4da;" horiz-adv-x="713" 
d="M52 332v53h517c-4 151 -98 248 -224 248c-98 0 -156 -42 -192 -112h-92c35 111 135 194 284 194c193 0 316 -143 316 -363c0 -218 -118 -363 -304 -363c-188 0 -305 145 -305 343zM355 71c129 0 206 96 213 234h-427c5 -140 92 -234 214 -234zM249 907
c33 0 59 -25 59 -58s-26 -58 -59 -58s-59 25 -59 58s26 58 59 58zM463 907c33 0 59 -25 59 -58s-26 -58 -59 -58s-59 25 -59 58s26 58 59 58z" />
    <glyph glyph-name="uni04DB" unicode="&#x4db;" horiz-adv-x="547" 
d="M45 235v47h367c0 90 -57 156 -152 156c-70 0 -110 -37 -119 -63h-87c13 59 76 140 207 140c148 0 241 -101 241 -263c0 -163 -95 -263 -233 -263c-134 0 -224 95 -224 246zM271 66c85 0 134 58 140 143h-279c2 -90 57 -143 139 -143zM168 715c33 0 59 -25 59 -58
s-26 -58 -59 -58s-59 25 -59 58s26 58 59 58zM374 715c33 0 59 -25 59 -58s-26 -58 -59 -58s-59 25 -59 58s26 58 59 58z" />
    <glyph glyph-name="uni04DC" unicode="&#x4dc;" horiz-adv-x="933" 
d="M422 0v344l-294 -344h-111l311 366l-304 338h111l287 -317v317h89v-317l287 317h111l-304 -336l311 -368h-111l-294 344v-344h-89zM360 907c33 0 59 -25 59 -58s-26 -58 -59 -58s-59 25 -59 58s26 58 59 58zM574 907c33 0 59 -25 59 -58s-26 -58 -59 -58s-59 25 -59 58
s26 58 59 58z" />
    <glyph glyph-name="uni04DD" unicode="&#x4dd;" horiz-adv-x="727" 
d="M405 504v-219l199 219h104l-215 -236l218 -268h-106l-200 246v-246h-84v246l-200 -246h-105l217 266l-215 238h104l199 -219v219h84zM260 715c33 0 59 -25 59 -58s-26 -58 -59 -58s-59 25 -59 58s26 58 59 58zM466 715c33 0 59 -25 59 -58s-26 -58 -59 -58s-59 25 -59 58
s26 58 59 58z" />
    <glyph glyph-name="uni04DE" unicode="&#x4de;" horiz-adv-x="600" 
d="M50 524c15 129 127 191 245 191c140 0 231 -81 231 -195c0 -80 -50 -134 -100 -152c45 -11 126 -60 126 -168c0 -120 -98 -211 -247 -211c-145 0 -247 73 -262 197h89c14 -64 71 -114 173 -114c96 0 156 50 156 129c0 84 -66 120 -156 120h-107v81h101
c93 0 136 50 136 115c0 71 -56 115 -140 115s-143 -39 -157 -108h-88zM187 907c33 0 59 -25 59 -58s-26 -58 -59 -58s-59 25 -59 58s26 58 59 58zM401 907c33 0 59 -25 59 -58s-26 -58 -59 -58s-59 25 -59 58s26 58 59 58z" />
    <glyph glyph-name="uni04DF" unicode="&#x4df;" horiz-adv-x="491" 
d="M50 369c11 96 100 146 198 146c100 0 177 -55 177 -144c0 -61 -37 -94 -72 -108c37 -9 93 -41 93 -118c0 -96 -86 -156 -199 -156c-106 0 -194 52 -207 155h85c12 -51 60 -79 124 -79c67 0 111 30 111 81c0 49 -38 74 -110 74h-79v74h74c61 0 95 27 95 74
c0 45 -37 71 -95 71c-64 0 -101 -31 -111 -70h-84zM141 715c33 0 59 -25 59 -58s-26 -58 -59 -58s-59 25 -59 58s26 58 59 58zM347 715c33 0 59 -25 59 -58s-26 -58 -59 -58s-59 25 -59 58s26 58 59 58z" />
    <glyph glyph-name="uni04E2" unicode="&#x4e2;" horiz-adv-x="733" 
d="M645 704v-704h-88v562l-381 -562h-88v704h88v-562l381 562h88zM216 886h302v-74h-302v74z" />
    <glyph glyph-name="uni04E3" unicode="&#x4e3;" horiz-adv-x="577" 
d="M502 504v-504h-85v371l-257 -371h-85v504h85v-372l257 372h85zM142 694h294v-74h-294v74z" />
    <glyph glyph-name="uni04E4" unicode="&#x4e4;" horiz-adv-x="733" 
d="M645 704v-704h-88v562l-381 -562h-88v704h88v-562l381 562h88zM260 907c33 0 59 -25 59 -58s-26 -58 -59 -58s-59 25 -59 58s26 58 59 58zM474 907c33 0 59 -25 59 -58s-26 -58 -59 -58s-59 25 -59 58s26 58 59 58z" />
    <glyph glyph-name="uni04E5" unicode="&#x4e5;" horiz-adv-x="577" 
d="M502 504v-504h-85v371l-257 -371h-85v504h85v-372l257 372h85zM186 715c33 0 59 -25 59 -58s-26 -58 -59 -58s-59 25 -59 58s26 58 59 58zM392 715c33 0 59 -25 59 -58s-26 -58 -59 -58s-59 25 -59 58s26 58 59 58z" />
    <glyph glyph-name="uni04E6" unicode="&#x4e6;" horiz-adv-x="752" 
d="M376 715c197 0 324 -154 324 -363s-127 -363 -324 -363s-324 154 -324 363s127 363 324 363zM376 72c144 0 233 116 233 280s-89 280 -233 280s-233 -116 -233 -280s89 -280 233 -280zM269 907c33 0 59 -25 59 -58s-26 -58 -59 -58s-59 25 -59 58s26 58 59 58zM483 907
c33 0 59 -25 59 -58s-26 -58 -59 -58s-59 25 -59 58s26 58 59 58z" />
    <glyph glyph-name="uni04E7" unicode="&#x4e7;" horiz-adv-x="574" 
d="M287 515c147 0 242 -110 242 -263s-95 -263 -242 -263s-242 110 -242 263s95 263 242 263zM287 67c95 0 154 75 154 185s-59 185 -154 185s-154 -75 -154 -185s59 -185 154 -185zM184 715c33 0 59 -25 59 -58s-26 -58 -59 -58s-59 25 -59 58s26 58 59 58zM390 715
c33 0 59 -25 59 -58s-26 -58 -59 -58s-59 25 -59 58s26 58 59 58z" />
    <glyph glyph-name="uni04E8" unicode="&#x4e8;" horiz-adv-x="752" 
d="M376 715c197 0 324 -154 324 -363s-127 -363 -324 -363s-324 154 -324 363s127 363 324 363zM376 72c135 0 222 101 233 249h-466c10 -148 98 -249 233 -249zM376 632c-129 0 -214 -92 -231 -230h462c-15 132 -100 230 -231 230z" />
    <glyph glyph-name="uni04E9" unicode="&#x4e9;" horiz-adv-x="574" 
d="M287 515c147 0 242 -110 242 -263s-95 -263 -242 -263s-242 110 -242 263s95 263 242 263zM287 67c90 0 141 66 152 153h-305c11 -93 67 -153 153 -153zM287 437c-83 0 -138 -57 -151 -143h302c-14 86 -69 143 -151 143z" />
    <glyph glyph-name="uni04EA" unicode="&#x4ea;" horiz-adv-x="752" 
d="M376 715c197 0 324 -154 324 -363s-127 -363 -324 -363s-324 154 -324 363s127 363 324 363zM376 72c135 0 222 101 233 249h-466c10 -148 98 -249 233 -249zM376 632c-129 0 -214 -92 -231 -230h462c-15 132 -100 230 -231 230zM269 907c33 0 59 -25 59 -58
s-26 -58 -59 -58s-59 25 -59 58s26 58 59 58zM483 907c33 0 59 -25 59 -58s-26 -58 -59 -58s-59 25 -59 58s26 58 59 58z" />
    <glyph glyph-name="uni04EB" unicode="&#x4eb;" horiz-adv-x="574" 
d="M287 515c147 0 242 -110 242 -263s-95 -263 -242 -263s-242 110 -242 263s95 263 242 263zM287 67c90 0 141 66 152 153h-305c11 -93 67 -153 153 -153zM287 437c-83 0 -138 -57 -151 -143h302c-14 86 -69 143 -151 143zM184 715c33 0 59 -25 59 -58s-26 -58 -59 -58
s-59 25 -59 58s26 58 59 58zM390 715c33 0 59 -25 59 -58s-26 -58 -59 -58s-59 25 -59 58s26 58 59 58z" />
    <glyph glyph-name="uni04EC" unicode="&#x4ec;" horiz-adv-x="706" 
d="M255 320v80h306c-15 144 -101 232 -223 232c-114 0 -175 -67 -199 -137h-89c24 116 123 220 288 220c186 0 316 -142 316 -363c0 -224 -134 -363 -317 -363c-187 0 -271 128 -290 221h90c18 -55 76 -138 201 -138c127 0 214 97 224 248h-307zM231 907c33 0 59 -25 59 -58
s-26 -58 -59 -58s-59 25 -59 58s26 58 59 58zM445 907c33 0 59 -25 59 -58s-26 -58 -59 -58s-59 25 -59 58s26 58 59 58z" />
    <glyph glyph-name="uni04ED" unicode="&#x4ed;" horiz-adv-x="538" 
d="M182 297h221c-12 90 -67 141 -146 141c-83 0 -118 -48 -129 -85h-85c12 77 78 162 214 162c143 0 236 -105 236 -263c0 -157 -95 -263 -237 -263c-128 0 -206 78 -216 168h83c10 -39 43 -91 132 -91c84 0 142 60 150 157h-223v74zM154 715c33 0 59 -25 59 -58
s-26 -58 -59 -58s-59 25 -59 58s26 58 59 58zM360 715c33 0 59 -25 59 -58s-26 -58 -59 -58s-59 25 -59 58s26 58 59 58z" />
    <glyph glyph-name="uni04EE" unicode="&#x4ee;" horiz-adv-x="647" 
d="M20 704h100l211 -413l199 413h97l-343 -704h-98l97 198zM176 886h302v-74h-302v74z" />
    <glyph glyph-name="uni04EF" unicode="&#x4ef;" horiz-adv-x="519" 
d="M411 504h93l-276 -695h-93l78 197l-198 498h93l152 -393zM112 694h294v-74h-294v74z" />
    <glyph glyph-name="uni04F0" unicode="&#x4f0;" horiz-adv-x="647" 
d="M20 704h100l211 -413l199 413h97l-343 -704h-98l97 198zM220 907c33 0 59 -25 59 -58s-26 -58 -59 -58s-59 25 -59 58s26 58 59 58zM434 907c33 0 59 -25 59 -58s-26 -58 -59 -58s-59 25 -59 58s26 58 59 58z" />
    <glyph glyph-name="uni04F1" unicode="&#x4f1;" horiz-adv-x="519" 
d="M411 504h93l-276 -695h-93l78 197l-198 498h93l152 -393zM156 715c33 0 59 -25 59 -58s-26 -58 -59 -58s-59 25 -59 58s26 58 59 58zM362 715c33 0 59 -25 59 -58s-26 -58 -59 -58s-59 25 -59 58s26 58 59 58z" />
    <glyph glyph-name="uni04F2" unicode="&#x4f2;" horiz-adv-x="647" 
d="M20 704h100l211 -413l199 413h97l-343 -704h-98l97 198zM379 927l-95 -154h-84l89 154h90zM549 927l-95 -154h-84l89 154h90z" />
    <glyph glyph-name="uni04F3" unicode="&#x4f3;" horiz-adv-x="519" 
d="M411 504h93l-276 -695h-93l78 197l-198 498h93l152 -393zM313 735l-95 -154h-84l89 154h90zM479 735l-95 -154h-84l89 154h90z" />
    <glyph glyph-name="uni04F4" unicode="&#x4f4;" horiz-adv-x="666" 
d="M489 704h89v-704h-89v301c-39 -24 -92 -39 -164 -39c-144 0 -265 83 -265 264v178h89v-177c0 -126 81 -182 185 -182c67 0 118 18 155 43v316zM213 907c33 0 59 -25 59 -58s-26 -58 -59 -58s-59 25 -59 58s26 58 59 58zM427 907c33 0 59 -25 59 -58s-26 -58 -59 -58
s-59 25 -59 58s26 58 59 58z" />
    <glyph glyph-name="uni04F5" unicode="&#x4f5;" horiz-adv-x="528" 
d="M367 504h86v-504h-86v204c-27 -15 -62 -25 -111 -25c-118 0 -201 66 -201 203v122h86v-120c0 -86 47 -127 125 -127c45 0 76 10 101 26v221zM151 715c33 0 59 -25 59 -58s-26 -58 -59 -58s-59 25 -59 58s26 58 59 58zM357 715c33 0 59 -25 59 -58s-26 -58 -59 -58
s-59 25 -59 58s26 58 59 58z" />
    <glyph glyph-name="uni04F6" unicode="&#x4f6;" horiz-adv-x="562" 
d="M263 83v-217h-86v134h-89v704h436v-82h-347v-539h86z" />
    <glyph glyph-name="uni04F7" unicode="&#x4f7;" horiz-adv-x="444" 
d="M235 78v-206h-83v128h-77v504h334v-77h-248v-349h74z" />
    <glyph glyph-name="uni04F8" unicode="&#x4f8;" horiz-adv-x="826" 
d="M333 445c149 0 234 -100 234 -222c0 -120 -88 -223 -232 -223h-247v704h89v-259h156zM323 364h-146v-283h146c97 0 153 59 153 142c0 84 -55 141 -153 141zM738 704v-704h-89v704h89zM306 907c33 0 59 -25 59 -58s-26 -58 -59 -58s-59 25 -59 58s26 58 59 58zM520 907
c33 0 59 -25 59 -58s-26 -58 -59 -58s-59 25 -59 58s26 58 59 58z" />
    <glyph glyph-name="uni04F9" unicode="&#x4f9;" horiz-adv-x="685" 
d="M161 504v-163h113c107 0 177 -71 177 -169s-70 -172 -178 -172h-198v504h86zM610 504v-504h-86v504h86zM263 265h-102v-189h102c66 0 102 42 102 96s-36 93 -102 93zM239 715c33 0 59 -25 59 -58s-26 -58 -59 -58s-59 25 -59 58s26 58 59 58zM445 715c33 0 59 -25 59 -58
s-26 -58 -59 -58s-59 25 -59 58s26 58 59 58z" />
    <glyph glyph-name="uni0512" unicode="&#x512;" horiz-adv-x="695" 
d="M175 704h432v-733c0 -112 -60 -162 -148 -162h-38v80h23c34 0 74 14 74 86v647h-263l-26 -389c-9 -137 -49 -235 -193 -235h-26v83h15c83 0 110 46 118 158z" />
    <glyph glyph-name="uni0513" unicode="&#x513;" horiz-adv-x="566" 
d="M143 504h348v-534c0 -112 -52 -161 -140 -161h-36v77h22c34 0 68 15 68 88v453h-185l-20 -238c-11 -137 -58 -191 -161 -191h-24v78h14c63 0 81 32 88 119z" />
    <glyph glyph-name="uni051C" unicode="&#x51c;" horiz-adv-x="980" 
d="M952 704l-218 -704h-84l-161 557l-161 -557h-82l-218 704h94l165 -548l160 548h86l159 -548l166 548h94z" />
    <glyph glyph-name="uni051D" unicode="&#x51d;" horiz-adv-x="773" 
d="M753 504l-165 -504h-83l-120 385l-118 -385h-82l-165 504h90l117 -371l116 371h87l116 -371l117 371h90z" />
    <glyph glyph-name="uni0524" unicode="&#x524;" horiz-adv-x="755" 
d="M725 83v-217h-86v134h-89v622h-373v-622h-89v704h551v-621h86z" />
    <glyph glyph-name="uni0525" unicode="&#x525;" horiz-adv-x="597" 
d="M567 78v-206h-83v128h-77v427h-246v-427h-86v504h418v-426h74z" />
    <glyph glyph-name="Wgrave" unicode="&#x1e80;" horiz-adv-x="980" 
d="M952 704l-218 -704h-84l-161 557l-161 -557h-82l-218 704h94l165 -548l160 548h86l159 -548l166 548h94zM342 927h93l95 -154h-87z" />
    <glyph glyph-name="wgrave" unicode="&#x1e81;" horiz-adv-x="773" 
d="M753 504l-165 -504h-83l-120 385l-118 -385h-82l-165 504h90l117 -371l116 371h87l116 -371l117 371h90zM239 735h93l95 -154h-87z" />
    <glyph glyph-name="Wacute" unicode="&#x1e82;" horiz-adv-x="980" 
d="M952 704l-218 -704h-84l-161 557l-161 -557h-82l-218 704h94l165 -548l160 548h86l159 -548l166 548h94zM636 927l-101 -154h-87l95 154h93z" />
    <glyph glyph-name="wacute" unicode="&#x1e83;" horiz-adv-x="773" 
d="M753 504l-165 -504h-83l-120 385l-118 -385h-82l-165 504h90l117 -371l116 371h87l116 -371l117 371h90zM533 735l-101 -154h-87l95 154h93z" />
    <glyph glyph-name="Wdieresis" unicode="&#x1e84;" horiz-adv-x="980" 
d="M952 704l-218 -704h-84l-161 557l-161 -557h-82l-218 704h94l165 -548l160 548h86l159 -548l166 548h94zM382 907c33 0 59 -25 59 -58s-26 -58 -59 -58s-59 25 -59 58s26 58 59 58zM596 907c33 0 59 -25 59 -58s-26 -58 -59 -58s-59 25 -59 58s26 58 59 58z" />
    <glyph glyph-name="wdieresis" unicode="&#x1e85;" horiz-adv-x="773" 
d="M753 504l-165 -504h-83l-120 385l-118 -385h-82l-165 504h90l117 -371l116 371h87l116 -371l117 371h90zM283 715c33 0 59 -25 59 -58s-26 -58 -59 -58s-59 25 -59 58s26 58 59 58zM489 715c33 0 59 -25 59 -58s-26 -58 -59 -58s-59 25 -59 58s26 58 59 58z" />
    <glyph glyph-name="Ygrave" unicode="&#x1ef2;" horiz-adv-x="637" 
d="M363 0h-89v276l-259 428h101l202 -338l203 338h101l-259 -428v-276zM173 927h93l95 -154h-87z" />
    <glyph glyph-name="ygrave" unicode="&#x1ef3;" horiz-adv-x="519" 
d="M411 504h93l-276 -695h-93l78 197l-198 498h93l152 -393zM112 735h93l95 -154h-87z" />
    <glyph glyph-name="uni2000" unicode="&#x2000;" horiz-adv-x="500" 
 />
    <glyph glyph-name="uni2001" unicode="&#x2001;" horiz-adv-x="1000" 
 />
    <glyph glyph-name="uni2002" unicode="&#x2002;" horiz-adv-x="520" 
 />
    <glyph glyph-name="uni2003" unicode="&#x2003;" horiz-adv-x="1000" 
 />
    <glyph glyph-name="uni2004" unicode="&#x2004;" horiz-adv-x="320" 
 />
    <glyph glyph-name="uni2005" unicode="&#x2005;" horiz-adv-x="250" 
 />
    <glyph glyph-name="uni2006" unicode="&#x2006;" horiz-adv-x="150" 
 />
    <glyph glyph-name="uni2007" unicode="&#x2007;" horiz-adv-x="600" 
 />
    <glyph glyph-name="uni2008" unicode="&#x2008;" horiz-adv-x="264" 
 />
    <glyph glyph-name="uni2009" unicode="&#x2009;" horiz-adv-x="190" 
 />
    <glyph glyph-name="uni200A" unicode="&#x200a;" horiz-adv-x="50" 
 />
    <glyph glyph-name="uni200B" unicode="&#x200b;" horiz-adv-x="0" 
 />
    <glyph glyph-name="uni207A" unicode="&#x207a;" horiz-adv-x="392" 
d="M163 709h65v-119h114v-62h-114v-119h-65v119h-114v62h114v119z" />
    <glyph glyph-name="uni207B" unicode="&#x207b;" horiz-adv-x="392" 
d="M338 528h-285v62h285v-62z" />
    <glyph glyph-name="uni207C" unicode="&#x207c;" horiz-adv-x="392" 
d="M52 596v62h288v-62h-288zM52 460v63h288v-63h-288z" />
    <glyph glyph-name="uni208A" unicode="&#x208a;" horiz-adv-x="392" 
d="M163 239h65v-119h114v-62h-114v-119h-65v119h-114v62h114v119z" />
    <glyph glyph-name="uni208B" unicode="&#x208b;" horiz-adv-x="392" 
d="M338 58h-285v62h285v-62z" />
    <glyph glyph-name="uni208C" unicode="&#x208c;" horiz-adv-x="392" 
d="M52 126v62h288v-62h-288zM52 -10v63h288v-63h-288z" />
    <glyph glyph-name="Euro" unicode="&#x20ac;" horiz-adv-x="663" 
d="M539 175h87c-15 -86 -94 -186 -231 -186c-130 0 -228 89 -258 249h-102v73h93c-1 13 -1 27 -1 41c0 12 0 25 1 37h-93v73h101c29 155 121 253 259 253c126 0 210 -84 229 -185h-86c-18 51 -60 104 -143 104c-93 0 -148 -66 -169 -172h231l-10 -73h-229
c-1 -12 -1 -25 -1 -37c0 -14 0 -28 1 -41h219l-10 -73h-199c22 -106 79 -168 166 -168c79 0 133 57 145 105z" />
    <glyph glyph-name="uni20B4" unicode="&#x20b4;" horiz-adv-x="657" 
d="M45 238v75h567v-75h-392c-21 -17 -31 -42 -31 -69c0 -62 59 -100 137 -100c86 0 138 43 159 103h87c-22 -120 -125 -183 -246 -183c-126 0 -224 69 -224 173c0 33 10 59 23 76h-80zM45 387v75h390c23 19 34 42 34 75c0 63 -58 98 -128 98c-72 0 -125 -30 -147 -97h-86
c24 112 118 177 234 177c119 0 214 -70 214 -172c0 -34 -10 -60 -28 -81h84v-75h-567z" />
    <glyph glyph-name="uni20B8" unicode="&#x20b8;" horiz-adv-x="593" 
d="M45 462v81h503v-81h-207v-462h-89v462h-207zM45 627v77h503v-77h-503z" />
    <glyph glyph-name="uni20BD" unicode="&#x20bd;" horiz-adv-x="637" 
d="M35 114v73h99v85h-99v76h99v356h223c147 0 234 -93 234 -215c0 -124 -87 -217 -232 -217h-137v-85h229v-73h-229v-114h-88v114h-99zM347 624h-125v-273h125c98 0 153 53 153 137c0 81 -54 136 -153 136z" />
    <glyph glyph-name="uni20BF" unicode="&#x20bf;" horiz-adv-x="608" 
d="M88 17v670h84v99h73v-99h87v99h73v-108c84 -22 129 -87 129 -164c0 -82 -45 -130 -87 -147c47 -13 113 -63 113 -161c0 -93 -58 -161 -155 -182v-112h-73v105h-87v-105h-73v105h-84zM338 324h-166v-231h162c83 0 140 42 140 115c0 72 -53 116 -136 116zM323 611h-151
v-211h157c81 0 120 45 120 105c0 66 -47 106 -126 106z" />
    <glyph glyph-name="uni2116" unicode="&#x2116;" horiz-adv-x="1140" 
d="M184 704l374 -558v558h87v-704h-87l-383 570v-570h-87v704h96zM726 532c0 106 75 183 182 183s182 -77 182 -183s-75 -183 -182 -183s-182 77 -182 183zM908 642c-58 0 -99 -44 -99 -110s41 -110 99 -110s99 44 99 110s-41 110 -99 110zM737 217v80h342v-80h-342z" />
    <glyph glyph-name="leftArrow" unicode="&#x2190;" horiz-adv-x="870" 
d="M292 134l-218 218l218 218h105l-178 -179h572v-78h-572l178 -179h-105z" />
    <glyph glyph-name="upArrow" unicode="&#x2191;" horiz-adv-x="573" 
d="M504 499v-106l-178 179v-572h-79v571l-178 -178v106l218 218z" />
    <glyph glyph-name="rightArrow" unicode="&#x2192;" horiz-adv-x="870" 
d="M578 134h-106l179 179h-572v78h572l-179 179h106l218 -218z" />
    <glyph glyph-name="downArrow" unicode="&#x2193;" horiz-adv-x="573" 
d="M504 205l-217 -218l-218 218v106l178 -178v571h79v-572l178 179v-106z" />
    <glyph glyph-name="leftRightArrow" unicode="&#x2194;" horiz-adv-x="943" 
d="M281 145l-207 207l207 207h101l-170 -170h519l-170 170h101l207 -207l-207 -207h-101l170 170h-519l170 -170h-101z" />
    <glyph glyph-name="uni2196" unicode="&#x2196;" horiz-adv-x="684" 
d="M82 397v307h307l73 -73h-253l406 -406l-54 -54l-406 406v-253z" />
    <glyph glyph-name="uni2197" unicode="&#x2197;" horiz-adv-x="685" 
d="M603 396l-75 -75v252l-403 -403l-56 55l404 404h-253l75 75h308v-308z" />
    <glyph glyph-name="uni2198" unicode="&#x2198;" horiz-adv-x="685" 
d="M603 308v-308h-308l-75 75h253l-404 404l56 55l403 -403v252z" />
    <glyph glyph-name="uni2199" unicode="&#x2199;" horiz-adv-x="685" 
d="M82 308l75 75v-252l404 403l55 -55l-403 -404h252l-75 -75h-308v308z" />
    <glyph glyph-name="partialdiff" unicode="&#x2202;" horiz-adv-x="583" 
d="M284 727c49 -34 247 -151 247 -434c0 -195 -92 -304 -245 -304c-147 0 -241 115 -241 259c0 163 105 254 235 254c60 0 106 -20 139 -52c-42 131 -170 221 -253 277h118zM286 67c95 0 157 71 157 185c-8 111 -67 173 -156 173c-93 0 -154 -74 -154 -177
c0 -105 58 -181 153 -181z" />
    <glyph glyph-name="product" unicode="&#x220f;" horiz-adv-x="667" 
d="M88 704h491v-844h-89v762h-313v-762h-89v844z" />
    <glyph glyph-name="summation" unicode="&#x2211;" horiz-adv-x="563" 
d="M503 704v-80h-339l226 -341l-227 -343h340v-80h-443v75l229 347l-229 347v75h443z" />
    <glyph glyph-name="radical" unicode="&#x221a;" horiz-adv-x="718" 
d="M569 727h84l-252 -842h-87l-142 346h-117v77h179l122 -299z" />
    <glyph glyph-name="infinity" unicode="&#x221e;" horiz-adv-x="907" 
d="M666 479c124 0 201 -91 201 -198s-77 -198 -201 -198c-97 0 -165 67 -213 129c-48 -62 -116 -129 -212 -129c-124 0 -201 91 -201 198s77 198 201 198c97 0 165 -68 213 -130c48 62 115 130 212 130zM243 163c69 0 116 55 163 117c-47 63 -94 119 -163 119
c-70 0 -118 -51 -118 -118s48 -118 118 -118zM664 163c70 0 118 51 118 118s-48 118 -118 118c-69 0 -116 -56 -163 -118c47 -63 94 -118 163 -118z" />
    <glyph glyph-name="integral" unicode="&#x222b;" horiz-adv-x="522" 
d="M482 704v-77h-36c-61 0 -90 -36 -100 -97l-84 -521c-17 -106 -71 -167 -183 -167h-39v77h36c61 0 90 36 100 97l84 521c17 106 71 167 183 167h39z" />
    <glyph glyph-name="approxequal" unicode="&#x2248;" 
d="M465 445h75v-16c0 -89 -60 -140 -133 -140c-101 0 -136 86 -199 86c-35 0 -59 -25 -59 -67v-10h-75v16c0 89 60 140 133 140c101 0 136 -86 199 -86c35 0 59 25 59 67v10zM465 238h75v-16c0 -88 -59 -140 -133 -140c-101 0 -136 86 -199 86c-35 0 -59 -25 -59 -67v-10
h-75v16c0 89 60 140 133 140c101 0 136 -86 199 -86c35 0 59 25 59 67v10z" />
    <glyph glyph-name="notequal" unicode="&#x2260;" 
d="M375 512h79l-46 -103h122v-76h-155l-57 -129h212v-76h-246l-45 -103h-79l45 103h-122v76h156l57 129h-213v76h246z" />
    <glyph glyph-name="lessequal" unicode="&#x2264;" 
d="M539 528v-82l-359 -150l359 -164v-121h-465v75h390l-390 176v71z" />
    <glyph glyph-name="greaterequal" unicode="&#x2265;" 
d="M540 333v-71l-390 -176h390v-75h-465v121l359 164l-359 150v82z" />
    <glyph glyph-name="uni24FF" unicode="&#x24ff;" horiz-adv-x="944" 
d="M472 -80c-232 0 -420 180 -420 424s188 424 420 424s420 -180 420 -424s-188 -424 -420 -424zM472 563c-105 0 -171 -90 -171 -219c0 -130 66 -220 171 -220s171 90 171 220c0 129 -66 219 -171 219zM472 190c-62 0 -94 65 -94 154c0 88 32 153 94 153s94 -65 94 -153
c0 -89 -32 -154 -94 -154z" />
    <glyph glyph-name="lozenge" unicode="&#x25ca;" horiz-adv-x="567" 
d="M328 704l187 -352l-187 -352h-89l-187 352l187 352h89zM424 352l-141 267l-140 -267l140 -267z" />
    <glyph glyph-name="circle" unicode="&#x25cb;" horiz-adv-x="944" 
d="M472 -6c192 0 344 147 344 350s-152 350 -344 350s-344 -147 -344 -350s152 -350 344 -350zM472 -80c-232 0 -420 180 -420 424s188 424 420 424s420 -180 420 -424s-188 -424 -420 -424z" />
    <glyph glyph-name="blackcircle" unicode="&#x25cf;" horiz-adv-x="944" 
d="M472 -80c-232 0 -420 180 -420 424s188 424 420 424s420 -180 420 -424s-188 -424 -420 -424z" />
    <glyph glyph-name="uni2776" unicode="&#x2776;" horiz-adv-x="944" 
d="M472 -80c-232 0 -420 180 -420 424s188 424 420 424s420 -180 420 -424s-188 -424 -420 -424zM528 131v425h-71l-110 -71v-75l105 64v-343h76z" />
    <glyph glyph-name="uni2777" unicode="&#x2777;" horiz-adv-x="944" 
d="M472 -80c-232 0 -420 180 -420 424s188 424 420 424s420 -180 420 -424s-188 -424 -420 -424zM626 196h-204l117 106c40 36 80 79 80 134c0 72 -61 127 -147 127c-89 0 -148 -55 -155 -127h72c7 34 35 61 79 61c43 0 74 -26 74 -63c0 -41 -33 -67 -57 -90l-165 -152v-61
h306v65z" />
    <glyph glyph-name="uni2778" unicode="&#x2778;" horiz-adv-x="944" 
d="M472 -80c-232 0 -420 180 -420 424s188 424 420 424s420 -180 420 -424s-188 -424 -420 -424zM316 442h73c7 31 35 56 79 56c43 0 72 -24 72 -59c0 -32 -26 -59 -75 -59h-44v-64h52c50 0 82 -22 82 -62c0 -38 -34 -65 -80 -65c-47 0 -82 23 -92 60h-72
c7 -76 77 -125 164 -125c92 0 157 55 157 126c0 60 -44 95 -80 104c34 14 65 45 65 94c0 66 -61 115 -145 115c-79 0 -146 -45 -156 -121z" />
    <glyph glyph-name="uni2779" unicode="&#x2779;" horiz-adv-x="944" 
d="M472 -80c-232 0 -420 180 -420 424s188 424 420 424s420 -180 420 -424s-188 -424 -420 -424zM633 221v64h-60v272h-96l-189 -274v-62h213v-90h72v90h60zM501 285h-137l137 195v-195z" />
    <glyph glyph-name="uni277A" unicode="&#x277a;" horiz-adv-x="944" 
d="M472 -80c-232 0 -420 180 -420 424s188 424 420 424s420 -180 420 -424s-188 -424 -420 -424zM489 411c-45 0 -80 -17 -101 -39l10 119h209v65h-271l-20 -250h74c20 32 51 43 82 43c44 0 82 -29 82 -79c0 -48 -36 -81 -82 -81c-54 0 -78 33 -85 54h-75
c9 -67 72 -119 161 -119c86 0 158 57 158 147s-68 140 -142 140z" />
    <glyph glyph-name="uni277B" unicode="&#x277b;" horiz-adv-x="944" 
d="M472 -80c-232 0 -420 180 -420 424s188 424 420 424s420 -180 420 -424s-188 -424 -420 -424zM487 410c-49 0 -91 -19 -116 -54c5 100 45 142 102 142c40 0 67 -24 74 -47h74c-9 62 -66 112 -148 112c-101 0 -176 -75 -176 -228c0 -128 66 -211 177 -211
c90 0 156 64 156 148c0 85 -67 138 -143 138zM471 189c-48 0 -86 35 -86 81s39 79 85 79c45 0 83 -31 83 -79c0 -46 -35 -81 -82 -81z" />
    <glyph glyph-name="uni277C" unicode="&#x277c;" horiz-adv-x="944" 
d="M472 -80c-232 0 -420 180 -420 424s188 424 420 424s420 -180 420 -424s-188 -424 -420 -424zM621 557h-298v-65h216l-168 -360h82l168 366v59z" />
    <glyph glyph-name="uni277D" unicode="&#x277d;" horiz-adv-x="944" 
d="M472 -80c-232 0 -420 180 -420 424s188 424 420 424s420 -180 420 -424s-188 -424 -420 -424zM308 248c0 -69 66 -124 164 -124c97 0 163 55 163 124c0 57 -43 94 -81 105c31 12 68 41 68 94c0 63 -59 116 -150 116c-92 0 -151 -53 -151 -116c0 -53 37 -82 68 -94
c-38 -11 -81 -48 -81 -105zM548 440c0 -36 -34 -61 -76 -61c-43 0 -77 25 -77 61s31 61 77 61c45 0 76 -25 76 -61zM559 253c0 -39 -36 -67 -87 -67c-52 0 -88 28 -88 67s35 68 88 68c52 0 87 -29 87 -68z" />
    <glyph glyph-name="uni277E" unicode="&#x277e;" horiz-adv-x="944" 
d="M472 -80c-232 0 -420 180 -420 424s188 424 420 424s420 -180 420 -424s-188 -424 -420 -424zM457 278c49 0 91 19 116 54c-5 -100 -45 -142 -102 -142c-40 0 -67 24 -74 47h-74c9 -62 66 -112 148 -112c101 0 176 75 176 228c0 128 -66 211 -177 211
c-90 0 -156 -64 -156 -148c0 -85 67 -138 143 -138zM473 499c48 0 86 -35 86 -81s-39 -79 -85 -79c-45 0 -83 31 -83 79c0 46 35 81 82 81z" />
    <glyph glyph-name="numbersign.case" 
d="M568 500v-73h-109v-164h109v-73h-109v-116h-75v116h-154v-116h-75v116h-109v73h109v164h-109v73h109v120h75v-120h154v120h75v-120h109zM230 427v-164h154v164h-154z" />
    <glyph glyph-name="parenleft.case" horiz-adv-x="345" 
d="M315 794c-89 -124 -146 -273 -146 -443s57 -318 146 -442h-87c-71 90 -148 248 -148 442s77 353 148 443h87z" />
    <glyph glyph-name="parenleft.dnom" horiz-adv-x="231" 
d="M211 478c-55 -73 -88 -165 -88 -265c0 -101 33 -192 88 -266h-70c-46 56 -92 150 -92 266c0 115 46 210 92 265h70z" />
    <glyph glyph-name="parenleft.numr" horiz-adv-x="231" 
d="M211 756c-55 -73 -88 -165 -88 -265c0 -101 33 -192 88 -266h-70c-46 56 -92 150 -92 266c0 115 46 210 92 265h70z" />
    <glyph glyph-name="parenright.case" horiz-adv-x="345" 
d="M30 794h87c71 -90 148 -249 148 -443s-77 -352 -148 -442h-87c89 124 146 272 146 442s-57 319 -146 443z" />
    <glyph glyph-name="parenright.dnom" horiz-adv-x="231" 
d="M20 478h71c46 -56 91 -150 91 -265c0 -117 -46 -210 -91 -266h-71c55 74 89 164 89 266c0 101 -34 192 -89 265z" />
    <glyph glyph-name="parenright.numr" horiz-adv-x="231" 
d="M20 756h71c46 -56 91 -150 91 -265c0 -117 -46 -210 -91 -266h-71c55 74 89 164 89 266c0 101 -34 192 -89 265z" />
    <glyph glyph-name="asterisk.case" 
d="M345 604l-1 -220l208 68l23 -70l-207 -68l129 -177l-60 -45l-130 178l-129 -178l-60 45l128 177l-207 68l23 70l208 -68l-1 220h76z" />
    <glyph glyph-name="plus.case" 
d="M265 595h83v-201h194v-82h-194v-202h-83v202h-193v82h193v201z" />
    <glyph glyph-name="plus.dnom" horiz-adv-x="392" 
d="M163 363h65v-119h114v-62h-114v-119h-65v119h-114v62h114v119z" />
    <glyph glyph-name="plus.numr" horiz-adv-x="392" 
d="M163 641h65v-119h114v-62h-114v-119h-65v119h-114v62h114v119z" />
    <glyph glyph-name="hyphen.case" horiz-adv-x="421" 
d="M55 312v82h311v-82h-311z" />
    <glyph glyph-name="slash.case" horiz-adv-x="366" 
d="M271 794h85l-261 -885h-85z" />
    <glyph glyph-name="zero.dnom" horiz-adv-x="418" 
d="M209 432c105 0 171 -90 171 -219c0 -130 -66 -220 -171 -220s-171 90 -171 220c0 129 66 219 171 219zM209 59c62 0 94 65 94 154c0 88 -32 153 -94 153s-94 -65 -94 -153c0 -89 32 -154 94 -154z" />
    <glyph glyph-name="zero.numr" horiz-adv-x="418" 
d="M209 711c105 0 171 -90 171 -219c0 -130 -66 -220 -171 -220s-171 90 -171 220c0 129 66 219 171 219zM209 338c62 0 94 65 94 154c0 88 -32 153 -94 153s-94 -65 -94 -153c0 -89 32 -154 94 -154z" />
    <glyph glyph-name="zero.tf" 
d="M307 716c168 0 264 -153 264 -364c0 -210 -96 -363 -264 -363c-167 0 -264 152 -264 363c0 212 97 364 264 364zM307 71c114 0 173 124 173 281c0 158 -59 282 -173 282s-173 -124 -173 -282c0 -157 59 -281 173 -281z" />
    <glyph glyph-name="one.dnom" horiz-adv-x="292" 
d="M215 425v-425h-76v343l-105 -64v75l110 71h71z" />
    <glyph glyph-name="one.numr" horiz-adv-x="292" 
d="M215 704v-425h-76v343l-105 -64v75l110 71h71z" />
    <glyph glyph-name="one.tf" 
d="M411 705v-705h-90v601l-193 -111v93l202 122h81z" />
    <glyph glyph-name="two.dnom" horiz-adv-x="387" 
d="M146 65h204v-65h-306v61l165 152c24 23 57 49 57 90c0 37 -31 63 -74 63c-44 0 -72 -27 -79 -61h-72c7 72 66 127 155 127c86 0 147 -55 147 -127c0 -55 -40 -98 -80 -134z" />
    <glyph glyph-name="two.numr" horiz-adv-x="387" 
d="M146 344h204v-65h-306v61l165 152c24 23 57 49 57 90c0 37 -31 63 -74 63c-44 0 -72 -27 -79 -61h-72c7 72 66 127 155 127c86 0 147 -55 147 -127c0 -55 -40 -98 -80 -134z" />
    <glyph glyph-name="two.tf" 
d="M444 509c0 71 -55 125 -136 125c-84 0 -137 -48 -153 -120h-88c16 119 107 202 243 202c138 0 225 -93 225 -207c0 -111 -75 -180 -140 -240l-203 -187h360v-82h-483v77l266 250c67 63 109 107 109 182z" />
    <glyph glyph-name="three.dnom" horiz-adv-x="393" 
d="M41 311c10 76 77 121 156 121c84 0 145 -49 145 -115c0 -49 -31 -80 -65 -94c36 -9 80 -44 80 -104c0 -71 -65 -126 -157 -126c-87 0 -157 49 -164 125h72c10 -37 45 -60 92 -60c46 0 80 27 80 65c0 40 -32 62 -82 62h-52v64h44c49 0 75 27 75 59c0 35 -29 59 -72 59
c-44 0 -72 -25 -79 -56h-73z" />
    <glyph glyph-name="three.numr" horiz-adv-x="393" 
d="M41 590c10 76 77 121 156 121c84 0 145 -49 145 -115c0 -49 -31 -80 -65 -94c36 -9 80 -44 80 -104c0 -71 -65 -126 -157 -126c-87 0 -157 49 -164 125h72c10 -37 45 -60 92 -60c46 0 80 27 80 65c0 40 -32 62 -82 62h-52v64h44c49 0 75 27 75 59c0 35 -29 59 -72 59
c-44 0 -72 -25 -79 -56h-73z" />
    <glyph glyph-name="three.tf" 
d="M65 525c19 128 124 191 240 191c141 0 227 -86 227 -195c0 -87 -61 -134 -105 -151c44 -11 130 -58 130 -171c0 -117 -102 -210 -243 -210c-133 0 -241 70 -257 197h90c14 -68 78 -115 167 -115c88 0 152 53 152 130c0 83 -71 122 -158 122h-87v81h81
c88 0 139 51 139 116c0 67 -50 114 -136 114c-82 0 -135 -43 -151 -109h-89z" />
    <glyph glyph-name="four.dnom" horiz-adv-x="407" 
d="M376 154v-64h-60v-90h-72v90h-213v62l189 274h96v-272h60zM107 154h137v195z" />
    <glyph glyph-name="four.numr" horiz-adv-x="407" 
d="M376 433v-64h-60v-90h-72v90h-213v62l189 274h96v-272h60zM107 433h137v195z" />
    <glyph glyph-name="four.tf" 
d="M477 0h-89v165h-353v72l336 468h106v-461h103v-79h-103v-165zM134 244h254v354z" />
    <glyph glyph-name="five.dnom" horiz-adv-x="400" 
d="M221 280c74 0 142 -50 142 -140s-72 -147 -158 -147c-89 0 -152 52 -161 119h75c7 -21 31 -54 85 -54c46 0 82 33 82 81c0 50 -38 79 -82 79c-31 0 -62 -11 -82 -43h-74l20 250h271v-65h-209l-10 -119c21 22 56 39 101 39z" />
    <glyph glyph-name="five.numr" horiz-adv-x="400" 
d="M221 559c74 0 142 -50 142 -140s-72 -147 -158 -147c-89 0 -152 52 -161 119h75c7 -21 31 -54 85 -54c46 0 82 33 82 81c0 50 -38 79 -82 79c-31 0 -62 -11 -82 -43h-74l20 250h271v-65h-209l-10 -119c21 22 56 39 101 39z" />
    <glyph glyph-name="five.tf" 
d="M314 71c93 0 155 64 155 158s-71 152 -152 152c-69 0 -120 -30 -155 -79h-90l34 403h415v-82h-339l-20 -230c40 44 98 69 169 69c117 0 229 -87 229 -232c0 -147 -108 -241 -245 -241c-143 0 -235 89 -249 191h91c11 -49 62 -109 157 -109z" />
    <glyph glyph-name="six.dnom" horiz-adv-x="405" 
d="M228 279c76 0 143 -53 143 -138c0 -84 -66 -148 -156 -148c-111 0 -177 83 -177 211c0 153 75 228 176 228c82 0 139 -50 148 -112h-74c-7 23 -34 47 -74 47c-57 0 -97 -42 -102 -142c25 35 67 54 116 54zM212 58c47 0 82 35 82 81c0 48 -38 79 -83 79
c-46 0 -85 -33 -85 -79s38 -81 86 -81z" />
    <glyph glyph-name="six.numr" horiz-adv-x="405" 
d="M228 558c76 0 143 -53 143 -138c0 -84 -66 -148 -156 -148c-111 0 -177 83 -177 211c0 153 75 228 176 228c82 0 139 -50 148 -112h-74c-7 23 -34 47 -74 47c-57 0 -97 -42 -102 -142c25 35 67 54 116 54zM212 337c47 0 82 35 82 81c0 48 -38 79 -83 79
c-46 0 -85 -33 -85 -79s38 -81 86 -81z" />
    <glyph glyph-name="six.tf" 
d="M337 462c120 0 229 -90 229 -233s-106 -240 -241 -240c-180 0 -272 142 -272 357c0 256 121 370 274 370c129 0 212 -84 227 -174h-90c-13 44 -55 92 -137 92c-104 0 -183 -78 -186 -281c39 72 116 109 196 109zM322 71c85 0 153 62 153 156c0 93 -68 154 -153 154
s-155 -61 -155 -154c0 -94 70 -156 155 -156z" />
    <glyph glyph-name="seven.dnom" horiz-adv-x="354" 
d="M25 425h298v-59l-168 -366h-82l168 360h-216v65z" />
    <glyph glyph-name="seven.numr" horiz-adv-x="354" 
d="M25 704h298v-59l-168 -366h-82l168 360h-216v65z" />
    <glyph glyph-name="seven.tf" 
d="M539 628l-290 -628h-101l291 623h-374v82h474v-77z" />
    <glyph glyph-name="eight.dnom" horiz-adv-x="403" 
d="M38 117c0 57 43 94 81 105c-31 12 -68 41 -68 94c0 63 59 116 151 116c91 0 150 -53 150 -116c0 -53 -37 -82 -68 -94c38 -11 81 -48 81 -105c0 -69 -66 -124 -163 -124c-98 0 -164 55 -164 124zM278 309c0 36 -31 61 -76 61c-46 0 -77 -25 -77 -61s34 -61 77 -61
c42 0 76 25 76 61zM289 122c0 39 -35 68 -87 68c-53 0 -88 -29 -88 -68s36 -67 88 -67c51 0 87 28 87 67z" />
    <glyph glyph-name="eight.numr" horiz-adv-x="403" 
d="M38 396c0 57 43 94 81 105c-31 12 -68 41 -68 94c0 63 59 116 151 116c91 0 150 -53 150 -116c0 -53 -37 -82 -68 -94c38 -11 81 -48 81 -105c0 -69 -66 -124 -163 -124c-98 0 -164 55 -164 124zM278 588c0 36 -31 61 -76 61c-46 0 -77 -25 -77 -61s34 -61 77 -61
c42 0 76 25 76 61zM289 401c0 39 -35 68 -87 68c-53 0 -88 -29 -88 -68s36 -67 88 -67c51 0 87 28 87 67z" />
    <glyph glyph-name="eight.tf" 
d="M54 192c0 105 80 162 132 176c-45 18 -110 63 -110 158c0 108 91 190 231 190c139 0 231 -82 231 -190c0 -96 -67 -141 -110 -158c48 -13 132 -68 132 -176c0 -122 -106 -203 -253 -203c-148 0 -253 81 -253 203zM448 519c0 71 -58 117 -141 117
c-84 0 -141 -46 -141 -117c0 -70 63 -117 141 -117s141 47 141 117zM469 196c0 80 -70 131 -162 131s-162 -51 -162 -131c0 -75 64 -127 162 -127c97 0 162 52 162 127z" />
    <glyph glyph-name="nine.dnom" horiz-adv-x="405" 
d="M177 146c-76 0 -143 53 -143 138c0 84 66 148 156 148c111 0 177 -83 177 -211c0 -153 -75 -228 -176 -228c-82 0 -139 50 -148 112h74c7 -23 34 -47 74 -47c57 0 97 42 102 142c-25 -35 -67 -54 -116 -54zM193 367c-47 0 -82 -35 -82 -81c0 -48 38 -79 83 -79
c46 0 85 33 85 79s-38 81 -86 81z" />
    <glyph glyph-name="nine.numr" horiz-adv-x="405" 
d="M177 425c-76 0 -143 53 -143 138c0 84 66 148 156 148c111 0 177 -83 177 -211c0 -153 -75 -228 -176 -228c-82 0 -139 50 -148 112h74c7 -23 34 -47 74 -47c57 0 97 42 102 142c-25 -35 -67 -54 -116 -54zM193 646c-47 0 -82 -35 -82 -81c0 -48 38 -79 83 -79
c46 0 85 33 85 79s-38 81 -86 81z" />
    <glyph glyph-name="nine.tf" 
d="M277 243c-119 0 -229 90 -229 233s106 240 241 240c180 0 272 -142 272 -357c0 -256 -121 -370 -274 -370c-129 0 -212 85 -227 174h91c13 -44 54 -92 136 -92c103 0 182 77 186 280c-40 -73 -118 -108 -196 -108zM292 634c-85 0 -153 -62 -153 -156
c0 -93 69 -154 153 -154c86 0 156 61 156 154s-70 156 -156 156z" />
    <glyph glyph-name="colon.case" horiz-adv-x="264" 
d="M132 224c34 0 62 -26 62 -61s-28 -61 -62 -61s-62 26 -62 61s28 61 62 61zM132 602c34 0 62 -26 62 -61s-28 -61 -62 -61s-62 26 -62 61s28 61 62 61z" />
    <glyph glyph-name="less.case" 
d="M540 102l-465 215v71l465 215v-86l-357 -165l357 -164v-86z" />
    <glyph glyph-name="equal.case" 
d="M83 415v79h447v-79h-447zM83 211v79h447v-79h-447z" />
    <glyph glyph-name="equal.dnom" horiz-adv-x="392" 
d="M52 250v62h288v-62h-288zM52 114v63h288v-63h-288z" />
    <glyph glyph-name="equal.numr" horiz-adv-x="392" 
d="M52 528v62h288v-62h-288zM52 392v63h288v-63h-288z" />
    <glyph glyph-name="greater.case" 
d="M75 102v86l357 164l-357 165v86l465 -215v-71z" />
    <glyph glyph-name="at.case" horiz-adv-x="907" 
d="M473 764c229 0 387 -165 387 -386c0 -175 -82 -232 -167 -232c-59 0 -99 29 -118 70c-24 -38 -68 -73 -140 -73c-97 0 -183 76 -183 210c0 125 84 207 186 207c64 0 102 -28 125 -63v53h79v-265c0 -40 24 -68 60 -68c45 0 77 37 77 161c0 182 -117 313 -307 313
c-181 0 -333 -122 -333 -345c0 -218 153 -333 352 -333c57 0 116 9 163 28v-74c-45 -19 -105 -27 -164 -27c-249 0 -432 150 -432 406c0 261 186 418 415 418zM448 216c64 0 115 47 115 132v8c0 80 -48 131 -115 131c-64 0 -112 -50 -112 -134c0 -85 47 -137 112 -137z" />
    <glyph glyph-name="bracketleft.case" horiz-adv-x="366" 
d="M336 718h-145v-733h145v-76h-231v885h231v-76z" />
    <glyph glyph-name="backslash.case" horiz-adv-x="366" 
d="M95 794l261 -885h-85l-261 885h85z" />
    <glyph glyph-name="bracketright.case" horiz-adv-x="366" 
d="M30 -91v76h145v733h-145v76h231v-885h-231z" />
    <glyph glyph-name="a.salt" horiz-adv-x="595" 
d="M272 -11c-114 0 -227 86 -227 263c0 178 114 263 230 263c84 0 139 -39 162 -78v67h83v-504h-83v72c-25 -43 -79 -83 -165 -83zM283 437c-90 0 -150 -75 -150 -185s60 -185 150 -185c93 0 154 71 154 183v4c0 112 -61 183 -154 183z" />
    <glyph glyph-name="braceleft.case" horiz-adv-x="374" 
d="M223 479c0 -80 -22 -114 -76 -129c54 -15 76 -50 76 -130v-128c0 -81 26 -107 89 -107h32v-76h-37c-101 0 -170 49 -170 174v125c0 67 -17 104 -77 104h-35v75h35c60 0 77 37 77 104v129c0 125 69 174 170 174h37v-76h-32c-63 0 -89 -26 -89 -107v-132z" />
    <glyph glyph-name="bar.case" horiz-adv-x="270" 
d="M95 794h80v-885h-80v885z" />
    <glyph glyph-name="braceright.case" horiz-adv-x="374" 
d="M151 479v132c0 81 -26 107 -89 107h-32v76h37c101 0 170 -49 170 -174v-129c0 -67 17 -104 77 -104h35v-75h-35c-60 0 -77 -37 -77 -104v-125c0 -125 -69 -174 -170 -174h-37v76h32c63 0 89 26 89 107v128c0 80 22 115 76 130c-54 15 -76 49 -76 129z" />
    <glyph glyph-name="asciitilde.case" 
d="M476 436h78v-30c0 -93 -60 -147 -138 -147c-108 0 -148 105 -216 105c-37 0 -62 -27 -62 -72v-24h-78v30c0 93 60 147 138 147c108 0 148 -105 216 -105c37 0 62 27 62 72v24z" />
    <glyph glyph-name="brokenbar.case" horiz-adv-x="270" 
d="M175 276v-367h-80v367h80zM95 427v367h80v-367h-80z" />
    <glyph glyph-name="copyright.case" horiz-adv-x="882" 
d="M441 28c178 0 311 135 311 324s-133 324 -311 324s-311 -135 -311 -324s133 -324 311 -324zM441 -47c-220 0 -389 168 -389 399s169 399 389 399s389 -168 389 -399s-169 -399 -389 -399zM438 210c63 0 91 37 100 72h79c-8 -77 -79 -145 -179 -145
c-117 0 -196 90 -196 215s78 218 196 218c110 0 170 -75 179 -144h-79c-11 35 -40 70 -100 70c-68 0 -115 -53 -115 -144c0 -90 46 -142 115 -142z" />
    <glyph glyph-name="logicalnot.case" 
d="M80 470h447v-266h-83v184h-364v82z" />
    <glyph glyph-name="registered.case" horiz-adv-x="884" 
d="M442 -48c-220 0 -390 169 -390 400s170 400 390 400s390 -169 390 -400s-170 -400 -390 -400zM442 28c178 0 311 135 311 324s-133 324 -311 324s-311 -135 -311 -324s133 -324 311 -324zM595 420c0 -49 -27 -91 -67 -114l93 -150h-87l-82 131h-75v-131h-77v394h156
c85 0 139 -55 139 -130zM447 483h-70v-130h70c41 0 69 25 69 66s-27 64 -69 64z" />
    <glyph glyph-name="plusminus.case" 
d="M532 343h-185v-173h183v-76h-445v76h182v173h-185v76h185v184h80v-184h185v-76z" />
    <glyph glyph-name="periodcentered.case" horiz-adv-x="264" 
d="M132 413c34 0 62 -26 62 -61s-28 -61 -62 -61s-62 26 -62 61s28 61 62 61z" />
    <glyph glyph-name="multiply.case" 
d="M528 186l-55 -54l-166 166l-166 -166l-55 54l166 166l-165 166l54 55l166 -166l166 166l54 -55l-166 -166z" />
    <glyph glyph-name="agrave.salt" horiz-adv-x="595" 
d="M272 -11c-114 0 -227 86 -227 263c0 178 114 263 230 263c84 0 139 -39 162 -78v67h83v-504h-83v72c-25 -43 -79 -83 -165 -83zM283 437c-90 0 -150 -75 -150 -185s60 -185 150 -185c93 0 154 71 154 183v4c0 112 -61 183 -154 183zM142 735h93l95 -154h-87z" />
    <glyph glyph-name="aacute.salt" horiz-adv-x="595" 
d="M272 -11c-114 0 -227 86 -227 263c0 178 114 263 230 263c84 0 139 -39 162 -78v67h83v-504h-83v72c-25 -43 -79 -83 -165 -83zM283 437c-90 0 -150 -75 -150 -185s60 -185 150 -185c93 0 154 71 154 183v4c0 112 -61 183 -154 183zM436 735l-101 -154h-87l95 154h93z
" />
    <glyph glyph-name="acircumflex.salt" horiz-adv-x="595" 
d="M272 -11c-114 0 -227 86 -227 263c0 178 114 263 230 263c84 0 139 -39 162 -78v67h83v-504h-83v72c-25 -43 -79 -83 -165 -83zM283 437c-90 0 -150 -75 -150 -185s60 -185 150 -185c93 0 154 71 154 183v4c0 112 -61 183 -154 183zM211 581h-91l127 154h84l128 -154h-91
l-79 91z" />
    <glyph glyph-name="atilde.salt" horiz-adv-x="595" 
d="M272 -11c-114 0 -227 86 -227 263c0 178 114 263 230 263c84 0 139 -39 162 -78v67h83v-504h-83v72c-25 -43 -79 -83 -165 -83zM283 437c-90 0 -150 -75 -150 -185s60 -185 150 -185c93 0 154 71 154 183v4c0 112 -61 183 -154 183zM386 719h65v-16
c0 -71 -38 -113 -97 -113c-72 0 -91 64 -128 64c-18 0 -34 -14 -34 -42v-16h-65v16c0 71 38 113 97 113c72 0 91 -64 128 -64c18 0 34 14 34 42v16z" />
    <glyph glyph-name="adieresis.salt" horiz-adv-x="595" 
d="M272 -11c-114 0 -227 86 -227 263c0 178 114 263 230 263c84 0 139 -39 162 -78v67h83v-504h-83v72c-25 -43 -79 -83 -165 -83zM283 437c-90 0 -150 -75 -150 -185s60 -185 150 -185c93 0 154 71 154 183v4c0 112 -61 183 -154 183zM186 715c33 0 59 -25 59 -58
s-26 -58 -59 -58s-59 25 -59 58s26 58 59 58zM392 715c33 0 59 -25 59 -58s-26 -58 -59 -58s-59 25 -59 58s26 58 59 58z" />
    <glyph glyph-name="aring.salt" horiz-adv-x="595" 
d="M272 -11c-114 0 -227 86 -227 263c0 178 114 263 230 263c84 0 139 -39 162 -78v67h83v-504h-83v72c-25 -43 -79 -83 -165 -83zM283 437c-90 0 -150 -75 -150 -185s60 -185 150 -185c93 0 154 71 154 183v4c0 112 -61 183 -154 183zM395 667c0 -59 -45 -103 -106 -103
s-106 44 -106 103s45 103 106 103s106 -44 106 -103zM243 667c0 -27 21 -46 46 -46s46 19 46 46s-21 46 -46 46s-46 -19 -46 -46z" />
    <glyph glyph-name="divide.case" 
d="M307 601c33 0 60 -25 60 -59s-27 -59 -60 -59c-34 0 -61 25 -61 59s27 59 61 59zM542 313h-470v78h470v-78zM307 220c33 0 60 -25 60 -59s-27 -59 -60 -59c-34 0 -61 25 -61 59s27 59 61 59z" />
    <glyph glyph-name="amacron.salt" horiz-adv-x="595" 
d="M272 -11c-114 0 -227 86 -227 263c0 178 114 263 230 263c84 0 139 -39 162 -78v67h83v-504h-83v72c-25 -43 -79 -83 -165 -83zM283 437c-90 0 -150 -75 -150 -185s60 -185 150 -185c93 0 154 71 154 183v4c0 112 -61 183 -154 183zM142 694h294v-74h-294v74z" />
    <glyph glyph-name="abreve.salt" horiz-adv-x="595" 
d="M272 -11c-114 0 -227 86 -227 263c0 178 114 263 230 263c84 0 139 -39 162 -78v67h83v-504h-83v72c-25 -43 -79 -83 -165 -83zM283 437c-90 0 -150 -75 -150 -185s60 -185 150 -185c93 0 154 71 154 183v4c0 112 -61 183 -154 183zM207 735c0 -48 28 -88 82 -88
s82 40 82 88h77c-2 -93 -65 -156 -159 -156s-157 63 -159 156h77z" />
    <glyph glyph-name="aogonek.salt" horiz-adv-x="595" 
d="M272 -11c-114 0 -227 86 -227 263c0 178 114 263 230 263c84 0 139 -39 162 -78v67h83v-504c-44 -27 -85 -70 -85 -110c0 -31 20 -51 59 -51h34v-68h-51c-83 0 -123 44 -123 100c0 57 39 110 83 138v63c-25 -43 -79 -83 -165 -83zM283 437c-90 0 -150 -75 -150 -185
s60 -185 150 -185c93 0 154 71 154 183v4c0 112 -61 183 -154 183z" />
    <glyph glyph-name="uni01CE.salt" horiz-adv-x="595" 
d="M272 -11c-114 0 -227 86 -227 263c0 178 114 263 230 263c84 0 139 -39 162 -78v67h83v-504h-83v72c-25 -43 -79 -83 -165 -83zM283 437c-90 0 -150 -75 -150 -185s60 -185 150 -185c93 0 154 71 154 183v4c0 112 -61 183 -154 183zM211 735l78 -91l79 91h91l-128 -154
h-84l-127 154h91z" />
    <glyph glyph-name="caron.alt" horiz-adv-x="96" 
d="M104 675c0 -14 -4 -29 -10 -45l-46 -124h-67l43 120c-20 5 -40 23 -40 52c0 33 25 56 58 56c34 0 62 -24 62 -59z" />
    <glyph glyph-name="gravecomb.case" horiz-adv-x="0" 
d="M-147 927h93l95 -154h-87z" />
    <glyph glyph-name="acutecomb.case" horiz-adv-x="0" 
d="M147 927l-101 -154h-87l95 154h93z" />
    <glyph glyph-name="uni0302.case" horiz-adv-x="0" 
d="M-83 773h-91l132 154h84l132 -154h-91l-83 91z" />
    <glyph glyph-name="tildecomb.case" horiz-adv-x="0" 
d="M100 911h65v-18c0 -69 -38 -111 -97 -111c-73 0 -97 64 -134 64c-19 0 -34 -15 -34 -43v-15h-65v18c0 69 38 111 97 111c73 0 97 -64 134 -64c19 0 34 15 34 43v15z" />
    <glyph glyph-name="uni0304.case" horiz-adv-x="0" 
d="M-151 886h302v-74h-302v74z" />
    <glyph glyph-name="uni0306.case" horiz-adv-x="0" 
d="M-86 927c0 -48 32 -88 86 -88s86 40 86 88h77c-2 -93 -69 -156 -163 -156s-161 63 -163 156h77z" />
    <glyph glyph-name="uni0307.case" horiz-adv-x="0" 
d="M0 907c33 0 59 -25 59 -58s-26 -58 -59 -58s-59 25 -59 58s26 58 59 58z" />
    <glyph glyph-name="uni0308.case" horiz-adv-x="0" 
d="M-107 907c33 0 59 -25 59 -58s-26 -58 -59 -58s-59 25 -59 58s26 58 59 58zM107 907c33 0 59 -25 59 -58s-26 -58 -59 -58s-59 25 -59 58s26 58 59 58z" />
    <glyph glyph-name="uni030A.case" horiz-adv-x="0" 
d="M106 859c0 -59 -45 -103 -106 -103s-106 44 -106 103s45 103 106 103s106 -44 106 -103zM-46 859c0 -27 21 -46 46 -46s46 19 46 46s-21 46 -46 46s-46 -19 -46 -46z" />
    <glyph glyph-name="uni030B.case" horiz-adv-x="0" 
d="M52 927l-95 -154h-84l89 154h90zM222 927l-95 -154h-84l89 154h90z" />
    <glyph glyph-name="uni030C.case" horiz-adv-x="0" 
d="M-83 927l83 -91l83 91h91l-132 -154h-84l-132 154h91z" />
    <glyph glyph-name="tonos.case" horiz-adv-x="288" 
d="M238 704l-101 -154h-87l95 154h93z" />
    <glyph glyph-name="anoteleia.case" horiz-adv-x="264" 
d="M132 413c34 0 62 -26 62 -61s-28 -61 -62 -61s-62 26 -62 61s28 61 62 61z" />
    <glyph glyph-name="uni0414.loclBGR" horiz-adv-x="752" 
d="M722 83v-217h-86v134h-520v-134h-86v217h62l238 621h92l237 -621h63zM376 585l-188 -502h376z" />
    <glyph glyph-name="uni0416.loclBGR" horiz-adv-x="933" 
d="M422 0v344l-294 -344h-111l311 366l-304 338h111l287 -317v317h89v-317l287 317h111l-304 -336l311 -368h-111l-294 344v-344h-89z" />
    <glyph glyph-name="uni041A.loclBGR" horiz-adv-x="626" 
d="M177 0h-89v704h89v-314l313 314h115l-334 -337l340 -367h-118l-316 336v-336z" />
    <glyph glyph-name="uni041B.loclBGR" horiz-adv-x="654" 
d="M23 0l258 704h92l258 -704h-96l-208 584l-208 -584h-96z" />
    <glyph glyph-name="uni0430.salt" horiz-adv-x="595" 
d="M272 -11c-114 0 -227 86 -227 263c0 178 114 263 230 263c84 0 139 -39 162 -78v67h83v-504h-83v72c-25 -43 -79 -83 -165 -83zM283 437c-90 0 -150 -75 -150 -185s60 -185 150 -185c93 0 154 71 154 183v4c0 112 -61 183 -154 183z" />
    <glyph glyph-name="uni0431.loclSRB" horiz-adv-x="580" 
d="M229 649c-45 0 -70 -21 -70 -53c0 -46 56 -63 116 -77c53 -12 92 -22 121 -36c74 -35 139 -101 139 -235c0 -147 -95 -259 -245 -259s-245 110 -245 257c0 122 61 195 146 224c-81 24 -120 68 -120 130c0 74 57 127 156 127h269v-78h-267zM290 67c95 0 157 76 157 181
c0 115 -69 179 -157 179s-157 -64 -157 -179c0 -105 62 -181 157 -181z" />
    <glyph glyph-name="uni0432.loclBGR" horiz-adv-x="559" 
d="M385 394c52 -16 126 -69 126 -185c0 -125 -77 -220 -219 -220c-145 0 -222 98 -222 221v315c0 128 81 213 211 213c132 0 200 -94 200 -188c0 -87 -50 -137 -96 -156zM292 67c87 0 131 60 131 144c0 88 -57 138 -154 138h-114v-139c0 -80 51 -143 137 -143zM155 525v-99
h111c85 0 127 54 127 120c0 63 -39 114 -113 114c-80 0 -125 -50 -125 -135z" />
    <glyph glyph-name="uni0433.loclBGR" horiz-adv-x="495" 
d="M366 141h85c-13 -112 -117 -152 -213 -152c-106 0 -194 50 -194 152c0 90 66 132 148 145l90 14c48 7 72 29 72 66c0 42 -39 73 -103 73c-58 0 -97 -23 -113 -68h-84c16 91 94 144 199 144c109 0 187 -64 187 -154c0 -88 -62 -124 -143 -137l-90 -14
c-48 -7 -77 -33 -77 -71c0 -49 44 -74 110 -74c69 0 115 30 126 76z" />
    <glyph glyph-name="uni0434.loclBGR" horiz-adv-x="595" 
d="M437 504h83v-473c0 -147 -90 -239 -235 -239c-140 0 -209 79 -216 153h85c13 -36 45 -75 132 -75c95 0 148 62 148 161v46c-26 -40 -79 -78 -162 -78c-114 0 -227 86 -227 258c0 173 114 258 230 258c84 0 139 -38 162 -78v67zM283 77c93 0 154 72 154 178v4
c0 106 -61 178 -154 178c-90 0 -150 -75 -150 -180s60 -180 150 -180z" />
    </font>
</defs>
</svg>
